<svg width="2624" height="599" viewBox="0 0 2624 599" fill="none" xmlns="http://www.w3.org/2000/svg">
<path d="M1882.97 489.75H1891.97V535.922C1891.97 541.047 1890.83 545.312 1888.55 548.719C1886.27 552.125 1883.23 554.688 1879.45 556.406C1875.7 558.094 1871.62 558.938 1867.22 558.938C1862.59 558.938 1858.41 558.094 1854.66 556.406C1850.94 554.688 1847.98 552.125 1845.8 548.719C1843.64 545.312 1842.56 541.047 1842.56 535.922V489.75H1851.52V535.922C1851.52 539.484 1852.17 542.422 1853.48 544.734C1854.8 547.047 1856.62 548.766 1858.97 549.891C1861.34 551.016 1864.09 551.578 1867.22 551.578C1870.38 551.578 1873.12 551.016 1875.47 549.891C1877.84 548.766 1879.69 547.047 1881 544.734C1882.31 542.422 1882.97 539.484 1882.97 535.922V489.75ZM1913.53 518.109V558H1904.86V507.281H1913.06L1913.53 518.109ZM1911.47 530.719L1907.86 530.578C1907.89 527.109 1908.41 523.906 1909.41 520.969C1910.41 518 1911.81 515.422 1913.62 513.234C1915.44 511.047 1917.59 509.359 1920.09 508.172C1922.62 506.953 1925.42 506.344 1928.48 506.344C1930.98 506.344 1933.23 506.688 1935.23 507.375C1937.23 508.031 1938.94 509.094 1940.34 510.562C1941.78 512.031 1942.88 513.938 1943.62 516.281C1944.38 518.594 1944.75 521.422 1944.75 524.766V558H1936.03V524.672C1936.03 522.016 1935.64 519.891 1934.86 518.297C1934.08 516.672 1932.94 515.5 1931.44 514.781C1929.94 514.031 1928.09 513.656 1925.91 513.656C1923.75 513.656 1921.78 514.109 1920 515.016C1918.25 515.922 1916.73 517.172 1915.45 518.766C1914.2 520.359 1913.22 522.188 1912.5 524.25C1911.81 526.281 1911.47 528.438 1911.47 530.719ZM1955.62 533.203V532.125C1955.62 528.469 1956.16 525.078 1957.22 521.953C1958.28 518.797 1959.81 516.062 1961.81 513.75C1963.81 511.406 1966.23 509.594 1969.08 508.312C1971.92 507 1975.11 506.344 1978.64 506.344C1982.2 506.344 1985.41 507 1988.25 508.312C1991.12 509.594 1993.56 511.406 1995.56 513.75C1997.59 516.062 1999.14 518.797 2000.2 521.953C2001.27 525.078 2001.8 528.469 2001.8 532.125V533.203C2001.8 536.859 2001.27 540.25 2000.2 543.375C1999.14 546.5 1997.59 549.234 1995.56 551.578C1993.56 553.891 1991.14 555.703 1988.3 557.016C1985.48 558.297 1982.3 558.938 1978.73 558.938C1975.17 558.938 1971.97 558.297 1969.12 557.016C1966.28 555.703 1963.84 553.891 1961.81 551.578C1959.81 549.234 1958.28 546.5 1957.22 543.375C1956.16 540.25 1955.62 536.859 1955.62 533.203ZM1964.3 532.125V533.203C1964.3 535.734 1964.59 538.125 1965.19 540.375C1965.78 542.594 1966.67 544.562 1967.86 546.281C1969.08 548 1970.59 549.359 1972.41 550.359C1974.22 551.328 1976.33 551.812 1978.73 551.812C1981.11 551.812 1983.19 551.328 1984.97 550.359C1986.78 549.359 1988.28 548 1989.47 546.281C1990.66 544.562 1991.55 542.594 1992.14 540.375C1992.77 538.125 1993.08 535.734 1993.08 533.203V532.125C1993.08 529.625 1992.77 527.266 1992.14 525.047C1991.55 522.797 1990.64 520.812 1989.42 519.094C1988.23 517.344 1986.73 515.969 1984.92 514.969C1983.14 513.969 1981.05 513.469 1978.64 513.469C1976.27 513.469 1974.17 513.969 1972.36 514.969C1970.58 515.969 1969.08 517.344 1967.86 519.094C1966.67 520.812 1965.78 522.797 1965.19 525.047C1964.59 527.266 1964.3 529.625 1964.3 532.125ZM2025.61 558H2016.94V501.938C2016.94 498.281 2017.59 495.203 2018.91 492.703C2020.25 490.172 2022.17 488.266 2024.67 486.984C2027.17 485.672 2030.14 485.016 2033.58 485.016C2034.58 485.016 2035.58 485.078 2036.58 485.203C2037.61 485.328 2038.61 485.516 2039.58 485.766L2039.11 492.844C2038.45 492.688 2037.7 492.578 2036.86 492.516C2036.05 492.453 2035.23 492.422 2034.42 492.422C2032.58 492.422 2030.98 492.797 2029.64 493.547C2028.33 494.266 2027.33 495.328 2026.64 496.734C2025.95 498.141 2025.61 499.875 2025.61 501.938V558ZM2036.86 507.281V513.938H2008.92V507.281H2036.86ZM2053.03 558H2044.36V502.875C2044.36 499.031 2045.09 495.781 2046.56 493.125C2048.06 490.469 2050.2 488.453 2052.98 487.078C2055.77 485.703 2059.06 485.016 2062.88 485.016C2065.16 485.016 2067.38 485.297 2069.53 485.859C2071.69 486.391 2073.91 487.062 2076.19 487.875L2074.69 495.188C2073.28 494.625 2071.62 494.094 2069.72 493.594C2067.81 493.062 2065.75 492.797 2063.53 492.797C2059.81 492.797 2057.12 493.641 2055.47 495.328C2053.84 496.984 2053.03 499.5 2053.03 502.875V558ZM2063.39 507.281V513.938H2036.34V507.281H2063.39ZM2080.45 507.281V558H2071.78V507.281H2080.45ZM2114.91 551.812C2116.97 551.812 2118.88 551.391 2120.62 550.547C2122.38 549.703 2123.81 548.547 2124.94 547.078C2126.06 545.578 2126.7 543.875 2126.86 541.969H2135.11C2134.95 544.969 2133.94 547.766 2132.06 550.359C2130.22 552.922 2127.8 555 2124.8 556.594C2121.8 558.156 2118.5 558.938 2114.91 558.938C2111.09 558.938 2107.77 558.266 2104.92 556.922C2102.11 555.578 2099.77 553.734 2097.89 551.391C2096.05 549.047 2094.66 546.359 2093.72 543.328C2092.81 540.266 2092.36 537.031 2092.36 533.625V531.656C2092.36 528.25 2092.81 525.031 2093.72 522C2094.66 518.938 2096.05 516.234 2097.89 513.891C2099.77 511.547 2102.11 509.703 2104.92 508.359C2107.77 507.016 2111.09 506.344 2114.91 506.344C2118.88 506.344 2122.34 507.156 2125.31 508.781C2128.28 510.375 2130.61 512.562 2132.3 515.344C2134.02 518.094 2134.95 521.219 2135.11 524.719H2126.86C2126.7 522.625 2126.11 520.734 2125.08 519.047C2124.08 517.359 2122.7 516.016 2120.95 515.016C2119.23 513.984 2117.22 513.469 2114.91 513.469C2112.25 513.469 2110.02 514 2108.2 515.062C2106.42 516.094 2105 517.5 2103.94 519.281C2102.91 521.031 2102.16 522.984 2101.69 525.141C2101.25 527.266 2101.03 529.438 2101.03 531.656V533.625C2101.03 535.844 2101.25 538.031 2101.69 540.188C2102.12 542.344 2102.86 544.297 2103.89 546.047C2104.95 547.797 2106.38 549.203 2108.16 550.266C2109.97 551.297 2112.22 551.812 2114.91 551.812ZM2154.28 507.281V558H2145.56V507.281H2154.28ZM2144.91 493.828C2144.91 492.422 2145.33 491.234 2146.17 490.266C2147.05 489.297 2148.33 488.812 2150.02 488.812C2151.67 488.812 2152.94 489.297 2153.81 490.266C2154.72 491.234 2155.17 492.422 2155.17 493.828C2155.17 495.172 2154.72 496.328 2153.81 497.297C2152.94 498.234 2151.67 498.703 2150.02 498.703C2148.33 498.703 2147.05 498.234 2146.17 497.297C2145.33 496.328 2144.91 495.172 2144.91 493.828ZM2198.11 549.328V523.219C2198.11 521.219 2197.7 519.484 2196.89 518.016C2196.11 516.516 2194.92 515.359 2193.33 514.547C2191.73 513.734 2189.77 513.328 2187.42 513.328C2185.23 513.328 2183.31 513.703 2181.66 514.453C2180.03 515.203 2178.75 516.188 2177.81 517.406C2176.91 518.625 2176.45 519.938 2176.45 521.344H2167.78C2167.78 519.531 2168.25 517.734 2169.19 515.953C2170.12 514.172 2171.47 512.562 2173.22 511.125C2175 509.656 2177.12 508.5 2179.59 507.656C2182.09 506.781 2184.88 506.344 2187.94 506.344C2191.62 506.344 2194.88 506.969 2197.69 508.219C2200.53 509.469 2202.75 511.359 2204.34 513.891C2205.97 516.391 2206.78 519.531 2206.78 523.312V546.938C2206.78 548.625 2206.92 550.422 2207.2 552.328C2207.52 554.234 2207.97 555.875 2208.56 557.25V558H2199.52C2199.08 557 2198.73 555.672 2198.48 554.016C2198.23 552.328 2198.11 550.766 2198.11 549.328ZM2199.61 527.25L2199.7 533.344H2190.94C2188.47 533.344 2186.27 533.547 2184.33 533.953C2182.39 534.328 2180.77 534.906 2179.45 535.688C2178.14 536.469 2177.14 537.453 2176.45 538.641C2175.77 539.797 2175.42 541.156 2175.42 542.719C2175.42 544.312 2175.78 545.766 2176.5 547.078C2177.22 548.391 2178.3 549.438 2179.73 550.219C2181.2 550.969 2183 551.344 2185.12 551.344C2187.78 551.344 2190.12 550.781 2192.16 549.656C2194.19 548.531 2195.8 547.156 2196.98 545.531C2198.2 543.906 2198.86 542.328 2198.95 540.797L2202.66 544.969C2202.44 546.281 2201.84 547.734 2200.88 549.328C2199.91 550.922 2198.61 552.453 2196.98 553.922C2195.39 555.359 2193.48 556.562 2191.27 557.531C2189.08 558.469 2186.61 558.938 2183.86 558.938C2180.42 558.938 2177.41 558.266 2174.81 556.922C2172.25 555.578 2170.25 553.781 2168.81 551.531C2167.41 549.25 2166.7 546.703 2166.7 543.891C2166.7 541.172 2167.23 538.781 2168.3 536.719C2169.36 534.625 2170.89 532.891 2172.89 531.516C2174.89 530.109 2177.3 529.047 2180.11 528.328C2182.92 527.609 2186.06 527.25 2189.53 527.25H2199.61ZM2229.84 486V558H2221.12V486H2229.84ZM2276.25 517.031V577.5H2267.53V507.281H2275.5L2276.25 517.031ZM2310.42 532.219V533.203C2310.42 536.891 2309.98 540.312 2309.11 543.469C2308.23 546.594 2306.95 549.312 2305.27 551.625C2303.61 553.938 2301.56 555.734 2299.12 557.016C2296.69 558.297 2293.89 558.938 2290.73 558.938C2287.52 558.938 2284.67 558.406 2282.2 557.344C2279.73 556.281 2277.64 554.734 2275.92 552.703C2274.2 550.672 2272.83 548.234 2271.8 545.391C2270.8 542.547 2270.11 539.344 2269.73 535.781V530.531C2270.11 526.781 2270.81 523.422 2271.84 520.453C2272.88 517.484 2274.23 514.953 2275.92 512.859C2277.64 510.734 2279.72 509.125 2282.16 508.031C2284.59 506.906 2287.41 506.344 2290.59 506.344C2293.78 506.344 2296.61 506.969 2299.08 508.219C2301.55 509.438 2303.62 511.188 2305.31 513.469C2307 515.75 2308.27 518.484 2309.11 521.672C2309.98 524.828 2310.42 528.344 2310.42 532.219ZM2301.7 533.203V532.219C2301.7 529.688 2301.44 527.312 2300.91 525.094C2300.38 522.844 2299.55 520.875 2298.42 519.188C2297.33 517.469 2295.92 516.125 2294.2 515.156C2292.48 514.156 2290.44 513.656 2288.06 513.656C2285.88 513.656 2283.97 514.031 2282.34 514.781C2280.75 515.531 2279.39 516.547 2278.27 517.828C2277.14 519.078 2276.22 520.516 2275.5 522.141C2274.81 523.734 2274.3 525.391 2273.95 527.109V539.25C2274.58 541.438 2275.45 543.5 2276.58 545.438C2277.7 547.344 2279.2 548.891 2281.08 550.078C2282.95 551.234 2285.31 551.812 2288.16 551.812C2290.5 551.812 2292.52 551.328 2294.2 550.359C2295.92 549.359 2297.33 548 2298.42 546.281C2299.55 544.562 2300.38 542.594 2300.91 540.375C2301.44 538.125 2301.7 535.734 2301.7 533.203ZM2351.39 549.328V523.219C2351.39 521.219 2350.98 519.484 2350.17 518.016C2349.39 516.516 2348.2 515.359 2346.61 514.547C2345.02 513.734 2343.05 513.328 2340.7 513.328C2338.52 513.328 2336.59 513.703 2334.94 514.453C2333.31 515.203 2332.03 516.188 2331.09 517.406C2330.19 518.625 2329.73 519.938 2329.73 521.344H2321.06C2321.06 519.531 2321.53 517.734 2322.47 515.953C2323.41 514.172 2324.75 512.562 2326.5 511.125C2328.28 509.656 2330.41 508.5 2332.88 507.656C2335.38 506.781 2338.16 506.344 2341.22 506.344C2344.91 506.344 2348.16 506.969 2350.97 508.219C2353.81 509.469 2356.03 511.359 2357.62 513.891C2359.25 516.391 2360.06 519.531 2360.06 523.312V546.938C2360.06 548.625 2360.2 550.422 2360.48 552.328C2360.8 554.234 2361.25 555.875 2361.84 557.25V558H2352.8C2352.36 557 2352.02 555.672 2351.77 554.016C2351.52 552.328 2351.39 550.766 2351.39 549.328ZM2352.89 527.25L2352.98 533.344H2344.22C2341.75 533.344 2339.55 533.547 2337.61 533.953C2335.67 534.328 2334.05 534.906 2332.73 535.688C2331.42 536.469 2330.42 537.453 2329.73 538.641C2329.05 539.797 2328.7 541.156 2328.7 542.719C2328.7 544.312 2329.06 545.766 2329.78 547.078C2330.5 548.391 2331.58 549.438 2333.02 550.219C2334.48 550.969 2336.28 551.344 2338.41 551.344C2341.06 551.344 2343.41 550.781 2345.44 549.656C2347.47 548.531 2349.08 547.156 2350.27 545.531C2351.48 543.906 2352.14 542.328 2352.23 540.797L2355.94 544.969C2355.72 546.281 2355.12 547.734 2354.16 549.328C2353.19 550.922 2351.89 552.453 2350.27 553.922C2348.67 555.359 2346.77 556.562 2344.55 557.531C2342.36 558.469 2339.89 558.938 2337.14 558.938C2333.7 558.938 2330.69 558.266 2328.09 556.922C2325.53 555.578 2323.53 553.781 2322.09 551.531C2320.69 549.25 2319.98 546.703 2319.98 543.891C2319.98 541.172 2320.52 538.781 2321.58 536.719C2322.64 534.625 2324.17 532.891 2326.17 531.516C2328.17 530.109 2330.58 529.047 2333.39 528.328C2336.2 527.609 2339.34 527.25 2342.81 527.25H2352.89ZM2394 551.812C2396.06 551.812 2397.97 551.391 2399.72 550.547C2401.47 549.703 2402.91 548.547 2404.03 547.078C2405.16 545.578 2405.8 543.875 2405.95 541.969H2414.2C2414.05 544.969 2413.03 547.766 2411.16 550.359C2409.31 552.922 2406.89 555 2403.89 556.594C2400.89 558.156 2397.59 558.938 2394 558.938C2390.19 558.938 2386.86 558.266 2384.02 556.922C2381.2 555.578 2378.86 553.734 2376.98 551.391C2375.14 549.047 2373.75 546.359 2372.81 543.328C2371.91 540.266 2371.45 537.031 2371.45 533.625V531.656C2371.45 528.25 2371.91 525.031 2372.81 522C2373.75 518.938 2375.14 516.234 2376.98 513.891C2378.86 511.547 2381.2 509.703 2384.02 508.359C2386.86 507.016 2390.19 506.344 2394 506.344C2397.97 506.344 2401.44 507.156 2404.41 508.781C2407.38 510.375 2409.7 512.562 2411.39 515.344C2413.11 518.094 2414.05 521.219 2414.2 524.719H2405.95C2405.8 522.625 2405.2 520.734 2404.17 519.047C2403.17 517.359 2401.8 516.016 2400.05 515.016C2398.33 513.984 2396.31 513.469 2394 513.469C2391.34 513.469 2389.11 514 2387.3 515.062C2385.52 516.094 2384.09 517.5 2383.03 519.281C2382 521.031 2381.25 522.984 2380.78 525.141C2380.34 527.266 2380.12 529.438 2380.12 531.656V533.625C2380.12 535.844 2380.34 538.031 2380.78 540.188C2381.22 542.344 2381.95 544.297 2382.98 546.047C2384.05 547.797 2385.47 549.203 2387.25 550.266C2389.06 551.297 2391.31 551.812 2394 551.812ZM2432.67 486V558H2423.95V486H2432.67ZM2463.66 507.281L2441.53 530.953L2429.16 543.797L2428.45 534.562L2437.31 523.969L2453.06 507.281H2463.66ZM2455.73 558L2437.64 533.812L2442.14 526.078L2465.95 558H2455.73ZM2502.52 549.328V523.219C2502.52 521.219 2502.11 519.484 2501.3 518.016C2500.52 516.516 2499.33 515.359 2497.73 514.547C2496.14 513.734 2494.17 513.328 2491.83 513.328C2489.64 513.328 2487.72 513.703 2486.06 514.453C2484.44 515.203 2483.16 516.188 2482.22 517.406C2481.31 518.625 2480.86 519.938 2480.86 521.344H2472.19C2472.19 519.531 2472.66 517.734 2473.59 515.953C2474.53 514.172 2475.88 512.562 2477.62 511.125C2479.41 509.656 2481.53 508.5 2484 507.656C2486.5 506.781 2489.28 506.344 2492.34 506.344C2496.03 506.344 2499.28 506.969 2502.09 508.219C2504.94 509.469 2507.16 511.359 2508.75 513.891C2510.38 516.391 2511.19 519.531 2511.19 523.312V546.938C2511.19 548.625 2511.33 550.422 2511.61 552.328C2511.92 554.234 2512.38 555.875 2512.97 557.25V558H2503.92C2503.48 557 2503.14 555.672 2502.89 554.016C2502.64 552.328 2502.52 550.766 2502.52 549.328ZM2504.02 527.25L2504.11 533.344H2495.34C2492.88 533.344 2490.67 533.547 2488.73 533.953C2486.8 534.328 2485.17 534.906 2483.86 535.688C2482.55 536.469 2481.55 537.453 2480.86 538.641C2480.17 539.797 2479.83 541.156 2479.83 542.719C2479.83 544.312 2480.19 545.766 2480.91 547.078C2481.62 548.391 2482.7 549.438 2484.14 550.219C2485.61 550.969 2487.41 551.344 2489.53 551.344C2492.19 551.344 2494.53 550.781 2496.56 549.656C2498.59 548.531 2500.2 547.156 2501.39 545.531C2502.61 543.906 2503.27 542.328 2503.36 540.797L2507.06 544.969C2506.84 546.281 2506.25 547.734 2505.28 549.328C2504.31 550.922 2503.02 552.453 2501.39 553.922C2499.8 555.359 2497.89 556.562 2495.67 557.531C2493.48 558.469 2491.02 558.938 2488.27 558.938C2484.83 558.938 2481.81 558.266 2479.22 556.922C2476.66 555.578 2474.66 553.781 2473.22 551.531C2471.81 549.25 2471.11 546.703 2471.11 543.891C2471.11 541.172 2471.64 538.781 2472.7 536.719C2473.77 534.625 2475.3 532.891 2477.3 531.516C2479.3 530.109 2481.7 529.047 2484.52 528.328C2487.33 527.609 2490.47 527.25 2493.94 527.25H2504.02ZM2557.69 507.281H2565.56V556.922C2565.56 561.391 2564.66 565.203 2562.84 568.359C2561.03 571.516 2558.5 573.906 2555.25 575.531C2552.03 577.188 2548.31 578.016 2544.09 578.016C2542.34 578.016 2540.28 577.734 2537.91 577.172C2535.56 576.641 2533.25 575.719 2530.97 574.406C2528.72 573.125 2526.83 571.391 2525.3 569.203L2529.84 564.047C2531.97 566.609 2534.19 568.391 2536.5 569.391C2538.84 570.391 2541.16 570.891 2543.44 570.891C2546.19 570.891 2548.56 570.375 2550.56 569.344C2552.56 568.312 2554.11 566.781 2555.2 564.75C2556.33 562.75 2556.89 560.281 2556.89 557.344V518.438L2557.69 507.281ZM2522.77 533.203V532.219C2522.77 528.344 2523.22 524.828 2524.12 521.672C2525.06 518.484 2526.39 515.75 2528.11 513.469C2529.86 511.188 2531.97 509.438 2534.44 508.219C2536.91 506.969 2539.69 506.344 2542.78 506.344C2545.97 506.344 2548.75 506.906 2551.12 508.031C2553.53 509.125 2555.56 510.734 2557.22 512.859C2558.91 514.953 2560.23 517.484 2561.2 520.453C2562.17 523.422 2562.84 526.781 2563.22 530.531V534.844C2562.88 538.562 2562.2 541.906 2561.2 544.875C2560.23 547.844 2558.91 550.375 2557.22 552.469C2555.56 554.562 2553.53 556.172 2551.12 557.297C2548.72 558.391 2545.91 558.938 2542.69 558.938C2539.66 558.938 2536.91 558.297 2534.44 557.016C2532 555.734 2529.91 553.938 2528.16 551.625C2526.41 549.312 2525.06 546.594 2524.12 543.469C2523.22 540.312 2522.77 536.891 2522.77 533.203ZM2531.44 532.219V533.203C2531.44 535.734 2531.69 538.109 2532.19 540.328C2532.72 542.547 2533.52 544.5 2534.58 546.188C2535.67 547.875 2537.06 549.203 2538.75 550.172C2540.44 551.109 2542.45 551.578 2544.8 551.578C2547.67 551.578 2550.05 550.969 2551.92 549.75C2553.8 548.531 2555.28 546.922 2556.38 544.922C2557.5 542.922 2558.38 540.75 2559 538.406V527.109C2558.66 525.391 2558.12 523.734 2557.41 522.141C2556.72 520.516 2555.81 519.078 2554.69 517.828C2553.59 516.547 2552.23 515.531 2550.61 514.781C2548.98 514.031 2547.08 513.656 2544.89 513.656C2542.52 513.656 2540.47 514.156 2538.75 515.156C2537.06 516.125 2535.67 517.469 2534.58 519.188C2533.52 520.875 2532.72 522.844 2532.19 525.094C2531.69 527.312 2531.44 529.688 2531.44 532.219ZM2599.78 558.938C2596.25 558.938 2593.05 558.344 2590.17 557.156C2587.33 555.938 2584.88 554.234 2582.81 552.047C2580.78 549.859 2579.22 547.266 2578.12 544.266C2577.03 541.266 2576.48 537.984 2576.48 534.422V532.453C2576.48 528.328 2577.09 524.656 2578.31 521.438C2579.53 518.188 2581.19 515.438 2583.28 513.188C2585.38 510.938 2587.75 509.234 2590.41 508.078C2593.06 506.922 2595.81 506.344 2598.66 506.344C2602.28 506.344 2605.41 506.969 2608.03 508.219C2610.69 509.469 2612.86 511.219 2614.55 513.469C2616.23 515.688 2617.48 518.312 2618.3 521.344C2619.11 524.344 2619.52 527.625 2619.52 531.188V535.078H2581.64V528H2610.84V527.344C2610.72 525.094 2610.25 522.906 2609.44 520.781C2608.66 518.656 2607.41 516.906 2605.69 515.531C2603.97 514.156 2601.62 513.469 2598.66 513.469C2596.69 513.469 2594.88 513.891 2593.22 514.734C2591.56 515.547 2590.14 516.766 2588.95 518.391C2587.77 520.016 2586.84 522 2586.19 524.344C2585.53 526.688 2585.2 529.391 2585.2 532.453V534.422C2585.2 536.828 2585.53 539.094 2586.19 541.219C2586.88 543.312 2587.86 545.156 2589.14 546.75C2590.45 548.344 2592.03 549.594 2593.88 550.5C2595.75 551.406 2597.88 551.859 2600.25 551.859C2603.31 551.859 2605.91 551.234 2608.03 549.984C2610.16 548.734 2612.02 547.062 2613.61 544.969L2618.86 549.141C2617.77 550.797 2616.38 552.375 2614.69 553.875C2613 555.375 2610.92 556.594 2608.45 557.531C2606.02 558.469 2603.12 558.938 2599.78 558.938Z" fill="#787879"/>
<path d="M308.111 509.737C308.106 516.185 305.542 522.367 300.983 526.926C296.424 531.485 290.242 534.048 283.795 534.053H24.3358C17.8882 534.053 11.7042 531.495 7.14148 526.939C2.57875 522.384 0.0102745 516.204 7.72627e-06 509.756V129.994C-0.00254033 126.798 0.625181 123.632 1.84726 120.679C3.06935 117.725 4.86181 115.041 7.1221 112.781C9.38239 110.521 12.0662 108.728 15.0199 107.506C17.9736 106.284 21.1392 105.656 24.3358 105.659H190.85L308.111 225.245V509.737Z" fill="#23A566"/>
<path d="M203.754 222.125L308.111 321.871V224.547H215.67C211.634 224.593 207.655 223.592 204.122 221.641L203.754 222.125Z" fill="#1C8F5A"/>
<path d="M308.111 225.051H215.418C208.97 225.046 202.788 222.483 198.229 217.923C193.67 213.364 191.107 207.182 191.102 200.735V105L308.111 225.051Z" fill="#8ED1B1"/>
<path fill-rule="evenodd" clip-rule="evenodd" d="M233.922 455.079H73.5886V316.059H233.922V455.079ZM163.724 336.112V360.448H214.217V336.151L163.724 336.112ZM163.724 375.774V399.025H214.217V375.658L163.724 375.774ZM163.724 413.847V435.374H214.217V413.731L163.724 413.847ZM143.903 435.257V413.731H93.4292V435.257H143.903ZM143.903 398.773V375.658H93.4292V398.889L143.903 398.773ZM143.903 360.7V336.112H93.4292V360.448L143.903 360.7Z" fill="white"/>
<path d="M982.08 283.3C982.08 252.803 959.1 231.955 932.42 231.955C905.74 231.955 882.741 252.803 882.741 283.3C882.741 313.487 905.74 334.646 932.42 334.646C959.1 334.646 982.08 313.449 982.08 283.3ZM1020.75 283.3C1020.75 332.088 981.092 368.049 932.401 368.049C883.729 368.049 844.067 332.088 844.067 283.3C844.067 234.164 883.729 198.551 932.42 198.551C981.091 198.551 1020.75 234.164 1020.75 283.3ZM1172.64 283.3C1172.64 252.803 1149.66 231.955 1122.98 231.955C1096.3 231.955 1073.32 252.803 1073.32 283.3C1073.32 313.487 1096.3 334.646 1122.98 334.646C1149.66 334.646 1172.64 313.449 1172.64 283.3ZM1211.31 283.3C1211.31 332.088 1171.65 368.049 1122.98 368.049C1074.31 368.049 1034.63 332.088 1034.63 283.3C1034.63 234.203 1074.31 198.551 1122.98 198.551C1171.65 198.551 1211.31 234.164 1211.31 283.3ZM1359.98 283.591C1359.98 253.752 1339.29 231.936 1312.98 231.936C1286.28 231.936 1263.94 253.752 1263.94 283.591C1263.94 313.139 1286.28 334.646 1312.96 334.646C1339.29 334.646 1359.98 313.119 1359.98 283.591ZM1393.97 203.667V355.823C1393.97 418.406 1355.6 443.982 1310.26 443.982C1293.79 444.251 1277.59 439.656 1263.71 430.772C1249.83 421.888 1238.88 409.108 1232.22 394.032L1265.87 380.546C1271.88 394.342 1286.57 410.617 1310.24 410.617C1339.25 410.617 1357.23 393.373 1357.23 360.938V348.732H1355.87C1347.23 359.02 1330.55 368.01 1309.51 368.01C1265.49 368.01 1225.15 331.1 1225.15 283.61C1225.15 235.753 1265.49 198.551 1309.51 198.551C1330.51 198.551 1347.19 207.522 1355.89 217.501H1357.25V203.705H1393.97V203.667ZM1454.52 114.442H1416.79V362.837H1454.5L1454.52 114.442ZM1509.1 280.665L1587.8 249.219C1583.48 238.62 1570.44 231.257 1555.13 231.257C1535.47 231.257 1508.11 247.959 1509.1 280.665ZM1601.5 311.143L1631.51 330.402C1623.25 342.154 1612.26 351.716 1599.47 358.262C1586.69 364.808 1572.5 368.141 1558.14 367.972C1508.11 367.972 1470.75 330.771 1470.75 283.223C1470.75 232.827 1508.44 198.474 1553.82 198.474C1599.5 198.474 1621.86 233.466 1629.19 252.377L1633.18 262.006L1515.45 308.934C1524.46 325.946 1538.49 334.607 1558.14 334.607C1577.84 334.607 1591.48 325.287 1601.5 311.143ZM701.288 261.212V225.251H827.191C828.412 231.509 829.051 238.93 829.051 246.952C829.051 273.923 821.398 307.287 796.694 331.042C772.668 355.126 741.977 367.972 701.327 367.972C625.956 367.972 562.598 308.876 562.598 236.373C562.598 163.869 625.956 104.773 701.327 104.773C743.023 104.773 772.707 120.506 795.028 141.025L768.677 166.407C752.672 151.953 730.991 140.735 701.288 140.735C646.262 140.735 603.228 183.4 603.228 236.373C603.228 289.345 646.262 332.011 701.288 332.011C736.978 332.011 757.303 318.215 770.324 305.679C780.903 295.507 787.839 280.995 790.59 261.173L701.288 261.212ZM1859.52 310.659C1859.52 330.286 1852.32 346.058 1837.92 357.955C1823.29 369.657 1805.56 375.509 1784.68 375.509C1766.08 375.509 1749.7 370.084 1735.5 359.214C1721.3 348.364 1711.47 333.522 1706.05 314.727L1733.62 303.47C1735.5 310.136 1738.1 316.2 1741.45 321.625C1744.78 327.05 1748.66 331.759 1753.04 335.731C1757.63 339.49 1762.65 342.512 1768.07 344.798C1773.5 346.891 1779.23 347.937 1785.3 347.937C1798.45 347.937 1809.21 344.605 1817.56 337.92C1825.91 331.022 1830.09 321.935 1830.09 310.659C1830.09 301.261 1826.64 293.221 1819.75 286.555C1813.27 280.084 1801.16 273.806 1783.42 267.761C1765.45 261.29 1754.29 256.911 1749.9 254.586C1726.1 242.495 1714.19 224.631 1714.19 201.031C1714.19 184.543 1720.77 170.457 1733.93 158.754C1747.3 147.07 1763.69 141.219 1783.11 141.219C1800.23 141.219 1815.06 145.598 1827.57 154.375C1840.11 162.939 1848.46 173.692 1852.65 186.635L1825.71 197.912C1823.17 189.518 1817.87 182.231 1810.66 177.238C1803.35 171.6 1794.38 168.771 1783.73 168.771C1772.45 168.771 1762.96 171.91 1755.24 178.168C1747.49 184.02 1743.62 191.634 1743.62 201.031C1743.62 208.782 1746.66 215.447 1752.73 221.085C1759.41 226.704 1773.92 233.408 1796.26 241.139C1819.01 248.85 1835.21 258.364 1844.8 269.621C1854.62 280.704 1859.52 294.383 1859.52 310.659ZM1889.21 146.218H1918.02V217.016L1916.76 238.329H1918.02C1922.4 230.792 1929.08 224.534 1938.07 219.535C1946.78 214.643 1956.59 212.05 1966.57 211.998C1985.35 211.998 1999.76 217.423 2009.78 228.274C2020.01 238.93 2025.13 254.179 2025.13 274V370.491H1996.32V279.658C1996.32 252.086 1984.11 238.31 1959.68 238.31C1947.97 238.31 1938.07 243.212 1929.92 253.036C1922.02 262.522 1917.8 274.527 1918.02 286.865V370.491H1889.21V146.218ZM2127.88 375.509C2105.32 375.509 2086.74 367.759 2072.11 352.316C2057.5 336.874 2050.2 317.343 2050.2 293.744C2050.2 270.357 2057.29 250.943 2071.49 235.501C2085.7 219.826 2103.85 211.998 2126 211.998C2148.74 211.998 2166.82 219.419 2180.17 234.241C2193.75 248.85 2200.53 269.427 2200.53 295.933L2200.22 299.072H2079.63C2080.06 314.108 2085.06 326.217 2094.67 335.401C2104.28 344.585 2115.77 349.197 2129.12 349.197C2147.5 349.197 2161.9 340.013 2172.34 321.625L2198.03 334.161C2191.45 346.775 2181.47 357.297 2169.22 364.542C2157.09 371.847 2143.32 375.509 2127.88 375.509ZM2081.82 275.279H2169.84C2169.54 270.232 2168.22 265.299 2165.96 260.777C2163.7 256.255 2160.54 252.237 2156.69 248.967C2148.96 241.856 2138.51 238.31 2125.36 238.31C2114.51 238.31 2105.11 241.643 2097.17 248.327C2089.45 255.012 2084.34 264.022 2081.82 275.279ZM2297.33 375.509C2274.78 375.509 2256.18 367.759 2241.57 352.316C2226.96 336.874 2219.64 317.343 2219.64 293.744C2219.64 270.357 2226.75 250.943 2240.95 235.501C2255.15 219.826 2273.31 211.998 2295.46 211.998C2318.2 211.998 2336.26 219.419 2349.63 234.241C2363.21 248.85 2369.99 269.427 2369.99 295.933L2369.68 299.072H2249.09C2249.52 314.108 2254.51 326.217 2264.13 335.401C2273.74 344.585 2285.21 349.197 2298.58 349.197C2316.96 349.197 2331.36 340.013 2341.8 321.625L2367.49 334.161C2360.91 346.78 2350.92 357.304 2338.66 364.542C2326.55 371.847 2312.78 375.509 2297.33 375.509ZM2251.28 275.279H2339.3C2339 270.232 2337.68 265.299 2335.42 260.777C2333.15 256.255 2330 252.237 2326.15 248.967C2318.42 241.856 2307.97 238.31 2294.82 238.31C2283.97 238.31 2274.57 241.643 2266.62 248.327C2258.91 255.012 2253.78 264.022 2251.28 275.279ZM2452.51 372.99C2440 372.99 2429.55 369.115 2421.2 361.403C2413.05 353.672 2408.88 342.919 2408.67 329.143V243.309H2381.74V217.016H2408.67V170.03H2437.48V217.016H2475.07V243.328H2437.48V319.746C2437.48 329.976 2439.47 336.99 2443.45 340.73C2447.4 344.275 2451.89 346.058 2456.91 346.058C2459.2 346.058 2461.39 345.864 2463.48 345.438C2465.79 344.798 2467.86 344.082 2469.74 343.248L2478.83 368.921C2471.31 371.634 2462.55 372.99 2452.51 372.99ZM2623 327.884C2623 341.253 2617.15 352.529 2605.47 361.713C2593.76 370.897 2579.04 375.509 2561.29 375.509C2545.85 375.509 2532.26 371.537 2520.58 363.593C2509.14 355.779 2500.39 344.62 2495.53 331.642L2521.2 320.695C2524.96 329.879 2530.38 337.087 2537.5 342.299C2544.8 347.317 2552.72 349.817 2561.29 349.817C2570.49 349.817 2578.11 347.84 2584.15 343.868C2590.43 339.896 2593.55 335.208 2593.55 329.763C2593.55 319.959 2586.03 312.751 2571 308.159L2544.7 301.571C2514.83 294.073 2499.91 279.658 2499.91 258.364C2499.91 244.375 2505.55 233.195 2516.82 224.844C2528.31 216.28 2542.92 211.998 2560.67 211.998C2574.23 211.998 2586.46 215.234 2597.31 221.705C2608.39 228.177 2616.1 236.857 2620.5 247.707L2594.81 258.364C2591.85 251.858 2586.77 246.555 2580.39 243.328C2573.73 239.518 2566.16 237.571 2558.48 237.69C2550.96 237.69 2544.18 239.569 2538.12 243.309C2532.26 247.087 2529.34 251.679 2529.34 257.104C2529.34 265.882 2537.59 272.14 2554.1 275.899L2577.27 281.847C2607.75 289.365 2623 304.71 2623 327.884Z" fill="#787879"/>
<path d="M593.049 437.141V558H577.028V437.141H593.049ZM643.684 491.511V504.626H589.562V491.511H643.684ZM651.901 437.141V450.256H589.562V437.141H651.901ZM685.354 430.5V558H669.914V430.5H685.354ZM764.958 537.248V468.186H780.397V558H765.705L764.958 537.248ZM767.863 518.322L774.255 518.156C774.255 524.133 773.618 529.667 772.346 534.758C771.128 539.794 769.136 544.165 766.369 547.873C763.602 551.581 759.978 554.486 755.495 556.589C751.013 558.636 745.562 559.66 739.143 559.66C734.771 559.66 730.759 559.024 727.106 557.751C723.509 556.478 720.41 554.514 717.81 551.857C715.209 549.201 713.189 545.743 711.75 541.481C710.367 537.22 709.675 532.102 709.675 526.125V468.186H725.031V526.291C725.031 530.331 725.474 533.679 726.359 536.335C727.3 538.936 728.545 541.011 730.095 542.561C731.7 544.055 733.47 545.106 735.407 545.715C737.399 546.324 739.447 546.628 741.55 546.628C748.08 546.628 753.254 545.383 757.072 542.893C760.891 540.347 763.63 536.944 765.29 532.683C767.006 528.366 767.863 523.579 767.863 518.322ZM841.408 468.186V479.973H792.849V468.186H841.408ZM809.284 446.354H824.641V535.754C824.641 538.798 825.111 541.094 826.052 542.644C826.993 544.193 828.21 545.217 829.704 545.715C831.198 546.213 832.803 546.462 834.519 546.462C835.791 546.462 837.119 546.351 838.503 546.13C839.942 545.853 841.021 545.632 841.74 545.466L841.823 558C840.606 558.387 839.001 558.747 837.009 559.079C835.072 559.466 832.72 559.66 829.953 559.66C826.19 559.66 822.731 558.913 819.577 557.419C816.423 555.925 813.905 553.435 812.023 549.948C810.197 546.407 809.284 541.647 809.284 535.671V446.354ZM897.023 468.186V479.973H848.464V468.186H897.023ZM864.899 446.354H880.256V535.754C880.256 538.798 880.726 541.094 881.667 542.644C882.608 544.193 883.825 545.217 885.319 545.715C886.813 546.213 888.418 546.462 890.134 546.462C891.407 546.462 892.735 546.351 894.118 546.13C895.557 545.853 896.636 545.632 897.355 545.466L897.438 558C896.221 558.387 894.616 558.747 892.624 559.079C890.687 559.466 888.335 559.66 885.568 559.66C881.805 559.66 878.347 558.913 875.192 557.419C872.038 555.925 869.52 553.435 867.639 549.948C865.812 546.407 864.899 541.647 864.899 535.671V446.354ZM952.307 559.66C946.053 559.66 940.381 558.609 935.29 556.506C930.254 554.348 925.91 551.332 922.258 547.458C918.661 543.584 915.894 538.991 913.957 533.679C912.02 528.366 911.052 522.556 911.052 516.247V512.761C911.052 505.456 912.131 498.954 914.289 493.254C916.447 487.499 919.38 482.629 923.088 478.645C926.796 474.66 931.001 471.644 935.705 469.597C940.409 467.549 945.279 466.525 950.314 466.525C956.734 466.525 962.268 467.632 966.916 469.846C971.62 472.059 975.466 475.158 978.454 479.143C981.442 483.072 983.656 487.72 985.095 493.088C986.534 498.4 987.253 504.211 987.253 510.52V517.409H920.183V504.875H971.896V503.713C971.675 499.729 970.845 495.855 969.406 492.092C968.023 488.329 965.809 485.23 962.766 482.795C959.722 480.36 955.572 479.143 950.314 479.143C946.828 479.143 943.618 479.89 940.686 481.384C937.753 482.823 935.235 484.981 933.132 487.858C931.029 490.736 929.396 494.25 928.234 498.4C927.072 502.551 926.491 507.338 926.491 512.761V516.247C926.491 520.508 927.072 524.52 928.234 528.283C929.452 531.991 931.195 535.256 933.464 538.078C935.788 540.9 938.583 543.114 941.848 544.719C945.168 546.324 948.931 547.126 953.137 547.126C958.56 547.126 963.153 546.019 966.916 543.806C970.679 541.592 973.972 538.632 976.794 534.924L986.091 542.312C984.154 545.244 981.691 548.039 978.703 550.695C975.715 553.352 972.035 555.51 967.663 557.17C963.347 558.83 958.228 559.66 952.307 559.66ZM1020.54 482.297V558H1005.18V468.186H1020.12L1020.54 482.297ZM1048.6 467.688L1048.51 481.965C1047.24 481.688 1046.02 481.522 1044.86 481.467C1043.75 481.356 1042.48 481.301 1041.04 481.301C1037.5 481.301 1034.37 481.854 1031.66 482.961C1028.95 484.068 1026.65 485.617 1024.77 487.609C1022.89 489.602 1021.4 491.981 1020.29 494.748C1019.24 497.46 1018.55 500.448 1018.21 503.713L1013.9 506.203C1013.9 500.78 1014.42 495.689 1015.48 490.93C1016.58 486.171 1018.27 481.965 1020.54 478.312C1022.81 474.605 1025.69 471.727 1029.17 469.68C1032.71 467.577 1036.92 466.525 1041.79 466.525C1042.9 466.525 1044.17 466.664 1045.61 466.94C1047.05 467.162 1048.04 467.411 1048.6 467.688Z" fill="#787879"/>
<mask id="mask0_111_1338" style="mask-type:luminance" maskUnits="userSpaceOnUse" x="208" y="0" width="171" height="212">
<path d="M379 97.7L322 154.7L379 211.7H313.8L289.4 187.3L256.8 154.7L313.8 97.7H379ZM313.9 0L208 105.8L240.6 138.4L379 0H313.9Z" fill="white"/>
</mask>
<g mask="url(#mask0_111_1338)">
<path d="M379 97.7002H313.8L256.9 154.7L289.4 187.2L379 97.7002Z" fill="#54C5F8"/>
</g>
<mask id="mask1_111_1338" style="mask-type:luminance" maskUnits="userSpaceOnUse" x="208" y="0" width="171" height="212">
<path d="M379 97.7L322 154.7L379 211.7H313.8L289.4 187.3L256.8 154.7L313.8 97.7H379ZM313.9 0L208 105.8L240.6 138.4L379 0H313.9Z" fill="white"/>
</mask>
<g mask="url(#mask1_111_1338)">
<path d="M240.6 138.4L208 105.8L313.8 0H379L240.6 138.4Z" fill="#54C5F8"/>
</g>
<mask id="mask2_111_1338" style="mask-type:luminance" maskUnits="userSpaceOnUse" x="208" y="0" width="171" height="212">
<path d="M379 97.7L322 154.7L379 211.7H313.8L289.4 187.3L256.8 154.7L313.8 97.7H379ZM313.9 0L208 105.8L240.6 138.4L379 0H313.9Z" fill="white"/>
</mask>
<g mask="url(#mask2_111_1338)">
<path d="M289.4 187.2L313.8 211.7H379L322 154.7L289.4 187.2Z" fill="#01579B"/>
</g>
<mask id="mask3_111_1338" style="mask-type:luminance" maskUnits="userSpaceOnUse" x="208" y="0" width="171" height="212">
<path d="M379 97.7L322 154.7L379 211.7H313.8L289.4 187.3L256.8 154.7L313.8 97.7H379ZM313.9 0L208 105.8L240.6 138.4L379 0H313.9Z" fill="white"/>
</mask>
<g mask="url(#mask3_111_1338)">
<path d="M289.4 187.2L337.7 170.5L322 154.7L289.4 187.2Z" fill="url(#paint0_linear_111_1338)"/>
</g>
<mask id="mask4_111_1338" style="mask-type:luminance" maskUnits="userSpaceOnUse" x="208" y="0" width="171" height="212">
<path d="M379 97.7L322 154.7L379 211.7H313.8L289.4 187.3L256.8 154.7L313.8 97.7H379ZM313.9 0L208 105.8L240.6 138.4L379 0H313.9Z" fill="white"/>
</mask>
<g mask="url(#mask4_111_1338)">
<path d="M289.416 122.164L256.889 154.69L289.416 187.217L321.943 154.69L289.416 122.164Z" fill="#29B6F6"/>
</g>
<path d="M379 97.8385L322 154.919L379 212H313.8L289.4 187.565L256.8 154.919L313.8 97.8385H379ZM313.9 0L208 105.95L240.6 138.596L379 0H313.9Z" fill="url(#paint1_radial_111_1338)"/>
<defs>
<linearGradient id="paint0_linear_111_1338" x1="298.904" y1="193.526" x2="323.156" y2="169.274" gradientUnits="userSpaceOnUse">
<stop stop-color="#1A237E" stop-opacity="0.4"/>
<stop offset="1" stop-color="#1A237E" stop-opacity="0"/>
</linearGradient>
<radialGradient id="paint1_radial_111_1338" cx="0" cy="0" r="1" gradientUnits="userSpaceOnUse" gradientTransform="translate(212.81 14.4535) scale(258.947 259.315)">
<stop stop-color="white" stop-opacity="0.1"/>
<stop offset="1" stop-color="white" stop-opacity="0"/>
</radialGradient>
</defs>
</svg>
