<svg width="14" height="14" viewBox="0 0 14 14" fill="none" xmlns="http://www.w3.org/2000/svg">
<path opacity="0.54" fill-rule="evenodd" clip-rule="evenodd" d="M3 14H5V12H3V14ZM0 5H2V3H0V5ZM0 2H2V0H0V2ZM3 8H5V6H3V8ZM3 2H5V0H3V2ZM0 14H2V12H0V14ZM0 8H2V6H0V8ZM0 11H2V9H0V11ZM12 0V2H14V0H12ZM12 8H14V6H12V8ZM12 14H14V12H12V14ZM12 5H14V3H12V5ZM12 11H14V9H12V11ZM9 14H11V12H9V14ZM9 8H11V6H9V8ZM9 2H11V0H9V2Z" fill="#444746"/>
<path fill-rule="evenodd" clip-rule="evenodd" d="M6 14H8V0H6V14Z" fill="#444746"/>
</svg>
