<svg width="16" height="16" viewBox="0 0 16 16" fill="none" xmlns="http://www.w3.org/2000/svg">
<path d="M3 10H4.979L9.854 5.125C9.96533 5.01367 10.021 4.89567 10.021 4.771C10.021 4.64567 9.96533 4.52767 9.854 4.417L8.562 3.146C8.45133 3.03467 8.33333 2.979 8.208 2.979C8.08333 2.979 7.96533 3.03467 7.854 3.146L3 8.021V10ZM7.104 10H13V8.5H8.604L7.104 10ZM0 16V1.5C0 1.08333 0.146 0.729333 0.438 0.438C0.729333 0.146 1.08333 0 1.5 0H14.5C14.9167 0 15.2707 0.146 15.562 0.438C15.854 0.729333 16 1.08333 16 1.5V11.5C16 11.9167 15.854 12.2707 15.562 12.562C15.2707 12.854 14.9167 13 14.5 13H3L0 16ZM1.5 11.5H14.5V1.5H1.5V11.5Z" fill="#444746"/>
</svg>
