<svg width="18" height="19" viewBox="0 0 18 19" fill="none" xmlns="http://www.w3.org/2000/svg">
<path d="M16.6016 19L10.25 12.6484L11.6484 11.25L18 17.6016L16.6016 19ZM2.94922 18.3008C1.94922 17.3008 1.20703 16.1758 0.726562 14.9258C0.242188 13.6758 0 12.3984 0 11.1016C0 9.80078 0.242188 8.53516 0.726562 7.30078C1.20703 6.06641 1.94922 4.94922 2.94922 3.94922C3.94922 2.94922 5.07031 2.20313 6.3125 1.71094C7.55469 1.22266 8.82422 0.976562 10.125 0.976562C11.4258 0.976562 12.6953 1.22266 13.9375 1.71094C15.1797 2.20313 16.3008 2.94922 17.3008 3.94922L2.94922 18.3008ZM3.14844 15.25L4.5 13.8984C4.23438 13.5508 3.98047 13.1914 3.73828 12.8242C3.49609 12.457 3.27344 12.0898 3.07422 11.7266C2.875 11.3594 2.69922 10.9922 2.55078 10.625C2.39844 10.2578 2.26562 9.89844 2.14844 9.55078C1.96484 10.5352 1.95312 11.5156 2.11328 12.5C2.26953 13.4844 2.61719 14.3984 3.14844 15.25ZM5.94922 12.5L11.5 6.89844C10.7852 6.35156 10.0625 5.90234 9.33594 5.5625C8.61328 5.22266 7.93359 4.98828 7.30078 4.86328C6.66797 4.73828 6.09766 4.71484 5.58594 4.80078C5.07813 4.88281 4.68359 5.06641 4.39844 5.35156C4.11719 5.64844 3.93359 6.05469 3.85156 6.5625C3.76563 7.07031 3.78906 7.64453 3.91406 8.28906C4.03906 8.92969 4.26953 9.60937 4.61328 10.3242C4.95312 11.043 5.39844 11.7656 5.94922 12.5ZM12.8984 5.5L14.3008 4.14844C13.418 3.61719 12.4844 3.26563 11.5 3.10156C10.5156 2.93359 9.53516 2.94922 8.55078 3.14844C8.91797 3.26563 9.28516 3.39844 9.64844 3.55078C10.0156 3.69922 10.3828 3.87109 10.75 4.0625C11.1172 4.25391 11.4805 4.47266 11.8359 4.71094C12.1953 4.95313 12.5508 5.21484 12.8984 5.5Z" fill="#444746"/>
</svg>
