<svg width="18" height="16" viewBox="0 0 18 16" fill="none" xmlns="http://www.w3.org/2000/svg">
<path d="M4.94 5.94L3.76 7.12C3.69 3.99 6.21 1.5 9.25 1.5C11.94 1.5 14.18 3.44 14.65 6H16.17C15.68 2.61 12.78 0 9.25 0C5.43 0 2.18 3.11 2.26 7.14L1.06 5.94L0 7L3 10L6 7L4.94 5.94Z" fill="#444746"/>
<path d="M14 12C15.1046 12 16 11.1046 16 10C16 8.89543 15.1046 8 14 8C12.8954 8 12 8.89543 12 10C12 11.1046 12.8954 12 14 12Z" fill="#444746"/>
<path d="M16.7795 13.58C15.9295 13.21 14.9895 13 13.9995 13C13.0095 13 12.0695 13.21 11.2195 13.58C10.4795 13.9 9.99953 14.62 9.99953 15.43V16H17.9995V15.43C17.9995 14.62 17.5195 13.9 16.7795 13.58ZM11.6395 8.02L9.99953 6.38V3H8.49953V7L10.5795 9.08L11.6395 8.02ZM4.83953 10.28L3.76953 11.35C4.80953 12.65 6.29953 13.56 7.99953 13.87V12.32C6.71953 12.03 5.60953 11.3 4.83953 10.28Z" fill="#444746"/>
</svg>
