<svg width="16" height="12" viewBox="0 0 16 12" fill="none" xmlns="http://www.w3.org/2000/svg">
<path d="M1.50001 12C1.09734 12.0014 0.747342 11.8514 0.450009 11.55C0.148676 11.2534 -0.00132452 10.9034 8.81057e-06 10.5V1.50003C-0.000657856 1.08669 0.149342 0.733692 0.450009 0.441026C0.586203 0.300457 0.749446 0.188917 0.929901 0.113126C1.11036 0.0373351 1.30429 -0.00113803 1.50001 2.56293e-05H6.00001L8.00001 2.00003H14.5C14.9133 2.00003 15.2663 2.14703 15.559 2.44103C15.8523 2.73369 15.9993 3.08669 16 3.50003V10.5C16 10.9027 15.853 11.2527 15.559 11.55C15.2663 11.8507 14.9133 12.0007 14.5 12H1.50001ZM1.50001 10.5H14.5V3.50003H7.37501L5.37501 1.50003H1.50001V10.5Z" fill="#444746"/>
</svg>
