<svg width="9" height="11" viewBox="0 0 9 11" fill="none" xmlns="http://www.w3.org/2000/svg">
<path d="M0 11V0H4.292C5.236 0 6.03467 0.277667 6.688 0.833C7.34067 1.389 7.667 2.06967 7.667 2.875C7.667 3.403 7.53833 3.87167 7.281 4.281C7.02433 4.691 6.66 5.014 6.188 5.25V5.354C6.74333 5.53467 7.191 5.861 7.531 6.333C7.87167 6.80567 8.042 7.34067 8.042 7.938C8.042 8.84067 7.705 9.57667 7.031 10.146C6.35767 10.7153 5.49333 11 4.438 11H0ZM2.062 4.5H4.146C4.56267 4.5 4.91667 4.37167 5.208 4.115C5.5 3.85767 5.646 3.54167 5.646 3.167C5.646 2.80567 5.507 2.49667 5.229 2.24C4.951 1.98267 4.61067 1.854 4.208 1.854H2.062V4.5ZM2.062 9.104H4.375C4.861 9.104 5.25 8.979 5.542 8.729C5.83333 8.479 5.979 8.13867 5.979 7.708C5.979 7.264 5.82967 6.91333 5.531 6.656C5.23233 6.39933 4.826 6.271 4.312 6.271H2.062V9.104Z" fill="#444746"/>
</svg>
