<svg width="14" height="18" viewBox="0 0 14 18" fill="none" xmlns="http://www.w3.org/2000/svg">
<path d="M7 0.111145L14 3.24401V7.94331C14 12.2941 11.0172 16.3511 7 17.3419C3.06647 16.3718 0.12473 12.4618 0.00387001 8.21483L0 7.94331V3.24401L7 0.111145ZM7 1.78201L1.55556 4.21781V8.67431C1.96778 11.9011 4.10278 14.7755 7 15.6723C9.812 14.8019 11.906 12.0685 12.4036 8.95808L12.4444 8.67431V4.21781L7 1.78201ZM7 5.59366C7.95457 5.59366 8.7284 6.3729 8.7284 7.33414C8.7284 7.98779 8.3706 8.55728 7.84143 8.85481L8.438 11.8594H5.67259L6.25908 8.90705C5.67524 8.62767 5.27161 8.02837 5.27161 7.33414C5.27161 6.3729 6.04543 5.59366 7 5.59366Z" fill="#444746"/>
</svg>
