<svg width="16" height="10" viewBox="0 0 16 10" fill="none" xmlns="http://www.w3.org/2000/svg">
<path d="M14.5 0H1.5C0.67 0 0 0.67 0 1.5V8.5C0 9.33 0.67 10 1.5 10H14.5C15.33 10 16 9.33 16 8.5V1.5C16 0.67 15.33 0 14.5 0ZM14.5 8.5H1.5V1.5H14.5V8.5Z" fill="#444746"/>
<path d="M5 6.5H11V8H5V6.5ZM3 2H4.5V3.5H3V2ZM5.12 2H6.62V3.5H5.12V2ZM7.25 2H8.75V3.5H7.25V2ZM9.38 2H10.88V3.5H9.38V2ZM11.5 2H13V3.5H11.5V2ZM3 4H4.5V5.5H3V4ZM5.12 4H6.62V5.5H5.12V4ZM7.25 4H8.75V5.5H7.25V4ZM9.38 4H10.88V5.5H9.38V4ZM11.5 4H13V5.5H11.5V4Z" fill="#444746"/>
</svg>
