<svg width="18" height="17" viewBox="0 0 18 17" fill="none" xmlns="http://www.w3.org/2000/svg">
<path d="M9.0002 3.49988C12.1702 3.49988 15.0002 5.24988 16.3602 7.99988C15.7902 9.14988 14.9602 10.0999 13.9702 10.8499L15.0402 11.9199C16.3402 10.8999 17.3702 9.54988 18.0002 7.99988C16.5802 4.48988 13.0902 1.99988 9.0002 1.99988C7.8402 1.99988 6.7302 2.20988 5.7002 2.56988L6.9002 3.76988C7.5702 3.59988 8.2802 3.49988 9.0002 3.49988Z" fill="#444746"/>
<path d="M7.84 4.70993L9.14 6.00993C10.13 6.07993 10.92 6.86993 10.99 7.85993L12.29 9.15993C12.42 8.78993 12.5 8.40993 12.5 7.99993C12.5 6.06993 10.93 4.49993 9 4.49993C8.59 4.49993 8.2 4.57993 7.84 4.70993ZM0.87 1.98993L2.96 4.07993C1.65 5.09993 0.62 6.44993 0 7.99993C1.42 11.5099 4.91 13.9999 9 13.9999C10.16 13.9999 11.27 13.7899 12.3 13.4299L15.01 16.1399L16.07 15.0799L1.93 0.929932L0.87 1.98993ZM5.71 6.83993C5.58 7.19993 5.5 7.58993 5.5 7.99993C5.5 9.92993 7.07 11.4999 9 11.4999C9.41 11.4999 9.8 11.4199 10.16 11.2899L11.1 12.2299C10.42 12.3999 9.72 12.5099 9 12.5099C5.83 12.5099 3 10.7599 1.64 8.00993C2.21 6.85993 3.04 5.90993 4.03 5.15993L5.71 6.83993Z" fill="#444746"/>
</svg>
