<svg width="16" height="12" viewBox="0 0 16 12" fill="none" xmlns="http://www.w3.org/2000/svg">
<path d="M8 9C6.34315 9 5 7.65685 5 6C5 4.34315 6.34315 3 8 3C9.65685 3 11 4.34315 11 6C11 7.65685 9.65685 9 8 9ZM8 7C8.55228 7 9 6.55228 9 6C9 5.44772 8.55228 5 8 5C7.44772 5 7 5.44772 7 6C7 6.55228 7.44772 7 8 7Z" fill="#444746"/>
<path d="M8 0C4.25 0 1.2975 2.3325 0 5.625C1.2975 8.9175 4.25 12 8 12C11.75 12 14.7025 8.9175 16 5.625C14.7025 2.3325 11.75 0 8 0ZM8 10C5.1575 10 3.21699 8.1525 1.97949 5.625C3.21699 3.0975 5.1575 2 8 2C10.8425 2 12.7953 3.0975 14.0328 5.625C12.7953 8.1525 10.8425 10 8 10Z" fill="#444746"/>
</svg>
