<svg width="24" height="24" viewBox="0 0 24 24" fill="none" xmlns="http://www.w3.org/2000/svg">
<path d="M21.9395 4.88C21.7595 4.35 21.2495 4 20.6795 4H19.5995L19.2895 3.03C19.1495 2.43 18.6095 2 17.9995 2C17.3895 2 16.8495 2.43 16.7095 3.04L16.3995 4H15.3295C14.7595 4 14.2495 4.35 14.0695 4.88C13.8795 5.44 14.1095 6.05 14.6295 6.36L15.4995 6.88L15.0995 8.12C14.8695 8.7 15.0595 9.37 15.5495 9.74C15.7795 9.91 16.0595 10 16.3295 10C16.6395 10 16.9395 9.89 17.1895 9.68L17.9995 8.98L18.8095 9.68C19.0595 9.89 19.3595 10 19.6695 10C19.9395 10 20.2195 9.91 20.4495 9.74C20.9495 9.37 21.1295 8.7 20.8995 8.12L20.5095 6.88L21.3795 6.36C21.8895 6.05 22.1195 5.44 21.9395 4.88ZM17.9995 7C17.4495 7 16.9995 6.55 16.9995 6C16.9995 5.45 17.4495 5 17.9995 5C18.5495 5 18.9995 5.45 18.9995 6C18.9995 6.55 18.5495 7 17.9995 7ZM13.4895 10.51C13.0595 10.08 12.5495 9.78 11.9995 9.58V8H10.9995V9.38C10.8895 9.37 10.7695 9.35 10.6595 9.35C9.63953 9.35 8.60953 9.74 7.82954 10.52C7.66954 10.68 7.52954 10.86 7.39954 11.05L5.99954 10.52C4.43954 9.97 2.71954 10.79 2.16954 12.34C1.89954 13.09 1.93953 13.91 2.28953 14.63C2.51953 15.11 2.86953 15.5 3.28953 15.79C2.90953 17.14 3.22954 18.64 4.28954 19.7C5.34953 20.76 6.85953 21.08 8.19953 20.7C8.48953 21.12 8.87953 21.47 9.35953 21.7C9.77953 21.9 10.2095 22 10.6495 22C10.9895 22 11.3295 21.94 11.6595 21.83C13.2195 21.28 14.0395 19.56 13.4795 17.98L12.9595 16.61C13.1395 16.48 13.3195 16.34 13.4895 16.18C14.3595 15.31 14.7295 14.14 14.6295 13.01H15.9995V12.01H14.4095C14.2195 11.46 13.9195 10.95 13.4895 10.51ZM4.66954 14.29C4.41954 14.2 4.21953 14.02 4.09953 13.78C3.97953 13.54 3.96954 13.27 4.05954 13.02C4.24954 12.5 4.81954 12.23 5.31954 12.41L8.47953 13.6C7.32953 14.2 5.84954 14.71 4.66954 14.29ZM10.9895 19.94C10.7395 20.03 10.4695 20.02 10.2295 19.9C9.98953 19.79 9.80954 19.58 9.71954 19.33C9.29954 18.15 9.80953 16.68 10.4195 15.53L11.5995 18.66C11.7795 19.18 11.5095 19.76 10.9895 19.94ZM12.1995 14.6L11.5895 12.99C11.5895 12.98 11.5795 12.97 11.5695 12.96L11.5095 12.84C11.4895 12.8 11.4695 12.77 11.4395 12.73L11.3495 12.64L11.2595 12.55C11.2295 12.52 11.1895 12.5 11.1495 12.48C11.1095 12.46 11.0795 12.43 11.0295 12.42C11.0195 12.42 11.0095 12.41 10.9995 12.4L9.39953 11.8C9.75953 11.51 10.1895 11.34 10.6595 11.34C11.1895 11.34 11.6995 11.55 12.0695 11.93C12.7995 12.66 12.8395 13.81 12.1995 14.6Z" fill="#444746"/>
</svg>
