<svg width="10" height="9" viewBox="0 0 10 9" fill="none" xmlns="http://www.w3.org/2000/svg">
<path d="M1.2737 4.6798C0.5702 4.6798 0 4.1157 0 3.4198C0 2.724 0.5702 2.1599 1.2737 2.1599C1.9771 2.1599 2.5473 2.724 2.5473 3.4198C2.5473 4.1157 1.9771 4.6798 1.2737 4.6798ZM3.3624 2.5199C2.659 2.5199 2.0888 1.9558 2.0888 1.2599C2.0888 0.5641 2.659 0 3.3624 0C4.0659 0 4.6361 0.5641 4.6361 1.2599C4.6361 1.9558 4.0659 2.5199 3.3624 2.5199ZM6.456 2.5199C5.7522 2.5199 5.182 1.9558 5.182 1.2599C5.182 0.5641 5.7522 0 6.456 0C7.159 0 7.729 0.5641 7.729 1.2599C7.729 1.9558 7.159 2.5199 6.456 2.5199ZM8.726 4.6798C8.023 4.6798 7.453 4.1157 7.453 3.4198C7.453 2.724 8.023 2.1599 8.726 2.1599C9.43 2.1599 10 2.724 10 3.4198C10 4.1157 9.43 4.6798 8.726 4.6798ZM6.376 3.9958C6.783 4.4638 7.162 4.9606 7.606 5.3997C8.275 6.077 9.09 6.753 8.886 7.768C8.77 8.344 8.384 8.791 7.773 8.978C7.431 9.086 6.157 8.762 4.8617 8.762C3.5662 8.762 2.409 9.079 2.067 8.978C1.4556 8.791 1.0626 8.344 0.9461 7.768C0.7424 6.753 1.5502 6.077 2.2198 5.3997C2.6565 4.9606 3.0204 4.4638 3.4279 3.9958C3.6827 3.7078 3.9229 3.4486 4.3159 3.319C4.4905 3.2686 4.6725 3.2398 4.8544 3.2398C4.8544 3.2398 5.2838 3.2614 5.4585 3.319C5.8515 3.4486 6.121 3.7078 6.376 3.9958Z" fill="white"/>
</svg>
