<svg width="14" height="13" viewBox="0 0 14 13" fill="none" xmlns="http://www.w3.org/2000/svg">
<path fill-rule="evenodd" clip-rule="evenodd" d="M12.4996 8.87C12.4996 8.87 10.9996 10.49 10.9996 11.49C10.9996 12.32 11.6696 12.99 12.4996 12.99C13.3296 12.99 13.9996 12.32 13.9996 11.49C13.9996 10.5 12.4996 8.87 12.4996 8.87ZM10.7096 6.79L3.90957 0L2.84957 1.06L4.43957 2.65L0.28957 6.79C-0.10043 7.18 -0.10043 7.81 0.28957 8.2L4.78957 12.7C4.98957 12.9 5.23957 13 5.49957 13C5.75957 13 6.00957 12.9 6.20957 12.71L10.7096 8.21C11.0996 7.82 11.0996 7.18 10.7096 6.79ZM2.20957 7L5.49957 3.71L8.78957 7H2.20957Z" fill="#444746"/>
</svg>
