<svg width="16" height="20" viewBox="0 0 16 20" fill="none" xmlns="http://www.w3.org/2000/svg">
<path d="M8.00014 20C7.45014 20 6.98014 19.804 6.58814 19.413C6.39878 19.2302 6.2489 19.0104 6.14777 18.7674C6.04663 18.5244 5.99639 18.2632 6.00014 18H10.0001C10.0001 18.55 9.80414 19.02 9.41214 19.413C9.22933 19.6021 9.00974 19.7517 8.7669 19.8526C8.52405 19.9536 8.26311 20.0037 8.00014 20ZM4.00014 17V15H12.0001V17H4.00014ZM4.25014 14C3.11698 13.3333 2.17443 12.3863 1.51314 11.25C0.841978 10.1149 0.49184 8.81869 0.500144 7.5C0.500144 5.417 1.23014 3.646 2.68814 2.187C4.14614 0.73 5.91614 0 8.00014 0C10.0841 0 11.8541 0.73 13.3131 2.188C14.7701 3.646 15.5001 5.417 15.5001 7.5C15.5001 8.85 15.1631 10.1 14.4881 11.25C13.8266 12.3864 12.8837 13.3335 11.7501 14H4.25014ZM4.85014 12H11.1501C11.8791 11.4904 12.4748 10.813 12.8871 10.025C13.2946 9.24602 13.5051 8.37909 13.5001 7.5C13.5001 5.967 12.9671 4.667 11.9001 3.6C10.8331 2.533 9.53314 2 8.00014 2C6.46714 2 5.16714 2.533 4.10014 3.6C3.03314 4.667 2.50014 5.967 2.50014 7.5C2.50014 8.4 2.70414 9.242 3.11214 10.025C3.52478 10.8131 4.12087 11.4905 4.85014 12Z" fill="#444746"/>
</svg>
