<svg width="21" height="17" viewBox="0 0 21 17" fill="none" xmlns="http://www.w3.org/2000/svg">
<path d="M2 16C1.45 16 0.97917 15.8042 0.5875 15.4125C0.19583 15.0208 0 14.55 0 14V2C0 1.45 0.19583 0.97917 0.5875 0.5875C0.97917 0.19583 1.45 0 2 0L4 4H7L5 0H7L9 4H12L10 0H12L14 4H17L15 0H18C18.55 0 19.0208 0.19583 19.4125 0.5875C19.8042 0.97917 20 1.45 20 2V6H2V14H10V16H2ZM12 17V13.925L17.525 8.425C17.675 8.275 17.8417 8.1667 18.025 8.1C18.2083 8.0333 18.3917 8 18.575 8C18.775 8 18.9667 8.0375 19.15 8.1125C19.3333 8.1875 19.5 8.3 19.65 8.45L20.575 9.375C20.7083 9.525 20.8125 9.6917 20.8875 9.875C20.9625 10.0583 21 10.2417 21 10.425C21 10.6083 20.9667 10.7958 20.9 10.9875C20.8333 11.1792 20.725 11.35 20.575 11.5L15.075 17H12ZM13.5 15.5H14.45L17.475 12.45L17.025 11.975L16.55 11.525L13.5 14.55V15.5ZM17.025 11.975L16.55 11.525L17.475 12.45L17.025 11.975Z" fill="#444746"/>
</svg>
