<svg width="22" height="21" viewBox="0 0 22 21" fill="none" xmlns="http://www.w3.org/2000/svg">
<path fill-rule="evenodd" clip-rule="evenodd" d="M5 21H20C20.55 21 21.0167 20.8083 21.4 20.425C21.8 20.025 22 19.55 22 19V5C22 4.45 21.8 3.98333 21.4 3.6C21.0167 3.2 20.55 3 20 3H4.99745H8V5H20V8H3V19C3 19.55 3.19167 20.025 3.575 20.425C3.975 20.8083 4.45 21 5 21ZM5 19V10H8V19H5ZM17 19V10H20V19H17ZM10 10H15V19H10V10Z" fill="#444746"/>
<path d="M3.5 7L2.36923 4.63077L0 3.5L2.36923 2.36923L3.5 0L4.63077 2.36923L7 3.5L4.63077 4.63077L3.5 7Z" fill="#444746"/>
</svg>
