<svg width="22" height="20" viewBox="0 0 22 20" fill="none" xmlns="http://www.w3.org/2000/svg">
<path d="M12.635 10.2368C13.908 9.2895 14.9021 8.25 15.6171 7.11842C16.3321 5.98684 16.6897 4.85965 16.6897 3.73684C16.6897 3.17544 16.5981 2.76316 16.415 2.5C16.2319 2.23684 15.9834 2.10526 15.6694 2.10526C14.8498 2.10526 14.126 2.80263 13.4982 4.19737C12.8704 5.59211 12.5565 7.16667 12.5565 8.9211C12.5565 9.1667 12.5608 9.3991 12.5696 9.6184C12.5783 9.8377 12.6001 10.0439 12.635 10.2368ZM1.04637 20V17.8947H3.13912V20H1.04637ZM5.23187 20V17.8947H7.32461V20H5.23187ZM9.4174 20V17.8947H11.5101V20H9.4174ZM13.6029 20V17.8947H15.6956V20H13.6029ZM17.7883 20V17.8947H19.8811V20H17.7883ZM1.46492 15.7895L0 14.3158L1.6742 12.6316L0 10.9474L1.46492 9.4737L3.13912 11.1579L4.81332 9.4737L6.27824 10.9474L4.60404 12.6316L6.27824 14.3158L4.81332 15.7895L3.13912 14.1053L1.46492 15.7895ZM14.0737 14.7368C13.5505 14.7368 13.0709 14.636 12.635 14.4342C12.199 14.2325 11.824 13.9035 11.5101 13.4474C11.0741 13.693 10.625 13.9123 10.1629 14.1053C9.7008 14.2982 9.2255 14.4912 8.73722 14.6842L8.00476 12.7105C8.49306 12.5351 8.95957 12.3465 9.4043 12.1447C9.849 11.943 10.2806 11.7281 10.6992 11.5C10.612 11.114 10.5466 10.693 10.503 10.2368C10.4594 9.7807 10.4376 9.2895 10.4376 8.7632C10.4376 6.23684 10.9346 4.14474 11.9287 2.48684C12.9227 0.82895 14.1696 0 15.6694 0C16.5763 0 17.3175 0.33772 17.893 1.01316C18.4685 1.6886 18.7562 2.63158 18.7562 3.84211C18.7562 5.35088 18.281 6.84211 17.3306 8.3158C16.3801 9.7895 15.0591 11.114 13.3674 12.2895C13.4895 12.4123 13.6159 12.5044 13.7467 12.5658C13.8775 12.6272 14.0127 12.6579 14.1522 12.6579C14.6056 12.6579 15.1332 12.3684 15.7348 11.7895C16.3365 11.2105 16.8815 10.4474 17.3698 9.5L19.2794 10.3947C19.1574 10.693 19.0614 11.0526 18.9917 11.4737C18.9219 11.8947 18.9306 12.2632 19.0178 12.5789C19.1922 12.4912 19.3971 12.3421 19.6326 12.1316C19.868 11.9211 20.1078 11.6579 20.352 11.3421L22 12.6316C21.5466 13.2632 21.0234 13.7719 20.4304 14.1579C19.8375 14.5439 19.2881 14.7368 18.7824 14.7368C18.4162 14.7368 18.0892 14.6272 17.8014 14.4079C17.5137 14.1886 17.2739 13.8509 17.082 13.3947C16.5937 13.8333 16.0967 14.1667 15.591 14.3947C15.0852 14.6228 14.5795 14.7368 14.0737 14.7368Z" fill="#444746"/>
</svg>
