<svg width="16" height="22" viewBox="0 0 16 22" fill="none" xmlns="http://www.w3.org/2000/svg">
<path fill-rule="evenodd" clip-rule="evenodd" d="M7.82 3.01C9.93 2.96 12.05 3.73 13.66 5.34C16.78 8.47 16.78 13.53 13.65 16.67L12.24 15.26C14.58 12.92 14.58 9.11 12.24 6.77C11.04 5.56 9.44 5 7.86 5.04L8.91 6.09L7.5 7.5L4 4L7.5 0.5L8.92 1.91L7.82 3.01ZM7.09 15.91L8.5 14.5L12 18L8.49 21.49L7.08 20.08L8.18 18.98C6.07 19.03 3.95 18.26 2.34 16.65C-0.78 13.53 -0.78 8.46 2.34 5.34L3.76 6.74C1.42 9.08 1.42 12.89 3.76 15.23C4.96 16.44 6.56 17 8.14 16.96L7.09 15.91Z" fill="#C5221F"/>
</svg>
