<svg width="13" height="14" viewBox="0 0 13 14" fill="none" xmlns="http://www.w3.org/2000/svg">
<path d="M5 2.50001C5.95 2.50001 6.81 2.88001 7.44 3.50001H5.76V5.00001H10V0.76001H8.5V2.44001C7.6 1.55001 6.36 1.00001 5 1.00001C2.58 1.00001 0.56 2.72001 0.0999999 5.00001H1.66C2.1 3.56001 3.42 2.50001 5 2.50001ZM13 12.94L9.01 8.95001C9.43 8.38001 9.75 7.72001 9.89 7.00001H8.33C7.9 8.44001 6.57 9.50001 4.99 9.50001C4.04 9.50001 3.18 9.12001 2.55 8.50001H4.23V7.00001H0V11.24H1.5V9.56001C2.4 10.45 3.64 11 5 11C6.11 11 7.12 10.63 7.95 10.01L11.94 14L13 12.94Z" fill="#444746"/>
</svg>
