<svg width="72" height="72" viewBox="0 0 72 72" fill="none" xmlns="http://www.w3.org/2000/svg">
<path d="M61 10H11V20H61V10Z" fill="#E3E3E3"/>
<path d="M61 24H11V34H61V24Z" fill="#E3E3E3"/>
<path d="M33 38H11V48H33V38Z" fill="#E3E3E3"/>
<path d="M33 52H11V62H33V52Z" fill="#E3E3E3"/>
<path fill-rule="evenodd" clip-rule="evenodd" d="M58.4444 38H39.5556C38.15 38 37 39.15 37 40.5556V59.4444C37 60.85 38.15 62 39.5556 62H58.4444C59.85 62 61 60.85 61 59.4444V50.5V40.5556C61 39.15 59.85 38 58.4444 38ZM58.5 40.5556V44.5H49H39.5V40.5L58.5 40.5556ZM46 59.5H52V47H46V59.5ZM39.5 47H42H43.5V59.5H39.5V47ZM54.5 47V59.5H58.5V47H54.5Z" fill="#4C8DF6"/>
</svg>
