<svg width="14" height="12" viewBox="0 0 14 12" fill="none" xmlns="http://www.w3.org/2000/svg">
<path d="M0.5 12V10.5H2.042C1.41667 9.94467 0.92 9.28133 0.552 8.51C0.184 7.73933 0 6.90267 0 6C0 4.59733 0.423667 3.36467 1.271 2.302C2.11833 1.23933 3.19467 0.541334 4.5 0.208V1.771C3.62533 2.09033 2.90667 2.62833 2.344 3.385C1.78133 4.14233 1.5 5.014 1.5 6C1.5 6.66667 1.63533 7.28467 1.906 7.854C2.17667 8.42333 2.54133 8.90933 3 9.312V8H4.5V12H0.5ZM7 10C6.792 10 6.615 9.927 6.469 9.781C6.323 9.635 6.25 9.458 6.25 9.25C6.25 9.042 6.323 8.865 6.469 8.719C6.615 8.573 6.792 8.5 7 8.5C7.208 8.5 7.385 8.573 7.531 8.719C7.677 8.865 7.75 9.042 7.75 9.25C7.75 9.458 7.677 9.635 7.531 9.781C7.385 9.927 7.208 10 7 10ZM6.25 7V2H7.75V7H6.25ZM9.5 11.792V10.229C10.3747 9.90967 11.0933 9.37167 11.656 8.615C12.2187 7.85767 12.5 6.986 12.5 6C12.5 5.33333 12.3647 4.71533 12.094 4.146C11.8233 3.57667 11.4587 3.09067 11 2.688V4H9.5V0H13.5V1.5H11.958C12.5833 2.05533 13.08 2.71867 13.448 3.49C13.816 4.26067 14 5.09733 14 6C14 7.40267 13.5763 8.63533 12.729 9.698C11.8817 10.7607 10.8053 11.4587 9.5 11.792Z" fill="#444746"/>
</svg>
