<svg width="18" height="12" viewBox="0 0 18 12" fill="none" xmlns="http://www.w3.org/2000/svg">
<path d="M3.35217 4.0657L1.5488 2.2666C-0.516268 4.33305 -0.516268 7.68196 1.5488 9.74841L3.35217 7.94505C2.28729 6.87116 2.28729 5.13958 3.35217 4.0657Z" fill="#E8710A"/>
<path d="M9.04913 2.26656C6.98406 4.33301 6.98406 7.68192 9.04913 9.74837L10.8852 7.94501C10.013 6.85079 10.0997 5.27654 11.0868 4.28473C12.0739 3.29293 13.6477 3.19871 14.7461 4.06566L16.5494 2.2623C15.5601 1.26651 14.2158 0.704533 12.8121 0.699978C11.4084 0.695479 10.0605 1.24878 9.06475 2.23816L9.04913 2.25378V2.26656ZM8.5493 10.1815L7.21311 7.94501C6.13922 9.00989 4.40763 9.00989 3.33374 7.94501L1.54883 9.74979C3.40938 11.6104 6.35432 11.8215 8.46126 10.2454L8.54788 10.1815M1.54883 2.26656L3.3522 4.06566C4.42388 3.01292 6.14142 3.01292 7.21311 4.06566L8.5209 1.82495L8.4428 1.76531C6.33798 0.201389 3.40529 0.41462 1.54883 2.26656Z" fill="#F9AB00"/>
<path d="M16.5491 2.2666L14.7458 4.0657C15.618 5.15992 15.5312 6.73417 14.5441 7.72597C13.5571 8.71778 11.9832 8.812 10.8849 7.94505L9.04883 9.74983C11.1279 11.7391 14.4155 11.7026 16.45 9.66776C18.4845 7.63288 18.5203 4.34533 16.5307 2.2666H16.5491Z" fill="#E8710A"/>
</svg>
