<svg width="72" height="72" viewBox="0 0 72 72" fill="none" xmlns="http://www.w3.org/2000/svg">
<path d="M20 10H11V20H20V10Z" fill="#E3E3E3"/>
<path d="M20 24H11V34H20V24Z" fill="#E3E3E3"/>
<path d="M61 10H52V20H61V10Z" fill="#E3E3E3"/>
<path d="M61 24H52V34H61V24Z" fill="#E3E3E3"/>
<path d="M61 38H11V48H61V38Z" fill="#E3E3E3"/>
<path d="M61 52H11V62H61V52Z" fill="#E3E3E3"/>
<path fill-rule="evenodd" clip-rule="evenodd" d="M45.4444 10H26.5556C25.15 10 24 11.15 24 12.5556V31.4444C24 32.85 25.15 34 26.5556 34H45.4444C46.85 34 48 32.85 48 31.4444V22.5V12.5556C48 11.15 46.85 10 45.4444 10ZM45.5 12.5556V16.5H36H26.5V12.5L45.5 12.5556ZM33 31.5H39V19H33V31.5ZM26.5 19H29H30.5V31.5H26.5V19ZM41.5 19V31.5H45.5V19H41.5Z" fill="#4C8DF6"/>
</svg>
