<svg width="16" height="14" viewBox="0 0 16 14" fill="none" xmlns="http://www.w3.org/2000/svg">
<path d="M0 0H16V7H0V0ZM5 2C5 2.55614 5.44359 3 5.99078 3H10.0092C10.549 3 11 2.55228 11 2C11 1.44386 10.5564 1 10.0092 1H5.99078C5.45098 1 5 1.44772 5 2Z" fill="#E3E3E3"/>
<path d="M0 7H16V12.9971C16 13.551 15.5554 14 14.9991 14H1.00087C0.448106 14 0 13.5621 0 12.9971V7Z" fill="#EEEEEE"/>
<path d="M13.9329 10C12.8662 7.80001 10.5995 6.33334 7.99954 6.33334C5.93288 6.33334 4.06621 7.26668 2.86621 8.73334L5.06621 12.5333C5.26621 11.1333 6.53288 10 7.99954 10H13.9329Z" fill="#DB4437"/>
<path fill-rule="evenodd" clip-rule="evenodd" d="M10.9997 13C10.9997 13.34 10.9455 13.6945 10.8371 14H14.5895C14.6401 13.6706 14.6664 13.3429 14.6664 13C14.6664 12.3235 14.571 11.6362 14.3803 11L10.2207 11.0025C10.6926 11.5296 10.9997 12.2428 10.9997 13Z" fill="#FFC107"/>
<path fill-rule="evenodd" clip-rule="evenodd" d="M4.68313 14C3.84907 12.5728 2.18095 9.70816 2.18095 9.70816C1.64649 10.6915 1.33301 11.8196 1.33301 13C1.33301 13.3378 1.35766 13.6762 1.40529 14H4.68313Z" fill="#0F9D58"/>
<path d="M9.73534 14C9.90371 13.707 10 13.3622 10 13C10 11.8954 9.10457 11 8 11C6.89543 11 6 11.8954 6 13C6 13.3643 6.09742 13.7059 6.26764 14.0001L9.73534 14Z" fill="#4285F4"/>
</svg>
