<svg width="20" height="20" viewBox="0 0 20 20" fill="none" xmlns="http://www.w3.org/2000/svg">
<path d="M9.9996 0.000427246C7.34783 0.00137725 4.80495 1.05522 2.92987 2.9303C1.05479 4.80538 0.00095 7.34826 0 10C0 15.52 4.4796 19.9996 9.9996 19.9996C15.5196 19.9996 19.9992 15.52 19.9992 10C19.9992 4.48003 15.5196 0.000427246 9.9996 0.000427246ZM9.9996 18.0004C8.9489 18.0007 7.9084 17.794 6.93761 17.392C5.96681 16.9901 5.08473 16.4008 4.34176 15.6578C3.59879 14.9149 3.0095 14.0328 2.60755 13.062C2.20561 12.0912 1.99889 11.0507 1.9992 10C1.99889 8.94933 2.20561 7.90883 2.60755 6.93804C3.0095 5.96724 3.59879 5.08516 4.34176 4.34219C5.08473 3.59922 5.96681 3.00993 6.93761 2.60798C7.9084 2.20604 8.9489 1.99932 9.9996 1.99963C11.0502 1.99947 12.0906 2.20631 13.0612 2.60833C14.0319 3.01034 14.9138 3.59966 15.6567 4.34261C16.3995 5.08557 16.9887 5.9676 17.3906 6.93831C17.7924 7.90903 17.9991 8.94943 17.9988 10C17.9991 11.0506 17.7924 12.091 17.3906 13.0617C16.9887 14.0324 16.3995 14.9145 15.6567 15.6574C14.9138 16.4004 14.0319 16.9897 13.0612 17.3917C12.0906 17.7937 11.0502 18.0006 9.9996 18.0004ZM14.9988 10C15.0091 10.6631 14.8873 11.3216 14.6407 11.9372C14.394 12.5528 14.0274 13.1132 13.5621 13.5858C13.0968 14.0583 12.5422 14.4336 11.9304 14.6898C11.3187 14.9459 10.6622 15.0779 9.999 15.0779C9.3358 15.0779 8.6793 14.9459 8.0676 14.6898C7.45584 14.4336 6.9012 14.0583 6.4359 13.5858C5.97061 13.1132 5.60397 12.5528 5.35731 11.9372C5.11066 11.3216 4.98893 10.6631 4.9992 10C5.01954 8.68743 5.55525 7.43545 6.49068 6.51439C7.42611 5.59334 8.6862 5.07709 9.999 5.07709C11.3118 5.07709 12.5719 5.59334 13.5073 6.51439C14.4428 7.43545 14.9785 8.68743 14.9988 10Z" fill="#444746"/>
</svg>
