<svg width="19" height="17" viewBox="0 0 19 17" fill="none" xmlns="http://www.w3.org/2000/svg">
<path d="M9.00032 13.6666H2.33365C1.87532 13.6666 1.48296 13.5034 1.15657 13.177C0.830182 12.8506 0.666992 12.4582 0.666992 11.9999V1.99991C0.666992 1.54158 0.830182 1.14922 1.15657 0.822832C1.48296 0.496442 1.87532 0.333252 2.33365 0.333252H15.667C16.1253 0.333252 16.5177 0.496442 16.844 0.822832C17.1704 1.14922 17.3336 1.54158 17.3336 1.99991V6.16658H15.667V1.99991H2.33365V11.9999H9.00032V13.6666ZM7.00033 10.7499V3.28508L12.7503 6.99992L7.00033 10.7499ZM13.8753 16.1666L13.6253 14.9166C13.4586 14.8471 13.3024 14.7742 13.1565 14.6978C13.0107 14.6214 12.8614 14.5277 12.7086 14.4166L11.5003 14.7916L10.667 13.3749L11.6253 12.5416C11.5975 12.3471 11.5836 12.1666 11.5836 11.9999C11.5836 11.8332 11.5975 11.6527 11.6253 11.4582L10.667 10.6249L11.5003 9.20822L12.7086 9.58322C12.8614 9.47212 13.0107 9.37842 13.1565 9.30202C13.3024 9.22562 13.4586 9.15272 13.6253 9.08322L13.8753 7.83322H15.542L15.792 9.08322C15.9586 9.15272 16.1149 9.22912 16.2607 9.31242C16.4065 9.39572 16.5558 9.49992 16.7086 9.62492L17.917 9.20822L18.7503 10.6666L17.792 11.4999C17.8197 11.6666 17.8336 11.8402 17.8336 12.0207C17.8336 12.2013 17.8197 12.3749 17.792 12.5416L18.7503 13.3749L17.917 14.7916L16.7086 14.4166C16.5558 14.5277 16.4065 14.6214 16.2607 14.6978C16.1149 14.7742 15.9586 14.8471 15.792 14.9166L15.542 16.1666H13.8753ZM14.7086 13.6666C15.167 13.6666 15.5593 13.5034 15.8857 13.177C16.2121 12.8506 16.3753 12.4582 16.3753 11.9999C16.3753 11.5416 16.2121 11.1492 15.8857 10.8228C15.5593 10.4964 15.167 10.3332 14.7086 10.3332C14.2503 10.3332 13.8579 10.4964 13.5315 10.8228C13.2052 11.1492 13.042 11.5416 13.042 11.9999C13.042 12.4582 13.2052 12.8506 13.5315 13.177C13.8579 13.5034 14.2503 13.6666 14.7086 13.6666Z" fill="#444746"/>
</svg>
