<svg width="18" height="18" viewBox="0 0 18 18" fill="none" xmlns="http://www.w3.org/2000/svg">
<path d="M0 18V13.25L8.95 4.30002L7.5 2.90002L8.95 1.50002L10.85 3.40002L13.95 0.300024C14.1333 0.116691 14.3667 0.0250244 14.65 0.0250244C14.9333 0.0250244 15.1667 0.116691 15.35 0.300024L17.7 2.65002C17.8833 2.83336 17.975 3.06669 17.975 3.35002C17.975 3.63336 17.8833 3.86669 17.7 4.05002L14.625 7.12502L16.525 9.07502L15.1 10.5L13.7 9.05002L4.75 18H0ZM2 16H3.95L12.25 7.65002L10.35 5.75002L2 14.05V16ZM13.175 5.75002L15.575 3.35002L14.65 2.42502L12.25 4.82502L13.175 5.75002Z" fill="#444746"/>
</svg>
