<svg width="22" height="16" viewBox="0 0 22 16" fill="none" xmlns="http://www.w3.org/2000/svg">
<path d="M13 9C12.168 9 11.457 8.70703 10.875 8.125C10.293 7.54297 10 6.83203 10 6C10 5.16797 10.293 4.45703 10.875 3.875C11.457 3.29297 12.168 3 13 3C13.832 3 14.543 3.29297 15.125 3.875C15.707 4.45703 16 5.16797 16 6C16 6.83203 15.707 7.54297 15.125 8.125C14.543 8.70703 13.832 9 13 9ZM6 12C5.44922 12 4.98047 11.8047 4.58594 11.4141C4.19531 11.0195 4 10.5508 4 10V2C4 1.44922 4.19531 0.980469 4.58594 0.585938C4.98047 0.195312 5.44922 0 6 0H20C20.5508 0 21.0195 0.195312 21.4141 0.585938C21.8047 0.980469 22 1.44922 22 2V10C22 10.5508 21.8047 11.0195 21.4141 11.4141C21.0195 11.8047 20.5508 12 20 12H6ZM8 10H18C18 9.44922 18.1953 8.98047 18.5859 8.58594C18.9805 8.19531 19.4492 8 20 8V4C19.4492 4 18.9805 3.80469 18.5859 3.41406C18.1953 3.01953 18 2.55078 18 2H8C8 2.55078 7.80469 3.01953 7.41406 3.41406C7.01953 3.80469 6.55078 4 6 4V8C6.55078 8 7.01953 8.19531 7.41406 8.58594C7.80469 8.98047 8 9.44922 8 10ZM19 16H2C1.44922 16 0.980469 15.8047 0.585938 15.4141C0.195312 15.0195 0 14.5508 0 14V3H2V14H19V16Z" fill="#444746"/>
</svg>
