<svg width="20" height="16" viewBox="0 0 20 16" fill="none" xmlns="http://www.w3.org/2000/svg">
<path d="M4.00015 12H11.0002V9H4.00015V12ZM13.0002 12H16.0002V4H13.0002V12ZM4.00015 7H11.0002V4H4.00015V7ZM2.00015 16C1.45082 16 0.979488 15.8047 0.586155 15.414C0.397689 15.2304 0.24855 15.0103 0.147809 14.7672C0.0470681 14.5241 -0.00316867 14.2631 0.000154756 14V2C0.000154756 1.45067 0.195488 0.979333 0.586155 0.586C0.979488 0.195333 1.45082 0 2.00015 0H18.0002C18.5495 0 19.0208 0.195333 19.4142 0.586C19.8048 0.979333 20.0002 1.45067 20.0002 2V14C20.0002 14.5493 19.8048 15.0207 19.4142 15.414C19.0208 15.8047 18.5495 16 18.0002 16H2.00015ZM2.00015 14H18.0002V2H2.00015V14Z" fill="#444746"/>
</svg>
