<svg width="14" height="14" viewBox="0 0 14 14" fill="none" xmlns="http://www.w3.org/2000/svg">
<path d="M13.9767 0.25667C13.8989 0.05444 13.6811 -0.04667 13.4789 0.02333L9.3333 1.55556L4.66667 0L0.26444 1.47C0.10889 1.51667 0 1.67222 0 1.83556V13.6111C0 13.6578 0.00777997 13.7044 0.02333 13.7433C0.10111 13.9456 0.31889 14.0467 0.52111 13.9767L4.66667 12.4444L9.3333 14L13.7356 12.53C13.8911 12.4756 14 12.3278 14 12.1644V0.38889C14 0.34222 13.9922 0.29556 13.9767 0.25667ZM4 11.02L1.5 11.88V2.74L4 1.96V11.02ZM8.5 12.04L5.5 11.01V1.96L8.5 2.99V12.04ZM12.5 11.26L10 12.04V2.98L12.5 2.12V11.26Z" fill="#444746"/>
</svg>
