<svg width="17" height="16" viewBox="0 0 17 16" fill="none" xmlns="http://www.w3.org/2000/svg">
<path d="M5 16C4.51562 16 4.14063 15.8711 3.88672 15.6133C3.62891 15.3594 3.5 14.9844 3.5 14.5V4.5C3.5 4.02734 3.62891 3.66016 3.88672 3.39453C4.14063 3.13281 4.51562 3 5 3H15C15.4727 3 15.8398 3.13281 16.1055 3.39453C16.3672 3.66016 16.5 4.02734 16.5 4.5V14.5C16.5 14.9844 16.3672 15.3594 16.1055 15.6133C15.8398 15.8711 15.4727 16 15 16H5ZM5 7.5H15V4.5H5V7.5ZM9 11H11V9H9V11ZM9 14.5H11V12.5H9V14.5ZM5 11H7.5V9H5V11ZM12.5 11H15V9H12.5V11ZM5 14.5H7.5V12.5H5V14.5ZM12.5 14.5H15V12.5H12.5V14.5ZM2 13C1.625 13 1.28125 12.832 0.96875 12.5C0.65625 12.168 0.5 11.7578 0.5 11.2695V1.5C0.5 1.02734 0.628906 0.660156 0.886719 0.394531C1.14062 0.132812 1.51562 0 2 0H11.7695C12.2578 0 12.668 0.15625 13 0.46875C13.332 0.78125 13.5 1.125 13.5 1.5H2V13Z" fill="#444746"/>
</svg>
