<svg width="16" height="16" viewBox="0 0 16 16" fill="none" xmlns="http://www.w3.org/2000/svg">
<path d="M4 8.75H12V7.25H4V8.75ZM8.00391 16C6.90625 16 5.86719 15.793 4.89453 15.375C3.92187 14.957 3.07422 14.3867 2.34375 13.6562C1.61328 12.9258 1.04297 12.0781 0.625 11.1055C0.207031 10.1328 0 9.09375 0 7.99219C0 6.88672 0.207031 5.85156 0.625 4.88672C1.04297 3.92188 1.61328 3.07422 2.34375 2.34375C3.07422 1.61328 3.92187 1.04297 4.89453 0.625C5.86719 0.207031 6.90625 0 8.00781 0C9.11328 0 10.1484 0.207031 11.1133 0.625C12.0781 1.04297 12.9258 1.61328 13.6562 2.34375C14.3867 3.07422 14.957 3.92188 15.375 4.89062C15.793 5.85938 16 6.89453 16 7.99609C16 9.09375 15.793 10.1328 15.375 11.1055C14.957 12.0781 14.3867 12.9258 13.6562 13.6562C12.9258 14.3867 12.0781 14.957 11.1094 15.375C10.1406 15.793 9.10547 16 8.00391 16ZM8 14.5C9.80469 14.5 11.3398 13.8672 12.6055 12.6055C13.8672 11.3398 14.5 9.80469 14.5 8C14.5 6.19531 13.8672 4.66016 12.6055 3.39453C11.3398 2.13281 9.80469 1.5 8 1.5C6.19531 1.5 4.66016 2.13281 3.39453 3.39453C2.13281 4.66016 1.5 6.19531 1.5 8C1.5 9.80469 2.13281 11.3398 3.39453 12.6055C4.66016 13.8672 6.19531 14.5 8 14.5Z" fill="#444746"/>
</svg>
