<svg width="14" height="14" viewBox="0 0 14 14" fill="none" xmlns="http://www.w3.org/2000/svg">
<path d="M0 14V0H1.5V14H0ZM3.125 14V12.5H4.625V14H3.125ZM6.25 14V12.5H7.75V14H6.25ZM9.375 14V12.5H10.875V14H9.375ZM12.5 14V12.5H14V14H12.5ZM6.25 11V9.5H7.75V11H6.25ZM12.5 11V9.5H14V11H12.5ZM3.125 7.833V6.333H4.625V7.833H3.125ZM6.25 7.833V6.333H7.75V7.833H6.25ZM9.375 7.833V6.333H10.875V7.833H9.375ZM12.5 7.833V6.333H14V7.833H12.5ZM6.25 4.667V3.167H7.75V4.667H6.25ZM12.5 4.667V3.167H14V4.667H12.5ZM3.125 1.5V0H4.625V1.5H3.125ZM6.25 1.5V0H7.75V1.5H6.25ZM9.375 1.5V0H10.875V1.5H9.375ZM12.5 1.5V0H14V1.5H12.5Z" fill="#444746"/>
</svg>
