<svg width="14" height="16" viewBox="0 0 14 16" fill="none" xmlns="http://www.w3.org/2000/svg">
<path d="M1.5 16C1.0875 16 0.73437 15.8531 0.44062 15.5594C0.14687 15.2656 0 14.9125 0 14.5V3.5C0 3.0875 0.14687 2.73438 0.44062 2.44063C0.73437 2.14688 1.0875 2 1.5 2H5.0625C5.17361 1.55556 5.40993 1.19444 5.77146 0.91667C6.13299 0.63889 6.54271 0.5 7.0006 0.5C7.4585 0.5 7.8681 0.63889 8.2292 0.91667C8.5903 1.19444 8.8264 1.55556 8.9375 2H12.5C12.9125 2 13.2656 2.14688 13.5594 2.44063C13.8531 2.73438 14 3.0875 14 3.5V14.5C14 14.9125 13.8531 15.2656 13.5594 15.5594C13.2656 15.8531 12.9125 16 12.5 16H1.5ZM7 3C7.1444 3 7.2639 2.95278 7.3583 2.85833C7.4528 2.76389 7.5 2.64444 7.5 2.5C7.5 2.35556 7.4528 2.23611 7.3583 2.14167C7.2639 2.04722 7.1444 2 7 2C6.85556 2 6.73611 2.04722 6.64167 2.14167C6.54722 2.23611 6.5 2.35556 6.5 2.5C6.5 2.64444 6.54722 2.76389 6.64167 2.85833C6.73611 2.95278 6.85556 3 7 3ZM1.5 13.3958C2.27778 12.7569 3.13889 12.2813 4.08333 11.9688C5.02778 11.6563 6 11.5 7 11.5C8 11.5 8.9722 11.6528 9.9167 11.9583C10.8611 12.2639 11.7222 12.7431 12.5 13.3958V3.5H1.5V13.3958ZM7.005 10.5C7.835 10.5 8.5417 10.2067 9.125 9.62C9.7083 9.0333 10 8.325 10 7.495C10 6.665 9.7067 5.95833 9.12 5.375C8.5333 4.79167 7.825 4.5 6.995 4.5C6.165 4.5 5.45833 4.79333 4.875 5.38C4.29167 5.96667 4 6.675 4 7.505C4 8.335 4.29333 9.0417 4.88 9.625C5.46667 10.2083 6.175 10.5 7.005 10.5ZM2.52083 14.5H11.4792C10.8403 14.0139 10.1389 13.6424 9.375 13.3854C8.6111 13.1285 7.8194 13 7 13C6.18056 13 5.39236 13.1285 4.63542 13.3854C3.87847 13.6424 3.17361 14.0139 2.52083 14.5ZM7 9C6.58333 9 6.22917 8.85417 5.9375 8.5625C5.64583 8.27083 5.5 7.91667 5.5 7.5C5.5 7.08333 5.64583 6.72917 5.9375 6.4375C6.22917 6.14583 6.58333 6 7 6C7.4167 6 7.7708 6.14583 8.0625 6.4375C8.3542 6.72917 8.5 7.08333 8.5 7.5C8.5 7.91667 8.3542 8.27083 8.0625 8.5625C7.7708 8.85417 7.4167 9 7 9Z" fill="#444746"/>
</svg>
