<svg width="16" height="15" viewBox="0 0 16 15" fill="none" xmlns="http://www.w3.org/2000/svg">
<path d="M0 7L4 0L8 7H0ZM4 15C3.16667 15 2.45833 14.7067 1.875 14.12C1.29167 13.5333 1 12.8281 1 12.0044C1 11.1681 1.29167 10.4583 1.875 9.875C2.45833 9.2917 3.16667 9 4 9C4.83333 9 5.54167 9.2917 6.125 9.875C6.70833 10.4583 7 11.1667 7 12C7 12.8333 6.70833 13.5417 6.125 14.125C5.54167 14.7083 4.83333 15 4 15ZM4.00437 13.5C4.41812 13.5 4.77083 13.3527 5.0625 13.0581C5.35417 12.7635 5.5 12.4094 5.5 11.9956C5.5 11.5819 5.35271 11.2292 5.05813 10.9375C4.76354 10.6458 4.40938 10.5 3.99563 10.5C3.58188 10.5 3.22917 10.6473 2.9375 10.9419C2.64583 11.2365 2.5 11.5906 2.5 12.0044C2.5 12.4181 2.64729 12.7708 2.94188 13.0625C3.23646 13.3542 3.59062 13.5 4.00437 13.5ZM2.60417 5.5H5.39583L4 3.02083L2.60417 5.5ZM9 15V9H15V15H9ZM10.5 13.5H13.5V10.5H10.5V13.5ZM12 7C11.25 6.375 10.6315 5.85701 10.1446 5.44604C9.6578 5.03521 9.2689 4.6741 8.9779 4.36271C8.6871 4.05146 8.4826 3.76389 8.3646 3.5C8.2465 3.23611 8.1875 2.93979 8.1875 2.61104C8.1875 2.0191 8.3819 1.51931 8.7708 1.11167C9.1597 0.70389 9.6629 0.5 10.2804 0.5C10.6351 0.5 10.9549 0.57292 11.2396 0.71875C11.5243 0.86458 11.7778 1.09028 12 1.39583C12.2222 1.09028 12.4792 0.86458 12.7708 0.71875C13.0625 0.57292 13.3832 0.5 13.7329 0.5C14.3415 0.5 14.8403 0.70389 15.2292 1.11167C15.6181 1.51931 15.8125 2.0191 15.8125 2.61104C15.8125 2.93979 15.7569 3.23611 15.6458 3.5C15.5347 3.76389 15.3324 4.05 15.039 4.35833C14.7455 4.66667 14.3531 5.02431 13.8619 5.43125C13.3706 5.83819 12.75 6.36111 12 7ZM12 5C12.9444 4.20833 13.566 3.66319 13.8646 3.36458C14.1632 3.06597 14.3125 2.80556 14.3125 2.58333C14.3125 2.43056 14.2569 2.29514 14.1458 2.17708C14.0347 2.05903 13.9046 2 13.7554 2C13.6407 2 13.5347 2.02778 13.4375 2.08333C13.3403 2.13889 13.2569 2.20833 13.1875 2.29167L12 3.39583L10.8333 2.29167C10.75 2.20833 10.6583 2.13889 10.5581 2.08333C10.4581 2.02778 10.3554 2 10.25 2C10.0972 2 9.9653 2.05903 9.8542 2.17708C9.7431 2.29514 9.6875 2.43056 9.6875 2.58333C9.6875 2.81944 9.8438 3.09028 10.1563 3.39583C10.4688 3.70139 11.0833 4.23611 12 5Z" fill="#444746"/>
</svg>
