<svg width="16" height="13" viewBox="0 0 16 13" fill="none" xmlns="http://www.w3.org/2000/svg">
<path d="M11.41 12.99C11.21 12.98 11.06 12.92 11.04 12.92C10.84 12.86 10.63 12.71 10.62 12.71L6.88 10H1.5C0.67 10 0 10.67 0 11.5C0 12.33 0.67 13 1.5 13H11.5C11.52 13 11.54 12.99 11.56 12.99C11.56 12.99 11.45 13 11.41 12.99ZM1.75 12.25C1.34 12.25 1 11.91 1 11.5C1 11.09 1.34 10.75 1.75 10.75C2.16 10.75 2.5 11.09 2.5 11.5C2.5 11.91 2.16 12.25 1.75 12.25Z" fill="#EA4335"/>
<path d="M10.6902 12.75C10.4402 12.59 10.2402 12.37 10.1202 12.05C10.1102 12.02 10.0902 11.9899 10.0802 11.9599L8.65018 7.56995L4.29018 4.40995C3.62018 3.91995 2.68018 4.06995 2.20018 4.73995C1.72018 5.40995 1.86018 6.34995 2.53018 6.83995L6.88018 9.99995L10.6102 12.71C10.6402 12.73 10.6602 12.74 10.6902 12.75ZM4.22018 6.20995C3.98018 6.53995 3.51018 6.61995 3.17018 6.37995C2.83018 6.13995 2.76018 5.65995 3.01018 5.32995C3.25018 4.98995 3.72018 4.91995 4.06018 5.15995C4.39018 5.40995 4.46018 5.86995 4.22018 6.20995Z" fill="#FBBC04"/>
<path d="M10.0699 11.96C10.0799 11.99 10.0999 12.02 10.1099 12.05C9.97991 11.74 9.95991 11.38 10.0699 11.03L11.4599 6.51998L9.83991 1.51998C9.57991 0.72998 8.73991 0.29998 7.94991 0.55998C7.15991 0.81998 6.72991 1.65998 6.98991 2.44998L8.64991 7.56998L10.0699 11.96ZM7.76991 2.45998C7.64991 2.05998 7.85991 1.63998 8.25991 1.50998C8.64991 1.37998 9.07991 1.59998 9.20991 1.98998C9.33991 2.37998 9.11991 2.80998 8.72991 2.93998C8.31991 3.06998 7.89991 2.84998 7.76991 2.45998Z" fill="#34A853"/>
<path d="M14.89 0.559955C14.1 0.309955 13.26 0.739955 13 1.52995L10.07 11.04C9.81003 11.83 10.25 12.67 11.03 12.93C11.82 13.19 12.66 12.75 12.92 11.97L15.85 2.45995C16.11 1.65995 15.68 0.819955 14.89 0.559955ZM12.29 11.49C12.16 11.88 11.74 12.1 11.34 11.97C10.94 11.84 10.73 11.42 10.86 11.02C10.99 10.63 11.41 10.41 11.81 10.54C12.2 10.68 12.42 11.1 12.29 11.49ZM15.06 2.45995C14.93 2.84995 14.51 3.06995 14.11 2.93995C13.72 2.80995 13.5 2.38995 13.63 1.98995C13.76 1.58995 14.18 1.37995 14.58 1.50995C14.97 1.63995 15.19 2.05995 15.06 2.45995Z" fill="#4285F4"/>
</svg>
