<svg width="20" height="20" viewBox="0 0 20 20" fill="none" xmlns="http://www.w3.org/2000/svg">
<path d="M6.39844 15L10 11.3984L13.6016 15L15 13.6016L11.3984 10L15 6.39844L13.6016 5L10 8.60156L6.39844 5L5 6.39844L8.60156 10L5 13.6016L6.39844 15ZM10 20C8.61719 20 7.31641 19.7383 6.10156 19.2109C4.88281 18.6875 3.82422 17.9766 2.92578 17.0742C2.02344 16.1758 1.3125 15.1172 0.789062 13.8984C0.261719 12.6836 0 11.3828 0 10C0 8.61719 0.261719 7.31641 0.789062 6.10156C1.3125 4.88281 2.02344 3.82422 2.92578 2.92578C3.82422 2.02344 4.88281 1.3125 6.10156 0.789062C7.31641 0.261719 8.61719 0 10 0C11.3828 0 12.6836 0.261719 13.8984 0.789062C15.1172 1.3125 16.1758 2.02344 17.0742 2.92578C17.9766 3.82422 18.6875 4.88281 19.2109 6.10156C19.7383 7.31641 20 8.61719 20 10C20 11.3828 19.7383 12.6836 19.2109 13.8984C18.6875 15.1172 17.9766 16.1758 17.0742 17.0742C16.1758 17.9766 15.1172 18.6875 13.8984 19.2109C12.6836 19.7383 11.3828 20 10 20Z" fill="#D93025"/>
</svg>
