<svg width="26" height="36" viewBox="0 0 26 36" fill="none" xmlns="http://www.w3.org/2000/svg">
<path fill-rule="evenodd" clip-rule="evenodd" d="M2.5 0H17L26 9V33.5C26 34.8807 24.8807 36 23.5 36H2.5C1.11929 36 0 34.8807 0 33.5V2.5C0 1.11929 1.11929 0 2.5 0Z" fill="#4285F4"/>
<path fill-rule="evenodd" clip-rule="evenodd" d="M0 33C0 34.3807 1.11929 35.5 2.5 35.5H23.5C24.8807 35.5 26 34.3807 26 33V33.5C26 34.8807 24.8807 36 23.5 36H2.5C1.11929 36 0 34.8807 0 33.5V33Z" fill="#1A237E" fill-opacity="0.2"/>
<path fill-rule="evenodd" clip-rule="evenodd" d="M2.5 0H17V0.5H2.5C1.11929 0.5 0 1.61929 0 3V2.5C0 1.11929 1.11929 0 2.5 0Z" fill="white" fill-opacity="0.2"/>
<path d="M17.5 8L26 16.5V9" fill="url(#paint0_linear_148_14820)"/>
<path fill-rule="evenodd" clip-rule="evenodd" d="M17 0L26 9H19.5C18.1193 9 17 7.88071 17 6.5V0Z" fill="#A1C2FA"/>
<path fill-rule="evenodd" clip-rule="evenodd" d="M6 16H20V18H6V16ZM6 20H20V22H6V20ZM6 24H20V26H6V24ZM6 28H16V30H6V28Z" fill="#F1F1F1"/>
<path fill-rule="evenodd" clip-rule="evenodd" d="M2.5 0H17L26 9V33.5C26 34.8807 24.8807 36 23.5 36H2.5C1.11929 36 0 34.8807 0 33.5V2.5C0 1.11929 1.11929 0 2.5 0Z" fill="url(#paint1_radial_148_14820)" fill-opacity="0.1"/>
<defs>
<linearGradient id="paint0_linear_148_14820" x1="442.542" y1="80.981" x2="442.542" y2="858.119" gradientUnits="userSpaceOnUse">
<stop stop-color="#BF360C" stop-opacity="0.2"/>
<stop offset="1" stop-color="#BF360C" stop-opacity="0.02"/>
</linearGradient>
<radialGradient id="paint1_radial_148_14820" cx="0" cy="0" r="1" gradientUnits="userSpaceOnUse" gradientTransform="translate(82.368 70.6757) scale(4192.45 4192.44)">
<stop stop-color="white"/>
<stop offset="1" stop-color="white" stop-opacity="0"/>
</radialGradient>
</defs>
</svg>
