<svg width="21" height="20" viewBox="0 0 21 20" fill="none" xmlns="http://www.w3.org/2000/svg">
<path d="M9 15.75V18H19V9H15.75C15.8333 8.7 15.8958 8.3667 15.9375 8C15.9792 7.63333 16 7.3 16 7H19C19.55 7 20.0208 7.19583 20.4125 7.5875C20.8042 7.97917 21 8.45 21 9V18C21 18.55 20.8042 19.0208 20.4125 19.4125C20.0208 19.8042 19.55 20 19 20H9C8.45 20 7.97917 19.8042 7.5875 19.4125C7.19583 19.0208 7 18.55 7 18V16C7.3 16 7.63333 15.9792 8 15.9375C8.36667 15.8958 8.7 15.8333 9 15.75ZM7 14C5.06667 14 3.41667 13.3167 2.05 11.95C0.68333 10.5833 0 8.9333 0 7C0 5.06667 0.68333 3.41667 2.05 2.05C3.41667 0.68333 5.06667 0 7 0C8.93333 0 10.5833 0.68333 11.95 2.05C13.3167 3.41667 14 5.06667 14 7C14 8.9333 13.3167 10.5833 11.95 11.95C10.5833 13.3167 8.93333 14 7 14ZM7 12C8.38333 12 9.5625 11.5125 10.5375 10.5375C11.5125 9.5625 12 8.3833 12 7C12 5.61667 11.5125 4.4375 10.5375 3.4625C9.5625 2.4875 8.38333 2 7 2C5.61667 2 4.4375 2.4875 3.4625 3.4625C2.4875 4.4375 2 5.61667 2 7C2 8.3833 2.4875 9.5625 3.4625 10.5375C4.4375 11.5125 5.61667 12 7 12Z" fill="#F29900"/>
</svg>
