<svg width="14" height="16" viewBox="0 0 14 16" fill="none" xmlns="http://www.w3.org/2000/svg">
<path d="M7 3.5C6.76888 3.50387 6.5393 3.46164 6.32468 3.37579C6.11006 3.28994 5.9147 3.16219 5.75 3C5.58781 2.8353 5.46006 2.63994 5.37421 2.42532C5.28836 2.2107 5.24613 1.98112 5.25 1.75C5.25 1.264 5.417 0.854 5.75 0.52C6.097 0.175 6.514 0 7 0C7.486 0 7.896 0.174 8.23 0.52C8.576 0.854 8.75 1.264 8.75 1.75C8.75 2.236 8.576 2.653 8.23 3C7.896 3.333 7.486 3.5 7 3.5ZM4.5 15.75V6.104C3.73623 6.04849 2.97754 5.93719 2.23 5.771C1.48391 5.60188 0.740486 5.42119 0 5.229L0.375 3.833C1.458 4.125 2.549 4.354 3.645 4.521C5.86393 4.82553 8.11407 4.82553 10.333 4.521C11.4425 4.35454 12.5417 4.12483 13.625 3.833L14 5.23C13.25 5.425 12.5 5.605 11.75 5.772C11.0094 5.93922 10.2573 6.05054 9.5 6.105V15.751H8L7.812 11.126H6.209L6 15.75H4.5Z" fill="#444746"/>
</svg>
