<svg width="17" height="17" viewBox="0 0 17 17" fill="none" xmlns="http://www.w3.org/2000/svg">
<path fill-rule="evenodd" clip-rule="evenodd" d="M1.90929 0.94873L0.848633 2.00939L3.00012 4.16088V7.71081C3.00012 11.44 5.55704 14.6508 9.00012 15.5C10.3122 15.1764 11.4955 14.5185 12.4578 13.6185L14.9907 16.1515L16.0514 15.0908L13.4536 12.493L12.4518 11.4912L9.78909 8.82853L7.65025 6.68966L5.21932 4.25876L4.16198 3.20139L1.90929 0.94873ZM4.38474 5.54549V7.71081C4.38474 10.72 6.35089 13.2292 9.00012 14.06C9.92391 13.7703 10.7646 13.2765 11.4679 12.6286L9.53158 10.6923H7.89243L8.1318 9.29253L4.38474 5.54549ZM8.72461 5.64269L10.3572 7.27527C10.3752 7.18627 10.3847 7.09422 10.3847 7.00004C10.3847 6.23388 9.76627 5.61542 9.00012 5.61542C8.90575 5.61542 8.81362 5.6248 8.72461 5.64269ZM13.6155 7.71081C13.6155 8.55456 13.4609 9.35903 13.18 10.0981L14.2411 11.1591C14.7277 10.1162 15.0001 8.94754 15.0001 7.71081V3.73004L9.00012 1.00004L5.61993 2.53802L6.66356 3.58165L9.00012 2.48619L13.6155 4.65004V7.71081Z" fill="#444746"/>
</svg>
