<svg width="18" height="18" viewBox="0 0 18 18" fill="none" xmlns="http://www.w3.org/2000/svg">
<path fill-rule="evenodd" clip-rule="evenodd" d="M2 0H16C17.1 0 18 0.9 18 2V7.18945L16 6.25884V6H15.4437L13.5 5.09558L11.5563 6H8V2H6V6H2V8H6V16H8V14.4166C8.50776 15.822 9.38051 17.0822 10.5174 18H2C0.9 18 0 17.1 0 16V5L0.01 2C0.01 0.9 0.9 0 2 0Z" fill="#34A853"/>
<path d="M13.5 6.75L18 8.84387V11.5954C18 14.5004 16.0801 17.2098 13.5 17.8713C10.9199 17.2098 9 14.5004 9 11.5954V8.84387L13.5 6.75ZM13.5 8.00924L10.1002 9.59116V11.5954C10.1002 13.8902 11.5614 16.033 13.5 16.6769C15.4386 16.033 16.8998 13.8902 16.8998 11.5954V9.59116L13.5 8.00924ZM13.5 10.2014C14.1213 10.2014 14.625 10.6784 14.625 11.2667C14.625 11.6664 14.3925 12.0147 14.0485 12.197L14.436 14.0363H12.636L13.0179 12.2295C12.6378 12.0585 12.375 11.6917 12.375 11.2667C12.375 10.6784 12.8787 10.2014 13.5 10.2014Z" fill="#444746"/>
</svg>
