<svg width="18" height="15" viewBox="0 0 18 15" fill="none" xmlns="http://www.w3.org/2000/svg">
<path d="M2.07422 15C1.52422 15 1.05339 14.8042 0.661719 14.4125C0.270049 14.0208 0.0742188 13.55 0.0742188 13C0.0742188 12.45 0.270049 11.9792 0.661719 11.5875C1.05339 11.1958 1.52422 11 2.07422 11H6.72422L2.89922 8.3C2.39922 7.95 2.12422 7.4708 2.07422 6.8625C2.02422 6.2542 2.20755 5.73333 2.62422 5.3C2.99089 4.93333 3.42839 4.7375 3.93672 4.7125C4.44505 4.6875 4.89922 4.81667 5.29922 5.1L9.0242 7.725L7.4242 3.35C7.1742 2.66667 7.2534 2.05 7.6617 1.5C8.0701 0.95 8.6242 0.675 9.3242 0.675C9.7576 0.675 10.1409 0.80417 10.4742 1.0625C10.8076 1.32083 11.0576 1.66667 11.2242 2.1L12.7992 6.4L13.9742 1.975C14.1076 1.49167 14.3534 1.10417 14.7117 0.8125C15.0701 0.52083 15.4826 0.375 15.9492 0.375C16.6159 0.375 17.1451 0.6375 17.5367 1.1625C17.9284 1.6875 18.0326 2.26667 17.8492 2.9L14.9992 13.5C14.8659 13.9333 14.6284 14.2917 14.2867 14.575C13.9451 14.8583 13.5492 15 13.0992 15H2.07422ZM4.07422 7.675C4.35755 7.675 4.59505 7.5792 4.78672 7.3875C4.97839 7.1958 5.07422 6.9583 5.07422 6.675C5.07422 6.3917 4.97839 6.1542 4.78672 5.9625C4.59505 5.77083 4.35755 5.675 4.07422 5.675C3.79089 5.675 3.55339 5.77083 3.36172 5.9625C3.17005 6.1542 3.07422 6.3917 3.07422 6.675C3.07422 6.9583 3.17005 7.1958 3.36172 7.3875C3.55339 7.5792 3.79089 7.675 4.07422 7.675ZM9.2992 3.65C9.5826 3.65 9.8201 3.55417 10.0117 3.3625C10.2034 3.17083 10.2992 2.93333 10.2992 2.65C10.2992 2.36667 10.2034 2.12917 10.0117 1.9375C9.8201 1.74583 9.5826 1.65 9.2992 1.65C9.0159 1.65 8.7784 1.74583 8.5867 1.9375C8.3951 2.12917 8.2992 2.36667 8.2992 2.65C8.2992 2.93333 8.3951 3.17083 8.5867 3.3625C8.7784 3.55417 9.0159 3.65 9.2992 3.65ZM2.07422 14C2.35755 14 2.59505 13.9042 2.78672 13.7125C2.97839 13.5208 3.07422 13.2833 3.07422 13C3.07422 12.7167 2.97839 12.4792 2.78672 12.2875C2.59505 12.0958 2.35755 12 2.07422 12C1.79089 12 1.55339 12.0958 1.36172 12.2875C1.17005 12.4792 1.07422 12.7167 1.07422 13C1.07422 13.2833 1.17005 13.5208 1.36172 13.7125C1.55339 13.9042 1.79089 14 2.07422 14ZM15.9492 3.375C16.2326 3.375 16.4701 3.27917 16.6617 3.0875C16.8534 2.89583 16.9492 2.65833 16.9492 2.375C16.9492 2.09167 16.8534 1.85417 16.6617 1.6625C16.4701 1.47083 16.2326 1.375 15.9492 1.375C15.6659 1.375 15.4284 1.47083 15.2367 1.6625C15.0451 1.85417 14.9492 2.09167 14.9492 2.375C14.9492 2.65833 15.0451 2.89583 15.2367 3.0875C15.4284 3.27917 15.6659 3.375 15.9492 3.375Z" fill="#444746"/>
</svg>
