<svg width="15" height="16" viewBox="0 0 15 16" fill="none" xmlns="http://www.w3.org/2000/svg">
<path d="M0 7.64287V5.99851L3.22917 3H4.99999L0 7.64287ZM0 3.96726V3H1.04167L0 3.96726ZM1.25 12.189L3.58334 10.003C3.69444 10.1707 3.81944 10.3254 3.95833 10.4673C4.09722 10.6092 4.24305 10.751 4.39583 10.8928L3.95833 11.2991C3.48611 11.4023 3.02084 11.5248 2.5625 11.6667C2.11806 11.7957 1.68056 11.9698 1.25 12.189ZM0 11.3185V9.6741L3.41666 6.50149C3.33334 6.70784 3.25 6.92064 3.16667 7.13989C3.08334 7.34624 3.04167 7.55904 3.04167 7.77828C3.04167 7.89436 3.02778 8.01688 3 8.14585C2.98611 8.26191 2.99306 8.37799 3.02084 8.49407L0 11.3185ZM13.625 13.3303C13.5139 13.1627 13.3889 13.0079 13.25 12.8661C13.1111 12.7114 12.9514 12.5824 12.7708 12.4792L14 11.3378V12.9821L13.625 13.3303ZM11.375 11.7634C11.2778 11.7377 11.1805 11.6989 11.0833 11.6473C11 11.5958 10.9097 11.5571 10.8125 11.5312C10.6875 11.4926 10.5625 11.4539 10.4375 11.4152C10.3125 11.3765 10.1875 11.3442 10.0625 11.3185L14 7.66221V9.3066L11.375 11.7634ZM7 10.8928C6.16666 10.8928 5.45833 10.6221 4.87499 10.0803C4.29166 9.5387 3.99999 8.88097 3.99999 8.10716C3.99999 7.33334 4.29166 6.6756 4.87499 6.13394C5.45833 5.59226 6.16666 5.32144 7 5.32144C7.8333 5.32144 8.5416 5.59226 9.125 6.13394C9.7083 6.6756 10 7.33334 10 8.10716C10 8.88097 9.7083 9.5387 9.125 10.0803C8.5416 10.6221 7.8333 10.8928 7 10.8928ZM7 9.5C7.4166 9.5 7.7708 9.3646 8.0625 9.0938C8.3541 8.82293 8.5 8.49406 8.5 8.10716C8.5 7.72025 8.3541 7.39138 8.0625 7.12055C7.7708 6.84971 7.4166 6.7143 7 6.7143C6.58333 6.7143 6.22916 6.84971 5.93749 7.12055C5.64583 7.39138 5.49999 7.72025 5.49999 8.10716C5.49999 8.49406 5.64583 8.82293 5.93749 9.0938C6.22916 9.3646 6.58333 9.5 7 9.5ZM1 16V14.6846C1 14.3493 1.08334 14.0462 1.25 13.7753C1.43056 13.4916 1.67361 13.2659 1.97917 13.0982C2.74306 12.6855 3.54861 12.3696 4.39583 12.1503C5.24305 11.9311 6.1111 11.8214 7 11.8214C7.8889 11.8214 8.7569 11.9311 9.6041 12.1503C10.4514 12.3696 11.2569 12.6855 12.0208 13.0982C12.3264 13.2659 12.5625 13.4916 12.7291 13.7753C12.9097 14.0462 13 14.3493 13 14.6846V16H1ZM2.52084 14.6071H11.4791C11.4791 14.5427 11.4583 14.4847 11.4166 14.433C11.3889 14.3815 11.3403 14.3364 11.2708 14.2976C10.618 13.9236 9.9305 13.6528 9.2083 13.4851C8.4861 13.3046 7.75 13.2143 7 13.2143C6.24999 13.2143 5.51388 13.3046 4.79166 13.4851C4.06944 13.6657 3.38195 13.9365 2.72917 14.2976C2.65972 14.3364 2.60417 14.3815 2.5625 14.433C2.53473 14.4847 2.52084 14.5427 2.52084 14.6071ZM11.5 7C11.4878 7 11.4818 6.99392 11.4818 6.98177C11.4818 6.50174 11.3906 6.05208 11.2083 5.63281C11.0321 5.21354 10.786 4.84592 10.4701 4.52995C10.1541 4.21398 9.7865 3.96788 9.3672 3.79167C8.9479 3.60938 8.4983 3.51823 8.0182 3.51823C8.0061 3.51823 8 3.51215 8 3.5C8 3.48785 8.0061 3.48177 8.0182 3.48177C8.4983 3.48177 8.9479 3.39366 9.3672 3.21745C9.7865 3.03516 10.1541 2.78602 10.4701 2.47005C10.786 2.15408 11.0321 1.78646 11.2083 1.36719C11.3906 0.94792 11.4818 0.49826 11.4818 0.01823C11.4818 0.00607996 11.4878 0 11.5 0C11.5122 0 11.5182 0.00607996 11.5182 0.01823C11.5182 0.49826 11.6063 0.94792 11.7826 1.36719C11.9648 1.78646 12.214 2.15408 12.5299 2.47005C12.8459 2.78602 13.2135 3.03516 13.6328 3.21745C14.0521 3.39366 14.5017 3.48177 14.9818 3.48177C14.9939 3.48177 15 3.48785 15 3.5C15 3.51215 14.9939 3.51823 14.9818 3.51823C14.5017 3.51823 14.0521 3.60938 13.6328 3.79167C13.2135 3.96788 12.8459 4.21398 12.5299 4.52995C12.214 4.84592 11.9648 5.21354 11.7826 5.63281C11.6063 6.05208 11.5182 6.50174 11.5182 6.98177C11.5182 6.99392 11.5122 7 11.5 7Z" fill="#0B57D0"/>
</svg>
