<svg width="17" height="17" viewBox="0 0 17 17" fill="none" xmlns="http://www.w3.org/2000/svg">
<path d="M12.7303 4.26998L14.5003 3.59998L16.2703 4.26998L15.6003 2.49998L16.2703 0.72998L14.5003 1.39998L12.7303 0.72998L13.4003 2.49998L12.7303 4.26998ZM3.23031 4.26998L5.00031 3.59998L6.77031 4.26998L6.10031 2.49998L6.77031 0.72998L5.00031 1.39998L3.23031 0.72998L3.90031 2.49998L3.23031 4.26998ZM16.2703 10.15L14.5103 10.81L12.7303 10.15L13.4003 11.92L12.7303 13.69L14.5003 13.02L16.2703 13.69L15.6103 11.91L16.2703 10.15ZM12.7103 6.40998L10.5903 4.28998C10.2003 3.89998 9.57031 3.89998 9.18031 4.28998L0.300312 13.17C-0.0896875 13.56 -0.0896875 14.19 0.300312 14.58L2.42031 16.7C2.81031 17.09 3.44031 17.09 3.83031 16.7L12.7103 7.81998C13.1003 7.42998 13.1003 6.79998 12.7103 6.40998ZM3.11031 15.3L1.70031 13.89L7.91031 7.67998L9.32031 9.08998L3.11031 15.3Z" fill="#444746"/>
</svg>
