<svg width="16" height="16" viewBox="0 0 16 16" fill="none" xmlns="http://www.w3.org/2000/svg">
<path d="M8 0C3.58 0 0 3.58 0 8C0 12.42 3.58 16 8 16C12.42 16 16 12.42 16 8C16 3.58 12.42 0 8 0ZM7 14.41C3.89 13.93 1.5 11.24 1.5 8C1.5 7.54 1.55 7.08 1.64 6.64L6 11V12C6 12.55 6.45 13 7 13V14.41ZM13.49 11.46C13.34 11.7 12.96 12.19 13 12.14C12.99 11.51 12.48 11 11.85 11H11V9C11 8.45 10.55 8 10 8H5V6H6C6.55 6 7 5.55 7 5V4H9C9.83 4 10.5 3.33 10.5 2.5V2.01C12.84 2.99 14.5 5.3 14.5 8C14.5 9.27 14.13 10.46 13.49 11.46Z" fill="#444746"/>
</svg>
