<svg width="16" height="16" viewBox="0 0 16 16" fill="none" xmlns="http://www.w3.org/2000/svg">
<path d="M7.99563 12C8.2069 12 8.3854 11.9285 8.5313 11.7856C8.6771 11.6427 8.75 11.4656 8.75 11.2544C8.75 11.0431 8.6785 10.8646 8.5356 10.7188C8.3927 10.5729 8.2156 10.5 8.0044 10.5C7.79312 10.5 7.61458 10.5715 7.46875 10.7144C7.32292 10.8573 7.25 11.0344 7.25 11.2456C7.25 11.4569 7.32146 11.6354 7.46438 11.7813C7.60729 11.9271 7.78438 12 7.99563 12ZM7.25 9H8.75V4H7.25V9ZM8.0058 16C6.90472 16 5.86806 15.7917 4.89583 15.375C3.92361 14.9583 3.07292 14.3854 2.34375 13.6563C1.61458 12.9271 1.04167 12.0767 0.625 11.105C0.20833 10.1333 0 9.0951 0 7.99042C0 6.88569 0.20833 5.85069 0.625 4.88542C1.04167 3.92014 1.61458 3.07292 2.34375 2.34375C3.07292 1.61458 3.92333 1.04167 4.895 0.625C5.86667 0.20833 6.90486 0 8.0096 0C9.1143 0 10.1493 0.20833 11.1146 0.625C12.0799 1.04167 12.9271 1.61458 13.6563 2.34375C14.3854 3.07292 14.9583 3.92167 15.375 4.89C15.7917 5.85847 16 6.89319 16 7.99417C16 9.0953 15.7917 10.1319 15.375 11.1042C14.9583 12.0764 14.3854 12.9271 13.6563 13.6563C12.9271 14.3854 12.0783 14.9583 11.11 15.375C10.1415 15.7917 9.1068 16 8.0058 16ZM8 14.5C9.8056 14.5 11.3403 13.8681 12.6042 12.6042C13.8681 11.3403 14.5 9.8056 14.5 8C14.5 6.19444 13.8681 4.65972 12.6042 3.39583C11.3403 2.13194 9.8056 1.5 8 1.5C6.19444 1.5 4.65972 2.13194 3.39583 3.39583C2.13194 4.65972 1.5 6.19444 1.5 8C1.5 9.8056 2.13194 11.3403 3.39583 12.6042C4.65972 13.8681 6.19444 14.5 8 14.5Z" fill="white"/>
</svg>
