<svg width="18" height="16" viewBox="0 0 18 16" fill="none" xmlns="http://www.w3.org/2000/svg">
<path d="M14.25 15V12.75H12V11.25H14.25V9H15.75V11.25H18V12.75H15.75V15H14.25ZM3.95799 15.5C3.68066 15.5 3.42733 15.434 3.19799 15.302C2.96866 15.17 2.78466 14.986 2.64599 14.75L0.749992 11.438C0.611325 11.2013 0.541992 10.9513 0.541992 10.688C0.541992 10.424 0.611325 10.174 0.749992 9.938L5.79199 1.25C5.93066 1.014 6.11799 0.83 6.35399 0.698C6.58999 0.566 6.83999 0.5 7.10399 0.5H10.896C11.16 0.5 11.41 0.566 11.646 0.698C11.882 0.83 12.0693 1.014 12.208 1.25L15.896 7.583C15.7433 7.55567 15.594 7.535 15.448 7.521C15.302 7.507 15.1527 7.5 15 7.5C14.8473 7.5 14.7013 7.507 14.562 7.521C14.4233 7.535 14.2847 7.55567 14.146 7.583L10.896 2H7.10399L2.04199 10.688L3.95799 14H10.979C11.1317 14.292 11.3053 14.5627 11.5 14.812C11.6947 15.0627 11.917 15.292 12.167 15.5H3.95799ZM5.24999 11.938L4.68799 10.938L8.29199 4.646H9.72899L12 8.646C11.792 8.82667 11.6047 9.021 11.438 9.229C11.2713 9.43767 11.1253 9.667 11 9.917L8.99999 6.417L6.68799 10.458L10.771 10.438C10.6737 10.674 10.604 10.917 10.562 11.167C10.5207 11.417 10.5 11.674 10.5 11.938H5.24999Z" fill="#444746"/>
</svg>
