<svg width="16" height="10" viewBox="0 0 16 10" fill="none" xmlns="http://www.w3.org/2000/svg">
<path d="M15.5495 1.08001C14.9595 0.490008 13.9995 0.480009 13.4195 1.07001C13.0295 1.46001 12.9295 2.01001 13.0595 2.51001L10.5395 5.03001C10.2995 4.97001 10.0595 4.96001 9.82948 5.02001L7.98948 3.19001C8.10948 2.70001 7.99948 2.15001 7.60948 1.76001C7.01948 1.17001 6.05949 1.16001 5.47949 1.75001C5.08949 2.14001 4.97948 2.69001 5.11948 3.19001L1.87948 6.43001C1.37948 6.30001 0.829485 6.40001 0.439485 6.79001C-0.150515 7.38001 -0.140515 8.33001 0.449485 8.92001C1.03948 9.51001 1.99948 9.52001 2.57948 8.93001C2.96948 8.54001 3.06948 7.99001 2.93948 7.49001L6.17948 4.25001C6.42948 4.32001 6.67948 4.32001 6.92948 4.26001L8.73948 6.07001C8.59948 6.58001 8.70948 7.14001 9.10948 7.54001C9.69948 8.13001 10.6595 8.14001 11.2395 7.55001C11.6295 7.16001 11.7295 6.61001 11.5995 6.11001L14.1195 3.59001C14.6195 3.72001 15.1695 3.62001 15.5595 3.23001C16.1495 2.63001 16.1395 1.68001 15.5495 1.08001Z" fill="#444746"/>
</svg>
