<svg width="16" height="14" viewBox="0 0 16 14" fill="none" xmlns="http://www.w3.org/2000/svg">
<path d="M12.3871 5.93331L16 2.73331V11.2666L12.3871 8.0666V11.8C12.3871 12.68 11.6903 13.4 10.8387 13.4H1.54839C0.69677 13.4 0 12.68 0 11.8V2.19998C0 1.31998 0.69677 0.599976 1.54839 0.599976H10.8387C11.6903 0.599976 12.3871 1.31998 12.3871 2.19998V5.93331ZM10.8387 5.15198V2.19998H1.54839V11.8H10.8387V5.15198ZM6.19355 6.99998C5.34194 6.99998 4.64516 6.27998 4.64516 5.39998C4.64516 4.51998 5.34194 3.79998 6.19355 3.79998C7.04516 3.79998 7.74194 4.51998 7.74194 5.39998C7.74194 6.27998 7.04516 6.99998 6.19355 6.99998ZM6.19355 8.0666C7.23097 8.0666 9.2903 8.33599 9.2903 9.39999V10.2H3.09677V9.39999C3.09677 8.33599 5.15613 8.0666 6.19355 8.0666Z" fill="#444746"/>
</svg>
