<svg width="15" height="15" viewBox="0 0 15 15" fill="none" xmlns="http://www.w3.org/2000/svg">
<path d="M0 15V11.3622L6.8686 4.49358L5.8561 3.48109L6.9442 2.39389L8.2942 3.74388L10.8381 1.19998C10.9881 1.04998 11.1816 0.974976 11.4186 0.974976C11.6562 0.974976 11.85 1.04998 12 1.19998L13.8189 3.01888C13.9689 3.16888 14.0439 3.35638 14.0439 3.58138C14.0439 3.80638 13.9689 3.99388 13.8189 4.14388L11.275 6.68779L12.625 8.03779L11.5378 9.125L10.5253 8.11249L3.6378 15H0ZM1.575 13.425H3.0186L9.4003 7.04419L7.9558 5.59969L1.575 11.9814V13.425ZM10.1689 5.56279L12.1503 3.58138L11.4186 2.84968L9.4372 4.83108L10.1689 5.56279Z" fill="#444746"/>
</svg>
