<svg width="18" height="16" viewBox="0 0 18 16" fill="none" xmlns="http://www.w3.org/2000/svg">
<path d="M8 16C6.8975 16 5.86146 15.7917 4.89188 15.375C3.92229 14.9583 3.07292 14.3854 2.34375 13.6563C1.61458 12.9271 1.04167 12.0767 0.625 11.105C0.20833 10.1333 0 9.0951 0 7.99042C0 6.88569 0.20833 5.85069 0.625 4.88542C1.04167 3.92014 1.61458 3.07292 2.34375 2.34375C3.07292 1.61458 3.92229 1.04167 4.89188 0.625C5.86146 0.20833 6.8975 0 8 0C8.875 0 9.7083 0.13194 10.5 0.39583C11.2917 0.65972 12.0208 1.03472 12.6875 1.52083L11.6042 2.60417C11.0903 2.24306 10.5278 1.96875 9.9167 1.78125C9.3056 1.59375 8.6667 1.5 8 1.5C6.19903 1.5 4.66542 2.13354 3.39917 3.40062C2.13306 4.66771 1.5 6.20243 1.5 8.0048C1.5 9.8072 2.13306 11.3403 3.39917 12.6042C4.66542 13.8681 6.19903 14.5 8 14.5C8.5121 14.5 9.0081 14.4444 9.4881 14.3333C9.9683 14.2222 10.4236 14.0625 10.8542 13.8542L11.9583 14.9583C11.375 15.2917 10.7506 15.5486 10.0852 15.7292C9.4197 15.9097 8.7246 16 8 16ZM13.5 14.5V12H11V10.5H13.5V8H15V10.5H17.5V12H15V14.5H13.5ZM6.85417 11.6042L3.5 8.25L4.58333 7.16667L6.875 9.4583L14.9375 1.39583L16 2.45833L6.85417 11.6042Z" fill="#0B57D0"/>
</svg>
