<svg width="72" height="40" viewBox="0 0 72 40" fill="none" xmlns="http://www.w3.org/2000/svg">
<path d="M68 0.5H4C2.067 0.5 0.5 2.067 0.5 4V36C0.5 37.933 2.067 39.5 4 39.5H68C69.933 39.5 71.5 37.933 71.5 36V4C71.5 2.067 69.933 0.5 68 0.5Z" stroke="#C4C7C5"/>
<path d="M47.3 15.5H15C14.7239 15.5 14.5 15.7239 14.5 16V33C14.5 33.2761 14.7239 33.5 15 33.5H47.3C47.5761 33.5 47.8 33.2761 47.8 33V16C47.8 15.7239 47.5761 15.5 47.3 15.5Z" fill="white" stroke="#C4C7C5"/>
<path d="M52.3 10.5H20C19.7239 10.5 19.5 10.7239 19.5 11V28C19.5 28.2761 19.7239 28.5 20 28.5H52.3C52.5761 28.5 52.8 28.2761 52.8 28V11C52.8 10.7239 52.5761 10.5 52.3 10.5Z" fill="white" stroke="#C4C7C5"/>
<path d="M57 5.5H25C24.7239 5.5 24.5 5.72386 24.5 6V23C24.5 23.2761 24.7239 23.5 25 23.5H57C57.2761 23.5 57.5 23.2761 57.5 23V6C57.5 5.72386 57.2761 5.5 57 5.5Z" fill="#D3E3FD" stroke="#0B57D0"/>
</svg>
