<svg width="72" height="72" viewBox="0 0 72 72" fill="none" xmlns="http://www.w3.org/2000/svg">
<path d="M20 38H11V48H20V38Z" fill="#E3E3E3"/>
<path d="M20 52H11V62H20V52Z" fill="#E3E3E3"/>
<path d="M61 38H52V48H61V38Z" fill="#E3E3E3"/>
<path d="M61 52H52V62H61V52Z" fill="#E3E3E3"/>
<path d="M61 10H11V20H61V10Z" fill="#E3E3E3"/>
<path d="M61 24H11V34H61V24Z" fill="#E3E3E3"/>
<path fill-rule="evenodd" clip-rule="evenodd" d="M45.4444 38H26.5556C25.15 38 24 39.15 24 40.5556V59.4444C24 60.85 25.15 62 26.5556 62H45.4444C46.85 62 48 60.85 48 59.4444V50.5V40.5556C48 39.15 46.85 38 45.4444 38ZM45.5 40.5556V44.5H36H26.5V40.5L45.5 40.5556ZM33 59.5H39V47H33V59.5ZM26.5 47H29H30.5V59.5H26.5V47ZM41.5 47V59.5H45.5V47H41.5Z" fill="#4C8DF6"/>
</svg>
