<svg width="14" height="14" viewBox="0 0 14 14" fill="none" xmlns="http://www.w3.org/2000/svg">
<path d="M7 0C3.13 0 0 1.34 0 3V11C0 12.66 3.13 14 7 14C10.87 14 14 12.66 14 11V3C14 1.34 10.87 0 7 0ZM12.5 6.96C12.33 7.4 10.45 8.5 7 8.5C3.54 8.5 1.66 7.39 1.5 7V4.85C2.78 5.55 4.76 6 7 6C9.23 6 11.22 5.55 12.5 4.85V6.96ZM7 1.5C10.35 1.5 12.21 2.53 12.48 3C12.21 3.47 10.35 4.5 7 4.5C3.65 4.5 1.79 3.47 1.52 3C1.79 2.53 3.65 1.5 7 1.5ZM7 12.5C3.54 12.5 1.66 11.39 1.5 11V8.85C2.78 9.55 4.77 10 7 10C9.24 10 11.22 9.55 12.5 8.85V10.95C12.34 11.39 10.46 12.5 7 12.5Z" fill="#444746"/>
</svg>
