<svg width="14" height="14" viewBox="0 0 14 14" fill="none" xmlns="http://www.w3.org/2000/svg">
<path d="M1.51994 14C0.89786 14 0.44888 13.7187 0.17298 13.156C-0.10357 12.5933 -0.0485201 12.069 0.33812 11.583L4.50434 6.5V1.5H3.75824C3.55132 1.5 3.37524 1.427 3.23 1.281C3.08476 1.135 3.01214 0.958 3.01214 0.75C3.01214 0.542 3.08476 0.365 3.23 0.219C3.37524 0.0730001 3.55132 0 3.75824 0H10.2244C10.4313 0 10.6074 0.0730001 10.7527 0.219C10.8979 0.365 10.9705 0.542 10.9705 0.75C10.9705 0.958 10.8979 1.135 10.7527 1.281C10.6074 1.427 10.4313 1.5 10.2244 1.5H9.4783V6.5L13.6445 11.583C14.0451 12.069 14.1071 12.5933 13.8306 13.156C13.554 13.7187 13.0981 14 12.4627 14H1.51994ZM3.63389 11.5H10.3488L7.77921 8.333H6.20345L3.63389 11.5ZM1.51994 12.5H12.4627L7.98613 7V1.5H5.99654V7L1.51994 12.5Z" fill="#444746"/>
</svg>
