<svg width="15" height="10" viewBox="0 0 15 10" fill="none" xmlns="http://www.w3.org/2000/svg">
<path fill-rule="evenodd" clip-rule="evenodd" d="M0 1.5C0 0.67157 0.67157 0 1.5 0H8.5C9.3284 0 10 0.67157 10 1.5V8.5C10 9.3284 9.3284 10 8.5 10H1.5C0.67157 10 0 9.3284 0 8.5V1.5ZM1.5 1.5H8.5V8.5H1.5V1.5ZM2.25 7.0063H7.75L5.94531 4.60001L4.65625 6.3188L3.71094 5.06407L2.25 7.0063ZM11.75 0C11.3358 0 11 0.33579 11 0.75V3.25C11 3.66421 11.3358 4 11.75 4H14.25C14.6642 4 15 3.66421 15 3.25V0.75C15 0.33579 14.6642 0 14.25 0H11.75ZM13.75 1.25H12.25V2.75H13.75V1.25ZM11 6.75C11 6.3358 11.3358 6 11.75 6H14.25C14.6642 6 15 6.3358 15 6.75V9.25C15 9.6642 14.6642 10 14.25 10H11.75C11.3358 10 11 9.6642 11 9.25V6.75ZM12.25 7.25H13.75V8.75H12.25V7.25Z" fill="#444746"/>
</svg>
