<svg width="17" height="17" viewBox="0 0 17 17" fill="none" xmlns="http://www.w3.org/2000/svg">
<path d="M5.7498 4.50003L4.3998 3.15003L5.7498 1.80003L7.0998 3.15003L5.7498 4.50003ZM13.8498 13.05L12.4998 11.7L13.8498 10.35L15.1998 11.7L13.8498 13.05ZM3.1248 16.0875L0.912305 13.8562C0.774805 13.7187 0.706055 13.5625 0.706055 13.3875C0.706055 13.2125 0.774805 13.0562 0.912305 12.9187L7.3248 6.50628C7.7623 6.06878 8.2873 5.85003 8.8998 5.85003C9.5248 5.85003 10.0561 6.06878 10.4936 6.50628C10.9311 6.94378 11.1498 7.47503 11.1498 8.10003C11.1498 8.71253 10.9311 9.23753 10.4936 9.67503L4.08105 16.0875C3.94355 16.225 3.78105 16.2937 3.59355 16.2937C3.41855 16.2937 3.2623 16.225 3.1248 16.0875ZM12.9498 7.20003C12.9498 6.32503 12.6436 5.58128 12.0311 4.96878C11.4186 4.35628 10.6748 4.05003 9.7998 4.05003C10.6748 4.05003 11.4186 3.74378 12.0311 3.13128C12.6436 2.51878 12.9498 1.77503 12.9498 0.900024C12.9498 1.77503 13.2561 2.51878 13.8686 3.13128C14.4811 3.74378 15.2248 4.05003 16.0998 4.05003C15.2248 4.05003 14.4811 4.35628 13.8686 4.96878C13.2561 5.58128 12.9498 6.32503 12.9498 7.20003ZM8.1498 10.125C8.1498 10.125 8.04355 10.0187 7.83105 9.80628L7.5123 9.48753L7.19355 9.16878L6.8748 8.85003L7.5123 9.48753L8.1498 10.125ZM3.6123 14.6625L8.1498 10.125L6.8748 8.85003L2.3373 13.3875L3.6123 14.6625Z" fill="#444746"/>
</svg>
