<svg width="14" height="16" viewBox="0 0 14 16" fill="none" xmlns="http://www.w3.org/2000/svg">
<path d="M4.5 1.5V0H9.5V1.5H4.5ZM6.25 9.5H7.75V4.99997H6.25V9.5ZM7 15.5C6.075 15.5 5.20312 15.3218 4.38437 14.9656C3.56562 14.6093 2.85 14.125 2.2375 13.5125C1.625 12.9 1.14062 12.1843 0.78437 11.3656C0.42812 10.5468 0.25 9.675 0.25 8.74997C0.25 7.82497 0.42812 6.95309 0.78437 6.13434C1.14062 5.31559 1.625 4.59997 2.2375 3.98747C2.85 3.37497 3.56562 2.89059 4.38437 2.53434C5.20312 2.17809 6.075 1.99997 7 1.99997C7.775 1.99997 8.5187 2.12497 9.2312 2.37497C9.9437 2.62497 10.6125 2.98747 11.2375 3.46247L12.2875 2.41247L13.3375 3.46247L12.2875 4.51247C12.7625 5.13747 13.125 5.80622 13.375 6.51872C13.625 7.23122 13.75 7.97497 13.75 8.74997C13.75 9.675 13.5719 10.5468 13.2156 11.3656C12.8594 12.1843 12.375 12.9 11.7625 13.5125C11.15 14.125 10.4344 14.6093 9.6156 14.9656C8.7969 15.3218 7.925 15.5 7 15.5ZM7 14C8.45 14 9.6875 13.4875 10.7125 12.4625C11.7375 11.4375 12.25 10.2 12.25 8.74997C12.25 7.29997 11.7375 6.06247 10.7125 5.03747C9.6875 4.01247 8.45 3.49997 7 3.49997C5.55 3.49997 4.3125 4.01247 3.2875 5.03747C2.2625 6.06247 1.75 7.29997 1.75 8.74997C1.75 10.2 2.2625 11.4375 3.2875 12.4625C4.3125 13.4875 5.55 14 7 14Z" fill="#444746"/>
</svg>
