<svg width="12" height="12" viewBox="0 0 12 12" fill="none" xmlns="http://www.w3.org/2000/svg">
<path fill-rule="evenodd" clip-rule="evenodd" d="M2 5H4.00104C4.55275 5 5 4.55734 5 4.00104V2.99896C5 2.44725 4.55734 2 4.00104 2H2V5ZM7 3.25C7 1.52125 6.1025 0 4.375 0H0V12H2L1.93375 7.0025L3 7C3.56875 7 5 9.43125 5 10V12H7V10C7 9.3875 6.80687 8.19062 5.78125 7.12875C6.78937 6.61125 7 5.71312 7 4.5V3.25ZM9 0V1H11V2H10C9.448 2 9 2.4475 9 3V5H12V4H10V3H11C11.5525 3 12 2.5525 12 2V1C12 0.4475 11.5525 0 11 0H9Z" fill="#444746"/>
</svg>
