<svg width="10" height="16" viewBox="0 0 10 16" fill="none" xmlns="http://www.w3.org/2000/svg">
<path d="M4.93418 0C4.13418 0 3.53418 0.6 3.53418 1.4C3.53418 1.667 3.60018 1.934 3.80118 2.2L4.40118 1.6V1.4C4.40118 1.067 4.66718 0.8 5.00118 0.8C5.33418 0.8 5.60118 1.067 5.60118 1.4C5.60118 1.734 5.33418 2 5.00118 2H4.80118L4.20118 2.534C4.86718 2.934 5.73418 2.801 6.13418 2.134C6.53418 1.467 6.40118 0.6 5.73418 0.2C5.53418 0.067 5.26718 0 4.93418 0Z" fill="#D2E3FC"/>
<path d="M4.4 4.06701C4.4 3.60101 4.267 3.13401 4 2.73401L3.2 3.53401C3.267 3.73401 3.334 3.86701 3.334 4.06701C3.334 4.40101 3.2 4.66701 3 4.86701L3.4 5.93401C4.067 5.53401 4.4 4.80101 4.4 4.06701Z" fill="#5E97F6"/>
<path d="M2.267 5.2C1.667 5.2 1.133 4.734 1.133 4.134C1.133 3.534 1.6 3.001 2.2 3.001C2.4 3.001 2.667 3.067 2.867 3.201L3.667 2.467C3.2 2.067 2.734 1.867 2.2 1.867C1 1.867 0 2.867 0 4.067C0 5.267 0.933 6.267 2.2 6.267C2.334 6.267 2.534 6.267 2.667 6.201L2.267 5.201V5.2Z" fill="#5E97F6"/>
<path d="M4.99967 6.06799C4.53367 6.06799 4.06667 6.13399 3.59967 6.26799L4.19967 7.73499C4.46667 7.73499 4.73367 7.66799 4.99967 7.66799C6.86767 7.66799 8.33367 9.20099 8.33367 11.002C8.33367 12.868 6.80067 14.335 5.00067 14.335C3.13367 14.335 1.66667 12.802 1.66667 11.002C1.66667 9.73499 2.33367 8.60199 3.46667 8.06799L2.86667 6.60099C0.399668 7.80099 -0.600332 10.801 0.599668 13.201C1.79967 15.669 4.79967 16.669 7.19967 15.469C9.66767 14.269 10.6677 11.269 9.46767 8.86799C8.60067 7.20099 6.86767 6.06799 5.00067 6.06799H4.99967Z" fill="#4285F4"/>
</svg>
