<svg width="16" height="16" viewBox="0 0 16 16" fill="none" xmlns="http://www.w3.org/2000/svg">
<path fill-rule="evenodd" clip-rule="evenodd" d="M8 0.5C3.85625 0.5 0.5 3.85625 0.5 8C0.5 12.1438 3.85625 15.5 8 15.5C12.1438 15.5 15.5 12.1438 15.5 8C15.5 3.85625 12.1438 0.5 8 0.5ZM7.25 13.9475C4.29125 13.58 2 11.06 2 8C2 7.53875 2.05625 7.08875 2.1575 6.6575L5.75 10.25V11C5.75 11.8288 6.42125 12.5 7.25 12.5V13.9475ZM12.4213 12.0463C12.23 11.4388 11.6675 11 11 11H10.25V8.75C10.25 8.3375 9.9125 8 9.5 8H5V6.5H6.5C6.9125 6.5 7.25 6.1625 7.25 5.75V4.25H8.75C9.57875 4.25 10.25 3.57875 10.25 2.75V2.43875C12.4475 3.3275 14 5.48 14 8C14 9.56 13.4 10.9775 12.4213 12.0463Z" fill="#444746"/>
</svg>
