<svg width="12" height="16" viewBox="0 0 12 16" fill="none" xmlns="http://www.w3.org/2000/svg">
<path d="M10.5 6.00452H9.75V3.80952C9.75 1.70667 8.07 0 6 0C3.93 0 2.25 1.70667 2.25 3.80952V6.00452H1.5C0.675 6.00452 0 6.75858 0 7.59668V14.4762C0 15.3143 0.675 16 1.5 16H10.5C11.325 16 12 15.3143 12 14.4762V7.59668C12 6.75858 11.325 6.00452 10.5 6.00452ZM3.75 3.80952C3.75 2.54476 4.755 1.52381 6 1.52381C7.245 1.52381 8.25 2.54476 8.25 3.80952V5.99408H3.75V3.80952ZM10.0142 14.0139H2.00195V8H10.0142V14.0139ZM6 12C6.55 12 7 11.55 7 11C7 10.45 6.55 10 6 10C5.45 10 5 10.45 5 11C5 11.55 5.45 12 6 12Z" fill="white"/>
</svg>
