<svg width="18" height="18" viewBox="0 0 18 18" fill="none" xmlns="http://www.w3.org/2000/svg">
<path d="M8 5H11V8H12V4H7V7H4V16H5V8H8V5Z" fill="#444746"/>
<path d="M6 9H7V10H6V9ZM9 6H10V7H9V6ZM6 11H7V12H6V11ZM6 13H7V14H6V13ZM15.11 9.34C15.05 9.14 14.85 9 14.64 9H9.36C9.15 9 8.95 9.14 8.89 9.34L8 12V15.5C8 15.78 8.22 16 8.5 16C8.78 16 9 15.78 9 15.5V15H15V15.5C15 15.78 15.22 16 15.5 16C15.78 16 16 15.78 16 15.5V12L15.11 9.34ZM9.72 10H14.28L14.95 12H9.05L9.72 10ZM9.5 14C9.22 14 9 13.78 9 13.5C9 13.22 9.22 13 9.5 13C9.78 13 10 13.22 10 13.5C10 13.78 9.78 14 9.5 14ZM14.5 14C14.22 14 14 13.78 14 13.5C14 13.22 14.22 13 14.5 13C14.78 13 15 13.22 15 13.5C15 13.78 14.78 14 14.5 14Z" fill="#444746"/>
</svg>
