<svg width="16" height="16" viewBox="0 0 16 16" fill="none" xmlns="http://www.w3.org/2000/svg">
<path fill-rule="evenodd" clip-rule="evenodd" d="M2 10.1723V6.99988H4V3.99988H5V4.99988H13V3.99988H14V13.9999H13V15.9999H6.31049H9.5C10.88 15.9999 12 14.8799 12 13.4999C12 12.1799 10.975 11.1099 9.675 11.0199C9.335 9.29488 7.82 7.99988 6 7.99988C4.555 7.99988 3.3 8.81988 2.675 10.0199C2.44084 10.0448 2.21479 10.0967 2 10.1723V3.00672C2 2.44983 2.44768 1.99915 2.99992 1.99824L7.00058 1.9917C7.00058 1.9917 7 -0.00830078 9 -0.00830078C11 -0.00830078 11.0394 1.9917 11 1.99988H15.0002C15.5563 1.99988 16 2.44498 16 2.99404C16 2.99404 16 2.66295 16 3.4917V14.9974C16 15.5547 15.5517 15.9999 14.9986 15.9999C14.9986 15.9999 15.3288 15.9999 14.5 15.9999H3.5575C2.72875 15.9999 2.99936 15.9999 2.99936 15.9999C2.99965 15.9999 2.99906 15.9999 2.99936 15.9999C1.34506 15.999 0 14.6544 0 12.9999C0 11.6953 0.83425 10.5832 2 10.1723ZM8 1.99988V2.99988H10V1.99988H8Z" fill="#444746"/>
</svg>
