<svg width="18" height="13" viewBox="0 0 18 13" fill="none" xmlns="http://www.w3.org/2000/svg">
<path d="M10.72 3.28L9 2.5L10.72 1.72L11.5 0L12.28 1.72L14 2.5L12.28 3.28L11.5 5L10.72 3.28ZM2.5 5L2.97 3.97L4 3.5L2.97 3.03L2.5 2L2.03 3.03L1 3.5L2.03 3.97L2.5 5ZM1.89 10.05C1.76 10.02 1.63 10 1.5 10C0.67 10 0 10.67 0 11.5C0 12.33 0.67 13 1.5 13C2.33 13 3 12.33 3 11.5C3 11.37 2.98 11.24 2.95 11.11L7.11 6.95C7.24 6.98 7.37 7 7.5 7C7.63 7 7.76 6.98 7.89 6.95L10.55 9.61C10.52 9.73 10.5 9.86 10.5 10C10.5 10.83 11.17 11.5 12 11.5C12.83 11.5 13.5 10.83 13.5 10C13.5 9.87 13.48 9.74 13.45 9.61L16.11 6.95C16.24 6.98 16.37 7 16.5 7C17.33 7 18 6.33 18 5.5C18 4.67 17.33 4 16.5 4C15.67 4 15 4.67 15 5.5C15 5.63 15.02 5.76 15.05 5.89L12.39 8.55C12.27 8.52 12.14 8.5 12 8.5C11.86 8.5 11.74 8.52 11.61 8.55L8.95 5.89C8.98 5.76 9 5.63 9 5.5C9 4.67 8.33 4 7.5 4C6.67 4 6 4.67 6 5.5C6 5.63 6.02 5.76 6.05 5.89L1.89 10.05Z" fill="#444746"/>
</svg>
