<svg width="17" height="16" viewBox="0 0 17 16" fill="none" xmlns="http://www.w3.org/2000/svg">
<path d="M8 15.5C6.9625 15.5 5.9875 15.3031 5.075 14.9094C4.1625 14.5156 3.36875 13.9812 2.69375 13.3062C2.01875 12.6312 1.48438 11.8375 1.09063 10.925C0.69688 10.0125 0.5 9.0375 0.5 8C0.5 6.9625 0.69688 5.9875 1.09063 5.075C1.48438 4.1625 2.01875 3.36875 2.69375 2.69375C3.36875 2.01875 4.1625 1.48437 5.075 1.09062C5.9875 0.69687 6.9625 0.5 8 0.5C8.5375 0.5 9.0563 0.55312 9.5563 0.65937C10.0563 0.76562 10.5375 0.91875 11 1.11875V2.80625C10.5625 2.55625 10.0906 2.35937 9.5844 2.21562C9.0781 2.07187 8.55 2 8 2C6.3375 2 4.92188 2.58438 3.75313 3.75312C2.58438 4.92187 2 6.3375 2 8C2 9.6625 2.58438 11.0781 3.75313 12.2469C4.92188 13.4156 6.3375 14 8 14C9.6625 14 11.0781 13.4156 12.2469 12.2469C13.4156 11.0781 14 9.6625 14 8C14 7.6 13.9594 7.2125 13.8781 6.8375C13.7969 6.4625 13.6875 6.1 13.55 5.75H15.1625C15.275 6.1125 15.3594 6.47812 15.4156 6.84687C15.4719 7.21562 15.5 7.6 15.5 8C15.5 9.0375 15.3031 10.0125 14.9094 10.925C14.5156 11.8375 13.9813 12.6312 13.3063 13.3062C12.6313 13.9812 11.8375 14.5156 10.925 14.9094C10.0125 15.3031 9.0375 15.5 8 15.5ZM14 4.5V3H12.5V1.5H14V0H15.5V1.5H17V3H15.5V4.5H14ZM10.625 7.25C10.9375 7.25 11.2031 7.14062 11.4219 6.92188C11.6406 6.70312 11.75 6.4375 11.75 6.125C11.75 5.8125 11.6406 5.54687 11.4219 5.32812C11.2031 5.10937 10.9375 5 10.625 5C10.3125 5 10.0469 5.10937 9.8281 5.32812C9.6094 5.54687 9.5 5.8125 9.5 6.125C9.5 6.4375 9.6094 6.70312 9.8281 6.92188C10.0469 7.14062 10.3125 7.25 10.625 7.25ZM5.375 7.25C5.6875 7.25 5.95312 7.14062 6.17188 6.92188C6.39063 6.70312 6.5 6.4375 6.5 6.125C6.5 5.8125 6.39063 5.54687 6.17188 5.32812C5.95312 5.10937 5.6875 5 5.375 5C5.0625 5 4.79688 5.10937 4.57812 5.32812C4.35937 5.54687 4.25 5.8125 4.25 6.125C4.25 6.4375 4.35937 6.70312 4.57812 6.92188C4.79688 7.14062 5.0625 7.25 5.375 7.25ZM8 12.125C8.85 12.125 9.6219 11.8844 10.3156 11.4031C11.0094 10.9219 11.5125 10.2875 11.825 9.5H4.175C4.4875 10.2875 4.99063 10.9219 5.68438 11.4031C6.37813 11.8844 7.15 12.125 8 12.125Z" fill="#0B57D0"/>
</svg>
