<svg width="22" height="20" viewBox="0 0 22 20" fill="none" xmlns="http://www.w3.org/2000/svg">
<path d="M13.3499 0.5H8.64986C7.93986 0.5 7.27986 0.88 6.91986 1.49L0.579857 12.4C0.219857 13.02 0.219857 13.78 0.569857 14.4L2.91986 18.49C3.27986 19.11 3.93986 19.49 4.64986 19.49H17.3299C18.0499 19.49 18.7099 19.11 19.0599 18.49L21.4099 14.4C21.7699 13.78 21.7599 13.02 21.3999 12.4L15.0799 1.49C14.7199 0.88 14.0599 0.5 13.3499 0.5ZM17.3399 17.5H4.65986L2.30986 13.41L8.64986 2.5H13.3499L19.6899 13.41L17.3399 17.5ZM11.8999 5.75H10.0999L5.51986 13.73L6.24986 15H15.7499L16.4799 13.73L11.8999 5.75ZM8.24986 13L10.9999 8.2L13.7499 13H8.24986Z" fill="#444746"/>
</svg>
