<svg width="21" height="21" viewBox="0 0 21 21" fill="none" xmlns="http://www.w3.org/2000/svg">
<path d="M10.9996 5C13.2096 5 14.9996 6.79 14.9996 9V10H16.4996C17.8796 10 18.9996 11.12 18.9996 12.5C18.9996 13.23 18.6796 13.89 18.1696 14.34L19.5796 15.75C20.4496 14.94 20.9996 13.78 20.9996 12.5C20.9996 10.16 19.2096 8.23 16.9196 8.02C16.4496 5.18 13.9696 3 10.9996 3C9.82965 3 8.71965 3.35 7.77965 3.95L9.23965 5.41C9.77965 5.15 10.3796 5 10.9996 5ZM15.9996 15L7.72965 6.73L6.28965 5.29L1.80965 0.809998L0.389648 2.22L4.54965 6.38C2.48965 7.18 0.999648 9.18 0.999648 11.5C0.999648 14.53 3.46965 17 6.49965 17H15.1696L18.7796 20.61L20.1896 19.2L17.7896 16.8L15.9996 15ZM6.49965 15C4.56965 15 2.99965 13.43 2.99965 11.5C2.99965 9.69 4.41965 8.19 6.20965 8.04L13.1696 15H6.49965Z" fill="#D93025"/>
</svg>
