<svg width="12" height="12" viewBox="0 0 12 12" fill="none" xmlns="http://www.w3.org/2000/svg">
<path d="M0.5 12V10.5H2.042C1.41667 9.94467 0.92 9.28133 0.552 8.51C0.184 7.73933 0 6.90267 0 6C0 4.59733 0.423667 3.36467 1.271 2.302C2.11833 1.23933 3.19467 0.541334 4.5 0.208V1.771C3.62533 2.09033 2.90667 2.62833 2.344 3.385C1.78133 4.14233 1.5 5.014 1.5 6C1.5 6.66667 1.63533 7.28467 1.906 7.854C2.17667 8.42333 2.54133 8.90933 3 9.312V8H4.5V12H0.5ZM7.5 11.792V10.229C8.37467 9.90967 9.09333 9.37167 9.656 8.615C10.2187 7.85767 10.5 6.986 10.5 6C10.5 5.33333 10.3647 4.71533 10.094 4.146C9.82333 3.57667 9.45867 3.09067 9 2.688V4H7.5V0H11.5V1.5H9.958C10.5833 2.05533 11.08 2.71867 11.448 3.49C11.816 4.26067 12 5.09733 12 6C12 7.40267 11.5763 8.63533 10.729 9.698C9.88167 10.7607 8.80533 11.4587 7.5 11.792Z" fill="#444746"/>
</svg>
