<svg width="12" height="15" viewBox="0 0 12 15" fill="none" xmlns="http://www.w3.org/2000/svg">
<path fill-rule="evenodd" clip-rule="evenodd" d="M4.24827 3.00916C3.49177 3.00916 2.39691 3.00916 2.1088 3.00916C2.54374 1.10901 4.22012 0 6 0C8.07 0 10 1.5 10 4V5H10.5C11.3288 5 12 5.67125 12 6.5V13.5C12 14.3288 11.3288 15 10.5 15H1.5C0.67125 15 0 14.3288 0 13.5V6.5C0 5.67125 0.67125 5 1.5 5H2H4.5H8V4C8 3 7.2825 2 6 2C5.15846 2 4.56019 2.43056 4.24827 3.00916ZM4 10C4 8.895 4.895 8 6 8C7.105 8 8 8.895 8 10C8 11.105 7.105 12 6 12C4.895 12 4 11.105 4 10Z" fill="#444746"/>
</svg>
