<svg width="21" height="16" viewBox="0 0 21 16" fill="none" xmlns="http://www.w3.org/2000/svg">
<path d="M3.43056 2H1.76016V0H7.52016V0.07V6H5.60016V2.81C3.88176 3.85 2.72016 5.78 2.72016 8C2.72016 10.97 4.80336 13.43 7.52016 13.91V15.93C3.72816 15.44 0.800156 12.08 0.800156 8C0.800156 5.6 1.82736 3.46 3.43056 2ZM20.1602 8C20.1602 10.4 19.133 12.54 17.5298 14H19.2002V16H13.4402V15.93V10H15.3602V13.19C17.0786 12.15 18.2402 10.22 18.2402 8C18.2402 5.03 16.157 2.57 13.4402 2.09V0.07C17.2322 0.56 20.1602 3.92 20.1602 8Z" fill="#EA4335"/>
<path d="M9 14H12V11H9V14ZM9 10H12V2H9V10Z" fill="#EA4335"/>
</svg>
