<svg width="16" height="16" viewBox="0 0 16 16" fill="none" xmlns="http://www.w3.org/2000/svg">
<path d="M0 7H2V9H0V7ZM11.94 11.06L13.13 12.25H8V13.75H13.13L11.94 14.94L13 16L16 13L13 10L11.94 11.06ZM13.25 0C11.73 0 10.5 1.23 10.5 2.75V6.25C10.5 7.77 11.73 9 13.25 9C14.77 9 16 7.77 16 6.25V2.75C16 1.23 14.77 0 13.25 0ZM14.5 6.25C14.5 6.94 13.94 7.5 13.25 7.5C12.56 7.5 12 6.94 12 6.25V2.75C12 2.06 12.56 1.5 13.25 1.5C13.94 1.5 14.5 2.06 14.5 2.75V6.25ZM9 6.25V2.75C9 1.23 7.77 0 6.25 0C4.73 0 3.5 1.23 3.5 2.75V6.25C3.5 7.77 4.73 9 6.25 9C7.77 9 9 7.77 9 6.25ZM7.5 6.25C7.5 6.94 6.94 7.5 6.25 7.5C5.56 7.5 5 6.94 5 6.25V2.75C5 2.06 5.56 1.5 6.25 1.5C6.94 1.5 7.5 2.06 7.5 2.75V6.25Z" fill="#444746"/>
</svg>
