<svg width="15" height="14" viewBox="0 0 15 14" fill="none" xmlns="http://www.w3.org/2000/svg">
<path d="M1.5 9.49997V2.46997H10.75V5.53997C11.2471 5.46424 11.7529 5.46424 12.25 5.53997V2.46997C12.25 1.66997 11.57 0.969971 10.75 0.969971H1.75C0.92 0.969971 0 1.66997 0 2.49997V9.49997C0 10.32 0.92 11 1.75 11H7.07C7.02778 10.6582 7.00441 10.3143 7 9.96997C7 9.70997 7.03 9.74997 7.07 9.49997H1.5ZM12.25 9.49997V7.24997H10.75V9.49997H8.5V11H10.75V13.25H12.25V11H14.5V9.49997H12.25Z" fill="#444746"/>
</svg>
