<svg width="16" height="14" viewBox="0 0 16 14" fill="none" xmlns="http://www.w3.org/2000/svg">
<path d="M0 14L2.417 11.583C2.125 11.3057 1.986 10.962 2 10.552C2.014 10.1427 2.17367 9.799 2.479 9.521L11.562 0.438C11.854 0.146 12.2083 0 12.625 0C13.0417 0 13.396 0.146 13.688 0.438L15.562 2.312C15.84 2.618 15.979 2.97233 15.979 3.375C15.979 3.77767 15.84 4.132 15.562 4.438L6.479 13.521C6.17367 13.799 5.823 13.9483 5.427 13.969C5.031 13.9897 4.69433 13.861 4.417 13.583L4 14H0ZM9.417 8.458L7.542 6.562L3.521 10.583L5.417 12.479L9.417 8.458Z" fill="#444746"/>
</svg>
