<svg width="14" height="16" viewBox="0 0 14 16" fill="none" xmlns="http://www.w3.org/2000/svg">
<path fill-rule="evenodd" clip-rule="evenodd" d="M1.00685 0C0.45078 0 1.20059e-09 0.447449 1.20059e-09 1.00687C1.20059e-09 1.00687 1.20059e-09 0.795556 1.20059e-09 1.77778V12.4444C1.20059e-09 13.4267 0 12.991 0 12.991C-5.53282e-09 13.5483 0.443717 14 0.999807 14H5L7 16L9 14H12.1307H12.9927C13.549 14 14 13.5505 14 12.9998V1.77778C14 0.795556 14 1.00687 14 1.00687C14 0.450791 13.5501 0 12.9932 0H1.00685ZM7 12L5.79688 8.375L2.625 7L5.79688 5.625L7 2L8.20312 5.625L11.375 7L8.20312 8.375L7 12Z" fill="#444746"/>
</svg>
