<svg width="16" height="16" viewBox="0 0 16 16" fill="none" xmlns="http://www.w3.org/2000/svg">
<path d="M8 0C3.59 0 0 3.59 0 8C0 12.41 3.59 16 8 16C9.1 16 10 15.1 10 14C10 13.51 9.82 13.04 9.49 12.66C9.25 12.36 9.47 12 9.79 12H11.21C13.86 12 16.01 9.85 16.01 7.2C16 3.23 12.41 0 8 0ZM11.2 10.5H9.78C8.73 10.5 7.88 11.35 7.88 12.4C7.88 12.87 8.07 13.32 8.35 13.65C8.69 14.04 8.37 14.5 7.99 14.5C4.41 14.5 1.49 11.58 1.49 8C1.49 4.42 4.42 1.5 8 1.5C11.58 1.5 14.5 4.06 14.5 7.2C14.5 9.02 13.02 10.5 11.2 10.5Z" fill="#444746"/>
<path d="M12.5 8.75C13.1904 8.75 13.75 8.19036 13.75 7.5C13.75 6.80964 13.1904 6.25 12.5 6.25C11.8096 6.25 11.25 6.80964 11.25 7.5C11.25 8.19036 11.8096 8.75 12.5 8.75Z" fill="#444746"/>
<path d="M10 5.75C10.6904 5.75 11.25 5.19036 11.25 4.5C11.25 3.80964 10.6904 3.25 10 3.25C9.30964 3.25 8.75 3.80964 8.75 4.5C8.75 5.19036 9.30964 5.75 10 5.75Z" fill="#444746"/>
<path d="M3.5 8.75C4.19036 8.75 4.75 8.19036 4.75 7.5C4.75 6.80964 4.19036 6.25 3.5 6.25C2.80964 6.25 2.25 6.80964 2.25 7.5C2.25 8.19036 2.80964 8.75 3.5 8.75Z" fill="#444746"/>
<path d="M6 5.75C6.69036 5.75 7.25 5.19036 7.25 4.5C7.25 3.80964 6.69036 3.25 6 3.25C5.30964 3.25 4.75 3.80964 4.75 4.5C4.75 5.19036 5.30964 5.75 6 5.75Z" fill="#444746"/>
</svg>
