<svg width="14" height="14" viewBox="0 0 14 14" fill="none" xmlns="http://www.w3.org/2000/svg">
<path d="M12.5 0H1.5C0.67 0 0 0.67 0 1.5V12.5C0 13.33 0.67 14 1.5 14H8.1575C7.73351 13.5607 7.37951 13.0519 7.10901 12.5H6.25V6.25H7.9276L11 4.85205L14 6.21706V1.5C14 0.67 13.33 0 12.5 0ZM4.75 12.5H1.5V6.25H4.75V12.5ZM4.75 4.75H1.5V1.5H4.75V4.75ZM12.5 4.75H6.25V1.5H12.5V4.75ZM14 9.9087V7.86501L11 6.5L8 7.86501V9.9087C8 11.8025 9.28 13.5688 11 14C12.72 13.5688 14 11.8025 14 9.9087Z" fill="#444746"/>
</svg>
