<svg width="14" height="14" viewBox="0 0 14 14" fill="none" xmlns="http://www.w3.org/2000/svg">
<path d="M0 13L9 13V11H0V13Z" fill="#444746"/>
<path d="M0 8L9 8V6L0 6V8Z" fill="#444746"/>
<path d="M0 3L9 3V1L0 1V3Z" fill="#444746"/>
<path d="M12 10.5C11.1716 10.5 10.5 11.1716 10.5 12C10.5 12.8284 11.1716 13.5 12 13.5C12.8284 13.5 13.5 12.8284 13.5 12C13.5 11.1716 12.8284 10.5 12 10.5Z" fill="#444746"/>
<path d="M12 5.5C11.1716 5.5 10.5 6.17157 10.5 7C10.5 7.82843 11.1716 8.5 12 8.5C12.8284 8.5 13.5 7.82843 13.5 7C13.5 6.17157 12.8284 5.5 12 5.5Z" fill="#444746"/>
<path d="M12 0.5C11.1716 0.5 10.5 1.17157 10.5 2C10.5 2.82843 11.1716 3.5 12 3.5C12.8284 3.5 13.5 2.82843 13.5 2C13.5 1.17157 12.8284 0.5 12 0.5Z" fill="#444746"/>
</svg>
