<svg width="14" height="14" viewBox="0 0 14 14" fill="none" xmlns="http://www.w3.org/2000/svg">
<path d="M4 5C2.89543 5 2 5.89543 2 7C2 8.10457 2.89543 9 4 9H5.00825V11H4C1.79086 11 0 9.20914 0 7C0 4.79086 1.79086 3 4 3L6 5H4Z" fill="#444746"/>
<path d="M7 11V9H5V11H4C1.79086 11 0 9.20914 0 7C0 5.48774 0.839209 4.17148 2.07732 3.49154L0 1.41421L1.41421 0L7.41421 6L9.41421 8L13.435 12.0208L12.0208 13.435L9.58579 11H7ZM3.62154 5.03576C2.69794 5.21265 2 6.02482 2 7C2 8.10457 2.89543 9 4 9H7.58579L6.58579 8H4V6H4.58579L3.62154 5.03576ZM8 3H10C12.2091 3 14 4.79086 14 7C14 7.99915 13.6337 8.91274 13.028 9.61377L11.6062 8.19195C11.8536 7.85907 12 7.44663 12 7C12 5.89543 11.1046 5 10 5H8V3ZM9 6H10V7L9 6Z" fill="#444746"/>
</svg>
