<svg width="14" height="14" viewBox="0 0 14 14" fill="none" xmlns="http://www.w3.org/2000/svg">
<path opacity="0.54" fill-rule="evenodd" clip-rule="evenodd" d="M6 14H8V12H6V14ZM3 2H5V0H3V2ZM6 11H8V9H6V11ZM3 14H5V12H3V14ZM0 5H2V3H0V5ZM0 14H2V12H0V14ZM0 2H2V0H0V2ZM0 11H2V9H0V11ZM12 11H14V9H12V11ZM12 14H14V12H12V14ZM12 5H14V3H12V5ZM12 0V2H14V0H12ZM6 2H8V0H6V2ZM9 2H11V0H9V2ZM6 5H8V3H6V5ZM9 14H11V12H9V14Z" fill="#444746"/>
<path fill-rule="evenodd" clip-rule="evenodd" d="M0 8H14V6H0V8Z" fill="#444746"/>
</svg>
