<svg width="18" height="14" viewBox="0 0 18 14" fill="none" xmlns="http://www.w3.org/2000/svg">
<path d="M1.5 10.5V10.09C1.5 9.91 1.59 9.75 1.72 9.67C3.02 8.9 4.5 8.5 6 8.5C6.34 8.5 6.68 8.53 7.02 8.57C7.06 8.06 7.16 7.56 7.31 7.09C6.89 7.03 6.45 7 6 7C4.16 7 2.44 7.5 0.97 8.37C0.36 8.72 0 9.39 0 10.09V12H7.81C7.54 11.54 7.33 11.03 7.2 10.5H1.5ZM6 0C4.34 0 3 1.34 3 3C3 4.66 4.34 6 6 6C7.66 6 9 4.66 9 3C9 1.34 7.66 0 6 0ZM6 4.5C5.17 4.5 4.5 3.83 4.5 3C4.5 2.17 5.17 1.5 6 1.5C6.83 1.5 7.5 2.17 7.5 3C7.5 3.83 6.83 4.5 6 4.5ZM16.69 8.37L17.83 7.37L16.83 5.64L15.38 6.13C15.06 5.86 14.7 5.65 14.3 5.5L14 4H12L11.7 5.49C11.3 5.64 10.94 5.85 10.62 6.12L9.17 5.63L8.17 7.36L9.31 8.36C9.23 8.86 9.23 9.12 9.31 9.62L8.17 10.62L9.17 12.35L10.62 11.86C10.94 12.13 11.3 12.34 11.7 12.49L12 14H14L14.3 12.51C14.7 12.36 15.06 12.15 15.38 11.88L16.83 12.37L17.83 10.64L16.69 9.64C16.77 9.13 16.77 8.87 16.69 8.37ZM13 10.5C12.17 10.5 11.5 9.83 11.5 9C11.5 8.17 12.17 7.5 13 7.5C13.83 7.5 14.5 8.17 14.5 9C14.5 9.83 13.83 10.5 13 10.5Z" fill="#444746"/>
</svg>
