<svg width="15" height="15" viewBox="0 0 15 15" fill="none" xmlns="http://www.w3.org/2000/svg">
<path fill-rule="evenodd" clip-rule="evenodd" d="M12.376 2.624L13 4L13.624 2.624L15 2L13.624 1.376L13 0L12.376 1.376L11 2L12.376 2.624ZM1.77778 1H8V2.5H1.5V13.5H12.5V7H14V13.2222C14 14.2041 13.2041 15 12.2222 15H1.77778C0.79594 15 0 14.2041 0 13.2222V2.77778C0 1.79594 0.79594 1 1.77778 1ZM5 4H3V6H5V4ZM5 7H3V9H5V7ZM3 10H5V12H3V10ZM9.06 5.94L10 8L10.94 5.94L13 5L10.94 4.06L10 2L9.06 4.06L7 5L9.06 5.94Z" fill="#444746"/>
</svg>
