<svg width="16" height="10" viewBox="0 0 16 10" fill="none" xmlns="http://www.w3.org/2000/svg">
<path d="M2 9.5C1.5875 9.5 1.23438 9.3531 0.94063 9.0594C0.64687 8.7656 0.5 8.4125 0.5 8V2C0.5 1.5875 0.64687 1.23438 0.94063 0.94063C1.23438 0.64687 1.5875 0.5 2 0.5H14C14.4125 0.5 14.7656 0.64687 15.0594 0.94063C15.3531 1.23438 15.5 1.5875 15.5 2V8C15.5 8.4125 15.3531 8.7656 15.0594 9.0594C14.7656 9.3531 14.4125 9.5 14 9.5H2ZM2 8H14V2H2V8ZM4.4375 7.25H5.5625V5.5625H7.25V4.4375H5.5625V2.75H4.4375V4.4375H2.75V5.5625H4.4375V7.25Z" fill="#444746"/>
</svg>
