<svg width="16" height="15" viewBox="0 0 16 15" fill="none" xmlns="http://www.w3.org/2000/svg">
<path fill-rule="evenodd" clip-rule="evenodd" d="M0 14H3V5H0V14ZM14.7325 5H10L10.48 1.8225L10.5025 1.5825C10.5025 1.275 10.375 0.99 10.1725 0.7875L9.3775 0L4.4425 4.9425C4.165 5.2125 4 5.5875 4 6V13.5C4 14.325 4.675 15 5.5 15H12.25C12.8725 15 13.405 14.625 13.63 14.085L15.895 8.7975C15.9625 8.625 16 8.445 16 8.25C16 8.25 15.9278 7.02253 16 6.5C16.0053 6.46169 16 6.5675 16 6.5675V6.5C16 5.675 15.5575 5 14.7325 5Z" fill="#444746"/>
</svg>
