<svg width="72" height="40" viewBox="0 0 72 40" fill="none" xmlns="http://www.w3.org/2000/svg">
<path d="M68 0.5H4C2.067 0.5 0.5 2.067 0.5 4V36C0.5 37.933 2.067 39.5 4 39.5H68C69.933 39.5 71.5 37.933 71.5 36V4C71.5 2.067 69.933 0.5 68 0.5Z" stroke="#C4C7C5"/>
<path d="M65 5H20C19.4477 5 19 5.44772 19 6V31C19 31.5523 19.4477 32 20 32H65C65.5523 32 66 31.5523 66 31V6C66 5.44772 65.5523 5 65 5Z" fill="#C4C7C5"/>
<path d="M34 17.5H7C6.72386 17.5 6.5 17.7239 6.5 18V34C6.5 34.2761 6.72386 34.5 7 34.5H34C34.2761 34.5 34.5 34.2761 34.5 34V18C34.5 17.7239 34.2761 17.5 34 17.5Z" fill="white" stroke="#0B57D0"/>
<path d="M22 30V29H29V30H22ZM22 27V26H32V27H22ZM22 24V23H32V24H22Z" fill="#4285F4"/>
<path d="M7 18H20V34H7V18Z" fill="#D3E3FD"/>
<path d="M18 23.5H9C8.72386 23.5 8.5 23.7239 8.5 24V28C8.5 28.2761 8.72386 28.5 9 28.5H18C18.2761 28.5 18.5 28.2761 18.5 28V24C18.5 23.7239 18.2761 23.5 18 23.5Z" fill="#0B57D0" stroke="#0B57D0"/>
</svg>
