<svg width="18" height="18" viewBox="0 0 18 18" fill="none" xmlns="http://www.w3.org/2000/svg">
<path d="M16.9597 4.8C16.8497 4.47 16.5297 4.25 16.1697 4.25H15.4997L15.3097 3.65C15.2197 3.27 14.8797 3 14.4997 3C14.1197 3 13.7797 3.27 13.6897 3.65L13.4997 4.25H12.8297C12.4697 4.25 12.1497 4.47 12.0397 4.8C11.9197 5.15 12.0697 5.53 12.3897 5.72L12.9297 6.05L12.6897 6.82C12.5497 7.18 12.6597 7.6 12.9697 7.83C13.1197 7.95 13.2897 8 13.4597 8C13.6497 8 13.8397 7.93 13.9997 7.8L14.5097 7.37L15.0197 7.8C15.1597 7.93 15.3497 8 15.5397 8C15.7097 8 15.8797 7.95 16.0297 7.84C16.3397 7.61 16.4597 7.19 16.3097 6.83L16.0697 6.06L16.6097 5.73C16.9297 5.53 17.0797 5.15 16.9597 4.8ZM14.4997 6C14.2197 6 13.9997 5.78 13.9997 5.5C13.9997 5.22 14.2197 5 14.4997 5C14.7797 5 14.9997 5.22 14.9997 5.5C14.9997 5.78 14.7797 6 14.4997 6ZM11.2697 8.73C10.9097 8.37 10.4697 8.14 9.99973 8.05V7H9.49973V8C8.85973 8 8.21973 8.24 7.72973 8.73C7.55973 8.91 7.42973 9.1 7.31973 9.31L5.73973 8.71C5.22973 8.53 4.66973 8.56 4.17973 8.79C3.68973 9.02 3.31973 9.43 3.13973 9.95C2.77973 10.96 3.26973 12.05 4.22973 12.48C3.81973 13.4 3.97973 14.52 4.72973 15.27C5.48973 16.03 6.60973 16.19 7.52973 15.77C7.72973 16.23 8.06973 16.59 8.51973 16.81C8.79973 16.94 9.09973 17 9.39973 17C9.62973 17 9.85973 16.96 10.0797 16.88C10.5897 16.7 10.9997 16.33 11.2397 15.84C11.4697 15.35 11.4997 14.8 11.3197 14.28L10.7197 12.68C10.9197 12.57 11.1097 12.44 11.2797 12.27C11.7597 11.78 11.9997 11.14 11.9997 10.5H12.9997V10H11.9497C11.8497 9.54 11.6297 9.09 11.2697 8.73ZM4.70973 11.6C4.44973 11.51 4.23973 11.32 4.11973 11.07C3.99973 10.82 3.98973 10.54 4.07973 10.28C4.16973 10.02 4.35973 9.81 4.60973 9.69C4.74973 9.62 4.89973 9.59 5.05973 9.59C5.16973 9.59 5.28973 9.61 5.39973 9.65L8.33973 10.76C7.45973 11.31 5.94973 12.04 4.70973 11.6ZM10.3297 15.41C10.2097 15.66 9.99973 15.85 9.73973 15.94C9.47973 16.03 9.19973 16.02 8.94973 15.9C8.69973 15.78 8.50973 15.57 8.41973 15.31C7.97973 14.07 8.70973 12.56 9.25973 11.68L10.3697 14.61C10.4597 14.88 10.4497 15.16 10.3297 15.41ZM10.5597 11.56C10.4897 11.63 10.4197 11.68 10.3497 11.73L9.85973 10.45C9.84973 10.42 9.82973 10.41 9.80973 10.38C9.78973 10.34 9.76973 10.31 9.73973 10.28C9.70973 10.25 9.67973 10.23 9.63973 10.21C9.61973 10.2 9.59973 10.17 9.56973 10.16L8.27973 9.67C8.32973 9.59 8.36973 9.51 8.42973 9.44C8.71973 9.16 9.09973 9 9.49973 9C9.89973 9 10.2797 9.16 10.5597 9.44C11.1497 10.02 11.1497 10.98 10.5597 11.56Z" fill="#444746"/>
</svg>
