<svg width="24" height="24" viewBox="0 0 24 24" fill="none" xmlns="http://www.w3.org/2000/svg">
<mask id="mask0_148_16122" style="mask-type:luminance" maskUnits="userSpaceOnUse" x="0" y="0" width="24" height="24">
<path d="M0 0H24V24H0V0Z" fill="white"/>
</mask>
<g mask="url(#mask0_148_16122)">
<g opacity="0.75">
<path d="M7 5H16.5V15L10.5 21L9.83333 20.5417C9.59722 20.375 9.41667 20.1667 9.29167 19.9167C9.16667 19.6528 9.13194 19.3819 9.1875 19.1042L9.20833 19L10 15H4.5C4.08333 15 3.72917 14.8542 3.4375 14.5625C3.14583 14.2708 3 13.9167 3 13.5V12.3125C3 12.2014 3.00694 12.1042 3.02083 12.0208C3.04861 11.9236 3.08333 11.8264 3.125 11.7292L5.60417 5.91667C5.71528 5.63889 5.89583 5.41667 6.14583 5.25C6.40972 5.08333 6.69444 5 7 5ZM15 6.5H7L4.5 12.3125V13.5H11.8333L10.8125 18.5625L15 14.375V6.5ZM16.5 15V13.5H19.5V6.5H16.5V5H21V15H16.5Z" fill="white"/>
</g>
</g>
</svg>
