<svg width="14" height="14" viewBox="0 0 14 14" fill="none" xmlns="http://www.w3.org/2000/svg">
<path d="M1.63333 14C1.18417 14 0.79969 13.84 0.47989 13.5201C0.15996 13.2003 0 12.8158 0 12.3667V1.63333C0 1.18417 0.15996 0.79962 0.47989 0.47969C0.79969 0.1599 1.18417 0 1.63333 0H12.3667C12.8158 0 13.2004 0.1599 13.5203 0.47969C13.8401 0.79962 14 1.18417 14 1.63333V12.3667C14 12.8158 13.8401 13.2003 13.5203 13.5201C13.2004 13.84 12.8158 14 12.3667 14H1.63333ZM1.5 12.5H12.5V1.5H1.5V12.5Z" fill="#444746"/>
</svg>
