<svg width="34" height="34" viewBox="0 0 34 34" fill="none" xmlns="http://www.w3.org/2000/svg">
<path d="M16.9992 25.3333C17.4162 25.3333 17.7659 25.1923 18.0483 24.9102C18.3307 24.6281 18.4719 24.2786 18.4719 23.8616C18.4719 23.4446 18.3309 23.0949 18.0488 22.8125C17.7667 22.5301 17.4172 22.3889 17.0002 22.3889C16.5832 22.3889 16.2335 22.53 15.9511 22.812C15.6687 23.0941 15.5275 23.4436 15.5275 23.8606C15.5275 24.2776 15.6685 24.6273 15.9506 24.9097C16.2327 25.1921 16.5822 25.3333 16.9992 25.3333ZM15.6942 18.8611H18.4719V8.50004H15.6942V18.8611ZM17.0071 33.6667C14.7065 33.6667 12.5444 33.2292 10.521 32.3542C8.49748 31.4792 6.73117 30.287 5.22189 28.7778C3.71264 27.2685 2.52051 25.5015 1.64551 23.4767C0.770508 21.4518 0.333008 19.2883 0.333008 16.9861C0.333008 14.6839 0.770508 12.5204 1.64551 10.4956C2.52051 8.47074 3.71264 6.70837 5.22189 5.20837C6.73117 3.70837 8.49818 2.52087 10.523 1.64587C12.5479 0.770874 14.7114 0.333374 17.0136 0.333374C19.3158 0.333374 21.4793 0.770874 23.5041 1.64587C25.529 2.52087 27.2914 3.70837 28.7914 5.20837C30.2914 6.70837 31.4789 8.47224 32.3539 10.5C33.2289 12.5278 33.6664 14.692 33.6664 16.9926C33.6664 19.2932 33.2289 21.4553 32.3539 23.4787C31.4789 25.5022 30.2914 27.2668 28.7914 28.7727C27.2914 30.2785 25.5275 31.4706 23.4997 32.349C21.4719 33.2275 19.3077 33.6667 17.0071 33.6667ZM17.0136 30.8889C20.8747 30.8889 24.1525 29.5371 26.847 26.8333C29.5414 24.1296 30.8886 20.8472 30.8886 16.9861C30.8886 13.125 29.5431 9.84724 26.8522 7.15284C24.1612 4.45835 20.877 3.11112 16.9997 3.11112C13.1478 3.11112 9.87008 4.45661 7.16638 7.14754C4.46262 9.83854 3.11076 13.1227 3.11076 17C3.11076 20.8519 4.46262 24.1296 7.16638 26.8333C9.87008 29.5371 13.1525 30.8889 17.0136 30.8889Z" fill="#B3261E"/>
</svg>
