<svg width="16" height="15" viewBox="0 0 16 15" fill="none" xmlns="http://www.w3.org/2000/svg">
<path fill-rule="evenodd" clip-rule="evenodd" d="M16.002 1H13.002L13.002 10H16.002V1ZM1.26945 10L6.00195 10L5.52195 13.1775L5.49945 13.4175C5.49945 13.725 5.62695 14.01 5.82945 14.2125L6.62445 15L11.5595 10.0575C11.837 9.7875 12.002 9.4125 12.002 9L12.002 1.5C12.002 0.675 11.327 0 10.502 0L3.75195 0C3.12945 0 2.59695 0.375 2.37195 0.915L0.106953 6.2025C0.0394527 6.375 0.00195312 6.555 0.00195312 6.75C0.00195312 6.75 0.0741595 7.97747 0.00195312 8.5C-0.00334047 8.53831 0.00195312 8.4325 0.00195312 8.4325V8.5C0.00195312 9.325 0.444453 10 1.26945 10Z" fill="#444746"/>
</svg>
