<svg width="18" height="17" viewBox="0 0 18 17" fill="none" xmlns="http://www.w3.org/2000/svg">
<path fill-rule="evenodd" clip-rule="evenodd" d="M4.09046 17H16.3632C16.8132 17 17.1951 16.8448 17.5087 16.5345C17.836 16.2107 17.9996 15.8262 17.9996 15.381V4.04764C17.9996 3.6024 17.836 3.22462 17.5087 2.91431C17.1951 2.5905 16.8132 2.42859 16.3632 2.42859H4.08837H6.545V4.04764H16.3632V6.47621H2.4541V15.381C2.4541 15.8262 2.61091 16.2107 2.92455 16.5345C3.25182 16.8448 3.64046 17 4.09046 17ZM4.09046 15.381V8.09526H6.545V15.381H4.09046ZM13.9087 15.381V8.09526H16.3632V15.381H13.9087ZM8.18137 8.09526H12.2723V15.381H8.18137V8.09526Z" fill="#444746"/>
<path d="M2.86364 5.66667L1.93846 3.74872L0 2.83333L1.93846 1.91795L2.86364 0L3.78881 1.91795L5.72727 2.83333L3.78881 3.74872L2.86364 5.66667Z" fill="#444746"/>
</svg>
