<svg width="18" height="16" viewBox="0 0 18 16" fill="none" xmlns="http://www.w3.org/2000/svg">
<path d="M14.43 6.5H12.73L9.16 16H10.81L11.67 13.57H15.5L16.35 16H18L14.43 6.5ZM12.16 12.19L13.54 8.26H13.62L15 12.19H12.16ZM7.53 8.48C9 6.84 10.11 5.29 10.63 3.5H13V2H7.25V0H5.75V2H0V3.5H9.05C8.58 4.84 7.69 6.05 6.5 7.38C5.76 6.56 5.14 5.77 4.66 4.97H2.96C3.56 6.17 4.42 7.31 5.47 8.47C4.21 9.77 2.92 10.98 1.47 12.44L2.53 13.5C4 12.03 5.32 10.79 6.5 9.57C7.1 10.19 7.71 10.8 8.83 11.89L9.41 10.35C8.73 9.69 8.11 9.07 7.53 8.48Z" fill="#444746"/>
</svg>
