<svg width="22" height="22" viewBox="0 0 22 22" fill="none" xmlns="http://www.w3.org/2000/svg">
<path d="M20.55 10H15.92C16.87 8.94 17.46 7.54 17.46 6C17.46 2.69 14.77 0 11.46 0C10.65 0 10 0.65 10 1.45V6.08C8.94 5.13 7.54 4.55 6 4.55C2.69 4.55 0 7.24 0 10.55C0 11.35 0.65 12 1.46 12H6.09C5.14 13.06 4.55 14.46 4.55 16C4.55 19.31 7.24 22 10.55 22C11.35 22 12 21.35 12 20.55V15.92C13.06 16.87 14.46 17.46 16 17.46C19.31 17.46 22 14.77 22 11.46C22 10.65 21.35 10 20.55 10ZM12 2.04C13.95 2.3 15.46 3.98 15.46 6C15.46 8.02 13.95 9.7 12.01 9.96V2.04H12ZM6 6.55C8.02 6.55 9.7 8.06 9.96 10H2.04C2.3 8.05 3.98 6.55 6 6.55ZM10 19.96C8.05 19.7 6.55 18.02 6.55 16C6.55 13.98 8.06 12.3 10 12.04V19.96ZM16 15.45C13.98 15.45 12.3 13.94 12.04 12H19.97C19.7 13.95 18.02 15.45 16 15.45Z" fill="#444746"/>
</svg>
