<svg width="72" height="72" viewBox="0 0 72 72" fill="none" xmlns="http://www.w3.org/2000/svg">
<path d="M61 10H39V20H61V10Z" fill="#E3E3E3"/>
<path d="M61 24H39V34H61V24Z" fill="#E3E3E3"/>
<path d="M61 38H11V48H61V38Z" fill="#E3E3E3"/>
<path d="M61 52H11V62H61V52Z" fill="#E3E3E3"/>
<path fill-rule="evenodd" clip-rule="evenodd" d="M32.4444 10H13.5556C12.15 10 11 11.15 11 12.5556V31.4444C11 32.85 12.15 34 13.5556 34H32.4444C33.85 34 35 32.85 35 31.4444V22.5V12.5556C35 11.15 33.85 10 32.4444 10ZM32.5 12.5556V16.5H23H13.5V12.5L32.5 12.5556ZM20 31.5H26V19H20V31.5ZM13.5 19H16H17.5V31.5H13.5V19ZM28.5 19V31.5H32.5V19H28.5Z" fill="#4C8DF6"/>
</svg>
