<svg width="16" height="15" viewBox="0 0 16 15" fill="none" xmlns="http://www.w3.org/2000/svg">
<path fill-rule="evenodd" clip-rule="evenodd" d="M8.89475 6C9.3532 6 9.7637 6.21218 10.0099 6.54L13 10.5L10.0099 14.46C9.7637 14.7878 9.3532 15 8.89475 15L1.36843 14.9935C0.61579 14.9935 0 14.4214 0 13.7143V7.28573C0 6.57855 0.61579 6.00645 1.36843 6.00645L8.89475 6ZM1.52941 13.5H9.1765L11.3236 10.5L9.1765 7.5H1.52941V13.5Z" fill="#444746"/>
<path d="M14.7273 2.54546L14.3295 1.67046L13.4546 1.27273L14.3295 0.875L14.7273 0L15.125 0.875L16 1.27273L15.125 1.67046L14.7273 2.54546ZM14.7273 7L14.3295 6.12502L13.4546 5.7273L14.3295 5.32956L14.7273 4.45456L15.125 5.32956L16 5.7273L15.125 6.12502L14.7273 7ZM11.5454 6.04545L10.75 4.29547L9 3.50001L10.75 2.70455L11.5454 0.95455L12.3409 2.70455L14.0909 3.50001L12.3409 4.29547L11.5454 6.04545ZM11.5454 4.50229L11.8637 3.8182L12.5477 3.50001L11.8637 3.18183L11.5454 2.49773L11.2272 3.18183L10.5432 3.50001L11.2272 3.8182L11.5454 4.50229Z" fill="#444746"/>
<path d="M10.9726 4.26364C11.3944 4.26364 11.7363 3.92175 11.7363 3.5C11.7363 3.07826 11.3944 2.73636 10.9726 2.73636C10.5509 2.73636 10.209 3.07826 10.209 3.5C10.209 3.92175 10.5509 4.26364 10.9726 4.26364Z" fill="#444746"/>
<path d="M12.8818 3.50001C12.8818 3.92176 12.1581 4.26365 11.7364 4.26365C11.3146 4.26365 10.9727 3.92176 10.9727 3.50001C10.9727 3.07827 10.9328 2.35455 11.3545 2.35455C11.7763 2.35455 12.8818 3.07827 12.8818 3.50001Z" fill="#444746"/>
<path d="M12.1182 4.2635C12.1182 4.47438 11.9472 4.64532 11.7364 4.64532C11.5255 4.64532 11.3545 4.47438 11.3545 4.2635C11.3545 4.05263 11.5255 3.88168 11.7364 3.88168C11.9472 3.88168 12.1182 4.05263 12.1182 4.2635Z" fill="#444746"/>
</svg>
