<svg width="12" height="14" viewBox="0 0 12 14" fill="none" xmlns="http://www.w3.org/2000/svg">
<path d="M0.166992 14V12.5H11.833V14H0.166992ZM5.99999 11C4.73599 11 3.66999 10.566 2.80199 9.698C1.93399 8.83 1.49999 7.764 1.49999 6.5V0H3.49999V6.5C3.49999 7.19467 3.74299 7.785 4.22899 8.271C4.71499 8.757 5.30533 9 5.99999 9C6.69466 9 7.28499 8.757 7.77099 8.271C8.25699 7.785 8.49999 7.19467 8.49999 6.5V0H10.5V6.5C10.5 7.764 10.066 8.83 9.19799 9.698C8.32999 10.566 7.26399 11 5.99999 11Z" fill="#444746"/>
</svg>
