<svg width="16" height="14" viewBox="0 0 16 14" fill="none" xmlns="http://www.w3.org/2000/svg">
<path d="M12 0.5H4C2.067 0.5 0.5 2.067 0.5 4V10C0.5 11.933 2.067 13.5 4 13.5H12C13.933 13.5 15.5 11.933 15.5 10V4C15.5 2.067 13.933 0.5 12 0.5Z" stroke="#444746"/>
<path d="M3 10V4H4V6.56H6V4H7V10H6V7.584H4V10H3ZM8 10V4H10.0268C10.6348 4 11.2055 4.14529 11.6428 4.39062C12.0855 4.63062 12.4241 5.068 12.6588 5.5C12.8988 5.92667 13 6.43467 13 7C13 7.56533 12.8988 8.2 12.6588 8.632C12.4241 9.064 12.0855 9.4 11.6428 9.64C11.2055 9.88 10.6828 10 10.0748 10H8ZM9 8.976H10.0268C10.4481 8.976 10.8001 8.9013 11.0828 8.752C11.3655 8.5973 11.5761 8.3813 11.7148 8.104C11.8588 7.82667 12 7.368 12 7C12 6.62667 11.8588 6.272 11.7148 6C11.5761 5.72267 11.3655 5.41496 11.0828 5.26562C10.8001 5.11095 10.4961 5 10.0748 5H9V8.976Z" fill="#444746"/>
</svg>
