<svg width="20" height="18" viewBox="0 0 20 18" fill="none" xmlns="http://www.w3.org/2000/svg">
<path d="M0 12V10.5742L8.5 2.07422C9.21484 1.35938 10.0547 0.832031 11.0117 0.5C11.9727 0.167969 13.0156 0 14.1484 0C15.332 0 16.4219 0.191406 17.4141 0.574219C18.4023 0.957031 19.2656 1.51562 20 2.25L16.25 6H14V7.94922C13.3516 8.35156 12.6602 8.66016 11.9258 8.875C11.1914 9.08984 10.4336 9.19922 9.64844 9.19922C8.91797 9.19922 8.18359 9.09766 7.44922 8.88672C6.71484 8.67969 6.03516 8.38281 5.39844 8L1.39844 12H0ZM9.64844 7.19922C10.0508 7.19922 10.4453 7.16406 10.8359 7.08594C11.2305 7.01172 11.6172 6.89844 12 6.75V4H15.4258L16.875 2.55078C16.4922 2.36719 16.0742 2.23047 15.625 2.13672C15.1758 2.04688 14.6836 2 14.1484 2C13.3008 2 12.4922 2.14453 11.7266 2.4375C10.957 2.73047 10.3008 3.14844 9.75 3.69922L6.89844 6.55078C7.30078 6.75 7.73828 6.91016 8.21094 7.02344C8.6875 7.14063 9.16797 7.19922 9.64844 7.19922ZM10 13V12C10 11.7148 10.0977 11.4805 10.2891 11.2891C10.4805 11.0977 10.7148 11 11 11H16C16.2852 11 16.5195 11.0977 16.7109 11.2891C16.9023 11.4805 17 11.7148 17 12V13H10ZM9 18C8.71484 18 8.48047 17.9023 8.28906 17.7109C8.09766 17.5195 8 17.2852 8 17V15C8 14.7148 8.09766 14.4805 8.28906 14.2891C8.48047 14.0977 8.71484 14 9 14H18C18.2852 14 18.5195 14.0977 18.7109 14.2891C18.9023 14.4805 19 14.7148 19 15V17C19 17.2852 18.9023 17.5195 18.7109 17.7109C18.5195 17.9023 18.2852 18 18 18H9Z" fill="#444746"/>
</svg>
