<svg width="16" height="16" viewBox="0 0 16 16" fill="none" xmlns="http://www.w3.org/2000/svg">
<path fill-rule="evenodd" clip-rule="evenodd" d="M14.0077 8.784C14.0397 8.528 14.0637 8.272 14.0637 8C14.0637 7.728 14.0397 7.472 14.0077 7.216L15.6957 5.896C15.8477 5.776 15.8877 5.56 15.7917 5.384L14.1917 2.616C14.0957 2.44 13.8797 2.376 13.7037 2.44L11.7117 3.24C11.2957 2.92 10.8477 2.656 10.3597 2.456L10.0557 0.336C10.0317 0.144 9.86374 0 9.66374 0H6.46374C6.26374 0 6.09574 0.144 6.07174 0.336L5.76774 2.456C5.27974 2.656 4.83174 2.928 4.41574 3.24L2.42374 2.44C2.23974 2.368 2.03174 2.44 1.93574 2.616L0.335739 5.384C0.231739 5.56 0.279739 5.776 0.431739 5.896L2.11974 7.216C2.08774 7.472 2.06374 7.736 2.06374 8C2.06374 8.264 2.08774 8.528 2.11974 8.784L0.431739 10.104C0.279739 10.224 0.239739 10.44 0.335739 10.616L1.93574 13.384C2.03174 13.56 2.24774 13.624 2.42374 13.56L4.41574 12.76C4.83174 13.08 5.27974 13.344 5.76774 13.544L6.07174 15.664C6.09574 15.856 6.26374 16 6.46374 16H9.66374C9.86374 16 10.0317 15.856 10.0557 15.664L10.3597 13.544C10.8477 13.344 11.2957 13.072 11.7117 12.76L13.7037 13.56C13.8877 13.632 14.0957 13.56 14.1917 13.384L15.7917 10.616C15.8877 10.44 15.8477 10.224 15.6957 10.104L14.0077 8.784ZM8.00027 11C6.34599 11 5.00027 9.65429 5.00027 8C5.00027 6.34571 6.34599 5 8.00027 5C9.65456 5 11.0003 6.34571 11.0003 8C11.0003 9.65429 9.65456 11 8.00027 11Z" fill="white"/>
</svg>
