<svg width="18" height="18" viewBox="0 0 18 18" fill="none" xmlns="http://www.w3.org/2000/svg">
<path d="M3.58203 16.875L1.125 14.3945C0.972656 14.25 0.894531 14.0742 0.894531 13.8789C0.894531 13.6836 0.972656 13.5039 1.13281 13.3477L8.25 6.23047C8.73438 5.74219 9.32031 5.5 10.0117 5.5C10.6992 5.5 11.2891 5.74219 11.7695 6.23047C12.2578 6.71094 12.5 7.30078 12.5 7.98828C12.5 8.67969 12.2578 9.26562 11.7695 9.75L4.65234 16.8672C4.49609 17.0273 4.31641 17.1055 4.11328 17.1055C3.91016 17.1055 3.73438 17.0273 3.58203 16.875ZM14.5 7C14.5 6.03125 14.1602 5.20703 13.4766 4.52344C12.793 3.83984 11.9688 3.5 11 3.5C11.9688 3.5 12.793 3.16016 13.4766 2.48047C14.1602 1.79688 14.5 0.972656 14.5 0C14.5 0.972656 14.8398 1.79688 15.5195 2.48047C16.2031 3.16016 17.0273 3.5 18 3.5C17.0273 3.5 16.2031 3.83984 15.5195 4.52344C14.8398 5.20703 14.5 6.03125 14.5 7ZM9.16797 10.25L8.8125 9.89453L8.45703 9.54297L8.10547 9.1875L7.75 8.83203L8.45703 9.54297L9.16797 10.25ZM4.125 15.293L9.16797 10.25L7.75 8.83203L2.70703 13.875L4.125 15.293Z" fill="#0B57D0"/>
</svg>
