<svg width="16" height="16" viewBox="0 0 16 16" fill="none" xmlns="http://www.w3.org/2000/svg">
<path d="M1.5 16C1.08333 16 0.72917 15.8542 0.4375 15.5625C0.14583 15.2569 0 14.9028 0 14.5V3.5C0 3.09722 0.14583 2.75 0.4375 2.45833C0.72917 2.15278 1.08333 2 1.5 2H8V3.5H1.5V14.5H12.5V8H14V14.5C14 14.9028 13.8542 15.2569 13.5625 15.5625C13.2708 15.8542 12.9167 16 12.5 16H1.5ZM2.5 13L4.75 10L6.25 12L8.5 9L11.5 13H2.5ZM11.5 9C11.5 7.75 11.0625 6.6875 10.1875 5.8125C9.3125 4.9375 8.25 4.5 7 4.5C8.25 4.5 9.3125 4.0625 10.1875 3.1875C11.0625 2.3125 11.5 1.25 11.5 0C11.5 1.25 11.9375 2.3125 12.8125 3.1875C13.6875 4.0625 14.75 4.5 16 4.5C14.75 4.5 13.6875 4.9375 12.8125 5.8125C11.9375 6.6875 11.5 7.75 11.5 9Z" fill="#444746"/>
</svg>
