<svg width="18" height="17" viewBox="0 0 18 17" fill="none" xmlns="http://www.w3.org/2000/svg">
<path d="M15 16.125L12.875 14H4C2.88867 14 1.94433 13.611 1.167 12.833C0.389 12.0557 0 11.1113 0 9.99999C0 8.94466 0.361 8.03499 1.083 7.27099C1.80567 6.50699 2.68767 6.09032 3.729 6.02099C3.771 5.86832 3.81633 5.72232 3.865 5.58299C3.91367 5.44432 3.97267 5.30566 4.042 5.16699L0.875 1.99999L1.938 0.937988L16.062 15.062L15 16.125ZM4 12.5H11.375L5.208 6.33299C5.15267 6.51366 5.10067 6.69766 5.052 6.88499C5.00333 7.07299 4.95133 7.25732 4.896 7.43799L3.833 7.52099C3.16633 7.57632 2.611 7.83666 2.167 8.30199C1.72233 8.76732 1.5 9.33332 1.5 9.99999C1.5 10.6947 1.743 11.285 2.229 11.771C2.715 12.257 3.30533 12.5 4 12.5ZM16.5 13.375L15.396 12.292C15.7153 12.1253 15.9793 11.882 16.188 11.562C16.396 11.2427 16.5 10.8887 16.5 10.5C16.5 9.94466 16.3057 9.47232 15.917 9.08299C15.5277 8.69432 15.0553 8.49999 14.5 8.49999H13.125L13 7.14599C12.9027 6.11799 12.472 5.25332 11.708 4.55199C10.944 3.85066 10.0413 3.49999 9 3.49999C8.65267 3.49999 8.32267 3.54165 8.01 3.62499C7.698 3.70832 7.396 3.82632 7.104 3.97899L6.021 2.89599C6.46567 2.61799 6.93433 2.39932 7.427 2.23999C7.92033 2.07999 8.44467 1.99999 9 1.99999C10.4307 1.99999 11.6737 2.48265 12.729 3.44799C13.7843 4.41332 14.3747 5.59732 14.5 6.99999C15.472 6.99999 16.2983 7.34032 16.979 8.02099C17.6597 8.70166 18 9.52799 18 10.5C18 11.0973 17.8647 11.646 17.594 12.146C17.3233 12.646 16.9587 13.0557 16.5 13.375Z" fill="#444746"/>
</svg>
