<svg width="12" height="12" viewBox="0 0 12 12" fill="none" xmlns="http://www.w3.org/2000/svg">
<path fill-rule="evenodd" clip-rule="evenodd" d="M0.166016 6.00002C0.166016 2.7771 2.77644 0.166687 5.99935 0.166687C9.22224 0.166687 11.8326 2.7771 11.8326 6.00002C11.8326 9.2229 9.22224 11.8334 5.99935 11.8334C2.77644 11.8334 0.166016 9.2229 0.166016 6.00002ZM6.58306 8.91664H5.41639V5.41664H6.58306V8.91664ZM6.00029 10.6666C3.42779 10.6666 1.33362 8.5724 1.33362 5.9999C1.33362 3.4274 3.42779 1.33324 6.00029 1.33324C8.57279 1.33324 10.6669 3.4274 10.6669 5.9999C10.6669 8.5724 8.57279 10.6666 6.00029 10.6666ZM6.58306 4.2499H5.41639V3.08324H6.58306V4.2499Z" fill="#444746"/>
</svg>
