<svg width="16" height="22" viewBox="0 0 16 22" fill="none" xmlns="http://www.w3.org/2000/svg">
<path d="M14 20.1667H14.5V19.6667V17V16.5H14H3.33333C2.32386 16.5 1.5 17.3239 1.5 18.3333C1.5 19.3428 2.32386 20.1667 3.33333 20.1667H14ZM14 15.5H14.5V15V2.33334V1.83334H14H2H1.5V2.33334V15.28V16.0319L2.19336 15.7411C2.556 15.589 2.93027 15.5 3.33333 15.5H14ZM2 0.833344H14C14.8305 0.833344 15.5 1.50282 15.5 2.33334V21.1667H3.33333C1.76948 21.1667 0.5 19.8972 0.5 18.3333V2.33334C0.5 1.50282 1.16948 0.833344 2 0.833344Z" fill="#444746" stroke="#444746"/>
<path d="M10.0069 11.0464L9.7202 10.7598L9.3805 10.981C8.8812 11.3061 8.2949 11.5 7.6667 11.5C5.91614 11.5 4.5 10.0839 4.5 8.33335C4.5 6.58283 5.91614 5.16669 7.6667 5.16669C9.4172 5.16669 10.8333 6.58283 10.8333 8.33335C10.8333 8.81136 10.72 9.25882 10.5212 9.67982L10.3709 9.99802L10.6198 10.2469L12.6262 12.2533L11.92 12.9596L10.0069 11.0464ZM9.8333 8.33335C9.8333 7.13721 8.8628 6.16669 7.6667 6.16669C6.4705 6.16669 5.5 7.13721 5.5 8.33335C5.5 9.52952 6.4705 10.5 7.6667 10.5C8.8628 10.5 9.8333 9.52952 9.8333 8.33335Z" fill="#444746" stroke="#444746"/>
</svg>
