<svg width="18" height="18" viewBox="0 0 18 18" fill="none" xmlns="http://www.w3.org/2000/svg">
<path d="M15 4.5H9L7.5 3H3C2.175 3 1.5075 3.675 1.5075 4.5L1.5 13.5C1.5 14.325 2.175 15 3 15H15C15.825 15 16.5 14.325 16.5 13.5V6C16.5 5.175 15.825 4.5 15 4.5ZM8.625 12.75L7.8 11.145L9.93 7.425L11.055 9.42L9.1875 12.75H8.625ZM13.725 12.75H9.5625L10.6125 10.875H14.445L14.64 11.22L13.725 12.75ZM10.3125 6.75H12.105L14.235 10.5H12.0375L10.1175 7.095L10.3125 6.75Z" fill="#444746"/>
<path d="M3 3H7.40025L9.01453 4.51793H15C16.1046 4.51793 17 5.41336 17 6.51793V13C17 14.1046 16.1046 15 15 15H3C1.89543 15 1 14.1046 1 13V5C1 3.89543 1.89543 3 3 3ZM8.625 12.75H9.1875L11.055 9.42L9.93 7.425L7.8 11.145L8.625 12.75ZM13.725 12.75L14.64 11.22L14.445 10.875H10.6125L9.5625 12.75H13.725ZM10.3125 6.75L10.1175 7.095L12.0375 10.5H14.235L12.105 6.75H10.3125Z" fill="#444746"/>
</svg>
