<svg width="20" height="20" viewBox="0 0 20 20" fill="none" xmlns="http://www.w3.org/2000/svg">
<path d="M17.5 10C17.5 11.8417 16.7417 13.5 15.5375 14.7042L17.5 16.6667H12.5V11.6667L14.3625 13.5292C15.2708 12.625 15.8333 11.3792 15.8333 10C15.8333 7.82504 14.4417 5.97921 12.5 5.29171V3.55004C15.375 4.29171 17.5 6.89587 17.5 10ZM9 14H11V12H9V14ZM2.5 3.33337H7.5V8.33337L5.6375 6.47087C4.72917 7.37504 4.16667 8.62087 4.16667 10C4.16667 12.175 5.55833 14.0209 7.5 14.7084V16.4459C4.625 15.7084 2.5 13.1042 2.5 10C2.5 8.15837 3.25833 6.50004 4.4625 5.29587L2.5 3.33337ZM9 11H11V6.00004H9V11Z" fill="#EA4335"/>
</svg>
