<svg width="16" height="16" viewBox="0 0 16 16" fill="none" xmlns="http://www.w3.org/2000/svg">
<path d="M8 5C6.34 5 5 6.34 5 8C5 9.66 6.34 11 8 11C9.66 11 11 9.66 11 8C11 6.34 9.66 5 8 5ZM8 9.5C7.17 9.5 6.5 8.83 6.5 8C6.5 7.17 7.17 6.5 8 6.5C8.83 6.5 9.5 7.17 9.5 8C9.5 8.83 8.83 9.5 8 9.5Z" fill="#444746"/>
<path d="M13.98 7.66L16 5.71L13.98 2.21L11.29 2.98C11.09 2.85 10.87 2.73 10.66 2.62L10 0H6L5.34 2.63C5.12 2.73 4.91 2.85 4.71 2.99L2.02 2.22L0 5.71L2.02 7.66C2 8.07 2 7.92 2.02 8.34L0 10.29L2.02 13.79L4.71 13.02C4.91 13.15 5.13 13.27 5.34 13.38L6 16H10L10.66 13.37C10.88 13.26 11.09 13.14 11.29 13.01L13.98 13.78L16 10.28L13.98 8.33C14.01 7.92 14.01 8.07 13.98 7.66ZM14.12 10.55L13.27 12.02L11.7 11.57L11.04 11.38L10.46 11.76C10.32 11.85 10.17 11.94 9.98 12.03L9.36 12.34L9.19 13.01L8.83 14.5H7.17L6.8 13.01L6.63 12.34L6.01 12.03C5.83 11.94 5.67 11.85 5.53 11.76L4.95 11.38L4.3 11.57L2.73 12.02L1.88 10.55L3.06 9.41L3.55 8.93L3.51 8.25V8.09L3.5 8.01V7.91L3.51 7.74L3.55 7.05L3.06 6.58L1.88 5.45L2.73 3.98L4.3 4.43L4.96 4.62L5.54 4.24C5.68 4.15 5.83 4.06 6.02 3.97L6.64 3.66L6.8 2.99L7.17 1.5H8.83L9.2 2.99L9.37 3.66L9.99 3.97C10.17 4.06 10.33 4.15 10.47 4.24L11.05 4.62L11.71 4.43L13.28 3.98L14.13 5.45L12.95 6.59L12.46 7.07L12.5 7.76L12.51 7.94V8.01L12.5 8.11L12.49 8.28L12.45 8.97L12.94 9.45L14.12 10.55Z" fill="#444746"/>
</svg>
