<svg width="16" height="16" viewBox="0 0 16 16" fill="none" xmlns="http://www.w3.org/2000/svg">
<path d="M8 0C3.58 0 0 3.58 0 8C0 12.42 3.58 16 8 16C12.42 16 16 12.42 16 8C16 3.58 12.42 0 8 0ZM8 14.5C4.42 14.5 1.5 11.58 1.5 8C1.5 4.42 4.42 1.5 8 1.5C11.58 1.5 14.5 4.42 14.5 8C14.5 11.58 11.58 14.5 8 14.5Z" fill="#444746"/>
<path d="M8.00965 11C7.44965 11 6.99965 11.43 6.99965 11.99C6.99965 12.55 7.43965 13 8.00965 13C8.57965 13 8.99965 12.55 8.99965 11.99C8.99965 11.43 8.56965 11 8.00965 11ZM7.98965 3C6.51965 3 5.50965 3.96 5.13965 5.08L6.49965 5.65C6.67965 5.09 7.11965 4.42 7.99965 4.42C9.34965 4.42 9.61965 5.68 9.13965 6.36C8.68965 7 7.91965 7.44 7.50965 8.16C7.18965 8.74 7.24965 9.4 7.24965 9.81H8.76965C8.76965 9.03 8.81965 8.88 8.94965 8.63C9.26965 8.03 9.87965 7.75 10.5096 6.82C11.0796 5.98 10.8596 4.85 10.4996 4.25C10.0696 3.56 9.21965 3 7.98965 3Z" fill="#444746"/>
</svg>
