<svg width="16" height="12" viewBox="0 0 16 12" fill="none" xmlns="http://www.w3.org/2000/svg">
<path fill-rule="evenodd" clip-rule="evenodd" d="M12.8547 4.54851C14.6382 4.83765 16 6.3848 16 8.25C16 10.3211 14.321 12 12.25 12H11H6H4.5C2.01471 12 0 9.9853 0 7.5C0 5.25735 1.6405 3.39787 3.78699 3.05617C4.67566 1.6692 6.23047 0.75 8 0.75C10.3472 0.75 12.3167 2.3674 12.8547 4.54851ZM4.7298 4.5C5.23303 3.18431 6.50739 2.25 8 2.25C9.933 2.25 11.5 3.817 11.5 5.75V6H12.25C13.4926 6 14.5 7.0074 14.5 8.25C14.5 9.4926 13.4926 10.5 12.25 10.5H10.5H4.5C2.84314 10.5 1.5 9.1569 1.5 7.5C1.5 5.84314 2.84314 4.5 4.5 4.5H4.7298ZM7.14097 7.1656L9.2349 5.07166L10.3087 6.14546L7.14097 9.3132L4.93201 7.1042L6.00581 6.03041L7.14097 7.1656Z" fill="#444746"/>
</svg>
