<svg width="72" height="72" viewBox="0 0 72 72" fill="none" xmlns="http://www.w3.org/2000/svg">
<path d="M33 10H11V20H33V10Z" fill="#E3E3E3"/>
<path d="M33 24H11V34H33V24Z" fill="#E3E3E3"/>
<path d="M61 38H11V48H61V38Z" fill="#E3E3E3"/>
<path d="M61 52H11V62H61V52Z" fill="#E3E3E3"/>
<path fill-rule="evenodd" clip-rule="evenodd" d="M58.4444 10H39.5556C38.15 10 37 11.15 37 12.5556V31.4444C37 32.85 38.15 34 39.5556 34H58.4444C59.85 34 61 32.85 61 31.4444V22.5V12.5556C61 11.15 59.85 10 58.4444 10ZM58.5 12.5556V16.5H49H39.5V12.5L58.5 12.5556ZM46 31.5H52V19H46V31.5ZM39.5 19H42H43.5V31.5H39.5V19ZM54.5 19V31.5H58.5V19H54.5Z" fill="#4C8DF6"/>
</svg>
