<svg width="24" height="20" viewBox="0 0 24 20" fill="none" xmlns="http://www.w3.org/2000/svg">
<path d="M19 14.5L18 13.259V7.26756L19 5.51018L22.9131 2.5C23.5 2.0577 24 2.4357 24 3.06275V17.1642C24 17.7913 23.3333 18.1289 22.8986 17.727L19 14.5Z" fill="#00AC47"/>
<path d="M6 0.5L0 6.5H6V0.5Z" fill="#FE2C25"/>
<path d="M6 6.5H0V13.5H6V6.5Z" fill="#2684FC"/>
<path d="M0 13.5V17.5C0 18.6 0.9 19.5 2.00001 19.5H6V13.5H0Z" fill="#0066DA"/>
<path d="M19 2.49703C19 1.39867 18.1225 0.5 17.05 0.5H6V6.5H13V10.5L19 10.3187V2.49703Z" fill="#FFBA00"/>
<path d="M13 13.5H6V19.5H17.05C18.1225 19.5 19 18.6924 19 17.7053V10.5L13 10V13.5Z" fill="#00AC47"/>
<path d="M19 5.5V14.5L13 10L19 5.5Z" fill="#00832D"/>
</svg>
