<svg width="18" height="18" viewBox="0 0 18 18" fill="none" xmlns="http://www.w3.org/2000/svg">
<path d="M4.5 4C6.98527 4 9 6.05204 9 8.58333V9H0.409091C0.183158 9 0 8.81346 0 8.58333C0 6.05204 2.01472 4 4.5 4ZM14 4.5C14 6.98527 11.948 9 9.41667 9H9V0.409091C9 0.183158 9.18654 0 9.41667 0C11.948 0 14 2.01472 14 4.5ZM13.5 14C11.0147 14 9 11.948 9 9.41667V9H17.5909C17.8169 9 18 9.18654 18 9.41667C18 11.948 15.9853 14 13.5 14ZM4 13.5C4 11.0147 6.05204 9 8.58333 9H9V17.5909C9 17.8169 8.81346 18 8.58333 18C6.05204 18 4 15.9853 4 13.5Z" fill="#444746"/>
</svg>
