<svg width="24" height="24" viewBox="0 0 24 24" fill="none" xmlns="http://www.w3.org/2000/svg">
<path d="M18 16C17.21 16 16.5 16.31 15.97 16.81L8.91 12.7C8.96 12.47 9 12.24 9 12C9 11.76 8.96 11.53 8.91 11.3L15.96 7.19C16.49 7.69 17.21 8 18 8C19.66 8 21 6.66 21 5C21 3.34 19.66 2 18 2C16.34 2 15 3.34 15 5C15 5.24 15.04 5.48 15.09 5.7L8.04 9.81C7.5 9.31 6.79 9 6 9C4.34 9 3 10.34 3 12C3 13.66 4.34 15 6 15C6.79 15 7.5 14.69 8.04 14.19L15.09 18.31C15.04 18.53 15 18.76 15 19C15 20.66 16.34 22 18 22C19.66 22 21 20.66 21 19C21 17.34 19.66 16 18 16ZM18 4C18.55 4 19 4.45 19 5C19 5.55 18.55 6 18 6C17.45 6 17 5.55 17 5C17 4.45 17.45 4 18 4ZM6 13C5.45 13 5 12.55 5 12C5 11.45 5.45 11 6 11C6.55 11 7 11.45 7 12C7 12.55 6.55 13 6 13ZM18 20C17.45 20 17 19.55 17 19C17 18.45 17.45 18 18 18C18.55 18 19 18.45 19 19C19 19.55 18.55 20 18 20Z" fill="#444746"/>
</svg>
