<svg width="24" height="24" viewBox="0 0 24 24" fill="none" xmlns="http://www.w3.org/2000/svg">
<path d="M11.9996 22C13.0996 22 13.9996 21.1 13.9996 20H9.99965C9.99965 21.1 10.8996 22 11.9996 22ZM15.9996 16L2.80965 2.81L1.38965 4.22L6.23965 9.07C6.08965 9.68 5.99965 10.33 5.99965 11V17H3.99965V19H16.1696L19.7796 22.61L21.1896 21.2L15.9996 16ZM7.99965 17L8.00965 10.84L14.1696 17H7.99965ZM11.9996 6.5C14.4896 6.5 15.9996 8.52 15.9996 11V13.17L17.9996 15.17V11C17.9996 7.93 16.3696 5.36 13.4996 4.68V4C13.4996 3.17 12.8296 2.5 11.9996 2.5C11.1696 2.5 10.4996 3.17 10.4996 4V4.68C9.71965 4.86 9.04965 5.2 8.45965 5.63L9.92965 7.1C10.5096 6.73 11.1996 6.5 11.9996 6.5Z" fill="#444746"/>
</svg>
