<svg width="14" height="14" viewBox="0 0 14 14" fill="none" xmlns="http://www.w3.org/2000/svg">
<path d="M0 5V3.22917L3.22917 0H5L0 5ZM0 1.04167V0H1.04167L0 1.04167ZM10 2.89583C9.8611 2.74305 9.7083 2.59722 9.5417 2.45833C9.3889 2.31944 9.2222 2.19444 9.0417 2.08333L11.125 0H12.8958L10 2.89583ZM1.25 9.8958L3.58333 7.54167C3.69444 7.72222 3.81944 7.88889 3.95833 8.0417C4.09722 8.1944 4.24306 8.3472 4.39583 8.5L3.95833 8.9375C3.48611 9.0486 3.02083 9.1806 2.5625 9.3333C2.11806 9.4722 1.68056 9.6597 1.25 9.8958ZM10.9792 5.875V5.6875C10.9931 5.63194 11 5.56944 11 5.5C11 5.29167 10.9792 5.09028 10.9375 4.89583C10.9097 4.6875 10.8611 4.48611 10.7917 4.29167L14 1.08333V2.85417L10.9792 5.875ZM5.27083 1.91667L7.1875 0H8.9583L7.41667 1.54167C7.34722 1.52778 7.27778 1.52083 7.20833 1.52083C7.13889 1.50694 7.06944 1.5 7 1.5C6.69444 1.5 6.39583 1.54167 6.10417 1.625C5.82639 1.69444 5.54861 1.79167 5.27083 1.91667ZM0 8.9583V7.1875L3.41667 3.77083C3.33333 3.99305 3.25 4.22222 3.16667 4.45833C3.08333 4.68055 3.04167 4.90972 3.04167 5.14583C3.04167 5.27083 3.02778 5.40278 3 5.54167C2.98611 5.66667 2.99306 5.79167 3.02083 5.91667L0 8.9583ZM13.625 11.125C13.5139 10.9444 13.3889 10.7778 13.25 10.625C13.1111 10.4583 12.9514 10.3194 12.7708 10.2083L14 8.9792V10.75L13.625 11.125ZM11.375 9.4375C11.2778 9.4097 11.1806 9.3681 11.0833 9.3125C11 9.2569 10.9097 9.2153 10.8125 9.1875C10.6875 9.1458 10.5625 9.1042 10.4375 9.0625C10.3125 9.0208 10.1875 8.9861 10.0625 8.9583L14 5.02083V6.79167L11.375 9.4375ZM7 8.5C6.16667 8.5 5.45833 8.2083 4.875 7.625C4.29167 7.04167 4 6.33333 4 5.5C4 4.66667 4.29167 3.95833 4.875 3.375C5.45833 2.79167 6.16667 2.5 7 2.5C7.83333 2.5 8.5417 2.79167 9.125 3.375C9.7083 3.95833 10 4.66667 10 5.5C10 6.33333 9.7083 7.04167 9.125 7.625C8.5417 8.2083 7.83333 8.5 7 8.5ZM7 7C7.41667 7 7.77083 6.85417 8.0625 6.5625C8.3542 6.27083 8.5 5.91667 8.5 5.5C8.5 5.08333 8.3542 4.72917 8.0625 4.4375C7.77083 4.14583 7.41667 4 7 4C6.58333 4 6.22917 4.14583 5.9375 4.4375C5.64583 4.72917 5.5 5.08333 5.5 5.5C5.5 5.91667 5.64583 6.27083 5.9375 6.5625C6.22917 6.85417 6.58333 7 7 7ZM1 14V12.5833C1 12.2222 1.08333 11.8958 1.25 11.6042C1.43056 11.2986 1.67361 11.0556 1.97917 10.875C2.74306 10.4306 3.54861 10.0903 4.39583 9.8542C5.24306 9.6181 6.11111 9.5 7 9.5C7.88889 9.5 8.7569 9.6181 9.6042 9.8542C10.4514 10.0903 11.2569 10.4306 12.0208 10.875C12.3264 11.0556 12.5625 11.2986 12.7292 11.6042C12.9097 11.8958 13 12.2222 13 12.5833V14H1ZM2.52083 12.5H11.4792C11.4792 12.4306 11.4583 12.3681 11.4167 12.3125C11.3889 12.2569 11.3403 12.2083 11.2708 12.1667C10.6181 11.7639 9.9306 11.4722 9.2083 11.2917C8.4861 11.0972 7.75 11 7 11C6.25 11 5.51389 11.0972 4.79167 11.2917C4.06944 11.4861 3.38194 11.7778 2.72917 12.1667C2.65972 12.2083 2.60417 12.2569 2.5625 12.3125C2.53472 12.3681 2.52083 12.4306 2.52083 12.5Z" fill="#444746"/>
</svg>
