<svg width="20" height="20" viewBox="0 0 20 20" fill="none" xmlns="http://www.w3.org/2000/svg">
<path d="M8.5 12H16V10H10.5L8.5 12ZM4 12H6.45L12.35 6.15C12.45 6.05 12.5 5.925 12.5 5.775C12.5 5.625 12.45 5.5 12.35 5.4L10.6 3.65C10.5 3.55 10.375 3.5 10.225 3.5C10.075 3.5 9.95 3.55 9.85 3.65L4 9.55V12ZM0 20V2C0 1.45 0.196 0.979 0.588 0.587C0.979333 0.195667 1.45 0 2 0H18C18.55 0 19.021 0.195667 19.413 0.587C19.8043 0.979 20 1.45 20 2V14C20 14.55 19.8043 15.021 19.413 15.413C19.021 15.8043 18.55 16 18 16H4L0 20ZM2 14H18V2H2V14Z" fill="#444746"/>
</svg>
