<svg width="14" height="10" viewBox="0 0 14 10" fill="none" xmlns="http://www.w3.org/2000/svg">
<path fill-rule="evenodd" clip-rule="evenodd" d="M0 1.00937C0 0.45191 0.443353 0 1.00937 0H2.99063C3.54809 0 4 0.443353 4 1.00937V2.99063C4 3.54809 3.55665 4 2.99063 4H1.00937C0.45191 4 0 3.55665 0 2.99063V1.00937ZM6 1H14V3H6V1ZM6 7H14V9H6V7ZM0 7.00937C0 6.45191 0.443353 6 1.00937 6H2.99063C3.54809 6 4 6.44335 4 7.00937V8.99063C4 9.54809 3.55665 10 2.99063 10H1.00937C0.45191 10 0 9.55665 0 8.99063V7.00937Z" fill="#444746"/>
</svg>
