<svg width="15" height="12" viewBox="0 0 15 12" fill="none" xmlns="http://www.w3.org/2000/svg">
<path d="M1.64103 12C1.18974 12 0.80342 11.8393 0.48205 11.5179C0.16068 11.1966 0 10.8103 0 10.359C0 9.9077 0.16068 9.5214 0.48205 9.2C0.80342 8.8786 1.18974 8.7179 1.64103 8.7179H5.45641L2.31795 6.50256C1.90769 6.21538 1.68205 5.82222 1.64103 5.32308C1.6 4.82393 1.75043 4.39658 2.09231 4.04103C2.39316 3.74017 2.75214 3.57949 3.16923 3.55897C3.58632 3.53846 3.95897 3.64444 4.28718 3.87692L7.34359 6.03077L6.03077 2.44103C5.82564 1.88034 5.8906 1.37436 6.22564 0.92308C6.56068 0.47179 7.01538 0.24615 7.58974 0.24615C7.9453 0.24615 8.2598 0.35214 8.5333 0.5641C8.8068 0.77607 9.012 1.05983 9.1487 1.41538L10.441 4.94359L11.4051 1.31282C11.5145 0.91624 11.7162 0.59829 12.0103 0.35897C12.3043 0.11966 12.6427 0 13.0256 0C13.5726 0 14.0068 0.21538 14.3282 0.64615C14.6496 1.07692 14.735 1.55214 14.5846 2.07179L12.2462 10.7692C12.1368 11.1248 11.9419 11.4188 11.6615 11.6513C11.3812 11.8838 11.0564 12 10.6872 12H1.64103ZM3.28205 5.98974C3.51453 5.98974 3.7094 5.91111 3.86667 5.75385C4.02393 5.59658 4.10256 5.40171 4.10256 5.16923C4.10256 4.93675 4.02393 4.74188 3.86667 4.58462C3.7094 4.42735 3.51453 4.34872 3.28205 4.34872C3.04957 4.34872 2.8547 4.42735 2.69744 4.58462C2.54017 4.74188 2.46154 4.93675 2.46154 5.16923C2.46154 5.40171 2.54017 5.59658 2.69744 5.75385C2.8547 5.91111 3.04957 5.98974 3.28205 5.98974ZM7.56923 2.68718C7.80171 2.68718 7.99658 2.60855 8.1538 2.45128C8.3111 2.29402 8.3897 2.09915 8.3897 1.86667C8.3897 1.63419 8.3111 1.43932 8.1538 1.28205C7.99658 1.12479 7.80171 1.04615 7.56923 1.04615C7.33675 1.04615 7.14188 1.12479 6.98462 1.28205C6.82735 1.43932 6.74872 1.63419 6.74872 1.86667C6.74872 2.09915 6.82735 2.29402 6.98462 2.45128C7.14188 2.60855 7.33675 2.68718 7.56923 2.68718ZM1.64103 11.1795C1.8735 11.1795 2.06838 11.1009 2.22564 10.9436C2.38291 10.7863 2.46154 10.5915 2.46154 10.359C2.46154 10.1265 2.38291 9.9316 2.22564 9.7744C2.06838 9.6171 1.8735 9.5385 1.64103 9.5385C1.40855 9.5385 1.21368 9.6171 1.05641 9.7744C0.89915 9.9316 0.82051 10.1265 0.82051 10.359C0.82051 10.5915 0.89915 10.7863 1.05641 10.9436C1.21368 11.1009 1.40855 11.1795 1.64103 11.1795ZM13.0256 2.46154C13.2581 2.46154 13.453 2.38291 13.6103 2.22564C13.7675 2.06838 13.8462 1.8735 13.8462 1.64103C13.8462 1.40855 13.7675 1.21368 13.6103 1.05641C13.453 0.89915 13.2581 0.82051 13.0256 0.82051C12.7932 0.82051 12.5983 0.89915 12.441 1.05641C12.2838 1.21368 12.2051 1.40855 12.2051 1.64103C12.2051 1.8735 12.2838 2.06838 12.441 2.22564C12.5983 2.38291 12.7932 2.46154 13.0256 2.46154Z" fill="#444746"/>
</svg>
