<svg width="12" height="12" viewBox="0 0 12 12" fill="none" xmlns="http://www.w3.org/2000/svg">
<path d="M10.44 6.5H11.97C11.87 7.69 11.42 8.78 10.73 9.67L9.64 8.58C10.06 7.97 10.35 7.27 10.44 6.5ZM7 3.5H9.72C8.91 2.3 7.55 1.5 6 1.5C3.52 1.5 1.49 3.52 1.49 6C1.49 6.97 1.81 7.87 2.33 8.6L1.26 9.67C0.48 8.66 0 7.38 0 6C0 2.69 2.69 0 6 0C7.8 0 9.4 0.8 10.5 2.06V0H12V5H7V3.5ZM6.75 10.43C7.43 10.31 8.05 10.03 8.58 9.65L9.65 10.72C8.82 11.36 7.83 11.79 6.74 11.93V10.43H6.75ZM3.4 9.66C3.94 10.05 4.57 10.31 5.25 10.42V11.94C4.16 11.8 3.16 11.37 2.33 10.73L3.4 9.66Z" fill="#444746"/>
</svg>
