<svg width="12" height="16" viewBox="0 0 12 16" fill="none" xmlns="http://www.w3.org/2000/svg">
<path d="M10.5 0H1.5C0.67 0 0 0.67 0 1.5V13.5C0 14.88 1.12 16 2.5 16H12V1.5C12 0.67 11.33 0 10.5 0ZM10.5 14.5H2.5C1.95 14.5 1.5 14.05 1.5 13.5C1.5 12.95 1.95 12.5 2.5 12.5H10.5V14.5ZM10.5 11H2.5C2.14 11 1.81 11.08 1.5 11.21V1.5H10.5V11Z" fill="#444746"/>
<path d="M5.75 8.75C6.3 8.75 6.81 8.58 7.24 8.3L8.94 10L10 8.94L8.23 7.17C8.4 6.81 8.5 6.42 8.5 6C8.5 4.48 7.27 3.25 5.75 3.25C4.23 3.25 3 4.48 3 6C3 7.52 4.23 8.75 5.75 8.75ZM5.75 4.75C6.44 4.75 7 5.31 7 6C7 6.69 6.44 7.25 5.75 7.25C5.06 7.25 4.5 6.69 4.5 6C4.5 5.31 5.06 4.75 5.75 4.75Z" fill="#444746"/>
</svg>
