<svg width="16" height="14" viewBox="0 0 16 14" fill="none" xmlns="http://www.w3.org/2000/svg">
<path fill-rule="evenodd" clip-rule="evenodd" d="M14.5312 0H2.50909C2.17273 0 2 0 1 0C0 0 0 1.00134 0 1.00134V4H2.00195V2H14V12H10V13.9901H14.9997C16 13.9901 16 12.996 16 12.996V1.00134C16 1.00134 16 0 14.9997 0H14.5312ZM0.00390625 8C3.73141 7.99457 6.02289 10.2569 6 14H8C8 9.42819 4.56016 6.00061 0.00390625 6.00061V8ZM0.00341797 14H2.00366C2.00366 12.7533 1.24125 12 0 12L0.00341797 14ZM0 11C2.07 10.9772 3.02643 12.18 3 14H5C4.97491 11.3512 2.89875 9 0 9V11Z" fill="#444746"/>
</svg>
