<svg width="16" height="15" viewBox="0 0 16 15" fill="none" xmlns="http://www.w3.org/2000/svg">
<path d="M10 4.65998C10.6109 5.52945 10.6109 6.65682 10 7.52629L11.2219 8.77156C12.6911 7.28313 12.6911 5.03577 11.2219 3.41471L10 4.65998ZM13.1855 0.885254L12 2.0863C14.0147 4.31156 14.0147 7.65683 12 9.99998L13.1855 11.2011C16.022 8.33472 16.0293 3.86946 13.1855 0.885254ZM6 8.99998C7.60736 8.99998 9 7.68103 9 6.05261C9 4.42419 7.60736 2.99998 6 2.99998C4.39264 2.99998 3 4.42419 3 6.05261C3 7.68103 4.39264 8.99998 6 8.99998ZM6 4.57892C6.80005 4.57892 7.45463 5.24208 7.45463 6.05261C7.45463 6.86313 6.80005 7.52629 6 7.52629C5.19995 7.52629 4.54537 6.86313 4.54537 6.05261C4.54537 5.24208 5.19995 4.57892 6 4.57892ZM6 9.99998C4.05807 9.99998 0 11.5 0 13V15H12V13C12 11.3158 7.94193 9.99998 6 9.99998ZM10 13.5263H2V13.0074C2.14546 12.4768 4.03625 11.5 6 11.5C7.96375 11.5 9.8545 12.4768 10 13V13.5263Z" fill="#444746"/>
</svg>
