<svg width="17" height="17" viewBox="0 0 17 17" fill="none" xmlns="http://www.w3.org/2000/svg">
<path d="M16.0701 15.07L1.93012 0.93L0.870117 1.99L5.00012 6.12V7.25L3.50012 9.35V11H8.25012V15.25L9.00012 16L9.75012 15.25V11H9.88012L15.0101 16.13L16.0701 15.07ZM5.24012 9.5L6.50012 7.73V7.62L8.38012 9.5H5.24012ZM6.50012 1.5H11.5001V7.73L13.8301 11H14.5001V9.35L13.0001 7.25V1.5C13.0001 0.67 12.3301 0 11.5001 0H6.50012C5.67012 0 5.00012 0.67 5.00012 1.5V1.88L6.50012 3.38V1.5Z" fill="#444746"/>
</svg>
