<svg width="15" height="15" viewBox="0 0 15 15" fill="none" xmlns="http://www.w3.org/2000/svg">
<path fill-rule="evenodd" clip-rule="evenodd" d="M9.01903 9.72705C8.06535 10.5219 6.83851 11 5.5 11C2.46243 11 0 8.53757 0 5.5C0 2.46243 2.46243 0 5.5 0C8.53757 0 11 2.46243 11 5.5C11 6.83851 10.5219 8.06535 9.72705 9.01903L9.98 9.27H10.77L14.76 13.27L13.27 14.76L9.27 10.77V9.98L9.01903 9.72705ZM5.5 9.5C7.70914 9.5 9.5 7.70914 9.5 5.5C9.5 3.29086 7.70914 1.5 5.5 1.5C3.29086 1.5 1.5 3.29086 1.5 5.5C1.5 7.70914 3.29086 9.5 5.5 9.5ZM8 6H6V8H5V6H3V5H5V3H6V5H8V6Z" fill="#444746"/>
</svg>
