<svg width="16" height="14" viewBox="0 0 16 14" fill="none" xmlns="http://www.w3.org/2000/svg">
<path d="M4.75 13.5C3.99219 13.5 3.34375 13.2305 2.80469 12.6914C2.26953 12.1563 2 11.5078 2 10.7461C2 9.98437 2.26953 9.33594 2.80469 8.80078C3.34375 8.26563 3.99219 8 4.75 8H13.25C14.0078 8 14.6563 8.26953 15.1953 8.80859C15.7305 9.34375 16 9.99219 16 10.7539C16 11.5156 15.7305 12.1641 15.1953 12.6992C14.6563 13.2344 14.0078 13.5 13.25 13.5H4.75ZM4.75 12H13.25C13.5977 12 13.8906 11.8789 14.1367 11.6367C14.3789 11.3906 14.5 11.0977 14.5 10.75C14.5 10.4023 14.3789 10.1094 14.1367 9.86328C13.8906 9.62109 13.5977 9.5 13.25 9.5H4.75C4.40234 9.5 4.10937 9.62109 3.86328 9.86328C3.62109 10.1094 3.5 10.4023 3.5 10.75C3.5 11.0977 3.62109 11.3906 3.86328 11.6367C4.10937 11.8789 4.40234 12 4.75 12ZM2.75 6C1.99219 6 1.34375 5.73047 0.804688 5.19141C0.269531 4.65625 0 4.00781 0 3.24609C0 2.48438 0.269531 1.83594 0.804688 1.30078C1.34375 0.765625 1.99219 0.5 2.75 0.5H11.25C12.0078 0.5 12.6562 0.769531 13.1953 1.30859C13.7305 1.84375 14 2.49219 14 3.25391C14 4.01562 13.7305 4.66406 13.1953 5.19922C12.6562 5.73437 12.0078 6 11.25 6H2.75ZM2.75 4.5H11.25C11.5977 4.5 11.8906 4.37891 12.1367 4.13672C12.3789 3.89063 12.5 3.59766 12.5 3.25C12.5 2.90234 12.3789 2.60937 12.1367 2.36328C11.8906 2.12109 11.5977 2 11.25 2H2.75C2.40234 2 2.10938 2.12109 1.86328 2.36328C1.62109 2.60937 1.5 2.90234 1.5 3.25C1.5 3.59766 1.62109 3.89063 1.86328 4.13672C2.10938 4.37891 2.40234 4.5 2.75 4.5Z" fill="#444746"/>
</svg>
