<svg width="18" height="15" viewBox="0 0 18 15" fill="none" xmlns="http://www.w3.org/2000/svg">
<path d="M11.9442 8.0312L10.7817 6.86875C10.8317 6.39375 10.6879 5.9875 10.3504 5.65C10.0129 5.3 9.60664 5.15 9.13164 5.2L7.96914 4.0375C8.13164 3.975 8.30039 3.93125 8.47539 3.90625C8.65039 3.86875 8.82539 3.85 9.00039 3.85C9.87539 3.85 10.6192 4.15625 11.2317 4.76875C11.8442 5.38125 12.1504 6.125 12.1504 7C12.1504 7.175 12.1317 7.35 12.0942 7.525C12.0692 7.7 12.0192 7.86875 11.9442 8.0312ZM14.4379 10.525L13.4629 9.55C13.9129 9.2 14.3192 8.8187 14.6817 8.4062C15.0567 7.98125 15.3692 7.5125 15.6192 7C15.0067 5.7375 14.1004 4.75 12.9004 4.0375C11.7129 3.3125 10.4129 2.95 9.00039 2.95C8.67539 2.95 8.35664 2.96875 8.04414 3.00625C7.73164 3.04375 7.42539 3.10625 7.12539 3.19375L6.03789 2.10625C6.51289 1.91875 6.99414 1.7875 7.48164 1.7125C7.98164 1.6375 8.48789 1.6 9.00039 1.6C10.7879 1.6 12.4192 2.0875 13.8942 3.0625C15.3817 4.025 16.4504 5.3375 17.1004 7C16.8254 7.7125 16.4567 8.3625 15.9942 8.95C15.5442 9.525 15.0254 10.05 14.4379 10.525ZM14.4004 14.3125L11.9629 11.875C11.4879 12.05 11.0004 12.1812 10.5004 12.2687C10.0129 12.3562 9.51289 12.4 9.00039 12.4C7.21289 12.4 5.57539 11.9187 4.08789 10.9562C2.61289 9.9812 1.55039 8.6625 0.900391 7C1.17539 6.2875 1.53789 5.6375 1.98789 5.05C2.43789 4.4625 2.96289 3.93125 3.56289 3.45625L1.68789 1.58125L2.64414 0.625L15.3567 13.3562L14.4004 14.3125ZM4.51914 4.43125C4.08164 4.78125 3.67539 5.16875 3.30039 5.59375C2.92539 6.00625 2.61914 6.475 2.38164 7C2.99414 8.2625 3.89414 9.2562 5.08164 9.9812C6.28164 10.6937 7.58789 11.05 9.00039 11.05C9.32539 11.05 9.64414 11.0312 9.95664 10.9937C10.2692 10.9437 10.5817 10.8812 10.8942 10.8062L10.0504 9.9625C9.87539 10.025 9.70039 10.075 9.52539 10.1125C9.35039 10.1375 9.17539 10.15 9.00039 10.15C8.12539 10.15 7.38164 9.8437 6.76914 9.2312C6.15664 8.6187 5.85039 7.875 5.85039 7C5.85039 6.825 5.86914 6.65 5.90664 6.475C5.95664 6.3 6.00039 6.125 6.03789 5.95L4.51914 4.43125Z" fill="#444746"/>
</svg>
