<svg width="20" height="20" viewBox="0 0 20 20" fill="none" xmlns="http://www.w3.org/2000/svg">
<path d="M12.5 18.9258L8.25 14.6758L9.64844 13.2734L12.5 16.125L18.1484 10.4766L19.5508 11.875L12.5 18.9258ZM18 9H16V4H14V7H4V4H2V18H8V20H2C1.44922 20 0.980469 19.8047 0.585938 19.4141C0.195312 19.0195 0 18.5508 0 18V4C0 3.44922 0.195312 2.98047 0.585938 2.58594C0.980469 2.19531 1.44922 2 2 2H6.17578C6.35938 1.41797 6.71484 0.9375 7.25 0.5625C7.78516 0.1875 8.36719 0 9 0C9.66797 0 10.2617 0.1875 10.7891 0.5625C11.3125 0.9375 11.668 1.41797 11.8516 2H16C16.5508 2 17.0195 2.19531 17.4141 2.58594C17.8047 2.98047 18 3.44922 18 4V9ZM9 4C9.28516 4 9.51953 3.90234 9.71094 3.71094C9.90234 3.51953 10 3.28516 10 3C10 2.71484 9.90234 2.48047 9.71094 2.28906C9.51953 2.09766 9.28516 2 9 2C8.71484 2 8.48047 2.09766 8.28906 2.28906C8.09766 2.48047 8 2.71484 8 3C8 3.28516 8.09766 3.51953 8.28906 3.71094C8.48047 3.90234 8.71484 4 9 4Z" fill="#444746"/>
</svg>
