<svg width="9" height="16" viewBox="0 0 9 16" fill="none" xmlns="http://www.w3.org/2000/svg">
<path d="M4.5 16C3.22222 16 2.15278 15.5451 1.29167 14.6354C0.43056 13.7257 0 12.6389 0 11.375V3.27083C0 2.36806 0.31597 1.59722 0.94792 0.95833C1.57986 0.31944 2.34722 0 3.25 0C4.18056 0 4.95486 0.33681 5.5729 1.01042C6.191 1.68403 6.5 2.47917 6.5 3.39583V11.0208C6.5 11.5764 6.3021 12.0451 5.9063 12.4271C5.5104 12.809 5.0417 13 4.5 13C3.91667 13 3.4375 12.7917 3.0625 12.375C2.6875 11.9583 2.5 11.4722 2.5 10.9167V3H4V11.0208C4 11.1597 4.04861 11.2778 4.14583 11.375C4.24306 11.4722 4.36111 11.5208 4.5 11.5208C4.63889 11.5208 4.75694 11.4722 4.85417 11.375C4.95139 11.2778 5 11.1597 5 11.0208V3.27083C5 2.78472 4.82986 2.36806 4.48958 2.02083C4.14931 1.67361 3.73611 1.5 3.25 1.5C2.76389 1.5 2.35069 1.67708 2.01042 2.03125C1.67014 2.38542 1.5 2.8125 1.5 3.3125V11.5208C1.5 12.3542 1.79514 13.059 2.38542 13.6354C2.97569 14.2118 3.68056 14.5 4.5 14.5C5.3611 14.5 6.0764 14.1944 6.6458 13.5833C7.2153 12.9722 7.5 12.25 7.5 11.4167V3H9V11.5208C9 12.7708 8.566 13.8299 7.6979 14.6979C6.8299 15.566 5.7639 16 4.5 16Z" fill="#444746"/>
</svg>
