<svg width="16" height="15" viewBox="0 0 16 15" fill="none" xmlns="http://www.w3.org/2000/svg">
<path d="M3.47043 0L2.41043 1.06L4.94043 3.59L0.34043 8.19C-0.10957 8.64 -0.10957 9.36 0.34043 9.81L5.20043 14.67C5.41043 14.89 5.71043 15 6.00043 15C6.29043 15 6.59043 14.89 6.81043 14.67L11.6704 9.81C12.1204 9.36 12.1204 8.64 11.6704 8.19L3.47043 0ZM1.65043 9L6.00043 4.65L10.3504 9H1.65043ZM14.1804 10C14.1804 10 12.3604 11.98 12.3604 13.18C12.3604 14.18 13.1804 15 14.1804 15C15.1804 15 16.0004 14.18 16.0004 13.18C16.0004 11.98 14.1804 10 14.1804 10Z" fill="#444746"/>
</svg>
