<svg width="22" height="22" viewBox="0 0 22 22" fill="none" xmlns="http://www.w3.org/2000/svg">
<path d="M3.9998 16C3.4498 16 2.9798 15.804 2.5868 15.413C2.39762 15.2301 2.24793 15.0103 2.14697 14.7673C2.04601 14.5243 1.99592 14.2631 1.9998 14V2.825L0.674805 1.5L2.0998 0.075L21.8998 19.875L20.4748 21.3L15.1748 16H3.9998ZM21.9998 17.125L18.8748 14H19.9998V2H6.8748L4.8748 0H19.9998C20.5498 0 21.0198 0.196 21.4128 0.587C21.8028 0.98 21.9998 1.45 21.9998 2V17.125ZM3.9998 14H13.1748L11.1748 12H5.9998V10H9.1748L8.1748 9H5.9998V7H6.1748L3.9998 4.825V14ZM16.8748 12L14.8748 10H17.9998V12H16.8748ZM13.8748 9L11.8748 7H17.9998V9H13.8748ZM10.8748 6L8.8748 4H17.9998V6H10.8748Z" fill="#444746"/>
</svg>
