<svg width="43" height="27" viewBox="0 0 43 27" fill="none" xmlns="http://www.w3.org/2000/svg">
<path d="M0.599609 26.9V25.3H6.99961V23.8C6.19961 23.8 5.59961 23.5 4.99961 23C4.49961 22.5 4.29961 21.9 4.29961 21.1V3.1C4.29961 2.4 4.49961 1.8 5.09961 1.3C5.59961 0.7 6.19961 0.5 6.99961 0.5H36.0996C36.7996 0.5 37.4996 0.7 37.9996 1.3C38.4996 1.8 38.7996 2.4 38.7996 3.1V21.1C38.7996 21.9 38.4996 22.5 37.9996 23.1C37.4996 23.5 36.7996 23.8 36.0996 23.8V25.3H42.5996V27H0.599609V26.9ZM7.09961 22.3H36.1996C36.4996 22.3 36.7996 22.2 36.9996 22C37.1996 21.8 37.3996 21.5 37.3996 21.1V3.1C37.3996 2.94476 37.3635 2.79164 37.294 2.65279C37.2246 2.51393 37.1238 2.39315 36.9996 2.3C36.7996 2.1 36.4996 2 36.1996 2H7.09961C6.79961 2 6.49961 2.1 6.29961 2.3C6.17541 2.39315 6.07461 2.51393 6.00518 2.65279C5.93575 2.79164 5.89961 2.94476 5.89961 3.1V21.1C5.89961 21.5 5.99961 21.8 6.29961 22C6.49961 22.2 6.79961 22.3 7.09961 22.3Z" fill="#C4C7C5"/>
<mask id="mask0_148_16465" style="mask-type:luminance" maskUnits="userSpaceOnUse" x="6" y="3" width="31" height="19">
<path d="M35.4994 3H7.79941C7.30236 3 6.89941 3.40294 6.89941 3.9V20.6C6.89941 21.0971 7.30236 21.5 7.79941 21.5H35.4994C35.9965 21.5 36.3994 21.0971 36.3994 20.6V3.9C36.3994 3.40294 35.9965 3 35.4994 3Z" fill="white"/>
</mask>
<g mask="url(#mask0_148_16465)">
<path d="M35.4994 3H7.79941C7.30236 3 6.89941 3.40294 6.89941 3.9V20.6C6.89941 21.0971 7.30236 21.5 7.79941 21.5H35.4994C35.9965 21.5 36.3994 21.0971 36.3994 20.6V3.9C36.3994 3.40294 35.9965 3 35.4994 3Z" fill="#D3E3FD" stroke="#0B57D0" stroke-width="2"/>
</g>
</svg>
