<svg width="16" height="16" viewBox="0 0 16 16" fill="none" xmlns="http://www.w3.org/2000/svg">
<path d="M5.5 16C4.75 16 4.045 15.8647 3.385 15.594C2.72567 15.3233 2.132 14.924 1.604 14.396C1.076 13.868 0.676667 13.2743 0.406 12.615C0.135333 11.955 0 11.25 0 10.5C0 9.44467 0.270667 8.476 0.812 7.594C1.354 6.712 2.104 6.03467 3.062 5.562C3.29867 5.04867 3.63567 4.573 4.073 4.135C4.51033 3.69767 5.00667 3.34 5.562 3.062C6.03467 2.118 6.712 1.37167 7.594 0.823C8.476 0.274333 9.44467 0 10.5 0C11.25 0 11.955 0.135333 12.615 0.406C13.2743 0.676667 13.868 1.076 14.396 1.604C14.924 2.132 15.3233 2.72567 15.594 3.385C15.8647 4.045 16 4.75 16 5.5C16 6.56933 15.7327 7.538 15.198 8.406C14.6633 9.274 13.91 9.95133 12.938 10.438C12.674 10.9933 12.323 11.4863 11.885 11.917C11.4477 12.347 10.9653 12.6873 10.438 12.938C9.95133 13.882 9.267 14.6283 8.385 15.177C7.503 15.7257 6.54133 16 5.5 16ZM5.5 14.5C5.95867 14.5 6.42033 14.4133 6.885 14.24C7.35033 14.066 7.76367 13.8193 8.125 13.5C7.361 13.528 6.63533 13.3997 5.948 13.115C5.26067 12.8303 4.646 12.417 4.104 11.875C3.56267 11.333 3.153 10.722 2.875 10.042C2.597 9.36133 2.472 8.639 2.5 7.875C2.18067 8.23633 1.934 8.64967 1.76 9.115C1.58667 9.57967 1.5 10.0413 1.5 10.5C1.5 11.0413 1.59733 11.5483 1.792 12.021C1.986 12.493 2.27767 12.9233 2.667 13.312C3.05567 13.7013 3.48967 13.9967 3.969 14.198C4.44833 14.3993 4.95867 14.5 5.5 14.5ZM8 12C8.472 12 8.93733 11.9133 9.396 11.74C9.854 11.566 10.2707 11.3193 10.646 11C9.896 11.028 9.17367 10.903 8.479 10.625C7.785 10.347 7.16 9.93033 6.604 9.375C6.04867 8.81967 5.63567 8.205 5.365 7.531C5.09367 6.85767 4.972 6.139 5 5.375C4.68067 5.73633 4.434 6.14267 4.26 6.594C4.08667 7.04533 4 7.514 4 8C4 8.54133 4.09733 9.04833 4.292 9.521C4.486 9.993 4.77767 10.4233 5.167 10.812C5.55567 11.2013 5.98967 11.4967 6.469 11.698C6.94833 11.8993 7.45867 12 8 12ZM10.438 9.479C10.674 9.479 10.9063 9.46167 11.135 9.427C11.3643 9.39233 11.5763 9.34033 11.771 9.271C12.021 8.535 12.0627 7.80233 11.896 7.073C11.7293 6.34367 11.375 5.70833 10.833 5.167C10.2917 4.625 9.65633 4.27067 8.927 4.104C8.19767 3.93733 7.465 3.979 6.729 4.229C6.65967 4.42367 6.60767 4.63567 6.573 4.865C6.53833 5.09367 6.521 5.326 6.521 5.562C6.521 6.076 6.62167 6.56933 6.823 7.042C7.02433 7.514 7.30567 7.93067 7.667 8.292C8.04167 8.66667 8.472 8.95833 8.958 9.167C9.44467 9.375 9.938 9.479 10.438 9.479ZM13.5 8.125C13.8193 7.77767 14.066 7.375 14.24 6.917C14.4133 6.45833 14.5 5.986 14.5 5.5C14.5 4.972 14.3993 4.465 14.198 3.979C13.9967 3.493 13.7013 3.05567 13.312 2.667C12.9233 2.27767 12.493 1.986 12.021 1.792C11.5483 1.59733 11.0413 1.5 10.5 1.5C10.028 1.5 9.56633 1.58667 9.115 1.76C8.66367 1.934 8.25033 2.18067 7.875 2.5C8.66633 2.472 9.39533 2.59367 10.062 2.865C10.7287 3.13567 11.34 3.54867 11.896 4.104C12.4513 4.66 12.8643 5.27133 13.135 5.938C13.4063 6.60467 13.528 7.33367 13.5 8.125Z" fill="#444746"/>
</svg>
