<svg width="16" height="16" viewBox="0 0 16 16" fill="none" xmlns="http://www.w3.org/2000/svg">
<path d="M8 8C6.89844 8 5.95703 7.60937 5.17578 6.82422C4.39063 6.04297 4 5.10156 4 4C4 2.89844 4.39063 1.95703 5.17578 1.17578C5.95703 0.390625 6.89844 0 8 0C9.10156 0 10.043 0.390625 10.8242 1.17578C11.6094 1.95703 12 2.89844 12 4C12 5.10156 11.6094 6.04297 10.8242 6.82422C10.043 7.60937 9.10156 8 8 8ZM0 16V13.1992C0 12.6328 0.144531 12.1133 0.4375 11.6367C0.730469 11.1641 1.11719 10.8008 1.60156 10.5508C2.63281 10.0352 3.68359 9.64453 4.75 9.38672C5.81641 9.12891 6.89844 9 8 9C9.10156 9 10.1836 9.12891 11.25 9.38672C12.3164 9.64453 13.3672 10.0352 14.3984 10.5508C14.8828 10.8008 15.2695 11.1641 15.5625 11.6367C15.8555 12.1133 16 12.6328 16 13.1992V16H0ZM2 14H14V13.1992C14 13.0156 13.9531 12.8516 13.8633 12.6992C13.7695 12.5508 13.6484 12.4336 13.5 12.3516C12.6016 11.8984 11.6914 11.5625 10.7734 11.3359C9.85938 11.1133 8.93359 11 8 11C7.06641 11 6.14062 11.1133 5.22656 11.3359C4.30859 11.5625 3.39844 11.8984 2.5 12.3516C2.35156 12.4336 2.23047 12.5508 2.13672 12.6992C2.04688 12.8516 2 13.0156 2 13.1992V14ZM8 6C8.55078 6 9.01953 5.80469 9.41406 5.41406C9.80469 5.01953 10 4.55078 10 4C10 3.44922 9.80469 2.98047 9.41406 2.58594C9.01953 2.19531 8.55078 2 8 2C7.44922 2 6.98047 2.19531 6.58594 2.58594C6.19531 2.98047 6 3.44922 6 4C6 4.55078 6.19531 5.01953 6.58594 5.41406C6.98047 5.80469 7.44922 6 8 6Z" fill="#444746"/>
</svg>
