<svg width="56" height="56" viewBox="0 0 56 56" fill="none" xmlns="http://www.w3.org/2000/svg">
<path d="M47 8H9V15H47V8Z" fill="#E3E3E3"/>
<path d="M47 19H31V26H47V19Z" fill="#E3E3E3"/>
<path d="M47 30H31V37H47V30Z" fill="#E3E3E3"/>
<path d="M47 41H9V48H47V41Z" fill="#E3E3E3"/>
<path fill-rule="evenodd" clip-rule="evenodd" d="M25.0833 19H10.9167C9.8625 19 9 19.8625 9 20.9167V35.0833C9 36.1375 9.8625 37 10.9167 37H25.0833C26.1375 37 27 36.1375 27 35.0833V28.375V20.9167C27 19.8625 26.1375 19 25.0833 19ZM25.125 20.9167V23.875H18H10.875V20.875L25.125 20.9167ZM15.75 35.125H20.25V25.75H15.75V35.125ZM10.875 25.75H12.75H13.875V35.125H10.875V25.75ZM22.125 25.75V35.125H25.125V25.75H22.125Z" fill="#4C8DF6"/>
</svg>
