<svg width="16" height="15" viewBox="0 0 16 15" fill="none" xmlns="http://www.w3.org/2000/svg">
<path d="M2.95031 11.5H11.0503L8.44531 8.01201C8.41865 7.99867 8.39531 7.98934 8.37531 7.98401C8.35231 7.97701 8.33231 7.96401 8.31331 7.95701L6.32432 10.602L4.97731 8.80001L2.95031 11.5ZM2.05031 14.2C1.67898 14.1987 1.36165 14.067 1.09831 13.805C0.970206 13.6819 0.868703 13.5338 0.800077 13.3698C0.731451 13.2059 0.697157 13.0297 0.699315 12.852V2.94901C0.699315 2.57901 0.832315 2.26134 1.09831 1.99601C1.35931 1.73001 1.68031 1.60201 2.05131 1.60201H5.64831V2.94901H2.05131V12.852H11.9493V8.52001L13.3013 9.86701V12.852C13.3013 13.2213 13.1683 13.539 12.9023 13.805C12.7787 13.9322 12.6304 14.0328 12.4666 14.1005C12.3027 14.1683 12.1266 14.2018 11.9493 14.199L2.05031 14.2ZM14.1463 8.80001L11.8363 6.49101C11.5863 6.65567 11.321 6.78067 11.0403 6.86601C10.7583 6.95534 10.459 6.99967 10.1423 6.99901C9.27365 6.99901 8.53265 6.69301 7.91931 6.08101C7.30598 5.46901 6.99965 4.72601 7.00031 3.85201C7.00031 2.97601 7.30631 2.23101 7.91831 1.61701C8.2081 1.32045 8.55531 1.08609 8.93873 0.928247C9.32215 0.770408 9.73373 0.692406 10.1483 0.699006C10.5637 0.692309 10.976 0.770247 11.3603 0.928072C11.7445 1.0859 12.0926 1.3203 12.3833 1.61701C12.994 2.23034 13.3 2.97367 13.3013 3.84701C13.2995 4.448 13.123 5.0355 12.7933 5.53801L15.1023 7.84401L14.1463 8.80001ZM10.1463 5.64701C10.6496 5.64834 11.0763 5.47501 11.4263 5.12701C11.775 4.77901 11.9496 4.35467 11.9503 3.85401C11.951 3.35067 11.7776 2.92401 11.4303 2.57401C11.2649 2.40467 11.0667 2.27086 10.8478 2.18076C10.629 2.09066 10.394 2.04617 10.1573 2.05001C9.65398 2.04934 9.22698 2.22267 8.87632 2.57001C8.7062 2.73476 8.57194 2.93287 8.48194 3.15192C8.39195 3.37097 8.34816 3.60624 8.35331 3.84301C8.35198 4.34634 8.52531 4.77334 8.87331 5.12401C9.22031 5.47601 9.64631 5.64701 10.1463 5.64701Z" fill="#444746"/>
</svg>
