<svg width="20" height="19" viewBox="0 0 20 19" fill="none" xmlns="http://www.w3.org/2000/svg">
<path d="M10 8.42105C15.5228 8.42105 20 6.53594 20 4.21053C20 1.88512 15.5228 0 10 0C4.47715 0 0 1.88512 0 4.21053C0 6.53594 4.47715 8.42105 10 8.42105Z" fill="#3C4043"/>
<path fill-rule="evenodd" clip-rule="evenodd" d="M0.569019 8.42102C1.94181 9.95417 5.64594 11.0526 10 11.0526C14.3541 11.0526 18.0582 9.95417 19.431 8.42102C19.7995 8.83257 20 9.27545 20 9.73681C20 11.9169 15.5228 13.6842 10 13.6842C4.47715 13.6842 0 11.9169 0 9.73681C0 9.27545 0.200514 8.83257 0.569019 8.42102ZM0.569019 13.7368C1.94181 15.27 5.64594 16.3684 10 16.3684C14.3541 16.3684 18.0582 15.27 19.431 13.7368C19.7995 14.1484 20 14.5912 20 15.0526C20 17.2327 15.5228 19 10 19C4.47715 19 0 17.2327 0 15.0526C0 14.5912 0.200514 14.1484 0.569019 13.7368Z" fill="#3C4043"/>
</svg>
