<svg width="16" height="16" viewBox="0 0 16 16" fill="none" xmlns="http://www.w3.org/2000/svg">
<path d="M11.9997 3.99999C11.9997 1.98999 10.5197 0.329986 8.58968 0.0399863C8.27968 -1.37184e-05 7.99968 0.229986 7.99968 0.539986V7.99999C10.2097 7.99999 11.9997 6.20999 11.9997 3.99999ZM3.99968 3.99999C1.98968 3.99999 0.329681 5.47999 0.0396811 7.40999C-0.000318894 7.71999 0.229681 7.99999 0.539681 7.99999H7.99968C7.99968 5.78999 6.20968 3.99999 3.99968 3.99999ZM3.99968 12C3.99968 14.01 5.47968 15.67 7.40968 15.96C7.71968 16 7.99968 15.77 7.99968 15.46V7.99999C5.78968 7.99999 3.99968 9.78999 3.99968 12ZM15.4597 7.99999H7.99968C7.99968 10.21 9.78968 12 11.9997 12C14.0097 12 15.6697 10.52 15.9597 8.58999C15.9997 8.27999 15.7697 7.99999 15.4597 7.99999Z" fill="#444746"/>
</svg>
