<svg width="20" height="20" viewBox="0 0 20 20" fill="none" xmlns="http://www.w3.org/2000/svg">
<path d="M12.5 9.2L11 8.352V6.648L12.5 5.801L14 6.648V8.352L12.5 9.2ZM12.5 11.5L16 9.5V5.5L12.5 3.5L8.99999 5.5V9.5L12.5 11.5ZM10.7 17H16.3C16.184 17.4347 15.984 17.7847 15.7 18.05C15.4167 18.3167 15.0507 18.4833 14.602 18.55L3.69899 19.876C3.43769 19.9187 3.17034 19.9064 2.91409 19.8397C2.65785 19.7731 2.41836 19.6536 2.21099 19.489C1.99872 19.33 1.8215 19.1289 1.6904 18.8984C1.55929 18.6678 1.47711 18.4127 1.44899 18.149L0.124988 7.227C0.0889264 6.9667 0.105577 6.70181 0.17395 6.44807C0.242323 6.19433 0.361022 5.95694 0.522988 5.75C0.680639 5.53992 0.880136 5.3648 1.10888 5.23571C1.33763 5.10662 1.59066 5.02636 1.85199 5L2.99999 4.852V6.852L2.10199 6.977L3.44899 17.898L10.7 17ZM6.99999 15C6.45065 15 5.97932 14.8047 5.58599 14.414C5.39752 14.2304 5.24838 14.0103 5.14764 13.7672C5.0469 13.5241 4.99666 13.2631 4.99999 13V2C4.99999 1.45067 5.19532 0.979333 5.58599 0.586C5.97932 0.195333 6.45065 0 6.99999 0H18C18.5493 0 19.0207 0.195333 19.414 0.586C19.8047 0.979333 20 1.45067 20 2V13C20 13.5493 19.8047 14.0207 19.414 14.414C19.0207 14.8047 18.5493 15 18 15H6.99999ZM6.99999 13H18V2H6.99999V13Z" fill="#444746"/>
</svg>
