<svg width="9" height="9" viewBox="0 0 9 9" fill="none" xmlns="http://www.w3.org/2000/svg">
<path d="M7.94258 4.93875C7.95994 4.79812 7.97151 4.65188 7.97151 4.5C7.97151 4.34812 7.95994 4.20188 7.9368 4.06125L8.9146 3.31875C9.0014 3.25125 9.0245 3.1275 8.9725 3.03187L8.0467 1.47375C7.98887 1.3725 7.86737 1.33875 7.76322 1.3725L6.61184 1.8225C6.36883 1.6425 6.11425 1.49625 5.83075 1.38375L5.65717 0.19125C5.63981 0.0787501 5.54145 0 5.42574 0H3.57426C3.45855 0 3.36597 0.0787501 3.34862 0.19125L3.17504 1.38375C2.89153 1.49625 2.63117 1.64812 2.39395 1.8225L1.24257 1.3725C1.13842 1.33313 1.01692 1.3725 0.959057 1.47375L0.0333168 3.03187C-0.0245332 3.13312 -0.00139304 3.25125 0.091177 3.31875L1.06899 4.06125C1.04585 4.20188 1.02849 4.35375 1.02849 4.5C1.02849 4.64625 1.04006 4.79812 1.06321 4.93875L0.085397 5.68125C-0.00139302 5.74875 -0.0245332 5.8725 0.0275368 5.96812L0.953267 7.52625C1.01113 7.6275 1.13264 7.66125 1.23678 7.6275L2.38816 7.1775C2.63117 7.3575 2.88575 7.50375 3.16925 7.61625L3.34283 8.8087C3.36597 8.9212 3.45855 9 3.57426 9H5.42574C5.54145 9 5.63981 8.9212 5.65138 8.8087L5.82496 7.61625C6.10847 7.50375 6.36883 7.35188 6.60605 7.1775L7.75743 7.6275C7.86158 7.66688 7.98308 7.6275 8.0409 7.52625L8.9667 5.96812C9.0245 5.86687 9.0014 5.74875 8.9088 5.68125L7.94258 4.93875ZM4.5 6.1875C3.54534 6.1875 2.76425 5.42812 2.76425 4.5C2.76425 3.57188 3.54534 2.8125 4.5 2.8125C5.45467 2.8125 6.23576 3.57188 6.23576 4.5C6.23576 5.42812 5.45467 6.1875 4.5 6.1875Z" fill="#BDC1C6"/>
</svg>
