<svg width="14" height="14" viewBox="0 0 14 14" fill="none" xmlns="http://www.w3.org/2000/svg">
<path d="M1.5 1.5H5V0H1.5C0.67 0 0 0.67 0 1.5V5H1.5V1.5ZM12.5 0H9V1.5H12.5V5H14V1.5C14 0.67 13.33 0 12.5 0ZM1.5 9H0V12.5C0 13.33 0.67 14 1.5 14H5V12.5H1.5V9ZM12.5 12.5H9V14H12.5C13.33 14 14 13.33 14 12.5V9H12.5V12.5ZM10 7C10 5.34 8.66 4 7 4C5.34 4 4 5.34 4 7C4 8.66 5.34 10 7 10C8.66 10 10 8.66 10 7ZM7 8.5C6.17 8.5 5.5 7.83 5.5 7C5.5 6.17 6.17 5.5 7 5.5C7.83 5.5 8.5 6.17 8.5 7C8.5 7.83 7.83 8.5 7 8.5Z" fill="#444746"/>
</svg>
