<svg width="18" height="14" viewBox="0 0 18 14" fill="none" xmlns="http://www.w3.org/2000/svg">
<path d="M0.75 14C0.542 14 0.365 13.927 0.219 13.781C0.073 13.635 0 13.458 0 13.25C0 13.042 0.073 12.865 0.219 12.719C0.365 12.573 0.542 12.5 0.75 12.5H17.25C17.458 12.5 17.635 12.573 17.781 12.719C17.927 12.865 18 13.042 18 13.25C18 13.458 17.927 13.635 17.781 13.781C17.635 13.927 17.458 14 17.25 14H0.75ZM2.5 11.5C2.08333 11.5 1.72933 11.354 1.438 11.062C1.146 10.7707 1 10.4167 1 10V1.5C1 1.08333 1.146 0.729333 1.438 0.438C1.72933 0.146 2.08333 0 2.5 0H15.5C15.9167 0 16.2707 0.146 16.562 0.438C16.854 0.729333 17 1.08333 17 1.5V10C17 10.4167 16.854 10.7707 16.562 11.062C16.2707 11.354 15.9167 11.5 15.5 11.5H2.5ZM2.5 10H15.5V1.5H2.5V10Z" fill="#444746"/>
</svg>
