<svg width="22" height="14" viewBox="0 0 22 14" fill="none" xmlns="http://www.w3.org/2000/svg">
<path d="M2 14C1.45 14 0.97917 13.8042 0.5875 13.4125C0.19583 13.0208 0 12.55 0 12V2C0 1.45 0.19583 0.97917 0.5875 0.5875C0.97917 0.19583 1.45 0 2 0H12C12.55 0 13.0208 0.19583 13.4125 0.5875C13.8042 0.97917 14 1.45 14 2V12C14 12.55 13.8042 13.0208 13.4125 13.4125C13.0208 13.8042 12.55 14 12 14H2ZM17 6C16.7167 6 16.4792 5.9042 16.2875 5.7125C16.0958 5.5208 16 5.2833 16 5V1C16 0.71667 16.0958 0.47917 16.2875 0.2875C16.4792 0.0958299 16.7167 0 17 0H21C21.2833 0 21.5208 0.0958299 21.7125 0.2875C21.9042 0.47917 22 0.71667 22 1V5C22 5.2833 21.9042 5.5208 21.7125 5.7125C21.5208 5.9042 21.2833 6 21 6H17ZM18 4H20V2H18V4ZM2 12H12V2H2V12ZM3 10H11L8.375 6.5L6.5 9L5.125 7.175L3 10ZM17 14C16.7167 14 16.4792 13.9042 16.2875 13.7125C16.0958 13.5208 16 13.2833 16 13V9C16 8.7167 16.0958 8.4792 16.2875 8.2875C16.4792 8.0958 16.7167 8 17 8H21C21.2833 8 21.5208 8.0958 21.7125 8.2875C21.9042 8.4792 22 8.7167 22 9V13C22 13.2833 21.9042 13.5208 21.7125 13.7125C21.5208 13.9042 21.2833 14 21 14H17ZM18 12H20V10H18V12Z" fill="#444746"/>
</svg>
