<svg width="12" height="16" viewBox="0 0 12 16" fill="none" xmlns="http://www.w3.org/2000/svg">
<path d="M10.5 6H9.75V3.80952C9.75 1.70667 8.07 0 6 0C3.93 0 2.25 1.70667 2.25 3.80952H3.75C3.75 2.54476 4.755 1.52381 6 1.52381C7.245 1.52381 8.25 2.54476 8.25 3.80952V6H1.5C0.675 6 0 7.1619 0 8V14.4762C0 15.3143 0.675 16 1.5 16H10.5C11.325 16 12 15.3143 12 14.4762V8C12 7.1619 11.325 6 10.5 6ZM9.99701 13.9932H1.9989V7.99323H9.99701V13.9932Z" fill="#444746"/>
<path d="M6 12C6.55228 12 7 11.5523 7 11C7 10.4477 6.55228 10 6 10C5.44772 10 5 10.4477 5 11C5 11.5523 5.44772 12 6 12Z" fill="#444746"/>
</svg>
