<svg width="12" height="16" viewBox="0 0 12 16" fill="none" xmlns="http://www.w3.org/2000/svg">
<path d="M3.75 6.5C4.16421 6.5 4.5 6.16421 4.5 5.75C4.5 5.33579 4.16421 5 3.75 5C3.33579 5 3 5.33579 3 5.75C3 6.16421 3.33579 6.5 3.75 6.5Z" fill="#444746"/>
<path d="M3.75 13C4.16421 13 4.5 12.6642 4.5 12.25C4.5 11.8358 4.16421 11.5 3.75 11.5C3.33579 11.5 3 11.8358 3 12.25C3 12.6642 3.33579 13 3.75 13Z" fill="#444746"/>
<path d="M3.75 9.75C4.16421 9.75 4.5 9.41421 4.5 9C4.5 8.58579 4.16421 8.25 3.75 8.25C3.33579 8.25 3 8.58579 3 9C3 9.41421 3.33579 9.75 3.75 9.75Z" fill="#444746"/>
<path d="M8 0H1.5C0.67 0 0 0.67 0 1.5V14.5C0 15.33 0.67 16 1.5 16H10.5C11.33 16 12 15.33 12 14.5V4L8 0ZM10.5 14.5H1.5V1.5H7V5H10.5V14.5Z" fill="#444746"/>
</svg>
