<svg width="16" height="12" viewBox="0 0 16 12" fill="none" xmlns="http://www.w3.org/2000/svg">
<path d="M2.14779 11.398C1.78779 11.3993 1.47279 11.2653 1.20279 10.996C1.07512 10.874 0.973637 10.7273 0.904522 10.5649C0.835407 10.4024 0.800113 10.2275 0.800791 10.051V1.94899C0.800791 1.57966 0.934791 1.26199 1.20279 0.99599C1.47279 0.72999 1.78879 0.60199 2.14779 0.60199H6.19979L7.99979 2.39799H13.8518C14.2211 2.39799 14.5388 2.53099 14.8048 2.79699C15.0668 3.06232 15.1981 3.37999 15.1988 3.74999V10.05C15.1981 10.4127 15.0668 10.728 14.8048 10.996C14.5395 11.2647 14.2218 11.3987 13.8518 11.398H2.14779ZM2.14779 10.051H13.8518V3.74999H7.43779L5.63679 1.94999H2.14779V10.051Z" fill="#444746"/>
</svg>
