<svg width="14" height="14" viewBox="0 0 14 14" fill="none" xmlns="http://www.w3.org/2000/svg">
<path d="M5 12V10.5H6.458L8.521 8L6.458 5.5H5.312L3.979 12.208C3.86767 12.75 3.62133 13.184 3.24 13.51C2.858 13.8367 2.424 14 1.938 14C1.396 14 0.937333 13.816 0.562 13.448C0.187333 13.08 0 12.653 0 12.167C0 11.8337 0.0973334 11.5557 0.292 11.333C0.486 11.111 0.736 11 1.042 11C1.31933 11 1.54833 11.0867 1.729 11.26C1.90967 11.434 2 11.653 2 11.917C2 12.0003 1.98967 12.0907 1.969 12.188C1.94833 12.2847 1.917 12.3817 1.875 12.479C1.903 12.493 1.924 12.5 1.938 12.5H2C2.13867 12.5 2.24633 12.4513 2.323 12.354C2.39967 12.2567 2.45867 12.111 2.5 11.917L3.792 5.5H2V4H4.083L4.521 1.792C4.63233 1.25 4.87867 0.816 5.26 0.49C5.642 0.163333 6.076 0 6.562 0C7.104 0 7.56267 0.184 7.938 0.552C8.31267 0.92 8.5 1.347 8.5 1.833C8.5 2.16633 8.40267 2.44433 8.208 2.667C8.014 2.889 7.764 3 7.458 3C7.18067 3 6.95167 2.91333 6.771 2.74C6.59033 2.566 6.5 2.347 6.5 2.083C6.5 1.99967 6.51033 1.90967 6.531 1.813C6.55167 1.71567 6.583 1.61833 6.625 1.521C6.597 1.507 6.576 1.5 6.562 1.5H6.5C6.36133 1.5 6.25367 1.54867 6.177 1.646C6.10033 1.74333 6.04133 1.889 6 2.083L5.604 4H9V5.5H8.396L9.5 6.833L10.604 5.5H10V4H14V5.5H12.562L10.479 8L12.562 10.5H14V12H10V10.5H10.604L9.5 9.167L8.396 10.5H9V12H5Z" fill="#444746"/>
</svg>
