<svg width="20" height="19" viewBox="0 0 20 19" fill="none" xmlns="http://www.w3.org/2000/svg">
<path d="M5 4.76855V4.20459C5 3.79932 5.08789 3.43066 5.26367 3.09863C5.43945 2.7666 5.6958 2.50049 6.03271 2.30029C6.36963 2.1001 6.7749 2 7.24854 2C7.73682 2 8.14697 2.1001 8.479 2.30029C8.81592 2.50049 9.07227 2.7666 9.24805 3.09863C9.42383 3.43066 9.51172 3.79932 9.51172 4.20459V4.76855C9.51172 5.16406 9.42383 5.52783 9.24805 5.85986C9.07715 6.19189 8.82324 6.45801 8.48633 6.6582C8.1543 6.8584 7.74658 6.9585 7.26318 6.9585C6.78467 6.9585 6.37451 6.8584 6.03271 6.6582C5.6958 6.45801 5.43945 6.19189 5.26367 5.85986C5.08789 5.52783 5 5.16406 5 4.76855ZM6.22314 4.20459V4.76855C6.22314 4.96387 6.25977 5.14941 6.33301 5.3252C6.41113 5.50098 6.52832 5.64258 6.68457 5.75C6.84082 5.85742 7.03369 5.91113 7.26318 5.91113C7.49756 5.91113 7.68799 5.85742 7.83447 5.75C7.98584 5.64258 8.09814 5.50098 8.17139 5.3252C8.24463 5.14941 8.28125 4.96387 8.28125 4.76855V4.20459C8.28125 4.00439 8.24219 3.81641 8.16406 3.64062C8.09082 3.45996 7.97852 3.31592 7.82715 3.2085C7.67578 3.10107 7.48291 3.04736 7.24854 3.04736C7.02393 3.04736 6.8335 3.10107 6.67725 3.2085C6.52588 3.31592 6.41113 3.45996 6.33301 3.64062C6.25977 3.81641 6.22314 4.00439 6.22314 4.20459ZM10.1416 10.7744V10.2031C10.1416 9.80273 10.2295 9.43652 10.4053 9.10449C10.5859 8.77246 10.8447 8.50635 11.1816 8.30615C11.5186 8.10596 11.9238 8.00586 12.3975 8.00586C12.8857 8.00586 13.2959 8.10596 13.6279 8.30615C13.9648 8.50635 14.2188 8.77246 14.3896 9.10449C14.5654 9.43652 14.6533 9.80273 14.6533 10.2031V10.7744C14.6533 11.1748 14.5654 11.541 14.3896 11.873C14.2188 12.2051 13.9673 12.4712 13.6353 12.6714C13.3032 12.8716 12.8955 12.9717 12.4121 12.9717C11.9336 12.9717 11.5234 12.8716 11.1816 12.6714C10.8447 12.4712 10.5859 12.2051 10.4053 11.873C10.2295 11.541 10.1416 11.1748 10.1416 10.7744ZM11.3721 10.2031V10.7744C11.3721 10.9697 11.4111 11.1553 11.4893 11.3311C11.5723 11.5068 11.6919 11.6509 11.8481 11.7632C12.0044 11.8706 12.1924 11.9243 12.4121 11.9243C12.6611 11.9243 12.8613 11.8706 13.0127 11.7632C13.1641 11.6509 13.2715 11.5093 13.335 11.3384C13.4033 11.1626 13.4375 10.9746 13.4375 10.7744V10.2031C13.4375 10.0029 13.3984 9.81494 13.3203 9.63916C13.2471 9.46338 13.1323 9.32178 12.9761 9.21436C12.8247 9.10693 12.6318 9.05322 12.3975 9.05322C12.168 9.05322 11.9775 9.10693 11.8262 9.21436C11.6748 9.32178 11.5601 9.46338 11.4819 9.63916C11.4087 9.81494 11.3721 10.0029 11.3721 10.2031ZM12.8369 3.67725L7.62939 12.0122L6.72852 11.4922L11.936 3.15723L12.8369 3.67725Z" fill="#444746"/>
</svg>
