<?xml version="1.0" encoding="UTF-8" standalone="no"?>
<svg
        height="24px"
        viewBox="0 -960 960 960"
        width="24px"
        fill="#e8eaed"
        version="1.1"
        id="svg1"
        xmlns="http://www.w3.org/2000/svg">
    <defs
            id="defs1"/>
    <path
            d="m 240,-320 h 56 l 312,-311 -29,-29 -28,-28 -311,312 z m -80,80 v -170 l 448,-447 c 7.33333,-7.33333 15.83333,-13 25.5,-17 9.66667,-4 19.83333,-6 30.5,-6 10.66667,0 21,2 31,6 10,4 19,10 27,18 l 55,56 c 8,7.33333 13.83333,16 17.5,26 3.66667,10 5.5,20.33333 5.5,31 0,10 -1.83333,19.83333 -5.5,29.5 -3.66667,9.66667 -9.5,18.5 -17.5,26.5 l -447,447 z m 560,-504 -56,-56 z m -112,113 -29,-29 -28,-28 z"
            id="path1"
    />
</svg>
