<svg width="18" height="18" viewBox="0 0 18 18" fill="none" xmlns="http://www.w3.org/2000/svg">
<mask id="mask0_163_1446" style="mask-type:luminance" maskUnits="userSpaceOnUse" x="0" y="0" width="18" height="18">
<path d="M0 0H18V18H0V0Z" fill="white"/>
</mask>
<g mask="url(#mask0_163_1446)">
<path d="M1.5 16V3.15005C1.5 2.7788 1.63219 2.66094 1.89656 2.39656C2.16094 2.13219 2.47875 2 2.85 2H14.85C15.2213 2 15.8391 2.13219 16.1034 2.39656C16.3678 2.66094 16.5 2.7788 16.5 3.15005V12.15C16.5 12.5213 16.3678 12.8391 16.1034 13.1035C15.8391 13.3679 15.2213 13.5 14.85 13.5H4.50002L1.5 16ZM3.93752 12H15V3.5H2.99998V13L3.93752 12Z" fill="#444746"/>
</g>
</svg>
