<svg width="21" height="21" viewBox="0 0 21 21" fill="none" xmlns="http://www.w3.org/2000/svg">
<path d="M11.0001 5.00006C13.2101 5.00006 15.0001 6.79006 15.0001 9.00006V10.0001H16.5001C17.1632 10.0001 17.7991 10.2635 18.2679 10.7323C18.7367 11.2011 19.0001 11.837 19.0001 12.5001C19.0001 13.2301 18.6801 13.8901 18.1701 14.3401L19.5801 15.7501C20.4501 14.9401 21.0001 13.7801 21.0001 12.5001C21 11.3794 20.5818 10.299 19.8272 9.47043C19.0726 8.64185 18.0359 8.12466 16.9201 8.02006C16.4501 5.18006 13.9701 3.00006 11.0001 3.00006C9.83014 3.00006 8.72014 3.35006 7.78014 3.95006L9.24014 5.41006C9.78014 5.15006 10.3801 5.00006 11.0001 5.00006ZM16.0001 15.0001L7.73014 6.73006L6.29014 5.29006L1.81014 0.810059L0.390137 2.22006L4.55014 6.38006C2.49014 7.18006 1.00014 9.18006 1.00014 11.5001C1.00014 14.5301 3.47014 17.0001 6.50014 17.0001H15.1701L18.7801 20.6101L20.1901 19.2001L17.7901 16.8001L16.0001 15.0001ZM6.50014 15.0001C4.57014 15.0001 3.00014 13.4301 3.00014 11.5001C3.00014 9.69006 4.42014 8.19006 6.21014 8.04006L13.1701 15.0001H6.50014Z" fill="#444746"/>
</svg>
