<svg width="16" height="16" viewBox="0 0 16 16" fill="none" xmlns="http://www.w3.org/2000/svg">
<path d="M8 12C8.21 12 8.39 11.93 8.54 11.79C8.69 11.65 8.76 11.47 8.76 11.26C8.76 11.05 8.69 10.87 8.55 10.72C8.41 10.57 8.23 10.5 8.02 10.5C7.81 10.5 7.63 10.57 7.48 10.71C7.33 10.85 7.26 11.03 7.26 11.24C7.26 11.45 7.33 11.63 7.47 11.78C7.61 11.93 7.78 12 8 12ZM7.25 9H8.75V4H7.25V9ZM8.01 16C6.91 16 5.87 15.79 4.9 15.38C3.93 14.97 3.08 14.39 2.35 13.66C1.62 12.93 1.05 12.08 0.63 11.11C0.21 10.13 0 9.1 0 7.99C0 6.89 0.21 5.85 0.62 4.88C1.03 3.91 1.61 3.07 2.34 2.34C3.07 1.61 3.92 1.04 4.89 0.62C5.87 0.21 6.9 0 8.01 0C9.11 0 10.15 0.21 11.12 0.62C12.09 1.03 12.93 1.61 13.66 2.34C14.39 3.07 14.96 3.92 15.38 4.89C15.8 5.86 16 6.89 16 7.99C16 9.09 15.79 10.13 15.38 11.1C14.97 12.07 14.39 12.92 13.66 13.65C12.93 14.38 12.08 14.95 11.11 15.37C10.14 15.79 9.11 16 8.01 16ZM8 14.5C9.81 14.5 11.34 13.87 12.6 12.6C13.86 11.33 14.5 9.8 14.5 8C14.5 6.2 13.87 4.66 12.6 3.4C11.33 2.14 9.8 1.5 8 1.5C6.2 1.5 4.66 2.13 3.4 3.4C2.14 4.67 1.5 6.19 1.5 8C1.5 9.81 2.13 11.34 3.4 12.6C4.67 13.86 6.19 14.5 8 14.5Z" fill="#444746"/>
</svg>
