<svg width="16" height="16" viewBox="0 0 16 16" fill="none" xmlns="http://www.w3.org/2000/svg">
<path fill-rule="evenodd" clip-rule="evenodd" d="M8 0C3.57647 0 0 3.57647 0 8C0 12.4235 3.57647 16 8 16C12.4235 16 16 12.4235 16 8C16 3.57647 12.4235 0 8 0ZM9 12C9 12.553 8.553 13 8 13C7.447 13 7 12.553 7 12C7 11.447 7.447 11 8 11C8.553 11 9 11.447 9 12ZM5 6C5.12024 6.01532 6.5 6.01849 6.5 6.01849C6.5 5.26839 7.00216 4.51556 8.00002 4.5C8.99789 4.48444 9.54266 5.38989 9.5 6.00317C9.45734 6.61646 9.17871 7.052 8.77173 7.29767C8.36475 7.54333 7.25 8.14459 7.25 9.23383V9.98764H8.75C8.75 9.98764 8.75 9.37897 8.77173 9.37897C8.77081 8.65668 11.0114 8.30939 11 6.01849C10.9901 4.02921 9.4585 3 7.99994 3C6.54138 3 5 4.18982 5 6Z" fill="#444746"/>
</svg>
