<svg width="18" height="20" viewBox="0 0 18 20" fill="none" xmlns="http://www.w3.org/2000/svg">
<path d="M17 20H1C0.45 20 0 19.55 0 19V15.22C0 14.82 0.23 14.47 0.59 14.31C0.95 14.15 1.37 14.22 1.67 14.48C1.93 14.72 2.38 15 3 15C4.1 15 5 14.1 5 13C5 11.9 4.1 11 3 11C2.38 11 1.93 11.28 1.67 11.52C1.38 11.78 0.95 11.85 0.59 11.69C0.23 11.53 0 11.17 0 10.78V7C0 6.45 0.45 6 1 6H4.76C4.59 5.52 4.5 5.02 4.5 4.5C4.5 2.02 6.52 0 9 0C11.48 0 13.5 2.02 13.5 4.5C13.5 5.02 13.41 5.52 13.24 6H17C17.55 6 18 6.45 18 7V10.78C18 11.18 17.77 11.53 17.41 11.69C17.05 11.85 16.63 11.78 16.33 11.52C15.96 11.19 15.49 11 15 11C13.9 11 13 11.9 13 13C13 14.1 13.9 15 15 15C15.49 15 15.96 14.81 16.33 14.48C16.62 14.22 17.05 14.15 17.41 14.31C17.77 14.47 18 14.83 18 15.22V19C18 19.55 17.55 20 17 20ZM2 18H16V16.87C15.68 16.96 15.34 17 15 17C12.79 17 11 15.21 11 13C11 10.79 12.79 9 15 9C15.34 9 15.68 9.04 16 9.13V8H11.44C11.03 8 10.67 7.75 10.51 7.38C10.35 7.01 10.45 6.57 10.74 6.29C11.23 5.81 11.49 5.18 11.49 4.5C11.5 3.12 10.38 2 9 2C7.62 2 6.5 3.12 6.5 4.5C6.5 5.18 6.77 5.81 7.25 6.28C7.54 6.56 7.63 7 7.48 7.37C7.33 7.75 6.96 8 6.56 8H2V9.13C2.32 9.04 2.66 9 3 9C5.21 9 7 10.79 7 13C7 15.21 5.21 17 3 17C2.66 17 2.32 16.96 2 16.87V18Z" fill="#444746"/>
</svg>
