<svg width="39" height="39" viewBox="0 0 39 39" fill="none" xmlns="http://www.w3.org/2000/svg">
<path d="M4.7 38.55C3.39833 38.55 2.2895 38.0922 1.3735 37.1765C0.45783 36.2605 0 35.1517 0 33.85V4.75C0 3.43467 0.45783 2.31417 1.3735 1.3885C2.2895 0.46283 3.39833 0 4.7 0H22.5V4.5H4.5V34H34V16H38.5V25L38.55 33.85C38.55 35.1517 38.0872 36.2605 37.1615 37.1765C36.2358 38.0922 35.1153 38.55 33.8 38.55H4.7ZM7.5 29H31L24 19.5L17.5 28L13 22L7.5 29ZM30 13V8.5H25.5V5H30V0.5H33.5V5H38V8.5H33.5V13H30Z" fill="#444746"/>
</svg>
