<svg width="22" height="16" viewBox="0 0 22 16" fill="none" xmlns="http://www.w3.org/2000/svg">
<path d="M0 16V13.1992C0 12.6328 0.144531 12.1133 0.4375 11.6367C0.730469 11.1641 1.11719 10.8008 1.60156 10.5508C2.63281 10.0352 3.68359 9.64453 4.75 9.38672C5.81641 9.12891 6.89844 9 8 9C9.10156 9 10.1836 9.12891 11.25 9.38672C12.3164 9.64453 13.3672 10.0352 14.3984 10.5508C14.8828 10.8008 15.2695 11.1641 15.5625 11.6367C15.8555 12.1133 16 12.6328 16 13.1992V16H0ZM18 16V13C18 12.2656 17.7969 11.5625 17.3867 10.8867C16.9805 10.2109 16.3984 9.63281 15.6484 9.14844C16.5 9.25 17.3008 9.42187 18.0508 9.66406C18.8008 9.90234 19.5 10.1992 20.1484 10.5508C20.75 10.8828 21.207 11.2539 21.5234 11.6641C21.8398 12.0703 22 12.5156 22 13V16H18ZM8 8C6.89844 8 5.95703 7.60937 5.17578 6.82422C4.39062 6.04297 4 5.10156 4 4C4 2.89844 4.39062 1.95703 5.17578 1.17578C5.95703 0.390625 6.89844 0 8 0C9.10156 0 10.043 0.390625 10.8242 1.17578C11.6094 1.95703 12 2.89844 12 4C12 5.10156 11.6094 6.04297 10.8242 6.82422C10.043 7.60937 9.10156 8 8 8ZM18 4C18 5.10156 17.6094 6.04297 16.8242 6.82422C16.043 7.60937 15.1016 8 14 8C13.8164 8 13.582 7.98047 13.3008 7.9375C13.0156 7.89453 12.7852 7.85156 12.6016 7.80078C13.0508 7.26563 13.3945 6.67578 13.6367 6.02344C13.8789 5.375 14 4.69922 14 4C14 3.30078 13.8789 2.625 13.6367 1.97656C13.3945 1.32422 13.0508 0.734375 12.6016 0.199219C12.832 0.117188 13.0664 0.0625 13.3008 0.039062C13.5352 0.011719 13.7656 0 14 0C15.1016 0 16.043 0.390625 16.8242 1.17578C17.6094 1.95703 18 2.89844 18 4ZM2 14H14V13.1992C14 13.0156 13.9531 12.8516 13.8633 12.6992C13.7695 12.5508 13.6484 12.4336 13.5 12.3516C12.6016 11.8984 11.6914 11.5625 10.7734 11.3359C9.85938 11.1133 8.93359 11 8 11C7.06641 11 6.14062 11.1133 5.22656 11.3359C4.30859 11.5625 3.39844 11.8984 2.5 12.3516C2.35156 12.4336 2.23047 12.5508 2.13672 12.6992C2.04687 12.8516 2 13.0156 2 13.1992V14ZM8 6C8.55078 6 9.01953 5.80469 9.41406 5.41406C9.80469 5.01953 10 4.55078 10 4C10 3.44922 9.80469 2.98047 9.41406 2.58594C9.01953 2.19531 8.55078 2 8 2C7.44922 2 6.98047 2.19531 6.58594 2.58594C6.19531 2.98047 6 3.44922 6 4C6 4.55078 6.19531 5.01953 6.58594 5.41406C6.98047 5.80469 7.44922 6 8 6Z" fill="#444746"/>
</svg>
