<svg width="18" height="18" viewBox="0 0 18 18" fill="none" xmlns="http://www.w3.org/2000/svg">
<path d="M11 1H4.5C3.67 1 3 1.67 3 2.5V15.5C3 16.33 3.67 17 4.5 17H13.5C14.33 17 15 16.33 15 15.5V5L11 1ZM13.5 15.5H4.5V2.5H10V6H13.5V15.5Z" fill="#444746"/>
<path d="M9 14.42C8.9 12.84 7.6 11.58 6 11.57C6.1 13.16 7.4 14.42 9 14.42C10.6 14.42 11.9 13.16 12 11.57C10.4 11.58 9.09 12.84 9 14.42Z" fill="#444746"/>
<path d="M9.7004 8.51C9.7304 8.43 9.7504 8.35 9.7504 8.25C9.7504 7.84 9.4104 7.5 9.0004 7.5C8.5904 7.5 8.2504 7.84 8.2504 8.25C8.2504 8.34 8.2704 8.43 8.3004 8.51C8.2504 8.45 8.2004 8.39 8.1204 8.35C7.7704 8.14 7.3104 8.27 7.1004 8.62C6.8904 8.98 7.0204 9.44 7.3704 9.65C7.4504 9.7 7.5404 9.72 7.6304 9.73V9.77C7.5404 9.78 7.4504 9.8 7.3704 9.85C7.0104 10.06 6.8904 10.52 7.1004 10.87C7.3104 11.23 7.7704 11.35 8.1204 11.14C8.1904 11.1 8.2504 11.04 8.3004 10.98C8.2704 11.06 8.2504 11.15 8.2504 11.24C8.2504 11.66 8.5904 12 9.0004 12C9.4104 12 9.7504 11.66 9.7504 11.25C9.7504 11.16 9.7304 11.08 9.7004 10.99C9.7504 11.05 9.8004 11.1 9.8804 11.14C10.2404 11.35 10.7004 11.22 10.9004 10.87C11.1104 10.51 10.9804 10.05 10.6304 9.85C10.5504 9.8 10.4704 9.78 10.3804 9.77V9.73C10.4704 9.72 10.5504 9.69 10.6304 9.65C10.9904 9.44 11.1104 8.98 10.9004 8.63C10.6904 8.27 10.2304 8.15 9.8804 8.36C9.8004 8.39 9.7504 8.45 9.7004 8.51ZM9.0004 10.5C8.5904 10.5 8.2504 10.16 8.2504 9.75C8.2504 9.34 8.5904 9 9.0004 9C9.4104 9 9.7504 9.34 9.7504 9.75C9.7504 10.16 9.4104 10.5 9.0004 10.5Z" fill="#444746"/>
</svg>
