<svg width="14" height="16" viewBox="0 0 14 16" fill="none" xmlns="http://www.w3.org/2000/svg">
<path fill-rule="evenodd" clip-rule="evenodd" d="M6 12H8C8.55228 12 9 12.4477 9 13V15C9 15.5523 8.55228 16 8 16H6C5.44772 16 5 15.5523 5 15V13C5 12.4477 5.44772 12 6 12ZM4 0H10C10.5523 0 11 0.447715 11 1V3C11 3.55228 10.5523 4 10 4H4C3.44772 4 3 3.55228 3 3V1C3 0.447715 3.44772 0 4 0ZM1 6H13C13.5523 6 14 6.44772 14 7V9C14 9.55228 13.5523 10 13 10H1C0.447715 10 0 9.55228 0 9V7C0 6.44772 0.447715 6 1 6Z" fill="#444746"/>
</svg>
