<svg width="15" height="12" viewBox="0 0 15 12" fill="none" xmlns="http://www.w3.org/2000/svg">
<path d="M4 1H15V2.5H4V1ZM4 9.5H15V11H4V9.5ZM4 5.25H15V6.75H4V5.25Z" fill="#444746"/>
<path d="M1.5 2.75C2.05228 2.75 2.5 2.30228 2.5 1.75C2.5 1.19772 2.05228 0.75 1.5 0.75C0.947715 0.75 0.5 1.19772 0.5 1.75C0.5 2.30228 0.947715 2.75 1.5 2.75Z" fill="#444746"/>
<path d="M1.5 11.25C2.05228 11.25 2.5 10.8023 2.5 10.25C2.5 9.69772 2.05228 9.25 1.5 9.25C0.947715 9.25 0.5 9.69772 0.5 10.25C0.5 10.8023 0.947715 11.25 1.5 11.25Z" fill="#444746"/>
<path d="M1.5 7C2.05228 7 2.5 6.55228 2.5 6C2.5 5.44772 2.05228 5 1.5 5C0.947715 5 0.5 5.44772 0.5 6C0.5 6.55228 0.947715 7 1.5 7Z" fill="#444746"/>
</svg>
