<svg width="16" height="16" viewBox="0 0 16 16" fill="none" xmlns="http://www.w3.org/2000/svg">
<path d="M8 12C8.22667 12 8.4168 11.9232 8.5704 11.7696C8.72347 11.6165 8.8 11.4267 8.8 11.2C8.8 10.9733 8.72347 10.7832 8.5704 10.6296C8.4168 10.4765 8.22667 10.4 8 10.4C7.77333 10.4 7.58347 10.4765 7.4304 10.6296C7.2768 10.7832 7.2 10.9733 7.2 11.2C7.2 11.4267 7.2768 11.6165 7.4304 11.7696C7.58347 11.9232 7.77333 12 8 12ZM7.2 8.8H8.8V4H7.2V8.8ZM8 16C6.89333 16 5.85333 15.7899 4.88 15.3696C3.90667 14.9499 3.06 14.38 2.34 13.66C1.62 12.94 1.05013 12.0933 0.6304 11.12C0.21013 10.1467 0 9.1067 0 8C0 6.89333 0.21013 5.85333 0.6304 4.88C1.05013 3.90667 1.62 3.06 2.34 2.34C3.06 1.62 3.90667 1.04987 4.88 0.6296C5.85333 0.20987 6.89333 0 8 0C9.1067 0 10.1467 0.20987 11.12 0.6296C12.0933 1.04987 12.94 1.62 13.66 2.34C14.38 3.06 14.9499 3.90667 15.3696 4.88C15.7899 5.85333 16 6.89333 16 8C16 9.1067 15.7899 10.1467 15.3696 11.12C14.9499 12.0933 14.38 12.94 13.66 13.66C12.94 14.38 12.0933 14.9499 11.12 15.3696C10.1467 15.7899 9.1067 16 8 16Z" fill="#C5221F"/>
</svg>
