<svg width="14" height="14" viewBox="0 0 14 14" fill="none" xmlns="http://www.w3.org/2000/svg">
<path d="M12.5 0H1.5C0.67 0 0 0.67 0 1.5V12.5C0 13.33 0.67 14 1.5 14H12.5C13.33 14 14 13.33 14 12.5V1.5C14 0.67 13.33 0 12.5 0ZM12.5 12.5H1.5V1.5H12.5V12.5Z" fill="#444746"/>
<path d="M7.72031 10.6L8.63031 9.69003L7.57031 8.63003L6.66031 9.54003C6.05031 10.15 5.07031 10.15 4.46031 9.54003C3.85031 8.93003 3.85031 7.94003 4.46031 7.34003L5.37031 6.43003L4.31031 5.37003L3.40031 6.28003C2.21031 7.47003 2.21031 9.41003 3.40031 10.61C4.59031 11.8 6.53031 11.8 7.72031 10.6ZM7.34031 4.46003C7.95031 3.85003 8.93031 3.85003 9.54031 4.46003C10.1503 5.07003 10.1503 6.06003 9.54031 6.66003L8.63031 7.57003L9.69031 8.63003L10.6003 7.72003C11.7903 6.53003 11.7903 4.59003 10.6003 3.39003C9.41031 2.20003 7.47031 2.19003 6.27031 3.39003L5.37031 4.31003L6.43031 5.37003L7.34031 4.46003Z" fill="#444746"/>
<path d="M4.99805 8.29258L8.29313 4.9975L9.00023 5.7046L5.70515 8.99968L4.99805 8.29258Z" fill="#444746"/>
</svg>
