<svg width="18" height="16" viewBox="0 0 18 16" fill="none" xmlns="http://www.w3.org/2000/svg">
<path d="M0 7H1.99632V9H0V7ZM10 12H15V14H10V12ZM16.9695 11.9571L18 13.0188L16.9734 14.039L15 16V10L16.9695 11.9571ZM2.99264 2.99687C2.99264 1.34174 4.33709 0 5.98804 0C7.64235 0 8.98344 1.34739 8.98344 2.99687V6.00313C8.98344 7.65826 7.63899 9 5.98804 9C4.33373 9 2.99264 7.65261 2.99264 6.00313V2.99687ZM4.5 2.99858V6.00142C4.5 6.83497 5.17157 7.5 6 7.5C6.8342 7.5 7.5 6.82906 7.5 6.00142V2.99858C7.5 2.16503 6.82843 1.5 6 1.5C5.1658 1.5 4.5 2.17094 4.5 2.99858ZM9.99264 2.99687C9.99264 1.34174 11.3371 0 12.988 0C14.6424 0 15.9834 1.34739 15.9834 2.99687V6.00313C15.9834 7.65826 14.639 9 12.988 9C11.3337 9 9.99264 7.65261 9.99264 6.00313V2.99687ZM11.5 2.99858V6.00142C11.5 6.83497 12.1716 7.5 13 7.5C13.8342 7.5 14.5 6.82906 14.5 6.00142V2.99858C14.5 2.16503 13.8284 1.5 13 1.5C12.1658 1.5 11.5 2.17094 11.5 2.99858Z" fill="#444746"/>
</svg>
