<svg width="14" height="14" viewBox="0 0 14 14" fill="none" xmlns="http://www.w3.org/2000/svg">
<path d="M1.5 0H12.5C13.33 0 14 0.67 14 1.5V6.21706L12.5 5.53455V1.5H1.5V12.5H7.10901C7.37951 13.0519 7.73351 13.5607 8.1575 14H1.5C0.67 14 0 13.33 0 12.5V1.5C0 0.67 0.67 0 1.5 0ZM3 6.25H7.9276L6.5 6.89956V7.75H3V6.25ZM3 9.5H6.5V9.9088C6.5 10.2759 6.53605 10.6415 6.60537 11H3V9.5ZM3 3H11V4.5H3V3ZM14 9.9087V7.86501L11 6.5L8 7.86501V9.9087C8 11.8025 9.28 13.5688 11 14C12.72 13.5688 14 11.8025 14 9.9087Z" fill="#444746"/>
</svg>
