<svg width="12" height="15" viewBox="0 0 12 15" fill="none" xmlns="http://www.w3.org/2000/svg">
<path d="M10 7.5C10 9.71 8.21 11.5 6 11.5C3.79 11.5 2 9.71 2 7.5H0.5C0.5 10.28 2.57 12.58 5.25 12.94V15H6.75V12.94C9.43 12.57 11.5 10.28 11.5 7.5H10Z" fill="#444746"/>
<path d="M6 10C7.38 10 8.5 8.88 8.5 7.5V2.5C8.5 1.12 7.38 0 6 0C4.62 0 3.5 1.12 3.5 2.5V7.5C3.5 8.88 4.62 10 6 10ZM5 2.5C5 1.95 5.45 1.5 6 1.5C6.55 1.5 7 1.95 7 2.5V7.5C7 8.05 6.55 8.5 6 8.5C5.45 8.5 5 8.05 5 7.5V2.5Z" fill="#444746"/>
</svg>
