<svg width="16" height="16" viewBox="0 0 16 16" fill="none" xmlns="http://www.w3.org/2000/svg">
<path d="M8 0C3.58 0 0 3.58 0 8C0 12.42 3.58 16 8 16C12.42 16 16 12.42 16 8C16 3.58 12.42 0 8 0ZM11.9 13.19C10.79 12.44 9.44 12 8 12C6.56 12 5.21 12.44 4.1 13.19C2.52 12 1.5 10.12 1.5 8C1.5 4.42 4.42 1.5 8 1.5C11.58 1.5 14.5 4.42 14.5 8C14.5 10.12 13.48 12 11.9 13.19Z" fill="#444746"/>
<path d="M4 7C4.55228 7 5 6.55228 5 6C5 5.44772 4.55228 5 4 5C3.44772 5 3 5.44772 3 6C3 6.55228 3.44772 7 4 7Z" fill="#444746"/>
<path d="M12 7C12.5523 7 13 6.55228 13 6C13 5.44772 12.5523 5 12 5C11.4477 5 11 5.44772 11 6C11 6.55228 11.4477 7 12 7Z" fill="#444746"/>
<path d="M7 5C7.55228 5 8 4.55228 8 4C8 3.44772 7.55228 3 7 3C6.44772 3 6 3.44772 6 4C6 4.55228 6.44772 5 7 5Z" fill="#444746"/>
<path d="M10.58 3.08C10.21 2.9 9.76 3.05 9.57 3.42L7.94 6.51C7.14 6.54 6.5 7.19 6.5 8C6.5 8.83 7.17 9.5 8 9.5C8.83 9.5 9.5 8.83 9.5 8C9.5 7.71 9.41 7.44 9.27 7.21L10.92 4.09C11.11 3.71 10.96 3.26 10.58 3.08Z" fill="#444746"/>
</svg>
