<svg width="24" height="12" viewBox="0 0 24 12" fill="none" xmlns="http://www.w3.org/2000/svg">
<path d="M0 12V10.425C0 9.7083 0.366667 9.125 1.1 8.675C1.83333 8.225 2.8 8 4 8C4.21667 8 4.425 8.0042 4.625 8.0125C4.825 8.0208 5.01667 8.0417 5.2 8.075C4.96667 8.425 4.79167 8.7917 4.675 9.175C4.55833 9.5583 4.5 9.9583 4.5 10.375V12H0ZM6 12V10.375C6 9.8417 6.14583 9.3542 6.4375 8.9125C6.72917 8.4708 7.14167 8.0833 7.675 7.75C8.20833 7.4167 8.84583 7.1667 9.5875 7C10.3292 6.8333 11.1333 6.75 12 6.75C12.8833 6.75 13.6958 6.8333 14.4375 7C15.1792 7.1667 15.8167 7.4167 16.35 7.75C16.8833 8.0833 17.2917 8.4708 17.575 8.9125C17.8583 9.3542 18 9.8417 18 10.375V12H6ZM19.5 12V10.375C19.5 9.9417 19.4458 9.5333 19.3375 9.15C19.2292 8.7667 19.0667 8.4083 18.85 8.075C19.0333 8.0417 19.2208 8.0208 19.4125 8.0125C19.6042 8.0042 19.8 8 20 8C21.2 8 22.1667 8.2208 22.9 8.6625C23.6333 9.1042 24 9.6917 24 10.425V12H19.5ZM8.125 10H15.9C15.7333 9.6667 15.2708 9.375 14.5125 9.125C13.7542 8.875 12.9167 8.75 12 8.75C11.0833 8.75 10.2458 8.875 9.4875 9.125C8.72917 9.375 8.275 9.6667 8.125 10ZM4 7C3.45 7 2.97917 6.8042 2.5875 6.4125C2.19583 6.0208 2 5.55 2 5C2 4.4333 2.19583 3.95833 2.5875 3.575C2.97917 3.19167 3.45 3 4 3C4.56667 3 5.04167 3.19167 5.425 3.575C5.80833 3.95833 6 4.4333 6 5C6 5.55 5.80833 6.0208 5.425 6.4125C5.04167 6.8042 4.56667 7 4 7ZM20 7C19.45 7 18.9792 6.8042 18.5875 6.4125C18.1958 6.0208 18 5.55 18 5C18 4.4333 18.1958 3.95833 18.5875 3.575C18.9792 3.19167 19.45 3 20 3C20.5667 3 21.0417 3.19167 21.425 3.575C21.8083 3.95833 22 4.4333 22 5C22 5.55 21.8083 6.0208 21.425 6.4125C21.0417 6.8042 20.5667 7 20 7ZM12 6C11.1667 6 10.4583 5.7083 9.875 5.125C9.29167 4.5417 9 3.83333 9 3C9 2.15 9.29167 1.4375 9.875 0.8625C10.4583 0.2875 11.1667 0 12 0C12.85 0 13.5625 0.2875 14.1375 0.8625C14.7125 1.4375 15 2.15 15 3C15 3.83333 14.7125 4.5417 14.1375 5.125C13.5625 5.7083 12.85 6 12 6ZM12 4C12.2833 4 12.5208 3.90417 12.7125 3.7125C12.9042 3.52083 13 3.28333 13 3C13 2.71667 12.9042 2.47917 12.7125 2.2875C12.5208 2.09583 12.2833 2 12 2C11.7167 2 11.4792 2.09583 11.2875 2.2875C11.0958 2.47917 11 2.71667 11 3C11 3.28333 11.0958 3.52083 11.2875 3.7125C11.4792 3.90417 11.7167 4 12 4Z" fill="#444746"/>
</svg>
