<svg width="16" height="18" viewBox="0 0 16 18" fill="none" xmlns="http://www.w3.org/2000/svg">
<path d="M2 17.5V16H14V17.5H2ZM2 2V0.5H14V2H2ZM8 10C8.6944 10 9.2847 9.7569 9.7708 9.2708C10.2569 8.78472 10.5 8.19444 10.5 7.5C10.5 6.80556 10.2569 6.21528 9.7708 5.72917C9.2847 5.24306 8.6944 5 8 5C7.30556 5 6.71528 5.24306 6.22917 5.72917C5.74306 6.21528 5.5 6.80556 5.5 7.5C5.5 8.19444 5.74306 8.78472 6.22917 9.2708C6.71528 9.7569 7.30556 10 8 10ZM1.5 15C1.0875 15 0.73438 14.8531 0.44063 14.5592C0.14688 14.2653 0 13.9119 0 13.4992V4.49417C0 4.08139 0.14688 3.72917 0.44063 3.4375C0.73438 3.14583 1.0875 3 1.5 3H14.5C14.9125 3 15.2656 3.14694 15.5594 3.44083C15.8531 3.73472 16 4.08806 16 4.50083V13.5058C16 13.9186 15.8531 14.2708 15.5594 14.5625C15.2656 14.8542 14.9125 15 14.5 15H1.5ZM2.64583 13.5C3.3125 12.7083 4.11111 12.0938 5.04167 11.6563C5.97222 11.2188 6.95833 11 8 11C9.0417 11 10.0278 11.2188 10.9583 11.6563C11.8889 12.0938 12.6875 12.7083 13.3542 13.5H14.5V4.5H1.5V13.5H2.64583ZM4.85417 13.5H11.1458C10.6736 13.1667 10.1731 12.9167 9.6442 12.75C9.1153 12.5833 8.5667 12.5 7.99833 12.5C7.43 12.5 6.88194 12.5833 6.35417 12.75C5.82639 12.9167 5.32639 13.1667 4.85417 13.5ZM8 8.5C7.71667 8.5 7.47917 8.40417 7.2875 8.2125C7.09583 8.02083 7 7.78333 7 7.5C7 7.21667 7.09583 6.97917 7.2875 6.7875C7.47917 6.59583 7.71667 6.5 8 6.5C8.2833 6.5 8.5208 6.59583 8.7125 6.7875C8.9042 6.97917 9 7.21667 9 7.5C9 7.78333 8.9042 8.02083 8.7125 8.2125C8.5208 8.40417 8.2833 8.5 8 8.5Z" fill="#444746"/>
</svg>
