<svg width="14" height="14" viewBox="0 0 14 14" fill="none" xmlns="http://www.w3.org/2000/svg">
<path d="M7.4502 1.6C7.4502 1.975 7.319 2.2938 7.0565 2.5563C6.7939 2.8187 6.4752 2.95 6.1002 2.95C5.9752 2.95 5.85019 2.9313 5.72519 2.8937C5.60019 2.8563 5.4877 2.8063 5.3877 2.7437C5.1002 2.8063 4.8439 2.9375 4.619 3.1375C4.394 3.325 4.2377 3.5625 4.1502 3.85H13.3002L12.4002 8.8H9.2877V7.45H11.2752C11.3377 7.075 11.4065 6.7 11.4815 6.325C11.5565 5.95 11.6252 5.575 11.6877 5.2H2.3127C2.3752 5.575 2.4439 5.95 2.5189 6.325C2.5939 6.7 2.6627 7.075 2.7252 7.45H4.7127V8.8H1.6002L0.700195 3.85H2.7627C2.8502 3.3 3.0689 2.8187 3.419 2.4063C3.7814 1.9938 4.2252 1.7 4.7502 1.525C4.7752 1.1625 4.91269 0.8625 5.16269 0.625C5.42519 0.375 5.7377 0.25 6.1002 0.25C6.4752 0.25 6.7939 0.3813 7.0565 0.6437C7.3189 0.9063 7.4502 1.225 7.4502 1.6ZM5.48149 11.95H8.519L9.0627 7.45H4.9377L5.48149 11.95ZM4.3002 13.3L3.6065 7.6187C3.5565 7.2187 3.669 6.8687 3.9439 6.5687C4.2189 6.2562 4.5565 6.1 4.9565 6.1H9.044C9.444 6.1 9.7815 6.2563 10.0565 6.5688C10.3315 6.8688 10.444 7.2188 10.394 7.6188L9.7002 13.3H4.3002Z" fill="#444746"/>
</svg>
