<svg width="17" height="14" viewBox="0 0 17 14" fill="none" xmlns="http://www.w3.org/2000/svg">
<path d="M4 0.00155937H12.5V9.00157L7.1501 14.0016L6.5501 13.5891C6.3376 13.4391 6.1751 13.2453 6.0626 13.0078C5.9501 12.7828 5.91885 12.5453 5.96885 12.2953L5.9876 12.2016L6.5 8.50157H0.5C0 8.50157 0 7.40158 0 7.40158V5.50156L2.74375 0.726579C2.85625 0.476579 3.025 0.276579 3.25 0.126579C3.475 -0.0234206 3.725 0.00155937 4 0.00155937ZM11 1.40158H4L1.5 6.00156V7.40158H8L7.43135 11.8078L11 8.20777V1.40158ZM12.5 9.00157V7.50156H15V1.40158H12.5V0.00155937H16.5V9.00157H12.5Z" fill="#444746"/>
</svg>
