<svg width="12" height="12" viewBox="0 0 12 12" fill="none" xmlns="http://www.w3.org/2000/svg">
<path d="M6 12C4.33203 12 2.91797 11.418 1.75 10.25C0.582031 9.08203 0 7.66797 0 6C0 4.33203 0.582031 2.91797 1.75 1.75C2.91797 0.582031 4.33203 0 6 0C6.90234 0 7.73828 0.1875 8.51172 0.5625C9.28125 0.9375 9.94531 1.4375 10.5 2.0625V0H12V5H7V3.5H9.73047C9.32812 2.89062 8.79688 2.40234 8.14453 2.04297C7.49219 1.67969 6.77734 1.5 6 1.5C4.75 1.5 3.6875 1.9375 2.8125 2.8125C1.9375 3.6875 1.5 4.75 1.5 6C1.5 7.25 1.9375 8.3125 2.8125 9.1875C3.6875 10.0625 4.75 10.5 6 10.5C7.16797 10.5 8.16797 10.1133 9 9.34375C9.83203 8.57422 10.3125 7.625 10.4375 6.5H11.9805C11.8555 8.05469 11.2227 9.35937 10.082 10.418C8.94531 11.4727 7.58203 12 6 12Z" fill="black"/>
</svg>
