<svg width="14" height="14" viewBox="0 0 14 14" fill="none" xmlns="http://www.w3.org/2000/svg">
<path d="M12.344 13.3L8.069 9.00621L9.0065 8.05001L13.3002 12.3437L12.344 13.3ZM2.8002 12.9812C2.1252 12.3062 1.60645 11.525 1.24395 10.6375C0.881445 9.75001 0.700195 8.80001 0.700195 7.78751C0.700195 6.83751 0.881445 5.93751 1.24395 5.08751C1.60645 4.22501 2.1252 3.46251 2.8002 2.80001C3.5252 2.10001 4.31269 1.57501 5.16269 1.22501C6.02519 0.875012 6.9377 0.700012 7.9002 0.700012C8.8752 0.700012 9.8002 0.881262 10.6752 1.24376C11.5502 1.60626 12.3252 2.12501 13.0002 2.80001L2.8002 12.9812ZM2.93145 10.975L3.8502 10.0375C3.6502 9.78751 3.46895 9.53751 3.30645 9.28751C3.14395 9.03751 2.9877 8.78121 2.8377 8.51871C2.7002 8.25621 2.5752 7.98751 2.4627 7.71251C2.3502 7.42501 2.2502 7.13751 2.1627 6.85001C2.0252 7.53751 2.0252 8.23751 2.1627 8.95001C2.3002 9.66251 2.55645 10.3375 2.93145 10.975ZM4.80645 9.08121L9.0627 4.80626C8.5627 4.41876 8.0502 4.10001 7.5252 3.85001C7.0127 3.60001 6.51895 3.43126 6.04395 3.34376C5.58145 3.24376 5.1502 3.23126 4.7502 3.30626C4.3502 3.36876 4.01895 3.51876 3.75645 3.75626C3.51895 4.01876 3.3627 4.35001 3.2877 4.75001C3.2252 5.15001 3.2377 5.58751 3.3252 6.06251C3.4252 6.52501 3.6002 7.01876 3.8502 7.54376C4.1002 8.05621 4.41895 8.56871 4.80645 9.08121ZM10.0377 3.85001L10.9752 2.91251C10.3627 2.53751 9.6877 2.28126 8.9502 2.14376C8.2127 2.00626 7.5002 2.00626 6.8127 2.14376C7.0752 2.20626 7.33145 2.29376 7.58145 2.40626C7.84395 2.50626 8.1065 2.62501 8.369 2.76251C8.644 2.90001 8.919 3.06251 9.194 3.25001C9.469 3.42501 9.7502 3.62501 10.0377 3.85001Z" fill="#444746"/>
</svg>
