<svg width="17" height="17" viewBox="0 0 17 17" fill="none" xmlns="http://www.w3.org/2000/svg">
<path fill-rule="evenodd" clip-rule="evenodd" d="M1.90929 0.9487L0.848633 2.00936L3.00012 4.16085V7.71078C3.00012 11.44 5.55704 14.6508 9.00012 15.5C10.3122 15.1764 11.4955 14.5185 12.4578 13.6185L14.9907 16.1515L16.0514 15.0908L13.4536 12.493L12.4518 11.4912L7.65025 6.68963C7.65025 6.68964 7.65025 6.68962 7.65025 6.68963L1.90929 0.9487ZM4.38474 5.54546V7.71078C4.38474 10.72 6.35089 13.2292 9.00012 14.06C9.92392 13.7703 10.7646 13.2765 11.4679 12.6286L9.53162 10.6923H7.89243L8.1318 9.2925L4.38474 5.54546Z" fill="#444746"/>
<path d="M8.72461 5.64266L10.3572 7.27524C10.3752 7.18624 10.3847 7.09419 10.3847 7.00001C10.3847 6.23385 9.76632 5.61539 9.00012 5.61539C8.90575 5.61539 8.81362 5.62477 8.72461 5.64266Z" fill="#444746"/>
<path d="M13.6157 7.71077C13.6157 8.55449 13.4611 9.35899 13.1802 10.0981L14.2413 11.1591C14.7279 10.1162 15.0003 8.94749 15.0003 7.71077V3.73L9.00031 1L5.62012 2.53798L6.66375 3.58161L9.00031 2.48615L13.6157 4.65V7.71077Z" fill="#444746"/>
</svg>
