<svg width="72" height="72" viewBox="0 0 72 72" fill="none" xmlns="http://www.w3.org/2000/svg">
<path d="M61 10H11V20H61V10Z" fill="#E3E3E3"/>
<path d="M61 24H11V34H61V24Z" fill="#E3E3E3"/>
<path d="M61 38H39V48H61V38Z" fill="#E3E3E3"/>
<path d="M61 52H39V62H61V52Z" fill="#E3E3E3"/>
<path fill-rule="evenodd" clip-rule="evenodd" d="M32.4444 38H13.5556C12.15 38 11 39.15 11 40.5556V59.4444C11 60.85 12.15 62 13.5556 62H32.4444C33.85 62 35 60.85 35 59.4444V50.5V40.5556C35 39.15 33.85 38 32.4444 38ZM32.5 40.5556V44.5H23H13.5V40.5L32.5 40.5556ZM20 59.5H26V47H20V59.5ZM13.5 47H16H17.5V59.5H13.5V47ZM28.5 47V59.5H32.5V47H28.5Z" fill="#4C8DF6"/>
</svg>
