<svg width="14" height="14" viewBox="0 0 14 14" fill="none" xmlns="http://www.w3.org/2000/svg">
<path d="M0 14V12.5H1.5V14H0ZM0 10.833V9.333H1.5V10.833H0ZM0 7.667V6.167H1.5V7.667H0ZM0 4.5V3H1.5V4.5H0ZM0 1.5V0H1.5V1.5H0ZM3.125 14V12.5H4.625V14H3.125ZM3.125 7.667V6.167H4.625V7.667H3.125ZM3.125 1.5V0H4.625V1.5H3.125ZM6.25 14V12.5H7.75V14H6.25ZM6.25 10.833V9.333H7.75V10.833H6.25ZM6.25 7.667V6.167H7.75V7.667H6.25ZM6.25 4.5V3H7.75V4.5H6.25ZM6.25 1.5V0H7.75V1.5H6.25ZM9.375 14V12.5H10.875V14H9.375ZM9.375 7.667V6.167H10.875V7.667H9.375ZM9.375 1.5V0H10.875V1.5H9.375ZM12.5 14V0H14V14H12.5Z" fill="#444746"/>
</svg>
