<svg width="14" height="14" viewBox="0 0 14 14" fill="none" xmlns="http://www.w3.org/2000/svg">
<path fill-rule="evenodd" clip-rule="evenodd" d="M1.5 0H12.5C13.33 0 14 0.66998 14 1.5V6.21704L12.5 5.53455V1.5H1.5V12.5H7.109C7.3795 13.0519 7.7335 13.5607 8.1575 14H1.5C0.66998 14 0 13.33 0 12.5V1.5C0 0.66998 0.66998 0 1.5 0ZM3 6.25H7.9276L6.5 6.89954V7.75H3V6.25ZM3 9.5H6.5V9.9088C6.5 10.137 6.51392 10.3646 6.54108 10.5903C6.55762 10.7277 6.5791 10.8643 6.60535 11H3V9.5ZM3 3H11V4.5H3V3ZM14 9.9088V7.865L11 6.5L8 7.865V9.9088C8 11.8025 9.28 13.5687 11 14C12.72 13.5687 14 11.8025 14 9.9088Z" fill="#444746"/>
</svg>
