<svg width="16" height="16" viewBox="0 0 16 16" fill="none" xmlns="http://www.w3.org/2000/svg">
<path d="M14.3355 15.4575L11.5455 12.6675C10.8555 13.0725 10.083 13.35 9.25797 13.455V11.94C9.67797 11.8725 10.068 11.73 10.4355 11.55L4.45047 5.5725C4.16547 6.1575 4.00047 6.81 4.00047 7.5C4.00047 9.165 4.90797 10.6125 6.25047 11.3925V9H7.75047V13.5H3.25047V12H4.55547C3.30297 10.905 2.50047 9.3 2.50047 7.5C2.50047 6.39 2.80797 5.355 3.34047 4.4625L0.542969 1.665L1.60047 0.607498L15.3855 14.3925L14.3355 15.4575ZM10.7505 3.6075C12.093 4.3875 13.0005 5.835 13.0005 7.5C13.0005 8.19 12.828 8.8425 12.5505 9.4275L13.668 10.545C14.193 9.6525 14.5005 8.61 14.5005 7.5C14.5005 5.7 13.698 4.095 12.4455 3H13.7505V1.5H9.25047V6H10.7505V3.6075ZM7.75047 3.0675V1.5525C6.91797 1.6575 6.14547 1.935 5.46297 2.34L6.58047 3.4575C6.94797 3.2775 7.33797 3.135 7.75047 3.0675Z" fill="#D93025"/>
</svg>
