<svg width="20" height="16" viewBox="0 0 20 16" fill="none" xmlns="http://www.w3.org/2000/svg">
<path d="M4.45696 10.2734L5.10567 8.58342L6.9764 9.29402L5.09614 14.1922L0.207031 12.3079L0.921631 10.4463L2.638 11.1051C1.86514 9.27092 1.7683 7.13572 2.53865 5.12889C4.11989 1.00961 8.75158 -1.05254 12.8709 0.528697L12.1563 2.3903C9.06678 1.20437 5.58618 2.75403 4.40024 5.84349C3.84782 7.28262 3.86712 8.85032 4.45696 10.2734Z" fill="#444746"/>
<path d="M14.7707 1.50012L19.6689 3.38038L18.9452 5.24605L17.2288 4.5872C17.241 4.6146 17.2555 4.64099 17.27 4.66738C17.2845 4.69377 17.299 4.72016 17.3112 4.74757C18.145 6.62033 18.2622 8.80123 17.4533 10.869C15.872 14.9882 11.2404 17.0504 7.12109 15.4692L7.83569 13.6076C10.9251 14.7935 14.4058 13.2438 15.5917 10.1544C16.1735 8.65843 16.1257 7.02683 15.475 5.56511C15.4648 5.54227 15.4513 5.51817 15.4379 5.49406C15.4244 5.46995 15.4109 5.44585 15.4007 5.42301L14.752 7.11293L12.8904 6.39833L14.7707 1.50012Z" fill="#444746"/>
</svg>
