<svg width="14" height="14" viewBox="0 0 14 14" fill="none" xmlns="http://www.w3.org/2000/svg">
<path d="M0 14V12.5H1.5V14H0ZM0 10.875V9.375H1.5V10.875H0ZM0 7.75V6.25H1.5V7.75H0ZM0 4.625V3.125H1.5V4.625H0ZM0 1.5V0H14V1.5H0ZM3 14V12.5H4.5V14H3ZM3 7.75V6.25H4.5V7.75H3ZM6.167 14V12.5H7.667V14H6.167ZM6.167 10.875V9.375H7.667V10.875H6.167ZM6.167 7.75V6.25H7.667V7.75H6.167ZM6.167 4.625V3.125H7.667V4.625H6.167ZM9.333 14V12.5H10.833V14H9.333ZM9.333 7.75V6.25H10.833V7.75H9.333ZM12.5 14V12.5H14V14H12.5ZM12.5 10.875V9.375H14V10.875H12.5ZM12.5 7.75V6.25H14V7.75H12.5ZM12.5 4.625V3.125H14V4.625H12.5Z" fill="#444746"/>
</svg>
