<svg width="15" height="13" viewBox="0 0 15 13" fill="none" xmlns="http://www.w3.org/2000/svg">
<path d="M14.0004 0H10.0004L8.40039 2.3L7.40039 4.5L10.0004 4.8L12.6004 4.5L14.6004 1.1C14.6484 0.98177 14.6675 0.853767 14.6559 0.726677C14.6444 0.599587 14.6026 0.477099 14.5341 0.369439C14.4656 0.261778 14.3723 0.172069 14.2621 0.1078C14.1519 0.0435324 14.0278 0.00657034 13.9004 0H14.0004Z" fill="#1967D2"/>
<path d="M0.600408 1.1L2.20041 4C2.40041 4.4 2.80041 4.6 3.20041 4.6H7.40041L10.0004 0H1.20041C0.700408 0 0.300407 0.6 0.600408 1.1Z" fill="#4285F4"/>
<path d="M8.30039 12C8.00039 12.6 7.30039 12.6 7.00039 12.1L5.30039 9.4C5.10039 9 5.10039 8.6 5.30039 8.2L7.40039 4.5H12.6004L8.30039 12Z" fill="#4285F4"/>
</svg>
