<svg width="20" height="20" viewBox="0 0 20 20" fill="none" xmlns="http://www.w3.org/2000/svg">
<path d="M17.5 5L16.72 3.28L15 2.5L16.72 1.72L17.5 0L18.28 1.72L20 2.5L18.28 3.28L17.5 5ZM13 11L11.7467 8.25333L8.99997 7L11.7467 5.74667L13 3L14.2533 5.74667L17 7L14.2533 8.25333L13 11ZM6 6H4V8H6V6ZM4 10.0001H6V12.0001H4V10.0001ZM6 14H4V16H6V14Z" fill="#444746"/>
<path d="M2 2.00005H10V4.00005H2V18H16V10H18V18C18 19.1046 17.1046 20 16 20H2C0.89543 20 0 19.1046 0 18V4.00005C0 2.89548 0.89543 2.00005 2 2.00005Z" fill="#444746"/>
</svg>
