<svg width="20" height="16" viewBox="0 0 20 16" fill="none" xmlns="http://www.w3.org/2000/svg">
<path d="M4 12H12V11.45C12 10.7167 11.6333 10.125 10.9 9.675C10.1667 9.225 9.2 9 8 9C6.8 9 5.83333 9.225 5.1 9.675C4.36667 10.125 4 10.7167 4 11.45V12ZM8 8C8.55 8 9.021 7.804 9.413 7.412C9.80433 7.02067 10 6.55 10 6C10 5.45 9.80433 4.979 9.413 4.587C9.021 4.19567 8.55 4 8 4C7.45 4 6.97933 4.19567 6.588 4.587C6.196 4.979 6 5.45 6 6C6 6.55 6.196 7.02067 6.588 7.412C6.97933 7.804 7.45 8 8 8ZM2 16C1.45 16 0.979333 15.8043 0.588 15.413C0.196 15.021 0 14.55 0 14V2C0 1.45 0.196 0.979333 0.588 0.588C0.979333 0.196 1.45 0 2 0H14C14.55 0 15.021 0.196 15.413 0.588C15.8043 0.979333 16 1.45 16 2V6.5L20 2.5V13.5L16 9.5V14C16 14.55 15.8043 15.021 15.413 15.413C15.021 15.8043 14.55 16 14 16H2ZM2 14H14V2H2V14Z" fill="#444746"/>
</svg>
