<svg width="16" height="14" viewBox="0 0 16 14" fill="none" xmlns="http://www.w3.org/2000/svg">
<path fill-rule="evenodd" clip-rule="evenodd" d="M1 3H3C3.55228 3 4 3.44772 4 4V10C4 10.5523 3.55228 11 3 11H1C0.447715 11 0 10.5523 0 10V4C0 3.44772 0.447715 3 1 3ZM13 5H15C15.5523 5 16 5.44772 16 6V8C16 8.55228 15.5523 9 15 9H13C12.4477 9 12 8.55228 12 8V6C12 5.44772 12.4477 5 13 5ZM7 0H9C9.55228 0 10 0.447715 10 1V13C10 13.5523 9.55228 14 9 14H7C6.44772 14 6 13.5523 6 13V1C6 0.447715 6.44772 0 7 0Z" fill="#444746"/>
</svg>
