<svg width="16" height="16" viewBox="0 0 16 16" fill="none" xmlns="http://www.w3.org/2000/svg">
<path d="M7.25 3H5.75V5.75H3V7.25H5.75V10H7.25V7.25H10V5.75H7.25V3Z" fill="#444746"/>
<path d="M11.59 10.53C12.47 9.42 13 8.02 13 6.5C13 2.91 10.09 0 6.5 0C2.91 0 0 2.91 0 6.5C0 10.09 2.91 13 6.5 13C8.02 13 9.42 12.47 10.53 11.59L14.94 16L16 14.94L11.59 10.53ZM6.5 11.5C3.74 11.5 1.5 9.26 1.5 6.5C1.5 3.74 3.74 1.5 6.5 1.5C9.26 1.5 11.5 3.74 11.5 6.5C11.5 9.26 9.26 11.5 6.5 11.5Z" fill="#444746"/>
</svg>
