<svg width="14" height="17" viewBox="0 0 14 17" fill="none" xmlns="http://www.w3.org/2000/svg">
<path d="M0 17V12.3333C0 11.875 0.21875 11.625 0.60938 11.3125C1 11 1.54167 11 2 11H12C12.5 11 13.1736 10.9861 13.5 11.3125C13.8229 11.6563 14 12 14 12.3333V17H0ZM2 14H12V12H2V14ZM7 10.6667L2.83333 4.83333C2.83333 3.68055 3.23958 2.69791 4.05208 1.88541C4.86458 1.07291 5.84722 0.666656 7 0.666656C8.1528 0.666656 9.1354 1.07291 9.9479 1.88541C10.7604 2.69791 11.1667 3.68055 11.1667 4.83333L7 10.6667ZM7 8.33333L9.5 4.83333C9.5 4.13888 9.2569 3.54861 8.7708 3.0625C8.2847 2.57638 7.6944 2.33333 7 2.33333C6.30556 2.33333 5.71528 2.57638 5.22917 3.0625C4.74306 3.54861 4.5 4.13888 4.5 4.83333L7 8.33333Z" fill="#444746"/>
</svg>
