<svg width="14" height="14" viewBox="0 0 14 14" fill="none" xmlns="http://www.w3.org/2000/svg">
<path d="M3 4.5H11V3H3V4.5ZM3 11H9V9.5H3V11ZM3 7.75H11V6.25H3V7.75ZM1.5 14C1.0875 14 0.73437 13.8531 0.44062 13.5594C0.14687 13.2656 0 12.9125 0 12.5V1.5C0 1.0875 0.14687 0.73438 0.44062 0.44063C0.73437 0.14688 1.0875 0 1.5 0H12.5C12.9125 0 13.2656 0.14688 13.5594 0.44063C13.8531 0.73438 14 1.0875 14 1.5V12.5C14 12.9125 13.8531 13.2656 13.5594 13.5594C13.2656 13.8531 12.9125 14 12.5 14H1.5ZM1.5 12.5H12.5V1.5H1.5V12.5Z" fill="#444746"/>
</svg>
