<svg width="14" height="16" viewBox="0 0 14 16" fill="none" xmlns="http://www.w3.org/2000/svg">
<path d="M7 3.75C7.9665 3.75 8.75 2.9665 8.75 2C8.75 1.0335 7.9665 0.25 7 0.25C6.0335 0.25 5.25 1.0335 5.25 2C5.25 2.9665 6.0335 3.75 7 3.75Z" fill="#444746"/>
<path d="M13.6198 4.08997C11.6798 4.66997 9.41977 4.99997 6.99977 4.99997C4.57977 4.99997 2.31977 4.66997 0.379766 4.08997L0.00976562 5.46997C1.34977 5.90997 2.87977 6.19997 4.49977 6.35997V16H5.99977V11H7.99977V16H9.49977V6.35997C11.1198 6.19997 12.6498 5.89997 13.9898 5.46997L13.6198 4.08997Z" fill="#444746"/>
</svg>
