<svg width="16" height="15" viewBox="0 0 16 15" fill="none" xmlns="http://www.w3.org/2000/svg">
<path fill-rule="evenodd" clip-rule="evenodd" d="M16 3.88889V13.2222C16 14.2044 15.2036 15 14.2222 15H1.77778C0.796444 15 0 14.2044 0 13.2222V3.88889V7H2V13H14V7H16V3.88889ZM5.5 7L7.5 9.5L10 6L13 11H3L5.5 7ZM1.90939 1.92432L0 0V5H5L3.21494 3.21628C4.29025 2.38414 5.85793 1.78571 7.37579 1.78571C10.1281 1.78571 11.1531 2.71786 11.9683 5H14C12.9325 2.00714 10.9861 0 7.37579 0C5.32222 0 3.34185 0.770745 1.90939 1.92432Z" fill="#444746"/>
</svg>
