<svg width="16" height="14" viewBox="0 0 16 14" fill="none" xmlns="http://www.w3.org/2000/svg">
<path d="M5.6 0L4.136 2.00333H1.6C0.72 2.00333 0 2.70333 0 3.55889V12.4472C0 13.3027 0.72 14.0027 1.6 14.0027H14.4C15.28 14.0027 16 13.3027 16 12.4472V3.55889C16 2.70333 15.28 2.00333 14.4 2.00333H11.864L10.4 0H5.6ZM8 11.2C5.792 11.2 4 9.52747 4 7.46667C4 5.40587 5.792 3.73333 8 3.73333C10.208 3.73333 12 5.40587 12 7.46667C12 9.52747 10.208 11.2 8 11.2ZM8 9.8C9.38071 9.8 10.5 8.75533 10.5 7.46667C10.5 6.178 9.38071 5.13333 8 5.13333C6.61929 5.13333 5.5 6.178 5.5 7.46667C5.5 8.75533 6.61929 9.8 8 9.8Z" fill="#444746"/>
</svg>
