<svg width="14" height="16" viewBox="0 0 14 16" fill="none" xmlns="http://www.w3.org/2000/svg">
<path d="M3.25 14H9.25V8H3.25V14ZM0.625 5C1.10156 3.63672 1.92188 2.54688 3.08984 1.72656C4.25781 0.910156 5.5625 0.5 7 0.5C8.02344 0.5 8.99609 0.71875 9.91406 1.15625C10.8359 1.59375 11.6133 2.21094 12.25 3.01172V0.5H13.75V5H9.25V3.5H10.6758C10.1875 3.01172 9.625 2.64063 8.98828 2.38281C8.35156 2.12891 7.6875 2 7 2C5.98828 2 5.05469 2.26953 4.19531 2.80469C3.33984 3.34375 2.69531 4.07422 2.25781 5H0.625ZM3.25 15.5C2.83594 15.5 2.48437 15.3516 2.19141 15.0586C1.89844 14.7656 1.75 14.4141 1.75 14V8C1.75 7.58594 1.89844 7.23437 2.19141 6.94141C2.48437 6.64844 2.83594 6.5 3.25 6.5H9.25C9.66406 6.5 10.0156 6.64844 10.3086 6.94141C10.6016 7.23437 10.75 7.58594 10.75 8V10.25L13 8V14L10.75 11.75V14C10.75 14.4141 10.6016 14.7656 10.3086 15.0586C10.0156 15.3516 9.66406 15.5 9.25 15.5H3.25Z" fill="#444746"/>
</svg>
