<svg width="16" height="16" viewBox="0 0 16 16" fill="none" xmlns="http://www.w3.org/2000/svg">
<path d="M8 16C3.58172 16 0 12.4183 0 8C0 3.58172 3.58172 0 8 0C12.4183 0 16 3.58172 16 8C16 12.4183 12.4183 16 8 16ZM7.2 14.344V12.8C6.32 12.8 5.6 12.08 5.6 11.2V10.4L1.768 6.568C1.664 7.032 1.6 7.504 1.6 8C1.6 11.264 4.04 13.952 7.2 14.344ZM12.72 12.312C13.76 11.176 14.4 9.664 14.4 8C14.4 5.32 12.744 3.024 10.4 2.072V2.4C10.4 3.28 9.68 4 8.8 4H7.2V5.6C7.2 6.04 6.84 6.4 6.4 6.4H4.8V8H9.6C10.04 8 10.4 8.36 10.4 8.8V11.2H11.2C11.92 11.2 12.512 11.664 12.72 12.312Z" fill="#444746"/>
</svg>
