<svg width="12" height="17" viewBox="0 0 12 17" fill="none" xmlns="http://www.w3.org/2000/svg">
<path d="M6 16.5C5.6389 16.5 5.2986 16.4167 4.9792 16.25C4.6597 16.0694 4.4236 15.8194 4.2708 15.5H4C3.58333 15.5 3.22917 15.3542 2.9375 15.0625C2.64583 14.7708 2.5 14.4167 2.5 14V10.875C1.70833 10.3194 1.09028 9.6111 0.64583 8.75C0.21528 7.8889 0 6.9722 0 6C0 4.33333 0.58333 2.91667 1.75 1.75C2.91667 0.58333 4.3333 0 6 0C7.6667 0 9.0833 0.58333 10.25 1.75C11.4167 2.91667 12 4.33333 12 6C12 6.9722 11.7778 7.8889 11.3333 8.75C10.9028 9.6111 10.2917 10.3194 9.5 10.875V14C9.5 14.4167 9.3542 14.7708 9.0625 15.0625C8.7708 15.3542 8.4167 15.5 8 15.5H7.7083C7.5556 15.8194 7.3194 16.0694 7 16.25C6.6944 16.4167 6.3611 16.5 6 16.5ZM4 14H8V13H4V14ZM4 12H8V11H4V12ZM3.20833 9.5H5.5V7.2083L3.64583 5.35417L4.3542 4.64583L6 6.2917L7.6458 4.64583L8.3542 5.35417L6.5 7.2083V9.5H8.7917C9.3194 9.0694 9.7361 8.5556 10.0417 7.9583C10.3472 7.3472 10.5 6.6944 10.5 6C10.5 4.75 10.0625 3.6875 9.1875 2.8125C8.3125 1.9375 7.25 1.5 6 1.5C4.75 1.5 3.6875 1.9375 2.8125 2.8125C1.9375 3.6875 1.5 4.75 1.5 6C1.5 6.6806 1.65278 7.3264 1.95833 7.9375C2.26389 8.5486 2.68056 9.0694 3.20833 9.5Z" fill="#444746"/>
</svg>
