<svg width="14" height="16" viewBox="0 0 14 16" fill="none" xmlns="http://www.w3.org/2000/svg">
<path d="M3.75 9.5C3.54167 9.5 3.36111 9.4306 3.20833 9.2917C3.06944 9.1389 3 8.9583 3 8.75C3 8.5417 3.06944 8.3681 3.20833 8.2292C3.36111 8.0764 3.54167 8 3.75 8C3.95833 8 4.13194 8.0764 4.27083 8.2292C4.42361 8.3681 4.5 8.5417 4.5 8.75C4.5 8.9583 4.42361 9.1389 4.27083 9.2917C4.13194 9.4306 3.95833 9.5 3.75 9.5ZM7 9.5C6.79167 9.5 6.61111 9.4306 6.45833 9.2917C6.31945 9.1389 6.25 8.9583 6.25 8.75C6.25 8.5417 6.31945 8.3681 6.45833 8.2292C6.61111 8.0764 6.79167 8 7 8C7.2083 8 7.3819 8.0764 7.5208 8.2292C7.6736 8.3681 7.75 8.5417 7.75 8.75C7.75 8.9583 7.6736 9.1389 7.5208 9.2917C7.3819 9.4306 7.2083 9.5 7 9.5ZM10.25 9.5C10.0417 9.5 9.8611 9.4306 9.7083 9.2917C9.5694 9.1389 9.5 8.9583 9.5 8.75C9.5 8.5417 9.5694 8.3681 9.7083 8.2292C9.8611 8.0764 10.0417 8 10.25 8C10.4583 8 10.6319 8.0764 10.7708 8.2292C10.9236 8.3681 11 8.5417 11 8.75C11 8.9583 10.9236 9.1389 10.7708 9.2917C10.6319 9.4306 10.4583 9.5 10.25 9.5ZM1.5 16C1.08333 16 0.72917 15.8542 0.4375 15.5625C0.14583 15.2569 0 14.9028 0 14.5V3.5C0 3.09722 0.14583 2.75 0.4375 2.45833C0.72917 2.15278 1.08333 2 1.5 2H3V0H4.5V2H9.5V0H11V2H12.5C12.9167 2 13.2708 2.15278 13.5625 2.45833C13.8542 2.75 14 3.09722 14 3.5V14.5C14 14.9028 13.8542 15.2569 13.5625 15.5625C13.2708 15.8542 12.9167 16 12.5 16H1.5ZM1.5 14.5H12.5V7H1.5V14.5ZM1.5 5.5H12.5V3.5H1.5V5.5Z" fill="#444746"/>
</svg>
