<svg width="22" height="6" viewBox="0 0 22 6" fill="none" xmlns="http://www.w3.org/2000/svg">
<path d="M11 5C12.1046 5 13 4.10457 13 3C13 1.89543 12.1046 1 11 1C9.89543 1 9 1.89543 9 3C9 4.10457 9.89543 5 11 5Z" fill="#DADCE0"/>
<path d="M19 5C20.1046 5 21 4.10457 21 3C21 1.89543 20.1046 1 19 1C17.8954 1 17 1.89543 17 3C17 4.10457 17.8954 5 19 5Z" fill="#DADCE0"/>
<path d="M3 5C4.10457 5 5 4.10457 5 3C5 1.89543 4.10457 1 3 1C1.89543 1 1 1.89543 1 3C1 4.10457 1.89543 5 3 5Z" fill="#DADCE0"/>
</svg>
