<svg width="81" height="46" viewBox="0 0 81 46" fill="none" xmlns="http://www.w3.org/2000/svg">
<path d="M0 0H81V46H0V0Z" fill="white"/>
<path fill-rule="evenodd" clip-rule="evenodd" d="M9.11111 11H16.8889C17.5 11 18 11.5 18 12.1111V19.8889C18 20.5 17.5 21 16.8889 21H9.11111C8.5 21 8 20.5 8 19.8889V12.1111C8 11.5 8.5 11 9.11111 11ZM16.8889 19.8889V12.1111H9.11111V19.8889H16.8889Z" fill="#444746"/>
<path d="M24 13H73V19H24V13Z" fill="#DADCE0"/>
<path d="M16.8889 26H9.11111C8.5 26 8 26.5 8 27.1111V34.8889C8 35.5 8.5 36 9.11111 36H16.8889C17.5 36 18 35.5 18 34.8889V27.1111C18 26.5 17.5 26 16.8889 26ZM16.8889 34.8889H9.11111V27.1111H16.8889V34.8889ZM16.3333 29.3333L15.5556 28.5556L11.8889 32.2222L10.4444 30.7778L9.66667 31.5556L11.8889 33.7778L16.3333 29.3333Z" fill="#444746"/>
<path d="M24 28H73V34H24V28Z" fill="#DADCE0"/>
</svg>
