<svg width="56" height="56" viewBox="0 0 56 56" fill="none" xmlns="http://www.w3.org/2000/svg">
<path d="M47 8H9V15H47V8Z" fill="#E3E3E3"/>
<path d="M47 19H41V26H47V19Z" fill="#E3E3E3"/>
<path d="M47 30H41V37H47V30Z" fill="#E3E3E3"/>
<path d="M15 19H9V26H15V19Z" fill="#E3E3E3"/>
<path d="M15 30H9V37H15V30Z" fill="#E3E3E3"/>
<path d="M47 41H9V48H47V41Z" fill="#E3E3E3"/>
<path fill-rule="evenodd" clip-rule="evenodd" d="M35.0833 19H20.9167C19.8625 19 19 19.8625 19 20.9167V35.0833C19 36.1375 19.8625 37 20.9167 37H35.0833C36.1375 37 37 36.1375 37 35.0833V28.375V20.9167C37 19.8625 36.1375 19 35.0833 19ZM35.125 20.9167V23.875H28H20.875V20.875L35.125 20.9167ZM25.75 35.125H30.25V25.75H25.75V35.125ZM20.875 25.75H22.75H23.875V35.125H20.875V25.75ZM32.125 25.75V35.125H35.125V25.75H32.125Z" fill="#4C8DF6"/>
</svg>
