<svg width="14" height="16" viewBox="0 0 14 16" fill="none" xmlns="http://www.w3.org/2000/svg">
<path fill-rule="evenodd" clip-rule="evenodd" d="M13.75 3.5V14C13.75 14.825 13.075 15.5 12.25 15.5H1.75C0.9175 15.5 0.25 14.825 0.25 14L0.2575 3.5C0.2575 2.675 0.9175 2 1.75 2H2.5V0.5H4V2H10V0.5H11.5V2H12.25C13.075 2 13.75 2.675 13.75 3.5ZM5.9425 9.695L3.82 7.5725L4.8775 6.515L7 8.63L9.1225 6.5075L10.18 7.565L8.0575 9.6875L10.18 11.81L9.1225 12.8675L7 10.7525L4.8775 12.875L3.82 11.8175L5.9425 9.695ZM1.75 5.75H12.25V14H1.75V5.75Z" fill="#E37400"/>
</svg>
