<svg width="20" height="20" viewBox="0 0 20 20" fill="none" xmlns="http://www.w3.org/2000/svg">
<path d="M7 20C6.03516 20 5.125 19.8164 4.27344 19.4492C3.42578 19.082 2.68359 18.582 2.05078 17.9492C1.41797 17.3164 0.917969 16.5742 0.550781 15.7266C0.183594 14.875 0 13.9648 0 13C0 11.6484 0.351562 10.418 1.05078 9.30078C1.75 8.18359 2.66797 7.33203 3.80078 6.75C4.13281 6.10156 4.54688 5.52734 5.03906 5.03906C5.52734 4.54688 6.10156 4.13281 6.75 3.80078C7.30078 2.66797 8.14063 1.75 9.27344 1.05078C10.4102 0.351562 11.6484 0 13 0C13.9648 0 14.875 0.183594 15.7266 0.550781C16.5742 0.917969 17.3164 1.41797 17.9492 2.05078C18.582 2.68359 19.082 3.42578 19.4492 4.27344C19.8164 5.125 20 6.03516 20 7C20 8.41797 19.6484 9.66797 18.9492 10.75C18.25 11.832 17.332 12.668 16.1992 13.25C15.8672 13.8984 15.4531 14.4727 14.9609 14.9609C14.4727 15.4531 13.8984 15.8672 13.25 16.1992C12.668 17.332 11.8164 18.25 10.6992 18.9492C9.58203 19.6484 8.35156 20 7 20ZM7 18C7.55078 18 8.07813 17.918 8.58594 17.75C9.09766 17.582 9.56641 17.332 10 17C9.03516 17 8.125 16.8164 7.27344 16.4492C6.42578 16.082 5.68359 15.582 5.05078 14.9492C4.41797 14.3164 3.91797 13.5742 3.55078 12.7266C3.18359 11.875 3 10.9648 3 10C2.66797 10.4336 2.41797 10.9023 2.25 11.4141C2.08203 11.9219 2 12.4492 2 13C2 13.6992 2.13281 14.3516 2.39844 14.9492C2.66797 15.5508 3.02344 16.0742 3.47656 16.5234C3.92578 16.9766 4.44922 17.332 5.05078 17.6016C5.64844 17.8672 6.30078 18 7 18ZM10 15C10.5508 15 11.0859 14.918 11.6133 14.75C12.1367 14.582 12.6172 14.332 13.0508 14C12.0664 14 11.1484 13.8125 10.3008 13.4375C9.44922 13.0625 8.70703 12.5586 8.07422 11.9258C7.44141 11.293 6.9375 10.5508 6.5625 9.69922C6.1875 8.85156 6 7.93359 6 6.94922C5.66797 7.38281 5.41797 7.86328 5.25 8.38672C5.08203 8.91406 5 9.44922 5 10C5 10.6992 5.12891 11.3516 5.38672 11.9492C5.64453 12.5508 6.00781 13.0742 6.47656 13.5234C6.92578 13.9922 7.44922 14.3555 8.05078 14.6133C8.64844 14.8711 9.30078 15 10 15ZM13 12C13.3008 12 13.5859 11.9766 13.8633 11.9258C14.1367 11.875 14.418 11.8008 14.6992 11.6992C15.0664 10.6992 15.1211 9.73828 14.8633 8.8125C14.6055 7.88672 14.1602 7.10937 13.5234 6.47656C12.8906 5.83984 12.1133 5.39453 11.1875 5.13672C10.2617 4.87891 9.30078 4.93359 8.30078 5.30078C8.19922 5.58203 8.125 5.86328 8.07422 6.13672C8.02344 6.41406 8 6.69922 8 7C8 7.69922 8.12891 8.35156 8.38672 8.94922C8.64453 9.55078 9.00781 10.0742 9.47656 10.5234C9.92578 10.9922 10.4492 11.3555 11.0508 11.6133C11.6484 11.8711 12.3008 12 13 12ZM17 10.0508C17.332 9.61719 17.582 9.13672 17.75 8.61328C17.918 8.08594 18 7.55078 18 7C18 6.30078 17.8711 5.64844 17.6133 5.05078C17.3555 4.44922 16.9922 3.92578 16.5234 3.47656C16.0742 3.00781 15.5508 2.64453 14.9492 2.38672C14.3516 2.12891 13.6992 2 13 2C12.418 2 11.8711 2.08203 11.3633 2.25C10.8555 2.41797 10.3828 2.66797 9.94922 3C10.9336 3 11.8516 3.1875 12.6992 3.5625C13.5508 3.9375 14.293 4.44141 14.9258 5.07422C15.5586 5.70703 16.0625 6.44922 16.4375 7.30078C16.8125 8.14844 17 9.06641 17 10.0508Z" fill="#444746"/>
</svg>
