<svg width="16" height="14" viewBox="0 0 16 14" fill="none" xmlns="http://www.w3.org/2000/svg">
<path d="M2.49957 14C1.87424 14 1.4229 13.7187 1.14557 13.156C0.867569 12.5933 0.922902 12.069 1.31157 11.583L5.49957 6.5V1.5H4.74957C4.54157 1.5 4.36457 1.427 4.21857 1.281C4.07257 1.135 3.99957 0.958 3.99957 0.75C3.99957 0.542 4.07257 0.365 4.21857 0.219C4.36457 0.0730001 4.54157 0 4.74957 0H11.2496C11.4576 0 11.6346 0.0730001 11.7806 0.219C11.9266 0.365 11.9996 0.542 11.9996 0.75C11.9996 0.958 11.9266 1.135 11.7806 1.281C11.6346 1.427 11.4576 1.5 11.2496 1.5H10.4996V6.5L14.6876 11.583C15.0902 12.069 15.1526 12.5933 14.8746 13.156C14.5966 13.7187 14.1382 14 13.4996 14H2.49957ZM4.62457 11.5H11.3746L8.79157 8.333H7.20757L4.62457 11.5ZM2.49957 12.5H13.4996L8.99957 7V1.5H6.99957V7L2.49957 12.5Z" fill="#444746"/>
</svg>
