<svg width="14" height="14" viewBox="0 0 14 14" fill="none" xmlns="http://www.w3.org/2000/svg">
<path d="M8.5 13.5V12C9.6 11.7 10.5 11.1 11.2 10.1C11.9 9.2 12.2 8.1 12.2 6.9C12.2 5.7 11.9 4.7 11.2 3.7C10.5 2.8 9.6 2.3 8.5 2V0.5C10.1 0.9 11.3 1.5 12.3 2.8C13.3 4.1 13.8 5.4 13.8 7C13.8 8.6 13.3 10 12.3 11.2C11.3 12.4 10.1 13.2 8.5 13.5ZM0 9.5V4.5H3.5L7 1V13L3.5 9.5H0ZM8.5 10V4C9.1 4.3 9.5 4.7 9.9 5.2C10.3 5.7 10.4 6.3 10.4 7C10.4 7.6 10.2 8.2 9.9 8.8C9.5 9.3 9.1 9.7 8.5 10ZM5.5 4.5L4 6H1.5V8H4L5.5 9.5V4.5Z" fill="#444746"/>
</svg>
