<svg width="20" height="20" viewBox="0 0 20 20" fill="none" xmlns="http://www.w3.org/2000/svg">
<path d="M5 16C5.28333 16 5.52083 15.9042 5.7125 15.7125C5.90417 15.5208 6 15.2833 6 15C6 14.7167 5.90417 14.4792 5.7125 14.2875C5.52083 14.0958 5.28333 14 5 14C4.71667 14 4.47917 14.0958 4.2875 14.2875C4.09583 14.4792 4 14.7167 4 15C4 15.2833 4.09583 15.5208 4.2875 15.7125C4.47917 15.9042 4.71667 16 5 16ZM5 12C5.28333 12 5.52083 11.9042 5.7125 11.7125C5.90417 11.5208 6 11.2833 6 11C6 10.7167 5.90417 10.4792 5.7125 10.2875C5.52083 10.0958 5.28333 10 5 10C4.71667 10 4.47917 10.0958 4.2875 10.2875C4.09583 10.4792 4 10.7167 4 11C4 11.2833 4.09583 11.5208 4.2875 11.7125C4.47917 11.9042 4.71667 12 5 12ZM5 8C5.28333 8 5.52083 7.90417 5.7125 7.7125C5.90417 7.52083 6 7.28333 6 7C6 6.71667 5.90417 6.47917 5.7125 6.2875C5.52083 6.09583 5.28333 6 5 6C4.71667 6 4.47917 6.09583 4.2875 6.2875C4.09583 6.47917 4 6.71667 4 7C4 7.28333 4.09583 7.52083 4.2875 7.7125C4.47917 7.90417 4.71667 8 5 8ZM8 16H14V14H8V16ZM8 12H12V10H8V12ZM2 20C1.45 20 0.97917 19.8042 0.5875 19.4125C0.19583 19.0208 0 18.55 0 18V4C0 3.45 0.19583 2.97917 0.5875 2.5875C0.97917 2.19583 1.45 2 2 2H10V4H2V18H16V10H18V18C18 18.55 17.8042 19.0208 17.4125 19.4125C17.0208 19.8042 16.55 20 16 20H2ZM14.5 11C14.5 9.4667 13.9667 8.16667 12.9 7.1C11.8333 6.03333 10.5333 5.5 9 5.5C10.5333 5.5 11.8333 4.96667 12.9 3.9C13.9667 2.83333 14.5 1.53333 14.5 0C14.5 1.53333 15.0333 2.83333 16.1 3.9C17.1667 4.96667 18.4667 5.5 20 5.5C18.4667 5.5 17.1667 6.03333 16.1 7.1C15.0333 8.16667 14.5 9.4667 14.5 11Z" fill="#444746"/>
</svg>
