<svg width="18" height="18" viewBox="0 0 18 18" fill="none" xmlns="http://www.w3.org/2000/svg">
<path d="M5 6C5.28516 6 5.51953 5.90234 5.71094 5.71094C5.90234 5.51953 6 5.28516 6 5C6 4.71484 5.90234 4.48047 5.71094 4.28906C5.51953 4.09766 5.28516 4 5 4C4.71484 4 4.48047 4.09766 4.28906 4.28906C4.09766 4.48047 4 4.71484 4 5C4 5.28516 4.09766 5.51953 4.28906 5.71094C4.48047 5.90234 4.71484 6 5 6ZM5 10C5.28516 10 5.51953 9.90234 5.71094 9.71094C5.90234 9.51953 6 9.28516 6 9C6 8.71484 5.90234 8.48047 5.71094 8.28906C5.51953 8.09766 5.28516 8 5 8C4.71484 8 4.48047 8.09766 4.28906 8.28906C4.09766 8.48047 4 8.71484 4 9C4 9.28516 4.09766 9.51953 4.28906 9.71094C4.48047 9.90234 4.71484 10 5 10ZM5 14C5.28516 14 5.51953 13.9023 5.71094 13.7109C5.90234 13.5195 6 13.2852 6 13C6 12.7148 5.90234 12.4805 5.71094 12.2891C5.51953 12.0977 5.28516 12 5 12C4.71484 12 4.48047 12.0977 4.28906 12.2891C4.09766 12.4805 4 12.7148 4 13C4 13.2852 4.09766 13.5195 4.28906 13.7109C4.48047 13.9023 4.71484 14 5 14ZM2 18C1.44922 18 0.980469 17.8047 0.585938 17.4141C0.195312 17.0195 0 16.5508 0 16V2C0 1.44922 0.195312 0.980469 0.585938 0.585938C0.980469 0.195312 1.44922 0 2 0H13L18 5V16C18 16.5508 17.8047 17.0195 17.4141 17.4141C17.0195 17.8047 16.5508 18 16 18H2ZM2 16H16V6H12V2H2V16Z" fill="#444746"/>
</svg>
