<svg width="56" height="56" viewBox="0 0 56 56" fill="none" xmlns="http://www.w3.org/2000/svg">
<path d="M47 8H9V15H47V8Z" fill="#E3E3E3"/>
<path d="M25 19H9V26H25V19Z" fill="#E3E3E3"/>
<path d="M25 30H9V37H25V30Z" fill="#E3E3E3"/>
<path d="M47 41H9V48H47V41Z" fill="#E3E3E3"/>
<path fill-rule="evenodd" clip-rule="evenodd" d="M45.0833 19H30.9167C29.8625 19 29 19.8625 29 20.9167V35.0833C29 36.1375 29.8625 37 30.9167 37H45.0833C46.1375 37 47 36.1375 47 35.0833V28.375V20.9167C47 19.8625 46.1375 19 45.0833 19ZM45.125 20.9167V23.875H38H30.875V20.875L45.125 20.9167ZM35.75 35.125H40.25V25.75H35.75V35.125ZM30.875 25.75H32.75H33.875V35.125H30.875V25.75ZM42.125 25.75V35.125H45.125V25.75H42.125Z" fill="#4C8DF6"/>
</svg>
