<svg width="16" height="16" viewBox="0 0 16 16" fill="none" xmlns="http://www.w3.org/2000/svg">
<path fill-rule="evenodd" clip-rule="evenodd" d="M12.7101 4H14.9975C15.5512 4 16 4.45576 16 5.00247V14.9975C16 15.5512 15.5442 16 14.9975 16H5.00247C4.44882 16 4 15.5442 4 14.9975V12.7101C4.63371 12.8987 5.30503 13 6 13V14H14V6H13C13 5.30503 12.8987 4.63371 12.7101 4ZM6 12C9.31371 12 12 9.31371 12 6C12 2.68629 9.31371 0 6 0C2.68629 0 0 2.68629 0 6C0 9.31371 2.68629 12 6 12ZM6 10C8.20914 10 10 8.20914 10 6C10 3.79086 8.20914 2 6 2C3.79086 2 2 3.79086 2 6C2 8.20914 3.79086 10 6 10Z" fill="#444746"/>
</svg>
