<svg width="14" height="14" viewBox="0 0 14 14" fill="none" xmlns="http://www.w3.org/2000/svg">
<path d="M13.1598 8.1L11.2498 9.2V7H9.74984V9.2L7.83984 8.1L7.08984 9.4L8.99984 10.5L7.08984 11.6L7.83984 12.9L9.74984 11.8V14H11.2498V11.8L13.1598 12.9L13.9098 11.6L11.9998 10.5L13.9098 9.4L13.1598 8.1Z" fill="#444746"/>
<path d="M13 0H1C0.45 0 0 0.45 0 1V13C0 13.55 0.45 14 1 14H4.67C5.22 14 5.67 13.55 5.67 13V5.67H13C13.55 5.67 14 5.22 14 4.67V1C14 0.45 13.55 0 13 0ZM4.17 12.5H1.5V9.83H4.17V12.5ZM4.17 8.33H1.5V5.67H4.17V8.33ZM4.17 4.17H1.5V1.5H4.17V4.17ZM8.33 4.17H5.67V1.5H8.34V4.17H8.33ZM12.5 4.17H9.83V1.5H12.5V4.17Z" fill="#444746"/>
</svg>
