<svg width="14" height="16" viewBox="0 0 14 16" fill="none" xmlns="http://www.w3.org/2000/svg">
<path d="M1.5 15.5C1.0875 15.5 0.73375 15.3531 0.44 15.0594C0.14625 14.7656 0 14.4125 0 14V3.5C0 3.0875 0.14625 2.73437 0.44 2.44062C0.73375 2.14687 1.0875 2 1.5 2H2.5V0.5H4V2H10V0.5H11.5V2H12.5C12.9125 2 13.2663 2.14687 13.56 2.44062C13.8538 2.73437 14 3.0875 14 3.5V14C14 14.4125 13.8538 14.7656 13.56 15.0594C13.2663 15.3531 12.9125 15.5 12.5 15.5H1.5ZM1.5 14H12.5V6.5H1.5V14ZM1.5 5H12.5V3.5H1.5V5Z" fill="#444746"/>
</svg>
