<svg width="16" height="16" viewBox="0 0 16 16" fill="none" xmlns="http://www.w3.org/2000/svg">
<path d="M8 0C3.58 0 0 3.58 0 8C0 12.42 3.58 16 8 16C12.42 16 16 12.42 16 8C16 3.58 12.42 0 8 0ZM8 14.5C4.42 14.5 1.5 11.58 1.5 8C1.5 4.42 4.42 1.5 8 1.5C11.58 1.5 14.5 4.42 14.5 8C14.5 11.58 11.58 14.5 8 14.5Z" fill="#444746"/>
<path d="M5.25 7.25C5.94036 7.25 6.5 6.69036 6.5 6C6.5 5.30964 5.94036 4.75 5.25 4.75C4.55964 4.75 4 5.30964 4 6C4 6.69036 4.55964 7.25 5.25 7.25Z" fill="#444746"/>
<path d="M10.75 7.25C11.4404 7.25 12 6.69036 12 6C12 5.30964 11.4404 4.75 10.75 4.75C10.0596 4.75 9.5 5.30964 9.5 6C9.5 6.69036 10.0596 7.25 10.75 7.25Z" fill="#444746"/>
<path d="M8.00004 12C9.72004 12 11.2 11.02 11.96 9.60001H4.04004C4.80004 11.02 6.28004 12 8.00004 12Z" fill="#444746"/>
</svg>
