<svg width="19" height="22" viewBox="0 0 19 22" fill="none" xmlns="http://www.w3.org/2000/svg">
<path d="M7 15H16V8H7V15ZM8.5 10.75V9.5H10.75V10.75H8.5ZM12.25 13.5V12.25H14.5V13.5H12.25ZM8.5 13.5V12.25H10.75V13.5H8.5ZM12.25 10.75V9.5H14.5V10.75H12.25ZM17 18H6C5.45 18 4.975 17.8083 4.575 17.425C4.19167 17.025 4 16.55 4 16V2C4 1.45 4.19167 0.983331 4.575 0.600001C4.975 0.200001 5.45 0 6 0H13L19 6V16C19 16.55 18.8 17.025 18.4 17.425C18.0167 17.8083 17.55 18 17 18ZM2 22C1.45 22 0.975 21.8083 0.575 21.425C0.19167 21.025 0 20.55 0 20V6H2V20H13V22H2ZM17 7H12V2H6V16H17V7ZM6 2V7V16V2Z" fill="#444746"/>
</svg>
