<svg width="16" height="16" viewBox="0 0 16 16" fill="none" xmlns="http://www.w3.org/2000/svg">
<mask id="mask0_148_14704" style="mask-type:luminance" maskUnits="userSpaceOnUse" x="0" y="0" width="16" height="16">
<path fill-rule="evenodd" clip-rule="evenodd" d="M8.75 4.25H7.25V7.25H4.25V8.75H7.25V11.75H8.75V8.75H11.75V7.25H8.75V4.25ZM8 0.5C3.86 0.5 0.5 3.86 0.5 8C0.5 12.14 3.86 15.5 8 15.5C12.14 15.5 15.5 12.14 15.5 8C15.5 3.86 12.14 0.5 8 0.5ZM8 14C4.692 14 2 11.307 2 8C2 4.692 4.692 2 8 2C11.307 2 14 4.692 14 8C14 11.307 11.307 14 8 14Z" fill="white"/>
</mask>
<g mask="url(#mask0_148_14704)">
<path fill-rule="evenodd" clip-rule="evenodd" d="M-1 -1H17V17H-1V-1Z" fill="#444746"/>
</g>
</svg>
