<svg width="18" height="10" viewBox="0 0 18 10" fill="none" xmlns="http://www.w3.org/2000/svg">
<path d="M8.2 10V0H9.7V10H8.2ZM0 8V7.3C0 7 0.1 6.7 0.2 6.5C0.3 6.3 0.6 6.1 0.9 5.9C1.2 5.8 1.5 5.7 1.9 5.6C2.2 5.5 2.6 5.5 3 5.5C3.4 5.5 3.7 5.5 4.1 5.6C4.4 5.7 4.8 5.8 5.1 5.9C5.4 6 5.6 6.2 5.8 6.5C5.9 6.7 6 7 6 7.3V8H0ZM12 8V7.3C12 7 12.1 6.7 12.2 6.5C12.4 6.3 12.6 6.1 12.9 5.9C13.2 5.8 13.5 5.7 13.9 5.6C14.2 5.5 14.6 5.5 15 5.5C15.4 5.5 15.7 5.5 16.1 5.6C16.4 5.7 16.8 5.8 17.1 5.9C17.4 6 17.6 6.2 17.8 6.5C18 6.7 18 7 18 7.3V8H12ZM3 5C2.6 5 2.2 4.9 1.9 4.6C1.6 4.3 1.5 3.9 1.5 3.5C1.5 3.1 1.6 2.7 1.9 2.4C2.2 2.1 2.6 2 3 2C3.4 2 3.8 2.1 4.1 2.4C4.4 2.7 4.5 3 4.5 3.5C4.5 3.9 4.4 4.3 4.1 4.6C3.8 4.9 3.4 5 3 5ZM15 5C14.6 5 14.2 4.9 13.9 4.6C13.6 4.3 13.5 4 13.5 3.5C13.5 3.1 13.6 2.7 13.9 2.4C14.2 2.1 14.6 2 15 2C15.4 2 15.8 2.1 16.1 2.4C16.4 2.7 16.5 3 16.5 3.5C16.5 3.9 16.4 4.3 16.1 4.6C15.8 4.9 15.4 5 15 5Z" fill="#444746"/>
</svg>
