<svg width="16" height="16" viewBox="0 0 16 16" fill="none" xmlns="http://www.w3.org/2000/svg">
<path d="M7.27 16C6.25 15.9 5.3 15.63 4.42 15.17C3.54 14.72 2.77 14.13 2.11 13.42C1.46 12.71 0.94 11.89 0.56 10.96C0.18 10.03 0 9.04 0 7.99C0 5.88 0.7 4.07 2.1 2.56C3.5 1.05 5.22 0.2 7.27 0V1.51C5.64 1.71 4.27 2.42 3.17 3.64C2.07 4.86 1.5 6.31 1.5 7.99C1.5 9.67 2.05 11.12 3.16 12.35C4.27 13.58 5.64 14.29 7.26 14.49V16H7.27ZM8 12L4 8L5.07 6.93L7.25 9.11V4H8.75L8.74 9.11L10.92 6.93L12 8L8 12ZM8.77 16V14.49C9.4 14.42 9.98 14.27 10.54 14.03C11.09 13.79 11.59 13.49 12.05 13.13L13.12 14.2C12.51 14.7 11.84 15.11 11.11 15.43C10.39 15.74 9.61 15.93 8.77 16ZM12.05 2.89C11.59 2.53 11.09 2.22 10.54 1.98C9.99 1.74 9.4 1.58 8.77 1.51V0C9.61 0.07 10.39 0.26 11.12 0.58C11.85 0.9 12.52 1.3 13.14 1.81L12.05 2.89ZM14.18 13.13L13.11 12.06C13.47 11.6 13.77 11.09 14.01 10.54C14.25 9.99 14.4 9.4 14.47 8.77H16C15.93 9.61 15.74 10.39 15.42 11.12C15.09 11.84 14.68 12.51 14.18 13.13ZM14.48 7.26C14.41 6.63 14.26 6.04 14.02 5.5C13.78 4.95 13.48 4.44 13.12 3.97L14.21 2.88C14.71 3.5 15.12 4.17 15.43 4.9C15.74 5.63 15.93 6.42 16 7.26H14.48Z" fill="#444746"/>
</svg>
