<svg width="20" height="20" viewBox="0 0 20 20" fill="none" xmlns="http://www.w3.org/2000/svg">
<path d="M12.4 4.1C11.9 3.9 11.3 4.1 11.1 4.7L9.7 8C8.7 8.1 8 9 8 10C8 11.1 8.9 12 10 12C11.1 12 12 11.1 12 10C12 9.5 11.8 9.1 11.6 8.8L13 5.4C13.1 4.9 12.9 4.3 12.4 4.1ZM5 7C4.4 7 4 7.4 4 8C4 8.6 4.4 9 5 9C5.6 9 6 8.6 6 8C6 7.4 5.6 7 5 7ZM9 5C9 4.4 8.6 4 8 4C7.4 4 7 4.4 7 5C7 5.6 7.4 6 8 6C8.6 6 9 5.6 9 5ZM15 7C14.4 7 14 7.4 14 8C14 8.6 14.4 9 15 9C15.6 9 16 8.6 16 8C16 7.4 15.6 7 15 7ZM10 0C4.5 0 0 4.5 0 10C0 15.5 4.5 20 10 20C15.5 20 20 15.5 20 10C20 4.5 15.5 0 10 0ZM15.3 16C13.9 14.8 12.1 14 10 14C7.9 14 6.1 14.8 4.7 16C3.1 14.5 2 12.4 2 10C2 5.6 5.6 2 10 2C14.4 2 18 5.6 18 10C18 12.4 16.9 14.5 15.3 16Z" fill="#188038"/>
</svg>
