<svg width="18" height="18" viewBox="0 0 18 18" fill="none" xmlns="http://www.w3.org/2000/svg">
<path d="M9 15H15V9H9.3C9.6 8.6667 9.8333 8.2875 10 7.8625C10.1667 7.4375 10.25 6.98333 10.25 6.5C10.25 5.46667 9.8833 4.58333 9.15 3.85C8.4167 3.11667 7.5333 2.75 6.5 2.75C5.46667 2.75 4.58333 3.11667 3.85 3.85C3.11667 4.58333 2.75 5.46667 2.75 6.5C2.75 7.5333 3.11667 8.4167 3.85 9.15C4.58333 9.8833 5.46667 10.25 6.5 10.25C6.98333 10.25 7.4375 10.1667 7.8625 10C8.2875 9.8333 8.6667 9.6 9 9.3V15ZM2 18C1.45 18 0.97917 17.8042 0.5875 17.4125C0.19583 17.0208 0 16.55 0 16V2C0 1.45 0.19583 0.97917 0.5875 0.5875C0.97917 0.19583 1.45 0 2 0H16C16.55 0 17.0208 0.19583 17.4125 0.5875C17.8042 0.97917 18 1.45 18 2V16C18 16.55 17.8042 17.0208 17.4125 17.4125C17.0208 17.8042 16.55 18 16 18H2ZM2 16H16V2H2V16Z" fill="#444746"/>
</svg>
