<svg width="16" height="12" viewBox="0 0 16 12" fill="none" xmlns="http://www.w3.org/2000/svg">
<path d="M3.84272 7.705L4.32925 6.43751L5.7323 6.97041L4.32211 10.6441L0.655273 9.2308L1.19122 7.8347L2.4785 8.3288C1.89885 6.95312 1.82622 5.35171 2.40398 3.84659C3.58992 0.757127 7.06367 -0.789483 10.1531 0.396447L9.6172 1.79265C7.30009 0.903197 4.68963 2.06545 3.80018 4.38254C3.38586 5.46187 3.40034 6.63763 3.84272 7.705Z" fill="#444746"/>
<path d="M11.578 1.125L15.2517 2.53519L14.7089 3.93444L13.4216 3.4403C13.4308 3.46086 13.4416 3.48065 13.4525 3.50044C13.4634 3.52023 13.4742 3.54003 13.4834 3.56058C14.1087 4.96516 14.1966 6.60082 13.5899 8.15169C12.404 11.2411 8.93028 12.7877 5.84082 11.6018L6.37677 10.2056C8.69386 11.0951 11.3043 9.93279 12.1937 7.61569C12.6301 6.49371 12.5943 5.26999 12.1062 4.17374C12.0986 4.15661 12.0885 4.13853 12.0784 4.12045C12.0683 4.10237 12.0582 4.08429 12.0505 4.06716L11.564 5.33463L10.1678 4.79868L11.578 1.125Z" fill="#444746"/>
</svg>
