<svg width="72" height="72" viewBox="0 0 72 72" fill="none" xmlns="http://www.w3.org/2000/svg">
<path d="M61 10H11V20H61V10Z" fill="#E3E3E3"/>
<path d="M33 24H11V34H33V24Z" fill="#E3E3E3"/>
<path d="M33 38H11V48H33V38Z" fill="#E3E3E3"/>
<path d="M61 52H11V62H61V52Z" fill="#E3E3E3"/>
<path fill-rule="evenodd" clip-rule="evenodd" d="M58.4444 24H39.5556C38.15 24 37 25.15 37 26.5556V45.4444C37 46.85 38.15 48 39.5556 48H58.4444C59.85 48 61 46.85 61 45.4444V36.5V26.5556C61 25.15 59.85 24 58.4444 24ZM58.5 26.5556V30.5H49H39.5V26.5L58.5 26.5556ZM46 45.5H52V33H46V45.5ZM39.5 33H42H43.5V45.5H39.5V33ZM54.5 33V45.5H58.5V33H54.5Z" fill="#4C8DF6"/>
</svg>
