<svg width="20" height="20" viewBox="0 0 20 20" fill="none" xmlns="http://www.w3.org/2000/svg">
<path d="M14.15 18L18 14.15V2H2V18H14.15ZM2 20C1.45 20 0.97917 19.8042 0.5875 19.4125C0.19583 19.0208 0 18.55 0 18V2C0 1.45 0.19583 0.97917 0.5875 0.5875C0.97917 0.19583 1.45 0 2 0H18C18.55 0 19.0208 0.19583 19.4125 0.5875C19.8042 0.97917 20 1.45 20 2V15L15 20H2ZM7.45 14.2C8.15 14.2 8.8 14 9.4 13.6C10 13.2 10.3 12.6 10.3 11.8C10.3 11.3167 10.1833 10.9125 9.95 10.5875C9.7167 10.2625 9.3833 10 8.95 9.8V9.75C9.3 9.5667 9.5625 9.3167 9.7375 9C9.9125 8.6833 10 8.3333 10 7.95C10 7.26667 9.725 6.7375 9.175 6.3625C8.625 5.9875 8.0333 5.8 7.4 5.8C6.85 5.8 6.325 5.95417 5.825 6.2625C5.325 6.57083 4.98333 7 4.8 7.55L6.2 8.1C6.3 7.81667 6.45 7.59583 6.65 7.4375C6.85 7.27917 7.1 7.2 7.4 7.2C7.68333 7.2 7.92917 7.2875 8.1375 7.4625C8.3458 7.6375 8.45 7.86667 8.45 8.15C8.45 8.4833 8.3167 8.7333 8.05 8.9C7.78333 9.0667 7.5 9.15 7.2 9.15H6.55V10.55H7.25C7.6 10.55 7.92917 10.6333 8.2375 10.8C8.5458 10.9667 8.7 11.25 8.7 11.65C8.7 12 8.5667 12.2625 8.3 12.4375C8.0333 12.6125 7.75 12.7 7.45 12.7C7.05 12.7 6.74167 12.5958 6.525 12.3875C6.30833 12.1792 6.15 11.8833 6.05 11.5L4.6 12.1C4.8 12.75 5.15 13.2625 5.65 13.6375C6.15 14.0125 6.75 14.2 7.45 14.2ZM13 14H14.5V6H13.35L11 7.7L11.8 8.9L13 8V14Z" fill="#0B57D0"/>
</svg>
