<svg width="12" height="16" viewBox="0 0 12 16" fill="none" xmlns="http://www.w3.org/2000/svg">
<path d="M6 15.5C4.2625 15.0625 2.82813 14.0656 1.69688 12.5094C0.56563 10.9531 0 9.225 0 7.325V3L6 0L12 3V7.325C12 8.3875 11.8188 9.4094 11.4563 10.3906C11.0938 11.3719 10.675 12.2375 10 12.9875L7.5 10.5875C7.275 10.725 7.0344 10.8281 6.77813 10.8969C6.52188 10.9656 6.2625 11 6 11C5.175 11 4.46875 10.7062 3.88125 10.1187C3.29375 9.5312 3 8.825 3 8C3 7.175 3.29375 6.46875 3.88125 5.88125C4.46875 5.29375 5.175 5 6 5C6.825 5 7.5313 5.29375 8.1188 5.88125C8.7063 6.46875 9 7.175 9 8C9 8.275 8.9656 8.54063 8.8969 8.79688C8.8281 9.0531 8.725 9.3 8.5875 9.5375L9.7125 10.6625C9.9625 10.15 10.1563 9.6125 10.2938 9.05C10.4313 8.4875 10.5 7.9125 10.5 7.325V4L6 2L1.5 4V7.325C1.5 8.8375 1.925 10.2125 2.775 11.45C3.625 12.6875 4.7 13.5875 6 14C6.325 13.9 6.63438 13.6969 6.92813 13.5406C7.2219 13.3844 7.5125 13.2 7.8 12.9875L8.85 14.0375C8.4375 14.375 7.9906 14.6687 7.5094 14.9187C7.0281 15.1687 6.525 15.3625 6 15.5ZM6 9.5C6.4125 9.5 6.76563 9.3531 7.0594 9.0594C7.3531 8.76562 7.5 8.4125 7.5 8C7.5 7.5875 7.3531 7.23437 7.0594 6.94062C6.76563 6.64687 6.4125 6.5 6 6.5C5.5875 6.5 5.23438 6.64687 4.94063 6.94062C4.64688 7.23437 4.5 7.5875 4.5 8C4.5 8.4125 4.64688 8.76562 4.94063 9.0594C5.23438 9.3531 5.5875 9.5 6 9.5Z" fill="#444746"/>
</svg>
