<svg width="10" height="14" viewBox="0 0 10 14" fill="none" xmlns="http://www.w3.org/2000/svg">
<path d="M2.42239 13.1544C1.98636 13.1544 1.61458 12.9992 1.30703 12.6887C0.999483 12.3782 0.845703 12.0049 0.845703 11.5689C0.845703 11.1329 1.00095 10.7624 1.31145 10.4574C1.62195 10.1525 1.99522 10 2.43124 10C2.86727 10 3.23776 10.154 3.5427 10.4619C3.84766 10.7698 4.00014 11.1417 4.00014 11.5778C4.00014 12.0138 3.84619 12.3856 3.53829 12.6931C3.23038 13.0007 2.85842 13.1544 2.42239 13.1544ZM7.57254 13.1544C7.13754 13.1544 6.76664 12.9992 6.46004 12.6887C6.15344 12.3782 6.00014 12.0049 6.00014 11.5689C6.00014 11.1329 6.15474 10.7624 6.46404 10.4574C6.77324 10.1525 7.14504 10 7.57924 10C8.01494 10 8.38634 10.154 8.69364 10.4619C9.00094 10.7698 9.15454 11.1417 9.15454 11.5778C9.15454 12.0138 8.99964 12.3856 8.68984 12.6931C8.38004 13.0007 8.00764 13.1544 7.57254 13.1544ZM2.42239 8.57472C1.98636 8.57472 1.61458 8.42012 1.30703 8.11092C0.999483 7.80162 0.845703 7.42982 0.845703 6.9956C0.845703 6.55863 1.00095 6.18767 1.31145 5.88273C1.62195 5.57777 1.99522 5.42529 2.43124 5.42529C2.86727 5.42529 3.23776 5.57924 3.5427 5.88714C3.84766 6.19505 4.00014 6.56665 4.00014 7.00192C4.00014 7.43722 3.84619 7.80822 3.53829 8.11482C3.23038 8.42142 2.85842 8.57472 2.42239 8.57472ZM7.57254 8.57472C7.13754 8.57472 6.76664 8.42012 6.46004 8.11092C6.15344 7.80162 6.00014 7.42982 6.00014 6.9956C6.00014 6.55863 6.15474 6.18767 6.46404 5.88273C6.77324 5.57777 7.14504 5.42529 7.57924 5.42529C8.01494 5.42529 8.38634 5.57924 8.69364 5.88714C9.00094 6.19505 9.15454 6.56665 9.15454 7.00192C9.15454 7.43722 8.99964 7.80822 8.68984 8.11482C8.38004 8.42142 8.00764 8.57472 7.57254 8.57472ZM2.42239 4.00002C1.98636 4.00002 1.61458 3.84539 1.30703 3.53614C0.999483 3.22689 0.845703 2.85514 0.845703 2.42087C0.845703 1.98523 1.00095 1.61378 1.31145 1.3065C1.62195 0.999221 1.99522 0.845581 2.43124 0.845581C2.86727 0.845581 3.23776 1.00048 3.5427 1.31029C3.84766 1.62011 4.00014 1.99255 4.00014 2.4276C4.00014 2.86266 3.84619 3.23349 3.53829 3.5401C3.23038 3.84671 2.85842 4.00002 2.42239 4.00002ZM7.57254 4.00002C7.13754 4.00002 6.76664 3.84539 6.46004 3.53614C6.15344 3.22689 6.00014 2.85514 6.00014 2.42087C6.00014 1.98523 6.15474 1.61378 6.46404 1.3065C6.77324 0.999221 7.14504 0.845581 7.57924 0.845581C8.01494 0.845581 8.38634 1.00048 8.69364 1.31029C9.00094 1.62011 9.15454 1.99255 9.15454 2.4276C9.15454 2.86266 8.99964 3.23349 8.68984 3.5401C8.38004 3.84671 8.00764 4.00002 7.57254 4.00002Z" fill="#444746"/>
</svg>
