<svg width="16" height="12" viewBox="0 0 16 12" fill="none" xmlns="http://www.w3.org/2000/svg">
<path d="M5 10.5H14.5V8.5H5V10.5ZM1.5 3.5H3.5V1.5H1.5V3.5ZM1.5 7H3.5V5H1.5V7ZM1.5 10.5H3.5V8.5H1.5V10.5ZM5 7H14.5V5H5V7ZM5 3.5H14.5V1.5H5V3.5ZM1.5 12C1.0875 12 0.73438 11.8531 0.44063 11.5592C0.14688 11.2653 0 10.9119 0 10.4992V1.49417C0 1.08139 0.14688 0.72917 0.44063 0.4375C0.73438 0.14583 1.0875 0 1.5 0H14.5C14.9125 0 15.2656 0.14694 15.5594 0.44083C15.8531 0.73472 16 1.08806 16 1.50083V10.5058C16 10.9186 15.8531 11.2708 15.5594 11.5625C15.2656 11.8542 14.9125 12 14.5 12H1.5Z" fill="#444746"/>
</svg>
