<svg width="53" height="30" viewBox="0 0 53 30" fill="none" xmlns="http://www.w3.org/2000/svg">
<path d="M50.8 0.5H16.2C15.2611 0.5 14.5 1.26112 14.5 2.2V20.8C14.5 21.7389 15.2611 22.5 16.2 22.5H50.8C51.7389 22.5 52.5 21.7389 52.5 20.8V2.2C52.5 1.26112 51.7389 0.5 50.8 0.5Z" fill="#D3E3FD" stroke="#0B57D0"/>
<path d="M0 29.2001V27.7001H3.8V26.7001C3.3 26.7001 2.8 26.7 2.5 26.3C2.1 25.9 2 25.5 2 25V15.6C2 15.1 2.1 14.6 2.5 14.3C2.8 14 3.3 13.8 3.8 13.8H19.2C19.7 13.8 20.1 14 20.4 14.3C20.8 14.7 21 15.1 21 15.6V25C21 25.5 20.8 26 20.4 26.3C20.1 26.6 19.7 26.8 19.2 26.8V27.7001H23V29.2001H0ZM3.8 25.2001H19.4V15.4L19.2 15.3H3.5V25.2001H3.8Z" fill="#C4C7C5"/>
<path d="M19.2 15.3H3.8C3.63431 15.3 3.5 15.4344 3.5 15.6V25C3.5 25.1657 3.63431 25.3 3.8 25.3H19.2C19.3657 25.3 19.5 25.1657 19.5 25V15.6C19.5 15.4344 19.3657 15.3 19.2 15.3Z" fill="white" stroke="white" stroke-width="1.9"/>
</svg>
