<svg width="14" height="16" viewBox="0 0 14 16" fill="none" xmlns="http://www.w3.org/2000/svg">
<path d="M5.55595 15.2L5.14395 13.063C4.85458 12.9496 4.57269 12.8181 4.29995 12.669C4.0346 12.5171 3.78358 12.3413 3.54995 12.144L1.48695 12.838L0.0439453 10.344L1.67495 8.91905C1.59801 8.46057 1.5792 7.99423 1.61895 7.53105C1.63095 7.38105 1.64995 7.23105 1.67495 7.08105L0.0439453 5.65605L1.48695 3.16205L3.54995 3.85605C3.78695 3.65605 4.03695 3.48105 4.29995 3.33105C4.57495 3.18105 4.85595 3.05005 5.14395 2.93705L5.55595 0.800049H8.44395L8.85595 2.93805C9.14395 3.05005 9.41895 3.18105 9.68095 3.33105C9.95595 3.48105 10.2129 3.65605 10.4499 3.85605L12.5129 3.16205L13.9559 5.65605L12.3249 7.08105C12.4019 7.53952 12.4207 8.00587 12.3809 8.46905C12.3689 8.61905 12.3499 8.76905 12.3249 8.91905L13.9559 10.344L12.5119 12.838L10.4499 12.144C10.2129 12.344 9.95595 12.519 9.68095 12.669C9.41895 12.819 9.14395 12.95 8.85595 13.062L8.44395 15.2H5.55595ZM6.66195 13.85H7.33695L7.69395 11.994C8.16895 11.906 8.61195 11.744 9.02495 11.506C9.43252 11.2728 9.79466 10.9679 10.0939 10.606L11.8939 11.206L12.2309 10.644L10.8059 9.38705C10.8809 9.17505 10.9379 8.95705 10.9749 8.73105C11.0742 8.25483 11.0742 7.76327 10.9749 7.28705C10.9393 7.05736 10.8828 6.83142 10.8059 6.61205L12.2309 5.35605L11.8939 4.79405L10.0939 5.39405C9.79466 5.03218 9.43252 4.7273 9.02495 4.49405C8.61249 4.25637 8.16228 4.09131 7.69395 4.00605L7.33695 2.15005H6.66195L6.30595 4.00605C5.83095 4.09405 5.38795 4.25605 4.97495 4.49405C4.56737 4.7273 4.20523 5.03218 3.90595 5.39405L2.10595 4.79405L1.76895 5.35605L3.19395 6.61205C3.11651 6.83267 3.05371 7.05816 3.00595 7.28705C2.93127 7.76549 2.93127 8.25261 3.00595 8.73105C3.05595 8.95605 3.11895 9.17505 3.19395 9.38705L1.76895 10.644L2.10595 11.206L3.90595 10.606C4.20595 10.969 4.56295 11.269 4.97495 11.506C5.38795 11.744 5.83095 11.906 6.30595 11.994L6.66295 13.85H6.66195ZM6.99995 10.7C7.74995 10.7 8.38695 10.438 8.91195 9.91305C9.16703 9.66494 9.36856 9.36719 9.50409 9.03817C9.63962 8.70915 9.70628 8.35584 9.69995 8.00005C9.69995 7.25005 9.43795 6.61205 8.91295 6.08805C8.66484 5.83296 8.36709 5.63144 8.03806 5.4959C7.70904 5.36037 7.35573 5.29372 6.99995 5.30005C6.24995 5.30005 5.61194 5.56305 5.08794 6.08805C4.83298 6.33604 4.63153 6.63363 4.496 6.96247C4.36048 7.29131 4.29375 7.64443 4.29995 8.00005C4.29995 8.75005 4.56295 9.38705 5.08794 9.91205C5.33593 10.167 5.63353 10.3685 5.96237 10.504C6.29121 10.6395 6.64433 10.7062 6.99995 10.7Z" fill="#444746"/>
</svg>
