<svg width="18" height="18" viewBox="0 0 18 18" fill="none" xmlns="http://www.w3.org/2000/svg">
<path d="M10.6629 18H7.33386C6.66807 18 6.11024 17.5256 6.02926 16.8843L5.78633 15.224C5.54341 15.101 5.30948 14.9693 5.07555 14.8199L3.45604 15.4524C2.82623 15.6808 2.13344 15.4261 1.82754 14.8814L0.181035 12.0966C-0.13387 11.5168 0.00108945 10.8316 0.504937 10.4451L1.88152 9.39971C1.87252 9.26794 1.86352 9.13616 1.86352 8.99561C1.86352 8.86384 1.87252 8.72328 1.88152 8.59151L0.513934 7.54612C-0.016905 7.1508 -0.151864 6.43924 0.181035 5.89458L1.84553 3.09224C2.15144 2.54758 2.84423 2.30161 3.45604 2.5388L5.08455 3.18009C5.31848 3.03075 5.55241 2.89898 5.78633 2.77599L6.02926 1.0981C6.11024 0.483163 6.66807 0 7.32487 0H10.6539C11.3197 0 11.8775 0.474378 11.9585 1.11567L12.2014 2.77599C12.4443 2.89898 12.6782 3.03075 12.9122 3.18009L14.5317 2.54758C15.1705 2.31918 15.8633 2.57394 16.1692 3.11859L17.8247 5.91215C18.1486 6.49195 18.0046 7.17716 17.5008 7.56369L16.1332 8.60908C16.1422 8.74085 16.1512 8.87262 16.1512 9.01318C16.1512 9.15373 16.1422 9.2855 16.1332 9.41728L17.5008 10.4627C18.0046 10.858 18.1486 11.5432 17.8337 12.0966L16.1602 14.9253C15.8543 15.47 15.1615 15.716 14.5407 15.4788L12.9212 14.8463C12.6872 14.9956 12.4533 15.1274 12.2194 15.2504L11.9765 16.9283C11.8865 17.5256 11.3287 18 10.6629 18ZM7.77154 16H10.2374L10.568 13.8364L11.0415 13.6497C11.4346 13.497 11.8277 13.2764 12.2387 12.9879L12.6407 12.6994L14.7671 13.5139L16 11.4776L14.1863 10.137L14.2489 9.66182C14.2757 9.44121 14.3025 9.22909 14.3025 9C14.3025 8.77091 14.2757 8.5503 14.2489 8.33818L14.1863 7.86303L16 6.52242L14.7581 4.48606L12.6228 5.30061L12.2208 5.00364C11.8456 4.73212 11.4435 4.51152 11.0325 4.3503L10.568 4.16364L10.2374 2H7.77154L7.44097 4.16364L6.96745 4.34182C6.57435 4.50303 6.18124 4.71515 5.77026 5.01212L5.36822 5.29212L3.24186 4.48606L2 6.51394L3.81366 7.85455L3.75112 8.3297C3.72431 8.5503 3.69751 8.77939 3.69751 9C3.69751 9.22061 3.71538 9.4497 3.75112 9.66182L3.81366 10.137L2 11.4776L3.23293 13.5139L5.36822 12.6994L5.77026 12.9964C6.15444 13.2764 6.53861 13.4885 6.95852 13.6497L7.43204 13.8364L7.77154 16ZM9 12C10.6569 12 12 10.6569 12 9C12 7.34315 10.6569 6 9 6C7.34315 6 6 7.34315 6 9C6 10.6569 7.34315 12 9 12Z" fill="#444746"/>
</svg>
