<svg width="72" height="72" viewBox="0 0 72 72" fill="none" xmlns="http://www.w3.org/2000/svg">
<path d="M20 24H11V34H20V24Z" fill="#E3E3E3"/>
<path d="M20 38H11V48H20V38Z" fill="#E3E3E3"/>
<path d="M61 52H11V62H61V52Z" fill="#E3E3E3"/>
<path d="M61 10H11V20H61V10Z" fill="#E3E3E3"/>
<path fill-rule="evenodd" clip-rule="evenodd" d="M45.4444 24H26.5556C25.15 24 24 25.15 24 26.5556V45.4444C24 46.85 25.15 48 26.5556 48H45.4444C46.85 48 48 46.85 48 45.4444V36.5V26.5556C48 25.15 46.85 24 45.4444 24ZM45.5 26.5556V30.5H36H26.5V26.5L45.5 26.5556ZM33 45.5H39V33H33V45.5ZM26.5 33H29H30.5V45.5H26.5V33ZM41.5 33V45.5H45.5V33H41.5Z" fill="#4C8DF6"/>
</svg>
