<svg width="18" height="18" viewBox="0 0 18 18" fill="none" xmlns="http://www.w3.org/2000/svg">
<path d="M3.87148 7.29635C3.83986 7.04746 3.82353 6.79331 3.82353 6.53501C3.82353 3.47811 6.11162 1 8.93412 1C11.7566 1 14.0447 3.47811 14.0447 6.53501C14.0447 6.77302 14.0308 7.00752 14.0039 7.23762M3.87148 7.29635C2.17129 8.12599 1 9.87159 1 11.8908C1 14.7125 3.28749 17 6.10924 17C7.18221 17 8.17792 16.6693 9 16.1042M3.87148 7.29635C4.11261 9.1947 5.24258 10.786 6.79193 11.5618M3.87148 7.29635C4.54728 6.96657 5.30665 6.78151 6.10924 6.78151C7.18221 6.78151 8.17792 7.11225 9 7.67735M14.0039 7.23762C15.7712 8.0415 17 9.82263 17 11.8908C17 14.7125 14.7125 17 11.8908 17C10.8178 17 9.82208 16.6693 9 16.1042M14.0039 7.23762C13.785 9.10936 12.703 10.6896 11.2034 11.4958M14.0039 7.23762C13.3599 6.94468 12.6444 6.78151 11.8908 6.78151C10.8178 6.78151 9.82208 7.11225 9 7.67735M9 16.1042C7.66012 15.1831 6.78151 13.6395 6.78151 11.8908C6.78151 11.7802 6.78502 11.6705 6.79193 11.5618M9 16.1042C10.3399 15.1831 11.2185 13.6395 11.2185 11.8908C11.2185 11.7579 11.2134 11.6261 11.2034 11.4958M11.2034 11.4958C11.0823 9.91094 10.238 8.52838 9 7.67735M11.2034 11.4958C10.5197 11.8634 9.74921 12.07 8.93412 12.07C8.16917 12.07 7.44347 11.888 6.79193 11.5618M9 7.67735C7.7448 8.54018 6.8944 9.94936 6.79193 11.5618" stroke="#444746"/>
</svg>
