<svg width="18" height="18" viewBox="0 0 18 18" fill="none" xmlns="http://www.w3.org/2000/svg">
<path fill-rule="evenodd" clip-rule="evenodd" d="M9.47336 7.49057e-05C7.78896 0.00993938 6.38764 0.954695 6.06831 2.20664C5.95295 2.5198 5.9 2.72 5.9 2.72C5.9 2.72 5.8352 2.97604 5.83 3L5.4 5H4V6H5.3L3.77112 13.5143C3.77112 13.5143 3.20471 16.1555 2.34106 16.6979C1.86203 16.9987 1.28421 17.0434 1.10779 17.0002C1.61538 16.934 2 16.5119 2 16C2.0013 15.9732 1.9978 15.8834 1.99 15.8581C1.92562 15.4049 1.55747 15.0496 1.09831 15.0048C1.08287 15.0016 1.06828 15 1.05469 15C1.01724 15.0001 1.00863 15 1 15C0.447715 15 0 15.4477 0 16C0 16.0307 0.00138535 16.0611 0.00409697 16.0911C0.00136566 16.1332 0 16.1764 0 16.2207C0 16.4813 0.0418061 16.7195 0.125419 16.9353L0.157776 17.0002C0.157776 17.0002 0.498169 17.9716 2.01453 17.9716C3.53088 17.9716 4.26624 17.015 4.81488 15.9564C5.14147 15.3262 5.3803 14.382 5.52012 13.721L5.64729 13.0575C5.65871 12.9904 5.66449 12.953 5.66449 12.953L7 6H10V5H7.28429L7.36 4.62954L7.53528 3.70157C7.6109 3.30976 7.70026 2.9695 7.80336 2.6808C7.90647 2.3921 8.03364 2.15323 8.18486 1.9642C8.33609 1.77517 8.51652 1.63598 8.72618 1.54662C8.93583 1.45726 9.18844 1.41258 9.48402 1.41258C9.64212 1.41258 9.78647 1.42632 9.91707 1.45382C9.99448 1.47012 10.0658 1.48702 10.1312 1.50452C10.0477 1.65058 10 1.81972 10 2C10 2.55228 10.4477 3 11 3C11.4577 3 11.8436 2.69247 11.9624 2.27275C11.9871 2.21708 12 2.12872 12 2C12 1.2154 11.4917 0.536325 10.7519 0.208735C10.6775 0.172853 10.5949 0.141524 10.5032 0.114806C10.2677 0.0404663 10.0142 0 9.75 0C9.71514 0 9.68113 0.000774776 9.64796 0.00228742C9.5916 0.000807964 9.53342 6.92664e-05 9.47336 7.49057e-05Z" fill="#444746"/>
<path fill-rule="evenodd" clip-rule="evenodd" d="M8 13V14H11.004L11.0029 13H10.4L12.75 10.5L14 13H13.5017L13.5 14H16.75V13H16.25C15.9739 13 15.6608 12.7961 15.5493 12.5411L14 9L16.8772 6.34414C17.0831 6.15408 17.471 6 17.7461 6H18V5H14.9979L15 6H16.037L13.5017 8.3L12.2235 6H12.75V5H9.5V6H10C10.2761 6 10.6042 6.20846 10.7216 6.44328L12.25 9.5L9.33557 12.6386C9.15024 12.8382 8.76807 13 8.5 13H8Z" fill="#444746"/>
</svg>
