<svg width="14" height="13" viewBox="0 0 14 13" fill="none" xmlns="http://www.w3.org/2000/svg">
<path d="M9.9252 12.3V10.275H7.9002V8.92501H9.9252V6.90001H11.2752V8.92501H13.3002V10.275H11.2752V12.3H9.9252ZM0.700195 11.4V10.05H6.1377C6.1627 10.2875 6.2002 10.5187 6.2502 10.7437C6.3002 10.9687 6.3752 11.1875 6.4752 11.4H0.700195ZM0.700195 8.25001V6.90001H7.01895C6.86895 7.11251 6.73458 7.32811 6.61583 7.54691C6.49708 7.76561 6.4002 8.00001 6.3252 8.25001H0.700195ZM0.700195 5.10001V3.75001H13.3002V5.10001H0.700195ZM0.700195 1.95001V0.600006H13.3002V1.95001H0.700195Z" fill="#444746"/>
</svg>
