<svg width="14" height="14" viewBox="0 0 14 14" fill="none" xmlns="http://www.w3.org/2000/svg">
<path fill-rule="evenodd" clip-rule="evenodd" d="M1.54513 1.54494L5.79013 12.3929L7.08213 8.36394C7.17843 8.06368 7.34498 7.79073 7.56795 7.56776C7.79092 7.3448 8.06387 7.17824 8.36413 7.08194L12.3941 5.78994L1.54513 1.54494ZM1.97713 0.102942L13.0801 4.44794C14.3471 4.94394 14.2901 6.75594 12.9951 7.17194L8.82113 8.50994C8.74826 8.53356 8.68206 8.57417 8.62798 8.62842C8.57391 8.68267 8.53351 8.749 8.51013 8.82194L7.17113 12.9949C6.75513 14.2909 4.94313 14.3479 4.44713 13.0809L0.103126 1.97694C-0.356874 0.801942 0.803126 -0.357058 1.97713 0.102942Z" fill="#444746"/>
</svg>
