<svg width="14" height="16" viewBox="0 0 14 16" fill="none" xmlns="http://www.w3.org/2000/svg">
<path d="M1.5 16C1.08333 16 0.72917 15.8542 0.4375 15.5625C0.14583 15.2569 0 14.9028 0 14.5V3.5C0 3.09722 0.14583 2.75 0.4375 2.45833C0.72917 2.15278 1.08333 2 1.5 2H3V0H4.5V2H9.5V0H11V2H12.5C12.9167 2 13.2708 2.15278 13.5625 2.45833C13.8542 2.75 14 3.09722 14 3.5V14.5C14 14.9028 13.8542 15.2569 13.5625 15.5625C13.2708 15.8542 12.9167 16 12.5 16H1.5ZM1.5 14.5H12.5V7H1.5V14.5ZM1.5 5.5H12.5V3.5H1.5V5.5Z" fill="#444746"/>
</svg>
