<svg width="16" height="14" viewBox="0 0 16 14" fill="none" xmlns="http://www.w3.org/2000/svg">
<mask id="mask0_148_14295" style="mask-type:alpha" maskUnits="userSpaceOnUse" x="0" y="0" width="16" height="14">
<path d="M4.80366 1.11983L0 9.5775L2.50435 13.9905L7.30801 5.54021L4.80366 1.11983ZM8.93364 9.5775H6.28284L3.77117 13.9979H9.8014C9.1057 13.2169 8.67735 12.1855 8.67735 11.0509C8.67735 10.5352 8.76888 10.0379 8.93364 9.5775ZM13.8032 10.3142V8.104H12.3387V10.3142H10.1419V11.7877H12.3387V13.9979H13.8032V11.7877H16V10.3142H13.8032ZM14.3231 6.81475L10.4494 0H5.44073V0.00737L9.9478 7.94563C10.7423 7.13523 11.8481 6.63057 13.0709 6.63057C13.5066 6.63057 13.924 6.69687 14.3231 6.81475Z" fill="white"/>
</mask>
<g mask="url(#mask0_148_14295)">
<path d="M17 -2H-1V16H17V-2Z" fill="#444746"/>
</g>
</svg>
