<svg width="14" height="12" viewBox="0 0 14 12" fill="none" xmlns="http://www.w3.org/2000/svg">
<path d="M1.5 12C1.0875 12 0.73437 11.853 0.44062 11.5591C0.14687 11.2652 0 10.9119 0 10.4992V1.4941C0 1.08137 0.14687 0.72917 0.44062 0.4375C0.73437 0.14583 1.0875 0 1.5 0H12.5C12.9125 0 13.2656 0.14696 13.5594 0.44087C13.8531 0.73479 14 1.08811 14 1.50083V10.5059C14 10.9186 13.8531 11.2708 13.5594 11.5625C13.2656 11.8542 12.9125 12 12.5 12H1.5ZM1.5 10.5H12.5V1.5H1.5V10.5ZM3.11017 8.3333H5.44069C5.66078 8.3333 5.84722 8.2585 6 8.1087C6.15278 7.959 6.22917 7.7734 6.22917 7.5521V6.7708H5.05952V7.1667H3.5V4.83333H5.0625V5.22917H6.22917V4.43969C6.22917 4.21601 6.15529 4.03125 6.00754 3.88542C5.85981 3.73958 5.67674 3.66667 5.45833 3.66667H3.10431C2.88199 3.66667 2.69792 3.74101 2.55208 3.88969C2.40625 4.03837 2.33333 4.2226 2.33333 4.4424V7.5453C2.33333 7.7651 2.40778 7.9514 2.55667 8.1042C2.70557 8.2569 2.89007 8.3333 3.11017 8.3333ZM8.5524 8.3333H10.897C11.1185 8.3333 11.3021 8.2585 11.4479 8.1087C11.5938 7.959 11.6667 7.7734 11.6667 7.5521V6.7708H10.497V7.1667H8.9375V4.83333H10.5V5.22917H11.6667V4.43969C11.6667 4.21601 11.5922 4.03125 11.4433 3.88542C11.2944 3.73958 11.1099 3.66667 10.8898 3.66667H8.5593C8.3392 3.66667 8.1528 3.74101 8 3.88969C7.8472 4.03837 7.7708 4.2226 7.7708 4.4424V7.5453C7.7708 7.7651 7.8457 7.9514 7.9955 8.1042C8.1453 8.2569 8.3309 8.3333 8.5524 8.3333Z" fill="#444746"/>
</svg>
