<svg width="18" height="16" viewBox="0 0 18 16" fill="none" xmlns="http://www.w3.org/2000/svg">
<path d="M12.1704 15.5H3.95035C3.41035 15.5 2.92035 15.21 2.65035 14.75L0.750352 11.44C0.480352 10.98 0.480352 10.4 0.750352 9.94L5.80035 1.25C6.07035 0.78 6.57035 0.5 7.10035 0.5H10.9004C11.4304 0.5 11.9304 0.78 12.2004 1.25L15.8904 7.59C15.6004 7.53 15.3004 7.5 15.0004 7.5C14.7104 7.5 14.4204 7.53 14.1504 7.58L10.9004 2H7.10035L2.05035 10.69L3.95035 14H10.9704C11.2604 14.59 11.6604 15.09 12.1704 15.5ZM18.0004 11.25H15.7504V9H14.2504V11.25H12.0004V12.75H14.2504V15H15.7504V12.75H18.0004V11.25ZM6.69035 10.45L9.00035 6.42L11.0104 9.92C11.2604 9.43 11.6004 9 12.0104 8.64L9.72035 4.64H8.29035L4.68035 10.94L5.25035 11.94H10.5004C10.5104 11.41 10.6004 10.91 10.7804 10.44L6.69035 10.45Z" fill="#444746"/>
</svg>
