<svg width="17" height="12" viewBox="0 0 17 12" fill="none" xmlns="http://www.w3.org/2000/svg">
<path d="M1.7 12L4 8C2.9 8 1.95833 7.6083 1.175 6.825C0.39167 6.0417 0 5.1 0 4C0 2.9 0.39167 1.95833 1.175 1.175C1.95833 0.39167 2.9 0 4 0C5.1 0 6.0417 0.39167 6.825 1.175C7.6083 1.95833 8 2.9 8 4C8 4.3833 7.9542 4.7375 7.8625 5.0625C7.7708 5.3875 7.6333 5.7 7.45 6L4 12H1.7ZM10.7 12L13 8C11.9 8 10.9583 7.6083 10.175 6.825C9.3917 6.0417 9 5.1 9 4C9 2.9 9.3917 1.95833 10.175 1.175C10.9583 0.39167 11.9 0 13 0C14.1 0 15.0417 0.39167 15.825 1.175C16.6083 1.95833 17 2.9 17 4C17 4.3833 16.9542 4.7375 16.8625 5.0625C16.7708 5.3875 16.6333 5.7 16.45 6L13 12H10.7ZM4 5.5C4.41667 5.5 4.77083 5.3542 5.0625 5.0625C5.35417 4.7708 5.5 4.4167 5.5 4C5.5 3.58333 5.35417 3.22917 5.0625 2.9375C4.77083 2.64583 4.41667 2.5 4 2.5C3.58333 2.5 3.22917 2.64583 2.9375 2.9375C2.64583 3.22917 2.5 3.58333 2.5 4C2.5 4.4167 2.64583 4.7708 2.9375 5.0625C3.22917 5.3542 3.58333 5.5 4 5.5ZM13 5.5C13.4167 5.5 13.7708 5.3542 14.0625 5.0625C14.3542 4.7708 14.5 4.4167 14.5 4C14.5 3.58333 14.3542 3.22917 14.0625 2.9375C13.7708 2.64583 13.4167 2.5 13 2.5C12.5833 2.5 12.2292 2.64583 11.9375 2.9375C11.6458 3.22917 11.5 3.58333 11.5 4C11.5 4.4167 11.6458 4.7708 11.9375 5.0625C12.2292 5.3542 12.5833 5.5 13 5.5Z" fill="#444746"/>
</svg>
