<svg width="18" height="18" viewBox="0 0 18 18" fill="none" xmlns="http://www.w3.org/2000/svg">
<path d="M4 9H8V11H10V9H14V11H16V7H15H14H10H8H4H3H2V11H4V9Z" fill="#444746"/>
<path d="M9 17C10.1046 17 11 16.1046 11 15C11 13.8954 10.1046 13 9 13C7.89543 13 7 13.8954 7 15C7 16.1046 7.89543 17 9 17Z" fill="#444746"/>
<path d="M15 17C16.1046 17 17 16.1046 17 15C17 13.8954 16.1046 13 15 13C13.8954 13 13 13.8954 13 15C13 16.1046 13.8954 17 15 17Z" fill="#444746"/>
<path d="M3 17C4.10457 17 5 16.1046 5 15C5 13.8954 4.10457 13 3 13C1.89543 13 1 13.8954 1 15C1 16.1046 1.89543 17 3 17Z" fill="#444746"/>
<path d="M9 5C10.1046 5 11 4.10457 11 3C11 1.89543 10.1046 1 9 1C7.89543 1 7 1.89543 7 3C7 4.10457 7.89543 5 9 5Z" fill="#444746"/>
</svg>
