<svg width="14" height="16" viewBox="0 0 14 16" fill="none" xmlns="http://www.w3.org/2000/svg">
<path d="M5.79 10.5H8.21L7.75 7.81C7.98 7.69 8.17 7.51 8.3 7.27C8.43 7.03 8.5 6.77 8.5 6.49C8.5 6.08 8.35 5.73 8.06 5.44C7.76 5.15 7.41 5 7 5C6.58 5 6.23 5.15 5.94 5.44C5.65 5.73 5.5 6.09 5.5 6.5C5.5 6.78 5.57 7.04 5.7 7.28C5.83 7.51 6.02 7.69 6.25 7.82L5.79 10.5ZM7 16C5.12 15.54 3.57 14.48 2.34 12.82C1.11 11.16 0.5 9.3 0.5 7.27V2.5L7 0L13.5 2.5V7.27C13.5 9.3 12.89 11.15 11.66 12.81C10.43 14.47 8.88 15.54 7 16ZM7 14.44C8.44 13.99 9.64 13.1 10.58 11.75C11.5162 10.4449 12.0135 8.87609 12 7.27V3.52L7 1.6L2 3.52V7.27C2 8.91 2.47 10.41 3.42 11.75C4.37 13.09 5.56 13.99 7 14.44Z" fill="#0B57D0"/>
</svg>
