<svg width="20" height="20" viewBox="0 0 20 20" fill="none" xmlns="http://www.w3.org/2000/svg">
<path d="M6 19V17H18V19H6ZM6 13V11H18V13H6ZM2 20C1.45 20 0.97917 19.8042 0.5875 19.4125C0.19583 19.0208 0 18.55 0 18C0 17.45 0.19583 16.9792 0.5875 16.5875C0.97917 16.1958 1.45 16 2 16C2.55 16 3.02083 16.1958 3.4125 16.5875C3.80417 16.9792 4 17.45 4 18C4 18.55 3.80417 19.0208 3.4125 19.4125C3.02083 19.8042 2.55 20 2 20ZM2 14C1.45 14 0.97917 13.8042 0.5875 13.4125C0.19583 13.0208 0 12.55 0 12C0 11.45 0.19583 10.9792 0.5875 10.5875C0.97917 10.1958 1.45 10 2 10C2.55 10 3.02083 10.1958 3.4125 10.5875C3.80417 10.9792 4 11.45 4 12C4 12.55 3.80417 13.0208 3.4125 13.4125C3.02083 13.8042 2.55 14 2 14ZM15.5 9C15.5 7.75 15.0625 6.6875 14.1875 5.8125C13.3125 4.9375 12.25 4.5 11 4.5C12.25 4.5 13.3125 4.0625 14.1875 3.1875C15.0625 2.3125 15.5 1.25 15.5 0C15.5 1.25 15.9375 2.3125 16.8125 3.1875C17.6875 4.0625 18.75 4.5 20 4.5C18.75 4.5 17.6875 4.9375 16.8125 5.8125C15.9375 6.6875 15.5 7.75 15.5 9Z" fill="#444746"/>
</svg>
