<svg width="16" height="14" viewBox="0 0 16 14" fill="none" xmlns="http://www.w3.org/2000/svg">
<path d="M0.5 9.25V8.17969L6.875 1.80469C7.41016 1.26953 8.04297 0.875 8.75781 0.625C9.48047 0.375 10.2617 0.25 11.1133 0.25C12 0.25 12.8164 0.394531 13.5586 0.679688C14.3008 0.96875 14.9492 1.38672 15.5 1.9375L12.6875 4.75H11V6.21094C10.5117 6.51172 9.99609 6.74609 9.44531 6.90625C8.89453 7.06641 8.32422 7.14844 7.73828 7.14844C7.1875 7.14844 6.63672 7.07422 6.08594 6.91406C5.53516 6.76172 5.02734 6.53516 4.55078 6.25L1.55078 9.25H0.5ZM7.73828 5.64844C8.03906 5.64844 8.33203 5.62109 8.62891 5.56641C8.92188 5.50781 9.21484 5.42578 9.5 5.3125V3.25H12.0703L13.1562 2.16406C12.8711 2.02734 12.5547 1.92188 12.2188 1.85156C11.8828 1.78516 11.5117 1.75 11.1133 1.75C10.4766 1.75 9.87109 1.85938 9.29297 2.07812C8.71875 2.29688 8.22656 2.61328 7.8125 3.02344L5.67578 5.16406C5.97656 5.3125 6.30469 5.43359 6.66016 5.51953C7.01562 5.60547 7.375 5.64844 7.73828 5.64844ZM8 10V9.25C8 9.03516 8.07422 8.85937 8.21484 8.71484C8.35937 8.57422 8.53516 8.5 8.75 8.5H12.5C12.7148 8.5 12.8906 8.57422 13.0352 8.71484C13.1758 8.85937 13.25 9.03516 13.25 9.25V10H8ZM7.25 13.75C7.03516 13.75 6.85938 13.6758 6.71484 13.5352C6.57422 13.3906 6.5 13.2148 6.5 13V11.5C6.5 11.2852 6.57422 11.1094 6.71484 10.9648C6.85938 10.8242 7.03516 10.75 7.25 10.75H14C14.2148 10.75 14.3906 10.8242 14.5352 10.9648C14.6758 11.1094 14.75 11.2852 14.75 11.5V13C14.75 13.2148 14.6758 13.3906 14.5352 13.5352C14.3906 13.6758 14.2148 13.75 14 13.75H7.25Z" fill="#444746"/>
</svg>
