<svg width="16" height="16" viewBox="0 0 16 16" fill="none" xmlns="http://www.w3.org/2000/svg">
<path d="M8 16C8 14.8889 7.79167 13.8542 7.375 12.8958C6.95833 11.9236 6.38194 11.0764 5.64583 10.3542C4.92361 9.6181 4.07639 9.0417 3.10417 8.625C2.14583 8.20833 1.11111 8 0 8C1.11111 8 2.14583 7.79167 3.10417 7.375C4.07639 6.95833 4.92361 6.38889 5.64583 5.66667C6.38194 4.93055 6.95833 4.07639 7.375 3.10417C7.79167 2.13194 8 1.09722 8 0C8 1.09722 8.20833 2.13194 8.625 3.10417C9.0417 4.07639 9.6111 4.93055 10.3333 5.66667C11.0694 6.38889 11.9236 6.95833 12.8958 7.375C13.8681 7.79167 14.9028 8 16 8C14.9028 8 13.8681 8.20833 12.8958 8.625C11.9236 9.0417 11.0694 9.6181 10.3333 10.3542C9.6111 11.0764 9.0417 11.9236 8.625 12.8958C8.20833 13.8542 8 14.8889 8 16Z" fill="white"/>
</svg>
