<svg width="14" height="14" viewBox="0 0 14 14" fill="none" xmlns="http://www.w3.org/2000/svg">
<path d="M1.5 14C1.0875 14 0.73437 13.8477 0.44062 13.5431C0.14688 13.2384 0 12.8722 0 12.4444V1.55556C0 1.12778 0.14338 0.76157 0.43713 0.45694C0.73088 0.15231 1.0875 0 1.5 0H12.5C12.9125 0 13.2656 0.15231 13.5594 0.45694C13.8531 0.76157 14 1.12778 14 1.55556V12.4444C14 12.8722 13.8531 13.2384 13.5594 13.5431C13.2656 13.8477 12.9125 14 12.5 14H1.5ZM1.5 4.14167H12.5V1.55556H1.5V4.14167ZM1.5 8.3028H12.5V5.69722H1.5V8.3028ZM1.5 12.4444H12.5V9.8583H1.5V12.4444ZM2.25 3.61667V2.06111H3.75V3.61667H2.25ZM2.25 7.77778V6.22222H3.75V7.77778H2.25ZM2.25 11.9389V10.3833H3.75V11.9389H2.25Z" fill="#444746"/>
</svg>
