<svg width="15" height="17" viewBox="0 0 15 17" fill="none" xmlns="http://www.w3.org/2000/svg">
<path d="M9.5 13.25V12.125H11.375V9.125H6.5V8H12.5V13.25H9.5ZM6.5 15.5V14H13.25V5.75H9.5V2H4.25V7.25H2.75V2C2.75 1.5875 2.89688 1.23438 3.19063 0.94063C3.48438 0.64687 3.8375 0.5 4.25 0.5H10.25L14.75 5V14C14.75 14.4125 14.6031 14.7656 14.3094 15.0594C14.0156 15.3531 13.6625 15.5 13.25 15.5H6.5ZM4.625 16.25C4.625 15.1 4.225 14.125 3.425 13.325C2.625 12.525 1.65 12.125 0.5 12.125C1.65 12.125 2.625 11.725 3.425 10.925C4.225 10.125 4.625 9.15 4.625 8C4.625 9.15 5.025 10.125 5.825 10.925C6.625 11.725 7.6 12.125 8.75 12.125C7.6 12.125 6.625 12.525 5.825 13.325C5.025 14.125 4.625 15.1 4.625 16.25Z" fill="#444746"/>
</svg>
