<svg width="14" height="14" viewBox="0 0 14 14" fill="none" xmlns="http://www.w3.org/2000/svg">
<path d="M2 11H6V9.5H2V11ZM5 7.75H9V6.25H5V7.75ZM8 4.5H12V3H8V4.5ZM1.5 14C1.08333 14 0.729333 13.854 0.438 13.562C0.146 13.2707 0 12.9167 0 12.5V1.5C0 1.08333 0.146 0.729333 0.438 0.438C0.729333 0.146 1.08333 0 1.5 0H12.5C12.9167 0 13.2707 0.146 13.562 0.438C13.854 0.729333 14 1.08333 14 1.5V12.5C14 12.9167 13.854 13.2707 13.562 13.562C13.2707 13.854 12.9167 14 12.5 14H1.5ZM1.5 12.5H12.5V1.5H1.5V12.5Z" fill="#444746"/>
</svg>
