<svg width="14" height="14" viewBox="0 0 14 14" fill="none" xmlns="http://www.w3.org/2000/svg">
<path d="M0 4.99997V8.99997H3L7 13V0.999969L3 4.99997H0ZM5.5 4.61997V9.37997L3.62 7.49997H1.5V6.49997H3.62L5.5 4.61997ZM10.5 6.99997C10.5 5.60997 9.68 4.40997 8.5 3.84997V10.15C9.68 9.58997 10.5 8.38997 10.5 6.99997Z" fill="#444746"/>
<path d="M8.5 0.169983V1.71998C10.8 2.37998 12.5 4.48998 12.5 7.00998C12.5 9.52998 10.8 11.64 8.5 12.3V13.85C11.64 13.15 14 10.35 14 6.99998C14 3.64998 11.64 0.849983 8.5 0.169983Z" fill="#444746"/>
</svg>
