<svg width="22" height="15" viewBox="0 0 22 15" fill="none" xmlns="http://www.w3.org/2000/svg">
<path d="M6.25 4.5C6.25 5.4665 5.4665 6.25 4.5 6.25C3.5335 6.25 2.75 5.4665 2.75 4.5C2.75 3.5335 3.5335 2.75 4.5 2.75C5.4665 2.75 6.25 3.5335 6.25 4.5ZM13.5 9L16 11.5L18.5 9H13.5Z" fill="#444746"/>
<path fill-rule="evenodd" clip-rule="evenodd" d="M0 4.5C0 2.01472 2.01472 0 4.5 0H12.5C14.9853 0 17 2.01472 17 4.5C17 5.026 16.9098 5.5308 16.7439 6H17.5C19.9853 6 22 8.0147 22 10.5C22 12.9853 19.9853 15 17.5 15H9.5C7.01472 15 5 12.9853 5 10.5C5 9.974 5.09023 9.4692 5.25606 9H4.5C2.01472 9 0 6.9853 0 4.5ZM6.67133 7C7.4442 6.3746 8.42835 6 9.5 6H14.5002C14.814 5.5822 15 5.0628 15 4.5C15 3.11929 13.8807 2 12.5 2H4.5C3.11929 2 2 3.11929 2 4.5C2 5.8807 3.11929 7 4.5 7H6.67133ZM9.5 8C8.11929 8 7 9.1193 7 10.5C7 11.8807 8.11929 13 9.5 13H17.5C18.8807 13 20 11.8807 20 10.5C20 9.1193 18.8807 8 17.5 8H9.5Z" fill="#444746"/>
</svg>
