<svg width="16" height="16" viewBox="0 0 16 16" fill="none" xmlns="http://www.w3.org/2000/svg">
<path fill-rule="evenodd" clip-rule="evenodd" d="M10.75 15.9999H1.5575C0.728745 15.9999 0.999355 15.9999 0.999355 15.9999C0.44148 15.9999 0 15.5491 0 14.993V3.00672C0 2.44983 0.445473 1.99915 0.994991 1.99825C0.994991 1.99825 1.92481 1.99673 2.38726 1.99597L5.00058 1.9917C5.00058 1.9917 5 -0.00830078 7 -0.00830078C9 -0.00830078 9.03943 1.9917 9 1.99988H13.0002C13.5563 1.99988 14 2.44498 14 2.99404C14 2.99404 14 2.66295 14 3.4917V4.99988H12V3.99988H11V4.99988H3V3.99988H2V13.9999H9V15.9999H10.75ZM6 1.99988H8V2.99988H6V1.99988ZM14 5.99988H12C10.895 5.99988 10 6.89488 10 7.99988V15.9999H12V13.9999H14V15.9999H16V7.99988C16 6.89488 15.105 5.99988 14 5.99988ZM12 11.9999H14V7.99988H12V11.9999Z" fill="#444746"/>
</svg>
