<svg width="32" height="32" viewBox="0 0 32 32" fill="none" xmlns="http://www.w3.org/2000/svg">
<path d="M16 32C16 29.7867 15.58 27.7067 14.74 25.76C13.9 23.8133 12.76 22.12 11.32 20.68C9.88 19.24 8.1867 18.1 6.24 17.26C4.29333 16.42 2.21333 16 0 16C2.21333 16 4.29333 15.58 6.24 14.74C8.1867 13.9 9.88 12.76 11.32 11.32C12.76 9.88 13.9 8.1867 14.74 6.24C15.58 4.29333 16 2.21333 16 0C16 2.21333 16.42 4.29333 17.26 6.24C18.1 8.1867 19.24 9.88 20.68 11.32C22.12 12.76 23.8133 13.9 25.76 14.74C27.7067 15.58 29.7867 16 32 16C29.7867 16 27.7067 16.42 25.76 17.26C23.8133 18.1 22.12 19.24 20.68 20.68C19.24 22.12 18.1 23.8133 17.26 25.76C16.42 27.7067 16 29.7867 16 32Z" fill="#0B57D0"/>
</svg>
