<svg width="16" height="15" viewBox="0 0 16 15" fill="none" xmlns="http://www.w3.org/2000/svg">
<path d="M7.64047 6.63994L2.00047 12.2799V14.9999H4.72047L10.3605 9.35994L7.64047 6.63994ZM4.10047 13.4999H3.50047V12.8999L7.64047 8.75994L8.24047 9.35994L4.10047 13.4999ZM15.7105 2.59994L14.4005 1.28994C14.0105 0.899941 13.3805 0.899941 12.9905 1.28994L8.70047 5.57994L11.4205 8.29994L15.7005 4.01994C16.1005 3.62994 16.1005 2.98994 15.7105 2.59994ZM9.06047 2.55994L8.66047 1.49994L9.06047 0.439941L8.00047 0.839941L6.94047 0.439941L7.34047 1.49994L6.94047 2.55994L8.00047 2.15994L9.06047 2.55994ZM0.730469 6.76994L2.49047 6.10994L4.27047 6.76994L3.60047 4.99994L4.27047 3.22994L2.50047 3.89994L0.730469 3.22994L1.39047 5.00994L0.730469 6.76994Z" fill="#444746"/>
</svg>
