<svg width="18" height="16" viewBox="0 0 18 16" fill="none" xmlns="http://www.w3.org/2000/svg">
<path d="M4 0H13.5V10L7.5 16L6.83333 15.5417C6.59722 15.375 6.41667 15.1667 6.29167 14.9167C6.16667 14.6528 6.13194 14.3819 6.1875 14.1042L6.20833 14L7 10H1.5C1.08333 10 0.72917 9.8542 0.4375 9.5625C0.14583 9.2708 0 8.9167 0 8.5V7.3125C0 7.2014 0.00693992 7.1042 0.0208299 7.0208C0.0486099 6.9236 0.08333 6.8264 0.125 6.7292L2.60417 0.91667C2.71528 0.63889 2.89583 0.41667 3.14583 0.25C3.40972 0.08333 3.69444 0 4 0ZM12 1.5H4L1.5 7.3125V8.5H8.8333L7.8125 13.5625L12 9.375V1.5ZM13.5 10V8.5H16.5V1.5H13.5V0H18V10H13.5Z" fill="#444746"/>
</svg>
