<svg width="24" height="24" viewBox="0 0 24 24" fill="none" xmlns="http://www.w3.org/2000/svg">
<mask id="mask0_148_16116" style="mask-type:luminance" maskUnits="userSpaceOnUse" x="0" y="0" width="24" height="24">
<path d="M0 0H24V24H0V0Z" fill="white"/>
</mask>
<g mask="url(#mask0_148_16116)">
<g opacity="0.75">
<path d="M17 19H7.5V9L13.5 3L14.1667 3.45833C14.4028 3.625 14.5833 3.84028 14.7083 4.10417C14.8333 4.35417 14.8681 4.61805 14.8125 4.89583L14.7917 5L14 9H19.5C19.9167 9 20.2708 9.14583 20.5625 9.4375C20.8542 9.72917 21 10.0833 21 10.5V11.6875C21 11.7986 20.9861 11.9028 20.9583 12C20.9444 12.0833 20.9167 12.1736 20.875 12.2708L18.3958 18.0833C18.2708 18.3611 18.0833 18.5833 17.8333 18.75C17.5833 18.9167 17.3056 19 17 19ZM9 17.5H17L19.5 11.6875V10.5H12.1667L13.1875 5.4375L9 9.625V17.5ZM7.5 9V10.5H4.5V17.5H7.5V19H3V9H7.5Z" fill="white"/>
</g>
</g>
</svg>
