<svg width="18" height="16" viewBox="0 0 18 16" fill="none" xmlns="http://www.w3.org/2000/svg">
<path d="M14 16H4.5V6L10.5 0L11.1667 0.45833C11.4028 0.625 11.5833 0.83681 11.7083 1.09375C11.8333 1.35069 11.8681 1.61806 11.8125 1.89583L11.7917 2L11 6H16.5C16.9167 6 17.2708 6.14583 17.5625 6.4375C17.8542 6.72917 18 7.08333 18 7.5V8.6875C18 8.7986 17.9896 8.8993 17.9688 8.9896C17.9479 9.0799 17.9167 9.1736 17.875 9.2708L15.3944 15.0875C15.2703 15.3625 15.0833 15.5833 14.8333 15.75C14.5833 15.9167 14.3056 16 14 16ZM6 14.5H14L16.5 8.6875V7.5H9.1667L10.1875 2.4375L6 6.625V14.5ZM4.5 6V7.5H1.5V14.5H4.5V16H0V6H4.5Z" fill="#747775"/>
</svg>
