<svg width="16" height="14" viewBox="0 0 16 14" fill="none" xmlns="http://www.w3.org/2000/svg">
<path d="M1.5 14C1.1 14 0.7 13.9 0.4 13.6C0.1 13.3 0 12.9 0 12.5V1.5C0 1.1 0.1 0.7 0.4 0.4C0.7 0.1 1.1 0 1.5 0H14.5C14.9 0 15.3 0.1 15.6 0.4C15.9 0.7 16 1.1 16 1.5V12.5C16 12.9 15.9 13.3 15.6 13.6C15.3 13.9 15 14 14.5 14H1.5ZM1.5 12.2H3V10.7H1.5V12.2ZM13 12.2H14.5V10.7H13V12.2ZM1.5 9.2H3V7.7H1.5V9.2ZM13 9.2H14.5V7.7H13V9.2ZM1.5 6.2H3V4.7H1.5V6.2ZM13 6.2H14.5V4.7H13V6.2ZM1.5 3.2H3V1.7H1.5V3.2ZM13 3.2H14.5V1.7H13V3.2ZM4.5 12.2H11.5V1.7H4.5V12.2Z" fill="#444746"/>
</svg>
