<svg width="24" height="24" viewBox="0 0 24 24" fill="none" xmlns="http://www.w3.org/2000/svg">
<path d="M14.39 11L16 12.61V11H14.39ZM17 6.99999H13V8.99999H17C18.71 8.99999 20 10.39 20 11.95C20 13.22 19.23 14.32 18.13 14.9L19.53 16.3C21.05 15.36 22 13.79 22 12C22 9.23999 19.76 6.99999 17 6.99999ZM2 4.26999L5.1 7.36999C3.29 8.11999 2 9.90999 2 12C2 14.76 4.24 17 7 17H11V15H7C5.29 15 4 13.61 4 12.015C4 10.415 5.21 9.11499 6.76 9.01499L8.73 11H8V13H10.73L13 15.27V17H14.73L18.74 21.01L20.15 19.6L3.41 2.85999L2 4.26999Z" fill="#444746"/>
</svg>
