<svg width="18" height="18" viewBox="0 0 18 18" fill="none" xmlns="http://www.w3.org/2000/svg">
<path fill-rule="evenodd" clip-rule="evenodd" d="M2 0H16C17.105 0 18 0.895 18 2V7.18945L13.5 5.09558L12.0742 5.75899L13.2 4H11.2L9.48381 6.96433L8.72154 7.31902L6.8 4H4.8L7.5 8.21875V9.78125L4.8 14H6.8L7.57154 12.6673C7.84983 14.7554 8.92425 16.7138 10.5174 18H2C0.895 18 0 17.105 0 16V2C0 0.895 0.895 0 2 0Z" fill="#34A853"/>
<path d="M13.5 6.75L18 8.84387V11.5954C18 14.5004 16.0801 17.2098 13.5 17.8713C10.9199 17.2098 9 14.5004 9 11.5954V8.84387L13.5 6.75ZM13.5 8.00924L10.1002 9.59116V11.5954C10.1002 13.8902 11.5614 16.033 13.5 16.6769C15.4386 16.033 16.8998 13.8902 16.8998 11.5954V9.59116L13.5 8.00924ZM13.5 10.2014C14.1213 10.2014 14.625 10.6784 14.625 11.2667C14.625 11.6664 14.3925 12.0147 14.0485 12.197L14.436 14.0363H12.636L13.0179 12.2295C12.6378 12.0585 12.375 11.6917 12.375 11.2667C12.375 10.6784 12.8787 10.2014 13.5 10.2014Z" fill="#444746"/>
</svg>
