<svg width="14" height="17" viewBox="0 0 14 17" fill="none" xmlns="http://www.w3.org/2000/svg">
<path d="M5.14583 9.3542L5.85417 7.0625L4 5.60417H6.27083L7 3.35417L7.7292 5.60417H10L8.1458 7.0625L8.8542 9.3542L7 7.9375L5.14583 9.3542ZM2.47917 17V11.1667C1.88194 10.6528 1.40278 9.9653 1.04167 9.1042C0.68056 8.2431 0.5 7.375 0.5 6.5C0.5 4.69444 1.13194 3.15972 2.39583 1.89583C3.65972 0.63194 5.19444 0 7 0C8.8056 0 10.3403 0.63194 11.6042 1.89583C12.8681 3.15972 13.5 4.69444 13.5 6.5C13.5 7.38889 13.3333 8.2604 13 9.1146C12.6667 9.9688 12.1667 10.6597 11.5 11.1875V17L7 16L2.47917 17ZM7 11.5C8.3889 11.5 9.5694 11.0139 10.5417 10.0417C11.5139 9.0694 12 7.88889 12 6.5C12 5.11111 11.5139 3.93056 10.5417 2.95833C9.5694 1.98611 8.3889 1.5 7 1.5C5.61111 1.5 4.43056 1.98611 3.45833 2.95833C2.48611 3.93056 2 5.11111 2 6.5C2 7.88889 2.48611 9.0694 3.45833 10.0417C4.43056 11.0139 5.61111 11.5 7 11.5ZM3.97917 15.125L7 14.4583L10 15.125V12.25C9.5417 12.5 9.059 12.6875 8.5521 12.8125C8.0451 12.9375 7.5278 13 7 13C6.47222 13 5.95139 12.941 5.4375 12.8229C4.92361 12.7049 4.4375 12.5139 3.97917 12.25V15.125Z" fill="#444746"/>
</svg>
