<svg width="16" height="16" viewBox="0 0 16 16" fill="none" xmlns="http://www.w3.org/2000/svg">
<path d="M8 16C6.90278 16 5.86806 15.7917 4.89583 15.375C3.92361 14.9583 3.07292 14.3854 2.34375 13.6563C1.61458 12.9271 1.04167 12.0764 0.625 11.1042C0.20833 10.1319 0 9.0972 0 8C0 6.88889 0.20833 5.85069 0.625 4.88542C1.04167 3.92014 1.61458 3.07292 2.34375 2.34375C3.07292 1.61458 3.92361 1.04167 4.89583 0.625C5.86806 0.20833 6.90278 0 8 0C8.875 0 9.7083 0.13194 10.5 0.39583C11.2917 0.65972 12.0208 1.03472 12.6875 1.52083L11.6042 2.60417C11.0903 2.24306 10.5278 1.96875 9.9167 1.78125C9.3056 1.59375 8.6667 1.5 8 1.5C6.19444 1.5 4.65972 2.13194 3.39583 3.39583C2.13194 4.65972 1.5 6.19444 1.5 8C1.5 9.8056 2.13194 11.3403 3.39583 12.6042C4.65972 13.8681 6.19444 14.5 8 14.5C9.8056 14.5 11.3403 13.8681 12.6042 12.6042C13.8681 11.3403 14.5 9.8056 14.5 8C14.5 7.70833 14.4792 7.42014 14.4375 7.13542C14.3958 6.85069 14.3403 6.56944 14.2708 6.29167L15.4583 5.10417C15.6389 5.54861 15.7743 6.01389 15.8646 6.5C15.9549 6.98611 16 7.48611 16 8C16 9.0972 15.7917 10.1319 15.375 11.1042C14.9583 12.0764 14.3854 12.9271 13.6563 13.6563C12.9271 14.3854 12.0799 14.9583 11.1146 15.375C10.1493 15.7917 9.1111 16 8 16ZM6.85417 11.6042L3.5 8.25L4.58333 7.16667L6.875 9.4583L14.9375 1.39583L16 2.45833L6.85417 11.6042Z" fill="#0B57D0"/>
</svg>
