<svg width="16" height="16" viewBox="0 0 16 16" fill="none" xmlns="http://www.w3.org/2000/svg">
<path d="M13.375 4.5L12.79 3.21L11.5 2.625L12.79 2.04L13.375 0.75L13.96 2.04L15.25 2.625L13.96 3.21L13.375 4.5ZM9.99998 9L9.05998 6.94L6.99998 6L9.05998 5.06L9.99998 3L10.94 5.06L13 6L10.94 6.94L9.99998 9ZM4.75 5.25H3.25V6.75H4.75V5.25ZM3.25 8.25007H4.75V9.75007H3.25V8.25007ZM4.75 11.25H3.25V12.75H4.75V11.25Z" fill="#1A73E8"/>
<path d="M1.75 2.25H7.75V3.75H1.75V14.25H12.25V8.25H13.75V14.25C13.75 15.0785 13.0784 15.75 12.25 15.75H1.75C0.921573 15.75 0.25 15.0785 0.25 14.25V3.75C0.25 2.92158 0.921573 2.25 1.75 2.25Z" fill="#1A73E8"/>
</svg>
