<svg width="14" height="14" viewBox="0 0 14 14" fill="none" xmlns="http://www.w3.org/2000/svg">
<path d="M12.938 14L7.958 9C7.54133 9.31933 7.083 9.566 6.583 9.74C6.083 9.91333 5.55533 10 5 10C3.61133 10 2.43067 9.514 1.458 8.542C0.486 7.56933 0 6.38867 0 5C0 3.61133 0.486 2.43067 1.458 1.458C2.43067 0.486 3.61133 0 5 0C6.38867 0 7.56933 0.486 8.542 1.458C9.514 2.43067 10 3.61133 10 5C10 5.55533 9.91333 6.083 9.74 6.583C9.566 7.083 9.32633 7.54133 9.021 7.958L14 12.938L12.938 14ZM5 8.5C5.972 8.5 6.79833 8.15967 7.479 7.479C8.15967 6.79833 8.5 5.972 8.5 5C8.5 4.028 8.15967 3.20167 7.479 2.521C6.79833 1.84033 5.972 1.5 5 1.5C4.028 1.5 3.20167 1.84033 2.521 2.521C1.84033 3.20167 1.5 4.028 1.5 5C1.5 5.972 1.84033 6.79833 2.521 7.479C3.20167 8.15967 4.028 8.5 5 8.5ZM4.25 7.25V5.75H2.75V4.25H4.25V2.75H5.75V4.25H7.25V5.75H5.75V7.25H4.25Z" fill="#444746"/>
</svg>
