<svg width="14" height="13" viewBox="0 0 14 13" fill="none" xmlns="http://www.w3.org/2000/svg">
<path fill-rule="evenodd" clip-rule="evenodd" d="M3.18191 13H12.7274C13.0774 13 13.3743 12.8813 13.6183 12.644C13.8728 12.3964 14.0001 12.1024 14.0001 11.7619V3.09522C14.0001 2.75474 13.8728 2.46585 13.6183 2.22855C13.3743 1.98093 13.0774 1.85712 12.7274 1.85712H3.18029H5.091V3.09522H12.7274V4.95236H1.90918V11.7619C1.90918 12.1024 2.03115 12.3964 2.27509 12.644C2.52964 12.8813 2.83191 13 3.18191 13ZM3.18191 11.7619V6.19046H5.091V11.7619H3.18191ZM10.8183 11.7619V6.19046H12.7274V11.7619H10.8183ZM6.36373 6.19046H9.54559V11.7619H6.36373V6.19046Z" fill="#444746"/>
<path d="M2.22727 4.33333L1.50769 2.86667L0 2.16667L1.50769 1.46667L2.22727 0L2.94685 1.46667L4.45455 2.16667L2.94685 2.86667L2.22727 4.33333Z" fill="#444746"/>
</svg>
