<svg width="20" height="15" viewBox="0 0 20 15" fill="none" xmlns="http://www.w3.org/2000/svg">
<path d="M10 4C4.48 4 0 7.58 0 12V13C0 14.1 0.9 15 2 15H18C19.1 15 20 14.1 20 13V12C20 7.58 15.52 4 10 4ZM6 13H2V12C2 9.4 4.22 7.18 7.3 6.35C6.5 8 6 10.37 6 13ZM8 13C8 8.71 9.41 6.3 10 6C10.59 6.3 12 8.71 12 13H8ZM18 13H14C14 10.37 13.5 8 12.7 6.35C15.78 7.18 18 9.4 18 12V13ZM19 2C19 2.83 18.33 3.5 17.5 3.5C16.67 3.5 12 2.83 12 2C12 1.17 16.67 0.5 17.5 0.5C18.33 0.5 19 1.17 19 2ZM2.5 0.5C3.33 0.5 8 1.17 8 2C8 2.83 3.33 3.5 2.5 3.5C1.67 3.5 1 2.83 1 2C1 1.17 1.67 0.5 2.5 0.5ZM11 2C11 2.55 10.55 3 10 3C9.45 3 9 2.55 9 2C9 1.45 9.45 1 10 1C10.55 1 11 1.45 11 2Z" fill="#444746"/>
</svg>
