<svg width="16" height="16" viewBox="0 0 16 16" fill="none" xmlns="http://www.w3.org/2000/svg">
<path d="M14.3355 15.4575L11.5455 12.6675C10.8555 13.0725 10.083 13.35 9.25797 13.455V11.94C9.67797 11.8725 10.068 11.73 10.4355 11.55L4.45047 5.57248C4.16547 6.15748 4.00047 6.80998 4.00047 7.49998C4.00047 9.16498 4.90797 10.6125 6.25047 11.3925V8.99998H7.75047V13.5H3.25047V12H4.55547C3.30297 10.905 2.50047 9.29998 2.50047 7.49998C2.50047 6.38998 2.80797 5.35498 3.34047 4.46248L0.542969 1.66498L1.60047 0.607483L15.3855 14.3925L14.3355 15.4575ZM10.7505 3.60748C12.093 4.38748 13.0005 5.83498 13.0005 7.49998C13.0005 8.18998 12.828 8.84248 12.5505 9.42748L13.668 10.545C14.193 9.65248 14.5005 8.60998 14.5005 7.49998C14.5005 5.69998 13.698 4.09498 12.4455 2.99998H13.7505V1.49998H9.25047V5.99998H10.7505V3.60748ZM7.75047 3.06748V1.55248C6.91797 1.65748 6.14547 1.93498 5.46297 2.33998L6.58047 3.45748C6.94797 3.27748 7.33797 3.13498 7.75047 3.06748Z" fill="#444746"/>
</svg>
