<svg width="18" height="18" viewBox="0 0 18 18" fill="none" xmlns="http://www.w3.org/2000/svg">
<path d="M3.99957 3H8.99957V4H3.99957V3ZM3.99957 5V6H5.99957V9H6.98957V6H8.99957V5H3.99957ZM10.9928 16.1499L15.992 11.1508L16.692 11.8508L11.6929 16.85L10.9928 16.1499ZM12.7096 12.71C13.0996 12.32 13.0996 11.69 12.7096 11.3C12.3196 10.91 11.6896 10.91 11.2996 11.3C10.9096 11.69 10.9096 12.32 11.2996 12.71C11.6796 13.1 12.3196 13.1 12.7096 12.71ZM16.7096 15.29C16.3196 14.9 15.6896 14.9 15.2996 15.29C14.9096 15.68 14.9096 16.31 15.2996 16.7C15.6896 17.09 16.3196 17.09 16.7096 16.7C17.0996 16.32 17.0996 15.68 16.7096 15.29ZM12.4996 9C13.3296 9 13.9996 8.33 13.9996 7.5V4H15.9996V3H12.9996V6.09C12.8396 6.04 12.6796 6 12.4996 6C11.6696 6 10.9996 6.67 10.9996 7.5C10.9996 8.33 11.6696 9 12.4996 9ZM8.03957 12.67L6.62957 14.08L5.91957 13.37L6.26957 13.02C6.85957 12.43 6.85957 11.48 6.26957 10.9C5.97957 10.61 5.58957 10.46 5.20957 10.46C4.82957 10.46 4.43957 10.61 4.14957 10.9C3.55957 11.49 3.55957 12.44 4.14957 13.02L4.49957 13.37L3.43957 14.43C2.84957 15.02 2.84957 15.97 3.43957 16.55C3.72957 16.85 4.11957 17 4.49957 17C4.87957 17 5.26957 16.85 5.55957 16.56L6.61957 15.5L8.02957 16.91L8.73957 16.2L7.32957 14.79L8.73957 13.38L8.03957 12.67ZM4.84957 12.32C4.71957 12.19 4.69957 12.04 4.69957 11.97C4.69957 11.89 4.71957 11.74 4.84957 11.62C4.97957 11.49 5.12957 11.47 5.19957 11.47C5.27957 11.47 5.42957 11.49 5.54957 11.62C5.66957 11.75 5.69957 11.9 5.69957 11.97C5.69957 12.05 5.67957 12.2 5.54957 12.32L5.19957 12.67L4.84957 12.32ZM4.84957 15.85C4.72957 15.98 4.57957 16 4.49957 16C4.41957 16 4.26957 15.98 4.14957 15.85C4.01957 15.73 3.99957 15.58 3.99957 15.5C3.99957 15.42 4.01957 15.27 4.14957 15.15L5.20957 14.09L5.91957 14.8L4.84957 15.85Z" fill="#444746"/>
</svg>
