<svg width="15" height="18" viewBox="0 0 15 18" fill="none" xmlns="http://www.w3.org/2000/svg">
<path d="M13.5 15H4.5C4.09722 15 3.74306 14.8542 3.4375 14.5625C3.14583 14.2569 3 13.9028 3 13.5V1.5C3 1.09722 3.14583 0.75 3.4375 0.45833C3.74306 0.15278 4.09722 0 4.5 0H11L15 4V13.5C15 13.9028 14.8472 14.2569 14.5417 14.5625C14.25 14.8542 13.9028 15 13.5 15ZM10 5V1.5H4.5V13.5H13.5V5H10ZM1.5 18C1.09722 18 0.74306 17.8542 0.4375 17.5625C0.14583 17.2569 0 16.9028 0 16.5V5H1.5V16.5H11V18H1.5Z" fill="#444746"/>
</svg>
