<svg width="16" height="12" viewBox="0 0 16 12" fill="none" xmlns="http://www.w3.org/2000/svg">
<path d="M2.14779 11.3981C1.78779 11.3994 1.47279 11.2654 1.20279 10.9961C1.07512 10.8741 0.973637 10.7274 0.904522 10.5649C0.835407 10.4025 0.800113 10.2276 0.800791 10.0511V1.94905C0.800791 1.57972 0.934791 1.26205 1.20279 0.996051C1.47346 0.734051 1.78846 0.602717 2.14779 0.602051H6.19979L7.99979 2.39805H13.8518C14.2218 2.39805 14.5388 2.53505 14.8048 2.79705C15.0668 3.06238 15.1981 3.38005 15.1988 3.75005V10.0501C15.1981 10.4127 15.0668 10.7281 14.8048 10.9961C14.5395 11.2647 14.2218 11.3987 13.8518 11.3981H2.14779ZM2.14779 10.0511H13.8518V3.75005H7.43779L5.63679 1.95005H2.14779V10.0511Z" fill="#444746"/>
</svg>
