<svg width="18" height="12" viewBox="0 0 18 12" fill="none" xmlns="http://www.w3.org/2000/svg">
<path d="M9.00039 9.14997C9.87539 9.14997 10.6192 8.84368 11.2317 8.23118C11.8442 7.61868 12.1504 6.87498 12.1504 5.99998C12.1504 5.12498 11.8442 4.38123 11.2317 3.76873C10.6192 3.15623 9.87539 2.84998 9.00039 2.84998C8.12539 2.84998 7.38164 3.15623 6.76914 3.76873C6.15664 4.38123 5.85039 5.12498 5.85039 5.99998C5.85039 6.87498 6.15664 7.61868 6.76914 8.23118C7.38164 8.84368 8.12539 9.14997 9.00039 9.14997ZM9.00039 7.79998C8.50039 7.79998 8.07539 7.62498 7.72539 7.27498C7.37539 6.92498 7.20039 6.49998 7.20039 5.99998C7.20039 5.49998 7.37539 5.07498 7.72539 4.72498C8.07539 4.37498 8.50039 4.19998 9.00039 4.19998C9.50039 4.19998 9.92539 4.37498 10.2754 4.72498C10.6254 5.07498 10.8004 5.49998 10.8004 5.99998C10.8004 6.49998 10.6254 6.92498 10.2754 7.27498C9.92539 7.62498 9.50039 7.79998 9.00039 7.79998ZM9.00039 11.4C7.21289 11.4 5.58789 10.9125 4.12539 9.93748C2.66289 8.94998 1.58789 7.63748 0.900391 5.99998C1.58789 4.36248 2.66289 3.05623 4.12539 2.08123C5.58789 1.09373 7.21289 0.599976 9.00039 0.599976C10.7879 0.599976 12.4129 1.09373 13.8754 2.08123C15.3379 3.05623 16.4129 4.36248 17.1004 5.99998C16.4129 7.63748 15.3379 8.94998 13.8754 9.93748C12.4129 10.9125 10.7879 11.4 9.00039 11.4ZM9.00039 10.05C10.4004 10.05 11.6942 9.68747 12.8817 8.96247C14.0692 8.23747 14.9817 7.24998 15.6192 5.99998C14.9817 4.74998 14.0692 3.76248 12.8817 3.03748C11.6942 2.31248 10.4004 1.94998 9.00039 1.94998C7.60039 1.94998 6.30664 2.31248 5.11914 3.03748C3.93164 3.76248 3.01914 4.74998 2.38164 5.99998C3.01914 7.24998 3.93164 8.23747 5.11914 8.96247C6.30664 9.68747 7.60039 10.05 9.00039 10.05Z" fill="#444746"/>
</svg>
