<svg width="16" height="16" viewBox="0 0 16 16" fill="none" xmlns="http://www.w3.org/2000/svg">
<path d="M14.1601 11.09C12.7601 10.73 11.5101 11.55 11.1201 12.75C9.81011 12.75 8.74011 11.69 8.74011 10.37V5.63002C8.74011 3.49002 7.00011 1.75002 4.86011 1.75002C4.49011 0.540024 3.23011 -0.269976 1.84011 0.0900244C1.00011 0.300024 0.310106 0.990024 0.0901055 1.83002C-0.349894 3.50002 0.900105 5.00002 2.50011 5.00002C3.62011 5.00002 4.55011 4.26002 4.87011 3.25002C6.18011 3.25002 7.25011 4.31002 7.25011 5.63002V10.38C7.25011 12.52 8.99011 14.26 11.1301 14.26C11.4501 15.26 12.3801 16 13.5001 16C15.1001 16 16.3501 14.5 15.9101 12.83C15.6901 11.99 15.0001 11.3 14.1601 11.09Z" fill="#444746"/>
</svg>
