<svg width="15" height="9" viewBox="0 0 15 9" fill="none" xmlns="http://www.w3.org/2000/svg">
<path d="M3.33333 1.66667V0H15V1.66667H3.33333ZM3.33333 5V3.33333H15V5H3.33333ZM3.33333 8.3333V6.6667H15V8.3333H3.33333ZM0.83333 1.66667C0.59722 1.66667 0.39931 1.58681 0.23958 1.42708C0.0798599 1.26736 0 1.06944 0 0.83333C0 0.59722 0.0798599 0.39931 0.23958 0.23958C0.39931 0.0798602 0.59722 0 0.83333 0C1.06944 0 1.26736 0.0798602 1.42708 0.23958C1.58681 0.39931 1.66667 0.59722 1.66667 0.83333C1.66667 1.06944 1.58681 1.26736 1.42708 1.42708C1.26736 1.58681 1.06944 1.66667 0.83333 1.66667ZM0.83333 5C0.59722 5 0.39931 4.9201 0.23958 4.7604C0.0798599 4.6007 0 4.4028 0 4.1667C0 3.93056 0.0798599 3.73264 0.23958 3.57292C0.39931 3.41319 0.59722 3.33333 0.83333 3.33333C1.06944 3.33333 1.26736 3.41319 1.42708 3.57292C1.58681 3.73264 1.66667 3.93056 1.66667 4.1667C1.66667 4.4028 1.58681 4.6007 1.42708 4.7604C1.26736 4.9201 1.06944 5 0.83333 5ZM0.83333 8.3333C0.59722 8.3333 0.39931 8.2535 0.23958 8.0937C0.0798599 7.934 0 7.7361 0 7.5C0 7.2639 0.0798599 7.066 0.23958 6.9062C0.39931 6.7465 0.59722 6.6667 0.83333 6.6667C1.06944 6.6667 1.26736 6.7465 1.42708 6.9062C1.58681 7.066 1.66667 7.2639 1.66667 7.5C1.66667 7.7361 1.58681 7.934 1.42708 8.0937C1.26736 8.2535 1.06944 8.3333 0.83333 8.3333Z" fill="#444746"/>
</svg>
