<svg width="16" height="16" viewBox="0 0 16 16" fill="none" xmlns="http://www.w3.org/2000/svg">
<path d="M2.75 6.5H7.25V11H8.75V6.5H13.25V11H14.75V5H1.25V11H2.75V6.5Z" fill="#444746"/>
<path d="M8 4C9.10457 4 10 3.10457 10 2C10 0.89543 9.10457 0 8 0C6.89543 0 6 0.89543 6 2C6 3.10457 6.89543 4 8 4Z" fill="#444746"/>
<path d="M2 16C3.10457 16 4 15.1046 4 14C4 12.8954 3.10457 12 2 12C0.89543 12 0 12.8954 0 14C0 15.1046 0.89543 16 2 16Z" fill="#444746"/>
<path d="M14 16C15.1046 16 16 15.1046 16 14C16 12.8954 15.1046 12 14 12C12.8954 12 12 12.8954 12 14C12 15.1046 12.8954 16 14 16Z" fill="#444746"/>
<path d="M8 16C9.10457 16 10 15.1046 10 14C10 12.8954 9.10457 12 8 12C6.89543 12 6 12.8954 6 14C6 15.1046 6.89543 16 8 16Z" fill="#444746"/>
</svg>
