<svg width="16" height="12" viewBox="0 0 16 12" fill="none" xmlns="http://www.w3.org/2000/svg">
<path d="M13.8498 11.4H9.3498C9.3498 11.175 9.3378 10.95 9.3128 10.725C9.30017 10.4988 9.27513 10.2734 9.2378 10.05H13.8498V1.94998H2.1498V2.96298C1.92635 2.92565 1.70101 2.90061 1.4748 2.88798C1.25068 2.86286 1.02533 2.85017 0.799805 2.84998V1.94998C0.799805 1.57498 0.930805 1.25598 1.1938 0.993976C1.4558 0.730976 1.7748 0.599976 2.1498 0.599976H13.8498C14.2248 0.599976 14.5438 0.730976 14.8058 0.993976C15.0688 1.25598 15.1998 1.57498 15.1998 1.94998V10.05C15.1998 10.425 15.0688 10.744 14.8058 11.006C14.6818 11.1335 14.533 11.2342 14.3686 11.3019C14.2042 11.3697 14.0276 11.4031 13.8498 11.4ZM0.799805 11.4V9.59998C1.2998 9.59998 1.7248 9.77498 2.0748 10.125C2.4248 10.475 2.5998 10.9 2.5998 11.4H0.799805ZM3.9498 11.4C3.9498 10.525 3.6438 9.78098 3.0308 9.16898C2.74142 8.87154 2.39416 8.63655 2.01045 8.47849C1.62675 8.32043 1.21473 8.24266 0.799805 8.24998V6.89998C2.0498 6.89998 3.1128 7.33798 3.9878 8.21298C4.8618 9.08798 5.2998 10.15 5.2998 11.4H3.9498ZM6.64981 11.4C6.64981 10.587 6.49381 9.83098 6.18081 9.13098C5.89135 8.43407 5.46414 7.80278 4.9248 7.27498C4.397 6.73564 3.76571 6.30843 3.0688 6.01898C2.35434 5.70333 1.58086 5.54345 0.799805 5.54998V4.19998C1.7998 4.19998 2.7308 4.38798 3.5938 4.76298C4.45076 5.12618 5.22761 5.65495 5.8798 6.31898C6.54396 6.97145 7.07274 7.74865 7.4358 8.60598C7.81537 9.48817 8.00744 10.4396 7.9998 11.4H6.64981Z" fill="#444746"/>
</svg>
