<svg width="21" height="21" viewBox="0 0 21 21" fill="none" xmlns="http://www.w3.org/2000/svg">
<path d="M3.125 20.6992L0.300781 17.875C0.101562 17.6758 0 17.4414 0 17.1758C0 16.9102 0.101562 16.6758 0.300781 16.4766L9.375 7.375C9.95703 6.79297 10.668 6.5 11.5 6.5C12.332 6.5 13.043 6.79297 13.625 7.375C14.207 7.95703 14.5 8.66797 14.5 9.5C14.5 10.332 14.207 11.043 13.625 11.625L4.52344 20.6992C4.32422 20.8984 4.08984 21 3.82422 21C3.55859 21 3.32422 20.8984 3.125 20.6992ZM16.5 9.02344C16.5 7.77344 16.0586 6.70703 15.1758 5.82422C14.293 4.94141 13.2266 4.5 11.9766 4.5C13.2266 4.5 14.293 4.0625 15.1758 3.1875C16.0586 2.3125 16.5 1.25 16.5 0C16.5 1.25 16.9375 2.3125 17.8125 3.1875C18.6875 4.0625 19.75 4.5 21 4.5C19.75 4.5 18.6875 4.94141 17.8125 5.82422C16.9375 6.70703 16.5 7.77344 16.5 9.02344ZM10.1016 12.3242L9.73828 11.9766L9.375 11.625L10.1016 12.3242ZM3.82422 18.6016L10.1016 12.3242L8.67578 10.9258L2.42578 17.1758L3.82422 18.6016Z" fill="#444746"/>
</svg>
