<svg width="18" height="18" viewBox="0 0 18 18" fill="none" xmlns="http://www.w3.org/2000/svg">
<path d="M11.7424 1.71423C9.65187 1.71423 7.84672 2.90223 6.94415 4.63023C5.95672 5.14709 5.13901 5.95709 4.62987 6.94452C2.90187 7.84709 1.71387 9.65223 1.71387 11.7428C1.71387 14.7282 4.12844 17.1428 7.11387 17.1428C9.20444 17.1428 11.0096 15.9548 11.9122 14.2268C12.8996 13.7099 13.7173 12.8999 14.2264 11.9125C15.9544 11.0099 17.1424 9.2048 17.1424 7.11423C17.1424 4.1288 14.7279 1.71423 11.7424 1.71423ZM7.11387 15.5999C4.98472 15.5999 3.25672 13.8719 3.25672 11.7428C3.25672 10.8788 3.54215 10.0765 4.02815 9.42852C4.02815 12.4139 6.44272 14.8285 9.42815 14.8285C8.78015 15.3145 7.97787 15.5999 7.11387 15.5999ZM9.42815 13.2857C7.29901 13.2857 5.57101 11.5577 5.57101 9.42852C5.57101 8.56452 5.85644 7.76223 6.34244 7.11423C6.34244 10.0919 8.75701 12.5065 11.7424 12.5142C11.0944 13.0002 10.2922 13.2857 9.42815 13.2857ZM11.7366 10.9965C9.60082 10.9965 7.86945 9.26512 7.86945 7.12937C7.86945 4.99362 9.60082 3.26226 11.7366 3.26226C13.8723 3.26226 15.6037 4.99362 15.6037 7.12937C15.6037 9.26512 13.8723 10.9965 11.7366 10.9965Z" fill="#444746"/>
</svg>
