<svg width="24" height="24" viewBox="0 0 24 24" fill="none" xmlns="http://www.w3.org/2000/svg">
<path d="M12 24C12 22.34 11.685 20.78 11.055 19.32C10.425 17.86 9.57 16.59 8.49 15.51C7.41 14.43 6.14 13.575 4.68 12.945C3.22 12.315 1.66 12 0 12C1.66 12 3.22 11.685 4.68 11.055C6.14 10.425 7.41 9.57 8.49 8.49C9.57 7.41 10.425 6.14 11.055 4.68C11.685 3.22 12 1.66 12 0C12 1.66 12.315 3.22 12.945 4.68C13.575 6.14 14.43 7.41 15.51 8.49C16.59 9.57 17.86 10.425 19.32 11.055C20.78 11.685 22.34 12 24 12C22.34 12 20.78 12.315 19.32 12.945C17.86 13.575 16.59 14.43 15.51 15.51C14.43 16.59 13.575 17.86 12.945 19.32C12.315 20.78 12 22.34 12 24Z" fill="#444746"/>
</svg>
