<svg width="12" height="16" viewBox="0 0 12 16" fill="none" xmlns="http://www.w3.org/2000/svg">
<path d="M6.0044 10C6.4181 10 6.7708 9.8527 7.0625 9.5581C7.3542 9.2635 7.5 8.9094 7.5 8.4956C7.5 8.0819 7.3527 7.72917 7.0581 7.4375C6.7635 7.14583 6.4094 7 5.99563 7C5.58188 7 5.22917 7.14729 4.9375 7.44188C4.64583 7.73646 4.5 8.0906 4.5 8.5044C4.5 8.9181 4.64729 9.2708 4.94187 9.5625C5.23646 9.8542 5.59062 10 6.0044 10ZM3 13H9V12.3125C9 12.0069 8.9167 11.7326 8.75 11.4896C8.5833 11.2465 8.3611 11.0625 8.0833 10.9375C7.7639 10.7847 7.4271 10.6736 7.0729 10.6042C6.7188 10.5347 6.3611 10.5 6 10.5C5.63889 10.5 5.28125 10.5347 4.92708 10.6042C4.57292 10.6736 4.23611 10.7847 3.91667 10.9375C3.63889 11.0625 3.41667 11.2465 3.25 11.4896C3.08333 11.7326 3 12.0069 3 12.3125V13ZM10.4992 16H1.49417C1.08139 16 0.72917 15.8531 0.4375 15.5594C0.14583 15.2656 0 14.9125 0 14.5V1.5C0 1.0875 0.14687 0.73438 0.44062 0.44063C0.73437 0.14688 1.0875 0 1.5 0H8L12 4V14.5C12 14.9125 11.8531 15.2656 11.5592 15.5594C11.2653 15.8531 10.9119 16 10.4992 16ZM10.5 14.5V4.625L7.375 1.5H1.5V14.5H10.5Z" fill="#444746"/>
</svg>
