<svg width="17" height="17" viewBox="0 0 17 17" fill="none" xmlns="http://www.w3.org/2000/svg">
<path d="M10.3333 7.20833C10.3889 7.09722 10.4306 6.98611 10.4583 6.875C10.4861 6.75 10.5 6.625 10.5 6.5C10.5 6.08333 10.3542 5.72917 10.0625 5.4375C9.7708 5.14583 9.4167 5 9 5C8.875 5 8.75 5.02083 8.625 5.0625C8.51389 5.09028 8.40278 5.13194 8.29167 5.1875L10.3333 7.20833ZM14.5 11.3958L13.375 10.25C13.5833 9.7639 13.7361 9.2708 13.8333 8.7708C13.9444 8.2569 14 7.75694 14 7.27083V3.54167L9 1.625L5.91667 2.79167L4.75 1.64583L9 0L15.5 2.5V7.27083C15.5 7.96528 15.4167 8.6597 15.25 9.3542C15.0833 10.0347 14.8333 10.7153 14.5 11.3958ZM15.0208 16.1458L12.75 13.875C12.25 14.375 11.6806 14.8056 11.0417 15.1667C10.4167 15.5278 9.7361 15.8056 9 16C7.09722 15.5139 5.53472 14.4514 4.3125 12.8125C3.10417 11.1736 2.5 9.3264 2.5 7.27083V3.625L0.875 2L1.9375 0.9375L16.0833 15.0833L15.0208 16.1458ZM9 14.4375C9.5278 14.2569 10.0139 14.0278 10.4583 13.75C10.9167 13.4722 11.3194 13.1528 11.6667 12.7917L9.375 10.5H7.79167L8.02083 9.1458L4 5.125V7.27083C4 8.8819 4.45139 10.3542 5.35417 11.6875C6.27083 13.0069 7.48611 13.9236 9 14.4375Z" fill="#444746"/>
</svg>
