<svg width="16" height="12" viewBox="0 0 16 12" fill="none" xmlns="http://www.w3.org/2000/svg">
<path d="M10.05 8C10.49 8.97 9.87 10.28 8.16 10.28C6.29 10.28 5.75 8.35 5.69 8.13L3.99 8.82C4.92 12.09 8.05 12 8.13 12C10.33 12 11.29 10.69 11.43 10.5C11.78 10.04 12.11 9.03 11.96 8H10.05ZM8.69 5C8 4.76 7.21 4.51 6.69 4.09C5.7 3.3 6.24 1.68 8.06 1.68C9.41 1.68 9.9 2.7 10.02 3.06L11.64 2.37C11.62 2.31 10.92 0 8.03 0C7.22 0 5.73 0.24 4.87 1.57C4.32 2.43 4.13 3.95 5.08 5H0V6.5H16V5H8.69Z" fill="#444746"/>
</svg>
