<svg width="16" height="8" viewBox="0 0 16 8" fill="none" xmlns="http://www.w3.org/2000/svg">
<path d="M7 8H4C2.88867 8 1.94433 7.611 1.167 6.833C0.389 6.05567 0 5.11133 0 4C0 2.88867 0.389 1.94433 1.167 1.167C1.94433 0.389 2.88867 0 4 0H7V1.5H4C3.30533 1.5 2.715 1.743 2.229 2.229C1.743 2.715 1.5 3.30533 1.5 4C1.5 4.69467 1.743 5.285 2.229 5.771C2.715 6.257 3.30533 6.5 4 6.5H7V8ZM5 4.75V3.25H11V4.75H5ZM9 8V6.5H12C12.6947 6.5 13.285 6.257 13.771 5.771C14.257 5.285 14.5 4.69467 14.5 4C14.5 3.30533 14.257 2.715 13.771 2.229C13.285 1.743 12.6947 1.5 12 1.5H9V0H12C13.1113 0 14.0557 0.389 14.833 1.167C15.611 1.94433 16 2.88867 16 4C16 5.11133 15.611 6.05567 14.833 6.833C14.0557 7.611 13.1113 8 12 8H9Z" fill="#444746"/>
</svg>
