<svg width="18" height="18" viewBox="0 0 18 18" fill="none" xmlns="http://www.w3.org/2000/svg">
<path d="M13.8182 12.355C13.9082 12.352 14.0002 12.385 14.0682 12.453L16.9022 15.286C16.9648 15.3496 16.9999 15.4353 16.9999 15.5245C16.9999 15.6138 16.9648 15.6994 16.9022 15.763L15.7642 16.901C15.7008 16.9644 15.6149 17 15.5252 17C15.4356 17 15.3496 16.9644 15.2862 16.901L12.4532 14.069C12.4206 14.0363 12.3951 13.9972 12.3782 13.9542C12.3614 13.9112 12.3536 13.8652 12.3552 13.819C10.9139 14.8908 9.12032 15.3775 7.3349 15.1812C5.54948 14.9849 3.90448 14.1202 2.73041 12.7609C1.55633 11.4016 0.940173 9.64827 1.00572 7.85329C1.07126 6.05831 1.81366 4.35463 3.08374 3.08454C4.35383 1.81445 6.05751 1.07205 7.85249 1.00651C9.64747 0.940966 11.4008 1.55713 12.7601 2.7312C14.1194 3.90528 14.9841 5.55027 15.1804 7.33569C15.3767 9.12111 14.89 10.9147 13.8182 12.356V12.355ZM8.11122 13.445C9.52576 13.445 10.8824 12.8831 11.8826 11.8829C12.8828 10.8826 13.4447 9.52605 13.4447 8.11152C13.4447 6.69698 12.8828 5.34039 11.8826 4.34016C10.8824 3.33994 9.52576 2.77802 8.11122 2.77802C6.69682 2.77802 5.34036 3.33989 4.34022 4.34002C3.34009 5.34015 2.77822 6.69662 2.77822 8.11102C2.77822 9.52542 3.34009 10.8819 4.34022 11.882C5.34036 12.8821 6.69682 13.445 8.11122 13.445ZM4.55622 8.11002H6.33322V11.463C5.60022 11.134 4.98822 10.676 4.55622 10.131V8.11102V8.11002ZM7.22222 6.33202H9.00022V11.614C8.72322 11.645 8.44022 11.666 8.15022 11.666C7.83322 11.666 7.52422 11.643 7.22222 11.606V6.33302V6.33202ZM9.89522 9.00002H11.6732V10.068C11.2532 10.611 10.6392 11.068 9.89522 11.4V9.00002Z" fill="#444746"/>
</svg>
