<svg width="14" height="14" viewBox="0 0 14 14" fill="none" xmlns="http://www.w3.org/2000/svg">
<path fill-rule="evenodd" clip-rule="evenodd" d="M1.87988 7.25C2.84638 7.25 3.62988 6.4665 3.62988 5.5C3.62988 4.5335 2.84638 3.75 1.87988 3.75C0.913384 3.75 0.129883 4.5335 0.129883 5.5C0.129883 6.4665 0.913384 7.25 1.87988 7.25ZM4.74988 4.25C5.71638 4.25 6.49988 3.4665 6.49988 2.5C6.49988 1.5335 5.71638 0.75 4.74988 0.75C3.78338 0.75 2.99988 1.5335 2.99988 2.5C2.99988 3.4665 3.78338 4.25 4.74988 4.25ZM8.99988 4.25C9.96638 4.25 10.7499 3.4665 10.7499 2.5C10.7499 1.5335 9.96638 0.75 8.99988 0.75C8.03338 0.75 7.24988 1.5335 7.24988 2.5C7.24988 3.4665 8.03338 4.25 8.99988 4.25ZM12.1199 7.25C13.0864 7.25 13.8699 6.4665 13.8699 5.5C13.8699 4.5335 13.0864 3.75 12.1199 3.75C11.1534 3.75 10.3699 4.5335 10.3699 5.5C10.3699 6.4665 11.1534 7.25 12.1199 7.25ZM8.88988 6.3C8.53988 5.9 8.16988 5.54 7.62988 5.36C7.38988 5.28 6.79988 5.25 6.79988 5.25C6.54988 5.25 6.29988 5.29 6.05988 5.36C5.51988 5.54 5.18988 5.9 4.83988 6.3C4.27988 6.95 3.77988 7.64 3.17988 8.25C2.25988 9.19 1.14988 10.13 1.42988 11.54C1.58988 12.34 2.12988 12.96 2.96988 13.22C3.43988 13.36 5.02988 12.92 6.80988 12.92C8.58988 12.92 10.3399 13.37 10.8099 13.22C11.6499 12.96 12.1799 12.34 12.3399 11.54C12.6199 10.13 11.4999 9.19 10.5799 8.25C9.96988 7.64 9.44988 6.95 8.88988 6.3Z" fill="#444746"/>
</svg>
