<svg width="19" height="17" viewBox="0 0 19 17" fill="none" xmlns="http://www.w3.org/2000/svg">
<path d="M2.33329 16.6673C1.87496 16.6673 1.3116 16.5092 0.98521 16.1828C0.65882 15.8564 0.5 15.4583 0.5 15V5C0.5 4.54167 0.57497 4.23572 0.90135 3.90933C1.22774 3.58294 1.87496 3.5 2.33329 3.5H8V5.00065L2 5V15.0007L16 15V10L17.5 10.0007V15C17.5 15.4583 17.3008 15.835 16.9744 16.1614C16.648 16.4877 16.125 16.6673 15.6666 16.6673H2.33329ZM13.5833 10.0007C13.5833 8.72287 13.1388 7.63954 12.25 6.75065C11.3611 5.86176 10.2777 5.41732 8.99996 5.41732C10.2777 5.41732 11.3611 4.97287 12.25 4.08398C13.1388 3.1951 13.5833 2.11176 13.5833 0.833984C13.5833 2.11176 14.0277 3.1951 14.9166 4.08398C15.8055 4.97287 16.8888 5.41732 18.1666 5.41732C16.8888 5.41732 15.8055 5.86176 14.9166 6.75065C14.0277 7.63954 13.5833 8.72287 13.5833 10.0007Z" fill="#444746"/>
</svg>
