<svg width="12" height="16" viewBox="0 0 12 16" fill="none" xmlns="http://www.w3.org/2000/svg">
<path d="M7 0H1.5C0.67 0 0 0.67 0 1.5V14.5C0 15.33 0.67 16 1.5 16H10.5C11.33 16 12 15.33 12 14.5V5L7 0Z" fill="#7248B9"/>
<path d="M12 5H7V0L12 5Z" fill="#56368A"/>
<path d="M4 8H10V9H4V8ZM4 12H10V13H4V12ZM4 10H10V11H4V10Z" fill="white"/>
<path d="M2.5 9C2.77614 9 3 8.77614 3 8.5C3 8.22386 2.77614 8 2.5 8C2.22386 8 2 8.22386 2 8.5C2 8.77614 2.22386 9 2.5 9Z" fill="white"/>
<path d="M2.5 11C2.77614 11 3 10.7761 3 10.5C3 10.2239 2.77614 10 2.5 10C2.22386 10 2 10.2239 2 10.5C2 10.7761 2.22386 11 2.5 11Z" fill="white"/>
<path d="M2.5 13C2.77614 13 3 12.7761 3 12.5C3 12.2239 2.77614 12 2.5 12C2.22386 12 2 12.2239 2 12.5C2 12.7761 2.22386 13 2.5 13Z" fill="white"/>
</svg>
