<svg width="7" height="7" viewBox="0 0 7 7" fill="none" xmlns="http://www.w3.org/2000/svg">
<path d="M3.5 7C2.52292 7 1.69531 6.66094 1.01719 5.98281C0.339062 5.30469 0 4.47708 0 3.5C0 2.52292 0.339062 1.69531 1.01719 1.01719C1.69531 0.339062 2.52292 0 3.5 0C4.00313 0 4.48437 0.103906 4.94375 0.311719C5.40312 0.519531 5.67969 0.746094 6 1.20312V0H7V3H4V2H5.5875C5.44922 1.70312 5.25934 1.49548 4.85547 1.20312C4.47707 0.929209 3.97396 0.875 3.5 0.875C2.77083 0.875 2.15104 1.13021 1.64062 1.64062C1.13021 2.15104 1 2.77083 1 3.5C1 4.22917 1.13021 4.84896 1.64062 5.35938C2.15104 5.86979 2.77083 6.125 3.5 6.125C4.06146 6.125 4.56823 5.96458 5.02031 5.64375C5.4724 5.32292 5.81771 4.9 6 4.375H7C6.79583 5.14792 6.27083 5.77865 5.64375 6.26719C5.01667 6.75573 4.30208 7 3.5 7Z" fill="white"/>
</svg>
