<svg width="16" height="16" viewBox="0 0 16 16" fill="none" xmlns="http://www.w3.org/2000/svg">
<path d="M16 5.5C16 2.46 13.54 0 10.5 0C8.34 0 6.47 1.25 5.57 3.07C4.49 3.61 3.61 4.49 3.07 5.57C1.25 6.47 0 8.34 0 10.5C0 13.54 2.46 16 5.5 16C7.66 16 9.53 14.75 10.43 12.93C11.51 12.39 12.39 11.51 12.93 10.43C14.75 9.53 16 7.66 16 5.5ZM8 12C5.79 12 4 10.21 4 8C4 6.99 4.39 6.08 5.01 5.37C5.01 5.42 5 5.46 5 5.5C5 8.54 7.46 11 10.5 11C10.54 11 10.58 10.99 10.63 10.99C9.92 11.61 9.01 12 8 12ZM10.5 9.5C8.29 9.5 6.5 7.71 6.5 5.5C6.5 3.29 8.29 1.5 10.5 1.5C12.71 1.5 14.5 3.29 14.5 5.5C14.5 7.71 12.71 9.5 10.5 9.5ZM5.5 14.5C3.29 14.5 1.5 12.71 1.5 10.5C1.5 9.49 1.89 8.58 2.51 7.87C2.51 7.92 2.5 7.96 2.5 8C2.5 11.04 4.96 13.5 8 13.5C8.04 13.5 8.08 13.49 8.13 13.49C7.42 14.11 6.51 14.5 5.5 14.5Z" fill="#444746"/>
</svg>
