<svg width="14" height="16" viewBox="0 0 14 16" fill="none" xmlns="http://www.w3.org/2000/svg">
<path d="M3 16L0 13L3 10L4.062 11.062L2.875 12.25H14V13.75H2.875L4.062 14.938L3 16ZM5 10V6C4.16667 6 3.45833 5.70833 2.875 5.125C2.29167 4.54167 2 3.83333 2 3C2 2.16667 2.29167 1.45833 2.875 0.875C3.45833 0.291667 4.16667 0 5 0H11V1.5H9.5V10H8V1.5H6.5V10H5ZM5 4.5V1.5C4.58333 1.5 4.22933 1.646 3.938 1.938C3.646 2.22933 3.5 2.58333 3.5 3C3.5 3.41667 3.646 3.77067 3.938 4.062C4.22933 4.354 4.58333 4.5 5 4.5Z" fill="#444746"/>
</svg>
