<svg width="18" height="18" viewBox="0 0 18 18" fill="none" xmlns="http://www.w3.org/2000/svg">
<path d="M8.991 0C4.023 0 0 4.032 0 9C0 13.968 4.023 18 8.991 18C13.968 18 18 13.968 18 9C18 4.032 13.968 0 8.991 0ZM9 16.5C4.85625 16.5 1.5 13.1438 1.5 9C1.5 4.85625 4.85625 1.5 9 1.5C13.1438 1.5 16.5 4.85625 16.5 9C16.5 13.1438 13.1438 16.5 9 16.5Z" fill="#444746"/>
<path d="M4.99967 12H12.9997V14H4.99967V12ZM7.58301 8.62596L5.99967 6.74998L4.83301 7.91665L7.58301 10.9988L12.5571 5.57048L11.3904 4.40381L7.58301 8.62596Z" fill="#444746"/>
</svg>
