<svg width="14" height="14" viewBox="0 0 14 14" fill="none" xmlns="http://www.w3.org/2000/svg">
<path fill-rule="evenodd" clip-rule="evenodd" d="M12.3621 12C13.3843 10.7832 14 9.21352 14 7.5C14 3.63401 10.866 0.5 7 0.5C3.13401 0.5 0 3.63401 0 7.5C0 9.21352 0.615679 10.7832 1.63789 12H0V14H4.00019C4.55628 14 5 13.5523 5 13V12H4.75L4.76344 11.9731C3.12486 11.1522 2 9.45748 2 7.5C2 4.73858 4.23858 2.5 7 2.5C9.76142 2.5 12 4.73858 12 7.5C12 9.45748 10.8751 11.1522 9.23656 11.9731L9.25 12H9V13C9 13.5561 9.44763 14 9.99981 14H14V12H12.3621Z" fill="#444746"/>
</svg>
