<svg width="20" height="20" viewBox="0 0 20 20" fill="none" xmlns="http://www.w3.org/2000/svg">
<path d="M7 20C5.06641 20 3.41797 19.3164 2.05078 17.9492C0.683594 16.582 0 14.9336 0 13C0 11.0664 0.683594 9.41797 2.05078 8.05078C3.41797 6.68359 5.06641 6 7 6C8.93359 6 10.582 6.68359 11.9492 8.05078C13.3164 9.41797 14 11.0664 14 13C14 14.9336 13.3164 16.582 11.9492 17.9492C10.582 19.3164 8.93359 20 7 20ZM7 18C8.38281 18 9.5625 17.5117 10.5391 16.5391C11.5117 15.5625 12 14.3828 12 13C12 11.6172 11.5117 10.4375 10.5391 9.46094C9.5625 8.48828 8.38281 8 7 8C5.61719 8 4.4375 8.48828 3.46094 9.46094C2.48828 10.4375 2 11.6172 2 13C2 14.3828 2.48828 15.5625 3.46094 16.5391C4.4375 17.5117 5.61719 18 7 18ZM14.9492 13.6992C14.9844 13.6016 15 13.4922 15 13.375V13C15 10.7852 14.2227 8.89453 12.6641 7.33594C11.1055 5.77734 9.21484 5 7 5H6.625C6.50781 5 6.39844 5.01562 6.30078 5.05078C6.73438 3.58203 7.55469 2.375 8.76172 1.42578C9.97266 0.476562 11.3828 0 13 0C14.9336 0 16.582 0.683594 17.9492 2.05078C19.3164 3.41797 20 5.06641 20 7C20 8.61719 19.5234 10.0273 18.5742 11.2383C17.625 12.4453 16.418 13.2656 14.9492 13.6992Z" fill="#444746"/>
</svg>
