<svg width="20" height="16" viewBox="0 0 20 16" fill="none" xmlns="http://www.w3.org/2000/svg">
<path fill-rule="evenodd" clip-rule="evenodd" d="M11 6H9V0H15V2H13.2916C14.9525 3.46589 16 5.61061 16 8C16 9.1896 15.7403 10.3186 15.2746 11.3333H12.9896C13.6278 10.3799 14 9.2334 14 8C14 5.77915 12.7934 3.84012 11 2.80269V6ZM5 10H7V16H1V14H2.70835C1.04751 12.5341 0 10.3894 0 8C0 3.92038 3.05369 0.55399 7 0.0618901V2.08296C4.16229 2.55904 2 5.027 2 8C2 10.2208 3.2066 12.1599 5 13.1973V10ZM10 16C10.7364 16 11.3333 15.403 11.3333 14.6667C11.3333 13.9303 10.7364 13.3333 10 13.3333C9.2636 13.3333 8.6667 13.9303 8.6667 14.6667C8.6667 15.403 9.2636 16 10 16ZM14 16C14.7364 16 15.3333 15.403 15.3333 14.6667C15.3333 13.9303 14.7364 13.3333 14 13.3333C13.2636 13.3333 12.6667 13.9303 12.6667 14.6667C12.6667 15.403 13.2636 16 14 16ZM19.3333 14.6667C19.3333 15.403 18.7364 16 18 16C17.2636 16 16.6667 15.403 16.6667 14.6667C16.6667 13.9303 17.2636 13.3333 18 13.3333C18.7364 13.3333 19.3333 13.9303 19.3333 14.6667Z" fill="#444746"/>
</svg>
