<svg width="26" height="36" viewBox="0 0 26 36" fill="none" xmlns="http://www.w3.org/2000/svg">
<path d="M5 13H25V33H5V13Z" fill="white"/>
<path fill-rule="evenodd" clip-rule="evenodd" d="M2.76289 35.1004H23.2379C24.5432 35.1004 25.6004 34.0569 25.6004 32.7686V9.45039L17.0504 0.900391H2.76289C1.45761 0.900391 0.400391 1.94388 0.400391 3.23221V32.7686C0.400391 34.0569 1.45761 35.1004 2.76289 35.1004ZM14.0129 14.4004H21.1004V26.1004H4.90039V14.4004H14.0129ZM12.1004 16.2004H6.7004V19.3504H12.1004V16.2004ZM6.7004 21.1504V24.3004H12.1004V21.1504H6.7004ZM13.9004 24.3004H19.3004V21.1504H13.9004V24.3004ZM13.9004 19.3504H19.3004V16.2004H13.9004V19.3504Z" fill="#00AC47"/>
<path d="M17.0508 0.900391L25.6008 9.45039H17.0508V0.900391Z" fill="#00832D"/>
</svg>
