<svg width="17" height="17" viewBox="0 0 17 17" fill="none" xmlns="http://www.w3.org/2000/svg">
<path d="M5.75 10.25H4.25V5.75H5.75V10.25ZM8 3.5H6.5V10.25H8V3.5ZM10.25 7.25H8.75V10.25H10.25V7.25ZM7.25 0.875C3.72656 0.875 0.875 3.72656 0.875 7.25C0.875 10.7734 3.72656 13.625 7.25 13.625C10.7734 13.625 13.625 10.7734 13.625 7.25C13.625 3.72656 10.7734 0.875 7.25 0.875ZM7.25 12.125C4.55078 12.125 2.375 9.94922 2.375 7.25C2.375 4.55078 4.55078 2.375 7.25 2.375C9.94922 2.375 12.125 4.55078 12.125 7.25C12.125 9.94922 9.94922 12.125 7.25 12.125ZM16.5508 14.8984L14.9766 16.4766L11.75 13.3242L13.3242 11.75L16.5508 14.8984ZM11.75 11.75C11.6016 11.8984 11.4492 11.9766 11.375 12.125L11.75 13.3242L13.3242 11.75L12.125 11.375L11.75 11.75Z" fill="#444746"/>
</svg>
