<svg width="24" height="24" viewBox="0 0 24 24" fill="none" xmlns="http://www.w3.org/2000/svg">
<path d="M18 17V11C18 7.93 16.37 5.36 13.5 4.68V4C13.5 3.17 12.83 2.5 12 2.5C11.17 2.5 10.5 3.17 10.5 4V4.68C7.64 5.36 6 7.92 6 11V17H4V19H20V17H18ZM16 17H8V11C8 8.52 9.51 6.5 12 6.5C14.49 6.5 16 8.52 16 11V17ZM10 20H14C14 21.1 13.1 22 12 22C10.9 22 10 21.1 10 20ZM22 11H20C20 8.26 18.77 5.81 16.84 4.16L18.25 2.75C20.54 4.77 22 7.71 22 11ZM5.75 2.75L7.16 4.16C5.23 5.81 4 8.26 4 11H2C2 7.71 3.46 4.77 5.75 2.75Z" fill="#444746"/>
</svg>
