<svg width="16" height="12" viewBox="0 0 16 12" fill="none" xmlns="http://www.w3.org/2000/svg">
<path d="M3.00011 8.99998H9.25011V6.74998H3.00011V8.99998ZM10.5001 8.99998H13.0001V2.99998H10.5001V8.99998ZM3.00011 5.24998H9.25011V2.99998H3.00011V5.24998ZM1.50011 12C1.08677 12 0.733773 11.853 0.441106 11.559C0.299435 11.4217 0.187254 11.257 0.111426 11.0749C0.035599 10.8929 -0.00228024 10.6972 0.000106133 10.5V1.49598C0.000106133 1.08265 0.147106 0.729649 0.441106 0.436982C0.57833 0.295558 0.743121 0.183804 0.925278 0.108636C1.10743 0.0334688 1.30308 -0.0035123 1.50011 -1.76627e-05H14.5001C14.9134 -1.76627e-05 15.2664 0.146982 15.5591 0.440982C15.8521 0.733982 16.0001 1.08998 16.0001 1.49998V10.504C16.0001 10.9173 15.8531 11.2703 15.5591 11.563C15.4219 11.7044 15.2571 11.8162 15.0749 11.8913C14.8928 11.9665 14.6971 12.0035 14.5001 12H1.50011ZM1.50011 10.5H14.5001V1.49998H1.50011V10.5Z" fill="#444746"/>
</svg>
