<svg width="14" height="14" viewBox="0 0 14 14" fill="none" xmlns="http://www.w3.org/2000/svg">
<path d="M1.5 14C1.08594 14 0.734375 13.8516 0.441406 13.5586C0.148438 13.2656 0 12.9141 0 12.5V8H1.5V12.5H6V14H1.5ZM8 14V12.5H12.5V8H14V12.5C14 12.9141 13.8516 13.2656 13.5586 13.5586C13.2656 13.8516 12.9141 14 12.5 14H8ZM2.5 11L4.75 8L6.25 10L8.5 7L11.5 11H2.5ZM0 6V1.5C0 1.08594 0.148438 0.734375 0.441406 0.441406C0.734375 0.148438 1.08594 0 1.5 0H6V1.5H1.5V6H0ZM12.5 6V1.5H8V0H12.5C12.9141 0 13.2656 0.148438 13.5586 0.441406C13.8516 0.734375 14 1.08594 14 1.5V6H12.5ZM10 5C9.72266 5 9.48437 4.90234 9.29297 4.70703C9.09766 4.51562 9 4.27734 9 4C9 3.72266 9.09766 3.48438 9.29297 3.29297C9.48437 3.09766 9.72266 3 10 3C10.2773 3 10.5156 3.09766 10.707 3.29297C10.9023 3.48438 11 3.72266 11 4C11 4.27734 10.9023 4.51562 10.707 4.70703C10.5156 4.90234 10.2773 5 10 5Z" fill="#444746"/>
</svg>
