<svg width="18" height="20" viewBox="0 0 18 20" fill="none" xmlns="http://www.w3.org/2000/svg">
<path d="M2 20C1.45 20 0.98 19.8 0.59 19.41C0.2 19.02 0 18.55 0 18V13.45L2.75 10.33L4.18 11.76L2.18 14.01H15.83L13.88 11.81L15.31 10.38L18.01 13.45V18C18.01 18.55 17.81 19.02 17.42 19.41C17.03 19.8 16.55 20 16 20H2ZM2 18H16V16H2V18ZM7.62 12.38L4.1 8.85C3.72 8.47 3.53 7.99999 3.54 7.43999C3.55 6.87999 3.74 6.40999 4.13 6.02999L9.03 1.13C9.41 0.749995 9.89 0.549995 10.45 0.529995C11.02 0.509995 11.49 0.699995 11.88 1.08L15.4 4.6C15.78 4.98 15.98 5.45 16 6C16.02 6.55 15.83 7.01999 15.45 7.39999L10.45 12.4C10.07 12.78 9.6 12.97 9.04 12.96C8.48 12.95 8.01 12.76 7.62 12.38ZM14 6.02L10.48 2.5L5.53 7.45L9.05 10.98L14 6.02Z" fill="#444746"/>
</svg>
