<svg width="56" height="56" viewBox="0 0 56 56" fill="none" xmlns="http://www.w3.org/2000/svg">
<path d="M15 8H9V15H15V8Z" fill="#E3E3E3"/>
<path d="M15 19H9V26H15V19Z" fill="#E3E3E3"/>
<path d="M47 8H41V15H47V8Z" fill="#E3E3E3"/>
<path d="M47 19H41V26H47V19Z" fill="#E3E3E3"/>
<path d="M47 30H9V37H47V30Z" fill="#E3E3E3"/>
<path d="M47 41H9V48H47V41Z" fill="#E3E3E3"/>
<path fill-rule="evenodd" clip-rule="evenodd" d="M35.0833 8H20.9167C19.8625 8 19 8.8625 19 9.91667V24.0833C19 25.1375 19.8625 26 20.9167 26H35.0833C36.1375 26 37 25.1375 37 24.0833V17.375V9.91667C37 8.8625 36.1375 8 35.0833 8ZM35.125 9.91667V12.875H28H20.875V9.875L35.125 9.91667ZM25.75 24.125H30.25V14.75H25.75V24.125ZM20.875 14.75H22.75H23.875V24.125H20.875V14.75ZM32.125 14.75V24.125H35.125V14.75H32.125Z" fill="#4C8DF6"/>
</svg>
