<svg width="14" height="12" viewBox="0 0 14 12" fill="none" xmlns="http://www.w3.org/2000/svg">
<path d="M4.5 11V9.5H14V11H4.5ZM4.5 6.75V5.25H14V6.75H4.5ZM4.5 2.5V1H14V2.5H4.5ZM1.49558 11.75C1.08186 11.75 0.72917 11.6027 0.4375 11.3081C0.14583 11.0135 0 10.6593 0 10.2456C0 9.8319 0.14731 9.4792 0.44192 9.1875C0.73654 8.8958 1.09071 8.75 1.50442 8.75C1.91814 8.75 2.27083 8.8973 2.5625 9.1919C2.85417 9.4865 3 9.8407 3 10.2544C3 10.6681 2.85269 11.0208 2.55808 11.3125C2.26346 11.6042 1.90929 11.75 1.49558 11.75ZM1.49558 7.5C1.08186 7.5 0.72917 7.3527 0.4375 7.0581C0.14583 6.7635 0 6.4093 0 5.99558C0 5.58186 0.14731 5.22917 0.44192 4.9375C0.73654 4.64583 1.09071 4.5 1.50442 4.5C1.91814 4.5 2.27083 4.64731 2.5625 4.94192C2.85417 5.23654 3 5.59071 3 6.0044C3 6.4181 2.85269 6.7708 2.55808 7.0625C2.26346 7.3542 1.90929 7.5 1.49558 7.5ZM1.49558 3.25C1.08186 3.25 0.72917 3.1027 0.4375 2.80808C0.14583 2.51346 0 2.15929 0 1.74558C0 1.33186 0.14731 0.97917 0.44192 0.6875C0.73654 0.39583 1.09071 0.25 1.50442 0.25C1.91814 0.25 2.27083 0.39731 2.5625 0.69192C2.85417 0.98654 3 1.34071 3 1.75442C3 2.16814 2.85269 2.52083 2.55808 2.8125C2.26346 3.10417 1.90929 3.25 1.49558 3.25Z" fill="#444746"/>
</svg>
