<svg width="24" height="24" viewBox="0 0 24 24" fill="none" xmlns="http://www.w3.org/2000/svg">
<path d="M14 2H6C5.46957 2 4.96086 2.21071 4.58579 2.58579C4.21071 2.96086 4 3.46957 4 4V20C4 20.5304 4.21071 21.0391 4.58579 21.4142C4.96086 21.7893 5.46957 22 6 22H18C18.5304 22 19.0391 21.7893 19.4142 21.4142C19.7893 21.0391 20 20.5304 20 20V8L14 2ZM18 20H6V4H13V9H18V20Z" fill="#444746"/>
<path d="M7.76953 15C7.83549 16.079 8.3092 17.0926 9.09464 17.8353C9.88009 18.578 10.9185 18.9944 11.9995 19C11.9406 17.9185 11.4691 16.9007 10.6821 16.1565C9.89514 15.4123 8.85266 14.9984 7.76953 15ZM12.9995 11C12.9995 10.7348 12.8942 10.4804 12.7066 10.2929C12.5191 10.1054 12.2647 10 11.9995 10C11.7343 10 11.48 10.1054 11.2924 10.2929C11.1049 10.4804 10.9995 10.7348 10.9995 11V11.27L10.7695 11.14C10.5388 11.0074 10.2648 10.9719 10.0079 11.0413C9.75098 11.1107 9.53214 11.2793 9.39953 11.51C9.26692 11.7407 9.23141 12.0147 9.3008 12.2716C9.37018 12.5286 9.53879 12.7474 9.76953 12.88L9.99953 13L9.76953 13.13C9.53879 13.2626 9.37018 13.4814 9.3008 13.7384C9.23141 13.9953 9.26692 14.2693 9.39953 14.5C9.53214 14.7307 9.75098 14.8993 10.0079 14.9687C10.2648 15.0381 10.5388 15.0026 10.7695 14.87L10.9995 14.74V15C10.9995 15.2652 11.1049 15.5196 11.2924 15.7071C11.48 15.8946 11.7343 16 11.9995 16C12.2647 16 12.5191 15.8946 12.7066 15.7071C12.8942 15.5196 12.9995 15.2652 12.9995 15V14.73L13.2295 14.86C13.4603 14.9926 13.7342 15.0281 13.9912 14.9587C14.2481 14.8893 14.4669 14.7207 14.5995 14.49C14.7321 14.2593 14.7677 13.9853 14.6983 13.7284C14.6289 13.4714 14.4603 13.2526 14.2295 13.12L13.9995 13L14.2295 12.87C14.4603 12.7374 14.6289 12.5186 14.6983 12.2616C14.7677 12.0047 14.7321 11.7307 14.5995 11.5C14.4669 11.2693 14.2481 11.1007 13.9912 11.0313C13.7342 10.9619 13.4603 10.9974 13.2295 11.13L12.9995 11.27V11ZM11.9995 14C11.8017 14 11.6084 13.9414 11.444 13.8315C11.2795 13.7216 11.1513 13.5654 11.0757 13.3827C11 13.2 10.9802 12.9989 11.0187 12.8049C11.0573 12.6109 11.1526 12.4327 11.2924 12.2929C11.4323 12.153 11.6105 12.0578 11.8044 12.0192C11.9984 11.9806 12.1995 12.0004 12.3822 12.0761C12.5649 12.1518 12.7211 12.28 12.831 12.4444C12.9409 12.6089 12.9995 12.8022 12.9995 13C12.9995 13.2652 12.8942 13.5196 12.7066 13.7071C12.5191 13.8946 12.2647 14 11.9995 14ZM11.9995 19C13.0775 18.9939 14.1124 18.5766 14.893 17.8332C15.6736 17.0898 16.1409 16.0764 16.1995 15C15.1216 15.0061 14.0866 15.4234 13.306 16.1668C12.5254 16.9102 12.0581 17.9236 11.9995 19Z" fill="#444746"/>
</svg>
