<svg width="16" height="16" viewBox="0 0 16 16" fill="none" xmlns="http://www.w3.org/2000/svg">
<path d="M10.2 0.5C8 0.5 6.2 2 5.5 4H5.9C9.4 4 12 6.6 12 10.1V10.5C14 9.8 15.5 8 15.5 5.8C15.5 2.9 13.1 0.5 10.2 0.5Z" fill="#444746"/>
<path d="M5.7998 5C2.8998 5 0.549805 7.35 0.549805 10.25C0.549805 13.15 2.8998 15.5 5.7998 15.5C8.6998 15.5 11.0498 13.15 11.0498 10.25C11.0498 7.35 8.6998 5 5.7998 5ZM5.7998 14C3.7298 14 2.0498 12.32 2.0498 10.25C2.0498 8.18 3.7298 6.5 5.7998 6.5C7.8698 6.5 9.5498 8.18 9.5498 10.25C9.5498 12.32 7.8698 14 5.7998 14Z" fill="#444746"/>
</svg>
