<svg width="15" height="12" viewBox="0 0 15 12" fill="none" xmlns="http://www.w3.org/2000/svg">
<path fill-rule="evenodd" clip-rule="evenodd" d="M8.25 4.5H6.75V0H11.25V1.5H9.9687C11.2144 2.59942 12 4.20796 12 6C12 6.89221 11.8053 7.7389 11.456 8.5H9.7422C10.2209 7.785 10.5 6.92507 10.5 6C10.5 4.33437 9.5951 2.88009 8.25 2.10202V4.5ZM3.75 7.5H5.25V12H0.75V10.5H2.03126C0.78563 9.4006 0 7.792 0 6C0 2.94029 2.29027 0.41549 5.25 0.0464201V1.56222C3.12171 1.91928 1.5 3.77025 1.5 6C1.5 7.6656 2.40495 9.1199 3.75 9.898V7.5ZM7.5 12C8.0523 12 8.5 11.5523 8.5 11C8.5 10.4477 8.0523 10 7.5 10C6.94772 10 6.5 10.4477 6.5 11C6.5 11.5523 6.94772 12 7.5 12ZM10.5 12C11.0523 12 11.5 11.5523 11.5 11C11.5 10.4477 11.0523 10 10.5 10C9.9477 10 9.5 10.4477 9.5 11C9.5 11.5523 9.9477 12 10.5 12ZM14.5 11C14.5 11.5523 14.0523 12 13.5 12C12.9477 12 12.5 11.5523 12.5 11C12.5 10.4477 12.9477 10 13.5 10C14.0523 10 14.5 10.4477 14.5 11Z" fill="#444746"/>
</svg>
