<svg width="15" height="14" viewBox="0 0 15 14" fill="none" xmlns="http://www.w3.org/2000/svg">
<path d="M2.50048 1.062L3.56248 0L10.6045 7.042C10.8825 7.31933 11.0178 7.64567 11.0105 8.021C11.0038 8.39567 10.8685 8.715 10.6045 8.979L6.97948 12.604C6.70148 12.882 6.37514 13.021 6.00048 13.021C5.62581 13.021 5.29948 12.882 5.02148 12.604L1.39648 8.958C1.13248 8.694 0.993476 8.37467 0.979476 8C0.965476 7.62533 1.10448 7.299 1.39648 7.021L4.93848 3.5L2.50048 1.062ZM6.00048 4.562L2.56248 8H9.43848L6.00048 4.562ZM13.2505 14C12.7645 14 12.3511 13.83 12.0105 13.49C11.6705 13.1493 11.5005 12.736 11.5005 12.25C11.5005 11.972 11.5735 11.677 11.7195 11.365C11.8655 11.0523 12.0981 10.6737 12.4175 10.229C12.5281 10.0763 12.6565 9.90967 12.8025 9.729C12.9485 9.54833 13.0978 9.368 13.2505 9.188C13.3891 9.368 13.5315 9.545 13.6775 9.719C13.8235 9.89233 13.9588 10.0623 14.0835 10.229C14.3061 10.5483 14.5145 10.8747 14.7085 11.208C14.9031 11.5413 15.0005 11.8887 15.0005 12.25C15.0005 12.736 14.8305 13.1493 14.4905 13.49C14.1498 13.83 13.7365 14 13.2505 14Z" fill="#444746"/>
</svg>
