<svg width="16" height="12" viewBox="0 0 16 12" fill="none" xmlns="http://www.w3.org/2000/svg">
<path d="M0 12V10.0833C0 9.7253 0.0868101 9.3962 0.26042 9.096C0.43403 8.7959 0.67361 8.5556 0.97917 8.375C1.72917 7.9306 2.52431 7.5903 3.36458 7.3542C4.20486 7.1181 5.08333 7 6 7C6.91667 7 7.79514 7.1181 8.6354 7.3542C9.4757 7.5903 10.2708 7.9306 11.0208 8.375C11.3264 8.5556 11.566 8.7959 11.7396 9.096C11.9132 9.3962 12 9.7253 12 10.0833V12H0ZM13.5 12V10.0833C13.5 9.5 13.3646 8.9583 13.0938 8.4583C12.8229 7.9583 12.4583 7.5486 12 7.2292C12.5417 7.3403 13.066 7.4896 13.5729 7.6771C14.0799 7.8646 14.5625 8.0972 15.0208 8.375C15.3264 8.5556 15.566 8.7963 15.7396 9.0973C15.9132 9.3984 16 9.7271 16 10.0833V12H13.5ZM6 6C5.16667 6 4.45833 5.70833 3.875 5.125C3.29167 4.54167 3 3.83333 3 3C3 2.16667 3.29167 1.45833 3.875 0.875C4.45833 0.29167 5.16667 0 6 0C6.83333 0 7.54167 0.29167 8.125 0.875C8.7083 1.45833 9 2.16667 9 3C9 3.83333 8.7083 4.54167 8.125 5.125C7.54167 5.70833 6.83333 6 6 6ZM13 3C13 3.83333 12.7083 4.54167 12.125 5.125C11.5417 5.70833 10.8333 6 10 6C9.8889 6 9.7847 5.99653 9.6875 5.98958C9.5903 5.98264 9.4861 5.96528 9.375 5.9375C9.7222 5.53472 9.9965 5.08681 10.1979 4.59375C10.3993 4.10069 10.5 3.56944 10.5 3C10.5 2.43056 10.3993 1.89931 10.1979 1.40625C9.9965 0.91319 9.7222 0.46528 9.375 0.0625C9.4861 0.03472 9.5903 0.0173598 9.6875 0.0104198C9.7847 0.00346985 9.8889 0 10 0C10.8333 0 11.5417 0.29167 12.125 0.875C12.7083 1.45833 13 2.16667 13 3ZM1.5 10.5H10.5V10.0833C10.5 9.9935 10.479 9.9118 10.4369 9.8383C10.3949 9.7647 10.3396 9.7075 10.2708 9.6667C9.6181 9.2917 8.9306 9.0035 8.2083 8.8021C7.48611 8.6007 6.75 8.5 6 8.5C5.25 8.5 4.51389 8.5972 3.79167 8.7917C3.06944 8.9861 2.38194 9.2778 1.72917 9.6667C1.66042 9.706 1.605 9.7609 1.56292 9.8315C1.52097 9.9022 1.5 9.9855 1.5 10.0815V10.5ZM6.00438 4.5C6.41813 4.5 6.77083 4.35271 7.0625 4.05812C7.35417 3.76354 7.5 3.40937 7.5 2.99562C7.5 2.58187 7.35271 2.22917 7.05813 1.9375C6.76354 1.64583 6.40938 1.5 5.99563 1.5C5.58188 1.5 5.22917 1.64729 4.9375 1.94188C4.64583 2.23646 4.5 2.59063 4.5 3.00438C4.5 3.41813 4.64729 3.77083 4.94187 4.0625C5.23646 4.35417 5.59062 4.5 6.00438 4.5Z" fill="#444746"/>
</svg>
