<svg width="56" height="56" viewBox="0 0 56 56" fill="none" xmlns="http://www.w3.org/2000/svg">
<path d="M47 30H41V37H47V30Z" fill="#E3E3E3"/>
<path d="M47 41H41V48H47V41Z" fill="#E3E3E3"/>
<path d="M47 8H9V15H47V8Z" fill="#E3E3E3"/>
<path d="M47 19H9V26H47V19Z" fill="#E3E3E3"/>
<path d="M15 30H9V37H15V30Z" fill="#E3E3E3"/>
<path d="M15 41H9V48H15V41Z" fill="#E3E3E3"/>
<path fill-rule="evenodd" clip-rule="evenodd" d="M35.0833 30H20.9167C19.8625 30 19 30.8625 19 31.9167V46.0833C19 47.1375 19.8625 48 20.9167 48H35.0833C36.1375 48 37 47.1375 37 46.0833V39.375V31.9167C37 30.8625 36.1375 30 35.0833 30ZM35.125 31.9167V34.875H28H20.875V31.875L35.125 31.9167ZM25.75 46.125H30.25V36.75H25.75V46.125ZM20.875 36.75H22.75H23.875V46.125H20.875V36.75ZM32.125 36.75V46.125H35.125V36.75H32.125Z" fill="#4C8DF6"/>
</svg>
