<svg width="18" height="18" viewBox="0 0 18 18" fill="none" xmlns="http://www.w3.org/2000/svg">
<path fill-rule="evenodd" clip-rule="evenodd" d="M1 16.5V12.2669C1.72879 12.0891 2.45436 12 3 12C4.66364 12 8 12.828 8 14.475V16.5H1ZM9 2H15C16.6569 2 18 3.34315 18 5V6C18 7.65685 16.6569 9 15 9H6V5C6 3.34315 7.34315 2 9 2ZM9 6.5C9.55228 6.5 10 6.05228 10 5.5C10 4.94772 9.55228 4.5 9 4.5C8.44772 4.5 8 4.94772 8 5.5C8 6.05228 8.44772 6.5 9 6.5ZM12 6.5C12.5523 6.5 13 6.05228 13 5.5C13 4.94772 12.5523 4.5 12 4.5C11.4477 4.5 11 4.94772 11 5.5C11 6.05228 11.4477 6.5 12 6.5ZM15 6.5C15.5523 6.5 16 6.05228 16 5.5C16 4.94772 15.5523 4.5 15 4.5C14.4477 4.5 14 4.94772 14 5.5C14 6.05228 14.4477 6.5 15 6.5ZM3.00401 11C4.11022 11 5 10.104 5 9C5 7.896 4.11022 7 3.00401 7C1.8978 7 1 7.896 1 9C1 10.104 1.8978 11 3.00401 11Z" fill="#444746"/>
</svg>
