<svg width="14" height="14" viewBox="0 0 14 14" fill="none" xmlns="http://www.w3.org/2000/svg">
<path d="M7 6C4.95867 6 3.28167 5.71867 1.969 5.156C0.656333 4.59333 0 3.87467 0 3C0 2.18067 0.687333 1.47567 2.062 0.885C3.43733 0.295 5.08333 0 7 0C8.91667 0 10.5627 0.295 11.938 0.885C13.3127 1.47567 14 2.18067 14 3C14 3.87467 13.3437 4.59333 12.031 5.156C10.7183 5.71867 9.04133 6 7 6ZM7 10C5.014 10 3.35067 9.71167 2.01 9.135C0.67 8.559 0 7.84733 0 7V5.042C0 5.44467 0.187333 5.823 0.562 6.177C0.937333 6.531 1.44433 6.84367 2.083 7.115C2.72233 7.38567 3.46533 7.60067 4.312 7.76C5.15933 7.92 6.05533 8 7 8C7.94467 8 8.84067 7.92 9.688 7.76C10.5347 7.60067 11.2777 7.38567 11.917 7.115C12.5557 6.84367 13.0627 6.531 13.438 6.177C13.8127 5.823 14 5.44467 14 5.042V7C14 7.84733 13.33 8.559 11.99 9.135C10.6493 9.71167 8.986 10 7 10ZM7 14C5.05533 14 3.40267 13.698 2.042 13.094C0.680666 12.49 0 11.7573 0 10.896V8.938C0 9.34067 0.191 9.726 0.573 10.094C0.955 10.462 1.469 10.7883 2.115 11.073C2.76033 11.3577 3.50667 11.5833 4.354 11.75C5.20133 11.9167 6.08333 12 7 12C7.91667 12 8.79867 11.9167 9.646 11.75C10.4933 11.5833 11.2397 11.3577 11.885 11.073C12.531 10.7883 13.045 10.462 13.427 10.094C13.809 9.726 14 9.34067 14 8.938V10.896C14 11.7573 13.3193 12.49 11.958 13.094C10.5973 13.698 8.94467 14 7 14Z" fill="#0B57D0"/>
</svg>
