<svg width="14" height="17" viewBox="0 0 14 17" fill="none" xmlns="http://www.w3.org/2000/svg">
<path d="M7 16.25L4.75 14H1.5C1.08594 14 0.792969 13.8516 0.5 13.5586C0.207031 13.2656 0 12.9141 0 12.5V2C0 1.58594 0.207031 1.29297 0.5 1C0.792969 0.707031 1.08594 0.5 1.5 0.5H12.5C12.9141 0.5 13.207 0.707031 13.5 1C13.793 1.29297 14 1.58594 14 2V12.5C14 12.9141 13.793 13.2656 13.5 13.5586C13.207 13.8516 12.9141 14 12.5 14H9.25L7 16.25ZM1.5 12.5H12.5V2H1.5V12.5ZM7 11L8.16406 8.41406L10.75 7.25L8.16406 6.08594L7 3.5L5.83594 6.08594L3.25 7.25L5.83594 8.41406L7 11Z" fill="#444746"/>
</svg>
