<svg width="14" height="14" viewBox="0 0 14 14" fill="none" xmlns="http://www.w3.org/2000/svg">
<path d="M8.3125 8.75H9.625V2.625H7V3.9375H8.3125V8.75ZM3.9375 11.375C3.57656 11.375 3.26758 11.2465 3.01055 10.9895C2.75352 10.7324 2.625 10.4234 2.625 10.0625V1.3125C2.625 0.95156 2.75352 0.64258 3.01055 0.38555C3.26758 0.12852 3.57656 0 3.9375 0H12.6875C13.0484 0 13.3574 0.12852 13.6145 0.38555C13.8715 0.64258 14 0.95156 14 1.3125V10.0625C14 10.4234 13.8715 10.7324 13.6145 10.9895C13.3574 11.2465 13.0484 11.375 12.6875 11.375H3.9375ZM3.9375 10.0625H12.6875V1.3125H3.9375V10.0625ZM1.3125 14C0.95156 14 0.64258 13.8715 0.38555 13.6145C0.12852 13.3574 0 13.0484 0 12.6875V2.625H1.3125V12.6875H11.375V14H1.3125Z" fill="#444746"/>
</svg>
