<svg width="14" height="14" viewBox="0 0 14 14" fill="none" xmlns="http://www.w3.org/2000/svg">
<path d="M1.5 14C1.1 14 0.7 13.9 0.4 13.6C0.1 13.3 0 12.9 0 12.5V8H1.5V12.5H6V14H1.5ZM8 14V12.5H12.5V8H14V12.5C14 12.9 13.9 13.3 13.6 13.6C13.3 13.9 13 14 12.5 14H8ZM0 6V1.5C0 1.1 0.1 0.7 0.4 0.4C0.7 0.1 1.1 0 1.5 0H6V1.5H1.5V6H0ZM12.5 6V1.5H8V0H12.5C12.9 0 13.3 0.1 13.6 0.4C13.9 0.7 14 1.1 14 1.5V6H12.5ZM9.9 5.2C9.6 5.2 9.3 5.1 9.1 4.9C8.9 4.7 8.8 4.4 8.8 4.1C8.8 3.8 8.9 3.5 9.1 3.3C9.3 3.1 9.6 3 9.9 3C10.2 3 10.5 3.1 10.7 3.3C10.9 3.5 11 3.8 11 4.1C11 4.4 10.9 4.7 10.7 4.9C10.5 5.1 10.2 5.2 9.9 5.2ZM8.5 7L6.25 10L4.75 8L2.5 11H11.5L8.5 7Z" fill="#444746"/>
</svg>
