<svg width="14" height="12" viewBox="0 0 14 12" fill="none" xmlns="http://www.w3.org/2000/svg">
<path d="M4.5 1H14V2.5H4.5V1ZM4.5 9.5H14V11H4.5V9.5ZM4.5 5.25H14V6.75H4.5V5.25Z" fill="#444746"/>
<path d="M1.5 3.25C2.32843 3.25 3 2.57843 3 1.75C3 0.921573 2.32843 0.25 1.5 0.25C0.671573 0.25 0 0.921573 0 1.75C0 2.57843 0.671573 3.25 1.5 3.25Z" fill="#444746"/>
<path d="M1.5 11.75C2.32843 11.75 3 11.0784 3 10.25C3 9.42157 2.32843 8.75 1.5 8.75C0.671573 8.75 0 9.42157 0 10.25C0 11.0784 0.671573 11.75 1.5 11.75Z" fill="#444746"/>
<path d="M1.5 7.5C2.32843 7.5 3 6.82843 3 6C3 5.17157 2.32843 4.5 1.5 4.5C0.671573 4.5 0 5.17157 0 6C0 6.82843 0.671573 7.5 1.5 7.5Z" fill="#444746"/>
</svg>
