<svg width="18" height="18" viewBox="0 0 18 18" fill="none" xmlns="http://www.w3.org/2000/svg">
<path d="M9.00032 17.3333C9.00032 16.1805 8.78157 15.0972 8.34407 14.0833C7.90657 13.0694 7.31282 12.1875 6.56282 11.4375C5.81282 10.6875 4.93087 10.0937 3.91699 9.6562C2.9031 9.2187 1.81976 8.99996 0.666992 8.99996C1.81976 8.99996 2.9031 8.78121 3.91699 8.34371C4.93087 7.90621 5.81282 7.31246 6.56282 6.56246C7.31282 5.81246 7.90657 4.93051 8.34407 3.91663C8.78157 2.90274 9.00032 1.8194 9.00032 0.666626C9.00032 1.8194 9.21906 2.90274 9.65656 3.91663C10.0941 4.93051 10.6879 5.81246 11.4379 6.56246C12.1879 7.31246 13.0698 7.90621 14.0837 8.34371C15.0976 8.78121 16.1809 8.99996 17.3337 8.99996C16.1809 8.99996 15.0976 9.2187 14.0837 9.6562C13.0698 10.0937 12.1879 10.6875 11.4379 11.4375C10.6879 12.1875 10.0941 13.0694 9.65656 14.0833C9.21906 15.0972 9.00032 16.1805 9.00032 17.3333Z" fill="#0B57D0"/>
</svg>
