<svg width="72" height="72" viewBox="0 0 72 72" fill="none" xmlns="http://www.w3.org/2000/svg">
<path d="M61 10H11V20H61V10Z" fill="#E3E3E3"/>
<path d="M61 24H39V34H61V24Z" fill="#E3E3E3"/>
<path d="M61 38H39V48H61V38Z" fill="#E3E3E3"/>
<path d="M61 52H11V62H61V52Z" fill="#E3E3E3"/>
<path fill-rule="evenodd" clip-rule="evenodd" d="M32.4444 24H13.5556C12.15 24 11 25.15 11 26.5556V45.4444C11 46.85 12.15 48 13.5556 48H32.4444C33.85 48 35 46.85 35 45.4444V36.5V26.5556C35 25.15 33.85 24 32.4444 24ZM32.5 26.5556V30.5H23H13.5V26.5L32.5 26.5556ZM20 45.5H26V33H20V45.5ZM13.5 33H16H17.5V45.5H13.5V33ZM28.5 33V45.5H32.5V33H28.5Z" fill="#4C8DF6"/>
</svg>
