<svg width="35" height="33" viewBox="0 0 35 33" fill="none" xmlns="http://www.w3.org/2000/svg">
<path d="M15 3C6.72 3 0 9.72 0 18C0 26.28 6.72 33 15 33C23.28 33 30 26.28 30 18C30 9.72 23.28 3 15 3ZM12 24.75V11.25L21 18L12 24.75Z" fill="#5F6368"/>
<path d="M27 15.25C31.0041 15.25 34.25 12.0041 34.25 8C34.25 3.99594 31.0041 0.75 27 0.75C22.9959 0.75 19.75 3.99594 19.75 8C19.75 12.0041 22.9959 15.25 27 15.25Z" fill="white" stroke="white" stroke-width="1.5"/>
<path d="M27 2C23.688 2 21 4.688 21 8C21 11.312 23.688 14 27 14C30.312 14 33 11.312 33 8C33 4.688 30.312 2 27 2ZM27.6 11H26.4V9.8H27.6V11ZM27.6 8.6H26.4V5H27.6V8.6Z" fill="#EA8600"/>
</svg>
