<svg width="16" height="12" viewBox="0 0 16 12" fill="none" xmlns="http://www.w3.org/2000/svg">
<path fill-rule="evenodd" clip-rule="evenodd" d="M7.99906 0C4.32753 0 1.23671 2.49323 0 6C1.23671 9.50677 4.32753 12 7.99906 12C11.6725 12 14.7595 9.50677 16 6C14.7595 2.49323 11.6725 0 7.99906 0ZM8 10.5C10.4853 10.5 12.5 8.48528 12.5 6C12.5 3.51472 10.4853 1.5 8 1.5C5.51472 1.5 3.5 3.51472 3.5 6C3.5 8.48528 5.51472 10.5 8 10.5ZM8 8.5C9.38071 8.5 10.5 7.38071 10.5 6C10.5 4.61929 9.38071 3.5 8 3.5C6.61929 3.5 5.5 4.61929 5.5 6C5.5 7.38071 6.61929 8.5 8 8.5Z" fill="#444746"/>
</svg>
