<svg width="18" height="18" viewBox="0 0 18 18" fill="none" xmlns="http://www.w3.org/2000/svg">
<path d="M14.91 7.07C14.9 7.03 14.9 6.99 14.89 6.95C14.83 6.67 14.74 6.39 14.63 6.13C14.61 6.08 14.59 6.04 14.57 5.99C14.46 5.73 14.32 5.49 14.17 5.25C14.14 5.21 14.12 5.17 14.09 5.14C13.93 4.91 13.75 4.68 13.54 4.48L13.49 4.43C13.29 4.23 13.07 4.05 12.83 3.89C12.81 3.87 12.79 3.86 12.77 3.84C12.53 3.68 12.28 3.55 12.02 3.43C11.98 3.41 11.93 3.39 11.89 3.37C11.63 3.26 11.36 3.18 11.08 3.12L10.93 3.09C10.64 3.04 10.34 3.01 10.04 3H9.99997C9.89997 3 9.78997 3.01 9.68997 3.02C9.62997 3.02 9.56997 3.02 9.50997 3.03C9.30997 3.04 9.11997 3.07 8.92997 3.11C6.98997 3.51 5.43997 5.11 5.08997 7.06C4.77997 8.78 5.34997 10.36 6.41997 11.46C6.77997 11.84 6.99997 12.34 6.99997 12.87V15.01C6.99997 15.56 7.44997 16.01 7.99997 16.01H8.27997C8.62997 16.61 9.25997 17.01 9.99997 17.01C10.74 17.01 11.38 16.61 11.72 16.01H12C12.55 16.01 13 15.56 13 15.01V12.88C13 12.36 13.21 11.86 13.58 11.48C14.45 10.57 15 9.35 15 8C15 7.68 14.96 7.37 14.91 7.07ZM8.72997 6.73L9.99997 8L11.27 6.73L11.98 7.44L10.5 8.91V11H9.49997V8.91L8.02997 7.44L8.72997 6.73ZM12 15H7.99997V14H12V15ZM12 13H7.99997V12H12V13Z" fill="#444746"/>
</svg>
