<svg width="16" height="15" viewBox="0 0 16 15" fill="none" xmlns="http://www.w3.org/2000/svg">
<path d="M15.71 1.17006L14.83 0.290059C14.44 -0.0999414 13.81 -0.0999414 13.42 0.290059L9 4.71006L11.29 7.00006L15.71 2.58006C16.1 2.19006 16.1 1.56006 15.71 1.17006Z" fill="#444746"/>
<path d="M12.5 13.5H1.5V2.5H9.09L10.59 1H1.5C0.67 1 0 1.67 0 2.5V13.5C0 14.33 0.67 15 1.5 15H12.5C13.33 15 14 14.33 14 13.5V6.41L12.5 7.91V13.5Z" fill="#444746"/>
<path d="M3.52 9.98H3C3.58 11.17 4.86 12 6.33 12C8.17 12 9.68 10.7 9.95 9.02C9.98 8.85 10 8.68 10 8.5C10 7.12 8.88 6 7.5 6C6.12 6 5 7.12 5 8.5C5 9.32 4.34 9.98 3.52 9.98Z" fill="#444746"/>
</svg>
