<svg width="17" height="15" viewBox="0 0 17 15" fill="none" xmlns="http://www.w3.org/2000/svg">
<path d="M8 7L1.5 3.27083V10.5H9.5V12H1.5C1.0875 12 0.73438 11.853 0.44063 11.5591C0.14688 11.2652 0 10.9119 0 10.4992V1.4941C0 1.08137 0.14688 0.72917 0.44063 0.4375C0.73438 0.14583 1.0875 0 1.5 0H14.5C14.9125 0 15.2656 0.14687 15.5594 0.44062C15.8531 0.73437 16 1.0875 16 1.5V7H14.5V3.27083L8 7ZM8 5.22917L14.5 1.5H1.5L8 5.22917ZM14 14.25L12.9375 13.1875L14.125 12H11V10.5H14.125L12.9375 9.3125L14 8.25L17 11.25L14 14.25ZM1.5 3.27083V11.2083V1.5V3.27083Z" fill="#0B57D0"/>
</svg>
