<svg width="18" height="18" viewBox="0 0 18 18" fill="none" xmlns="http://www.w3.org/2000/svg">
<path d="M15.2548 11.421L13.5448 14.4H4.45483L2.74483 11.421L7.28983 3.6H10.7098L15.2548 11.421ZM7.28983 2.25C6.81283 2.25 6.36283 2.502 6.11983 2.925L1.57483 10.746C1.33183 11.16 1.33183 11.682 1.57483 12.096L3.28483 15.075C3.52783 15.498 3.96883 15.75 4.45483 15.75H13.5448C14.0308 15.75 14.4718 15.489 14.7148 15.075L16.4248 12.096C16.6678 11.682 16.6678 11.16 16.4248 10.746L11.8798 2.925C11.6368 2.511 11.1958 2.25 10.7098 2.25H7.28983ZM8.99983 7.578L11.0788 11.205H6.92083L8.99983 7.578ZM8.36083 5.976L5.11183 11.646L5.62483 12.546H12.3748L12.8878 11.646L9.63883 5.976H8.36083Z" fill="#444746"/>
</svg>
