<svg width="16" height="12" viewBox="0 0 16 12" fill="none" xmlns="http://www.w3.org/2000/svg">
<path d="M10.1818 3C10.1818 1.935 9.81818 0.9525 9.21455 0.18C9.52 0.0750001 9.84 0 10.1818 0C11.7891 0 13.0909 1.3425 13.0909 3C13.0909 4.6575 11.7891 6 10.1818 6C9.86909 6 9.57091 5.9325 9.28727 5.8425C9.26545 5.835 9.24364 5.8275 9.21455 5.82C9.81818 5.0475 10.1818 4.065 10.1818 3ZM11.3891 6.8475C12.3855 7.545 13.0909 8.49 13.0909 9.75V12H16V9.75C16 8.115 13.3964 7.1475 11.3891 6.8475ZM5.81818 1.5C5.01818 1.5 4.36364 2.175 4.36364 3C4.36364 3.825 5.01818 4.5 5.81818 4.5C6.61818 4.5 7.27273 3.825 7.27273 3C7.27273 2.175 6.61818 1.5 5.81818 1.5ZM5.81818 8.25C3.85455 8.25 1.6 9.2175 1.45455 9.7575V10.5H10.1818V9.75C10.0364 9.2175 7.78182 8.25 5.81818 8.25ZM5.81818 0C7.42545 0 8.72727 1.3425 8.72727 3C8.72727 4.6575 7.42545 6 5.81818 6C4.21091 6 2.90909 4.6575 2.90909 3C2.90909 1.3425 4.21091 0 5.81818 0ZM5.81818 6.75C7.76 6.75 11.6364 7.755 11.6364 9.75V12H0V9.75C0 7.755 3.87636 6.75 5.81818 6.75Z" fill="#444746"/>
</svg>
