<svg width="14" height="17" viewBox="0 0 14 17" fill="none" xmlns="http://www.w3.org/2000/svg">
<path d="M7 17L4 14H1.5C1.08333 14 0.729333 13.854 0.438 13.562C0.146 13.2707 0 12.9167 0 12.5V1.5C0 1.08333 0.146 0.729333 0.438 0.438C0.729333 0.146 1.08333 0 1.5 0H12.5C12.9167 0 13.2707 0.146 13.562 0.438C13.854 0.729333 14 1.08333 14 1.5V12.5C14 12.9167 13.854 13.2707 13.562 13.562C13.2707 13.854 12.9167 14 12.5 14H10L7 17ZM1.5 12.5H12.5V1.5H1.5V12.5ZM7 11L8.25 8.25L11 7L8.25 5.75L7 3L5.75 5.75L3 7L5.75 8.25L7 11Z" fill="#0B57D0"/>
</svg>
