<svg width="12" height="12" viewBox="0 0 12 12" fill="none" xmlns="http://www.w3.org/2000/svg">
<path d="M5.49972 12C5.36105 12 5.24305 11.9513 5.14572 11.854C5.04838 11.7567 4.99972 11.6387 4.99972 11.5V6.771L0.103717 0.812C-0.0209501 0.645333 -0.0382835 0.468333 0.0517166 0.281C0.142383 0.0936668 0.291717 0 0.499717 0H11.4997C11.7077 0 11.8571 0.0936668 11.9477 0.281C12.0377 0.468333 12.0204 0.645333 11.8957 0.812L6.99972 6.771V11.5C6.99972 11.6387 6.95105 11.7567 6.85372 11.854C6.75638 11.9513 6.63838 12 6.49972 12H5.49972ZM5.99972 5.625L9.37472 1.5H2.60372L5.99972 5.625Z" fill="#444746"/>
</svg>
