<svg width="16" height="15" viewBox="0 0 16 15" fill="none" xmlns="http://www.w3.org/2000/svg">
<path d="M2.50016 12H11.5002L8.60516 8.125C8.57816 8.109 8.55116 8.102 8.52716 8.09C8.50383 8.08267 8.4805 8.07367 8.45716 8.063L6.25016 11L4.75016 9L2.50016 12ZM1.50016 15C1.08683 15 0.733831 14.853 0.441164 14.559C0.299017 14.4221 0.18652 14.2575 0.110658 14.0753C0.0347954 13.8931 -0.00281404 13.6973 0.000163997 13.5V2.5C0.000163997 2.08667 0.147164 1.73367 0.441164 1.441C0.578045 1.29885 0.742681 1.18636 0.924854 1.11049C1.10703 1.03463 1.30285 0.997022 1.50016 1H5.50016V2.5H1.50016V13.5H12.5002V8.688L14.0002 10.188V13.5C14.0002 13.9133 13.8532 14.2663 13.5592 14.559C13.4223 14.7011 13.2576 14.8136 13.0755 14.8895C12.8933 14.9654 12.6975 15.003 12.5002 15H1.50016ZM14.9382 9L12.3752 6.438C12.0978 6.618 11.8022 6.757 11.4882 6.855C11.1643 6.95438 10.827 7.00329 10.4882 7C10.029 7.00711 9.57322 6.92029 9.14882 6.74489C8.72442 6.56949 8.34034 6.3092 8.02016 5.98C7.34016 5.29867 7.00016 4.472 7.00016 3.5C7.00016 2.527 7.34016 1.703 8.02016 1.02C8.70216 0.34 9.52883 0 10.5002 0C11.4715 0 12.2982 0.34 12.9802 1.02C13.6602 1.69867 14.0002 2.524 14.0002 3.496C14.0002 3.848 13.9532 4.176 13.8552 4.488C13.7572 4.80133 13.6178 5.097 13.4372 5.375L16.0002 7.938L14.9382 9ZM10.4962 5.5C11.0542 5.50067 11.5282 5.308 11.9182 4.922C12.1069 4.73792 12.2559 4.51713 12.356 4.27325C12.4561 4.02938 12.5051 3.76758 12.5002 3.504C12.5008 2.946 12.3082 2.472 11.9222 2.082C11.7381 1.89329 11.5173 1.74429 11.2734 1.64419C11.0295 1.5441 10.7677 1.49502 10.5042 1.5C9.94616 1.49933 9.47216 1.692 9.08216 2.078C8.89345 2.26208 8.74445 2.48287 8.64436 2.72675C8.54426 2.97062 8.49519 3.23242 8.50016 3.496C8.4995 4.054 8.69216 4.528 9.07816 4.918C9.46483 5.30533 9.9375 5.49933 10.4962 5.5Z" fill="#444746"/>
</svg>
