<svg width="56" height="56" viewBox="0 0 56 56" fill="none" xmlns="http://www.w3.org/2000/svg">
<path d="M25 8H9V15H25V8Z" fill="#E3E3E3"/>
<path d="M25 19H9V26H25V19Z" fill="#E3E3E3"/>
<path d="M47 30H9V37H47V30Z" fill="#E3E3E3"/>
<path d="M47 41H9V48H47V41Z" fill="#E3E3E3"/>
<path fill-rule="evenodd" clip-rule="evenodd" d="M45.0833 8H30.9167C29.8625 8 29 8.8625 29 9.91667V24.0833C29 25.1375 29.8625 26 30.9167 26H45.0833C46.1375 26 47 25.1375 47 24.0833V17.375V9.91667C47 8.8625 46.1375 8 45.0833 8ZM45.125 9.91667V12.875H38H30.875V9.875L45.125 9.91667ZM35.75 24.125H40.25V14.75H35.75V24.125ZM30.875 14.75H32.75H33.875V24.125H30.875V14.75ZM42.125 14.75V24.125H45.125V14.75H42.125Z" fill="#4C8DF6"/>
</svg>
