<svg width="14" height="16" viewBox="0 0 14 16" fill="none" xmlns="http://www.w3.org/2000/svg">
<path d="M3 11H8.5V12.5H3V11ZM3 8H11V9.5H3V8ZM3 5H11V6.5H3V5ZM12.4444 1.99556H9.1933C8.8667 1.09334 8.0111 0.440002 7 0.440002C5.98889 0.440002 5.13333 1.09334 4.80667 1.99556H1.55556C1.44667 1.99556 1.34556 2.00334 1.24444 2.02667C0.94111 2.08889 0.66889 2.24445 0.45889 2.45445C0.31889 2.59445 0.20222 2.76556 0.12444 2.95222C0.04667 3.13111 0 3.33334 0 3.55111V14.44C0 14.65 0.04667 14.86 0.12444 15.0467C0.20222 15.2333 0.31889 15.3967 0.45889 15.5444C0.66889 15.7544 0.94111 15.91 1.24444 15.9722C1.34556 15.9878 1.44667 15.9956 1.55556 15.9956H12.4444C13.3 15.9956 14 15.2956 14 14.44V3.55111C14 2.69556 13.3 1.99556 12.4444 1.99556ZM7 1.80111C7.31889 1.80111 7.58333 2.06556 7.58333 2.38445C7.58333 2.70334 7.31889 2.96778 7 2.96778C6.68111 2.96778 6.41667 2.70334 6.41667 2.38445C6.41667 2.06556 6.68111 1.80111 7 1.80111ZM12.5 14.5H1.5V3.5H12.5V14.5Z" fill="#444746"/>
</svg>
