<svg width="20" height="20" viewBox="0 0 20 20" fill="none" xmlns="http://www.w3.org/2000/svg">
<mask id="mask0_148_14347" style="mask-type:luminance" maskUnits="userSpaceOnUse" x="0" y="0" width="20" height="20">
<path fill-rule="evenodd" clip-rule="evenodd" d="M10 0C4.47 0 0 4.47 0 10C0 15.53 4.47 20 10 20C15.53 20 20 15.53 20 10C20 4.47 15.53 0 10 0ZM10 18C5.59 18 2 14.41 2 10C2 5.59 5.59 2 10 2C14.41 2 18 5.59 18 10C18 14.41 14.41 18 10 18ZM13.59 5L10 8.59L6.41 5L5 6.41L8.59 10L5 13.59L6.41 15L10 11.41L13.59 15L15 13.59L11.41 10L15 6.41L13.59 5Z" fill="white"/>
</mask>
<g mask="url(#mask0_148_14347)">
<path fill-rule="evenodd" clip-rule="evenodd" d="M-2 -2H22V22H-2V-2Z" fill="#444746"/>
</g>
</svg>
