<svg width="18" height="12" viewBox="0 0 18 12" fill="none" xmlns="http://www.w3.org/2000/svg">
<path fill-rule="evenodd" clip-rule="evenodd" d="M14.25 4.5H13.92C13.97 4.26 14 4.01 14 3.75C14 1.68 12.32 0 10.25 0H3.75C1.68 0 0 1.68 0 3.75C0 5.82 1.68 7.5 3.75 7.5H4.08C4.03 7.74 4 7.99 4 8.25C4 10.32 5.68 12 7.75 12H14.25C16.32 12 18 10.32 18 8.25C18 6.18 16.32 4.5 14.25 4.5ZM4.77 6H3.75C2.51 6 1.5 4.99 1.5 3.75C1.5 2.51 2.51 1.5 3.75 1.5H10.25C11.49 1.5 12.5 2.51 12.5 3.75C12.5 4.01 12.45 4.26 12.36 4.5H7.75C6.53 4.5 5.45 5.09 4.77 6ZM16.5 8.25C16.5 9.49 15.49 10.5 14.25 10.5H7.75C6.51 10.5 5.5 9.49 5.5 8.25C5.5 7.01 6.51 6 7.75 6H14.25C15.49 6 16.5 7.01 16.5 8.25ZM3.75 5.25C4.57843 5.25 5.25 4.57843 5.25 3.75C5.25 2.92157 4.57843 2.25 3.75 2.25C2.92157 2.25 2.25 2.92157 2.25 3.75C2.25 4.57843 2.92157 5.25 3.75 5.25ZM13 9.5L11 7.5H15L13 9.5Z" fill="#444746"/>
</svg>
