<svg width="14" height="14" viewBox="0 0 14 14" fill="none" xmlns="http://www.w3.org/2000/svg">
<path fill-rule="evenodd" clip-rule="evenodd" d="M7 0C3.134 0 0 3.133 0 7C0 10.865 3.134 14 7 14C10.866 14 14 10.865 14 7C14 3.133 10.866 0 7 0ZM12.2 7C12.2 8.074 11.874 9.072 11.315 9.9L4.099 2.684C4.928 2.125 5.926 1.799 7 1.799C9.873 1.799 12.2 4.127 12.2 7ZM1.8 7C1.8 5.926 2.126 4.928 2.685 4.098L9.902 11.315C9.073 11.874 8.075 12.2 7.001 12.2C4.127 12.199 1.8 9.873 1.8 7Z" fill="#444746"/>
</svg>
