<svg width="15" height="15" viewBox="0 0 15 15" fill="none" xmlns="http://www.w3.org/2000/svg">
<path d="M7 8.55L8.55 7L10 8.55L11 7.59375L9.5 6L11 4.5L10 3.5L8.55 5L7 3.5L6 4.5L7.5 6L6 7.59375L7 8.55ZM4 12C3.625 12 3.2625 11.7625 3 11.5C2.7375 11.2375 2.5 10.875 2.5 10.5V1.5C2.5 1.125 2.7375 0.7625 3 0.5C3.2625 0.2375 3.625 0 4 0H13C13.375 0 13.7375 0.2375 14 0.5C14.2625 0.7625 14.5 1.125 14.5 1.5V10.5C14.5 10.875 14.2625 11.2375 14 11.5C13.7375 11.7625 13.375 12 13 12H4ZM4 10.5H13V1.5H4V10.5ZM1.5 14.5C1.125 14.5 0.7625 14.2625 0.5 14C0.2375 13.7375 0 13.375 0 13V2.5H1.5V13H11.5V14.5H1.5Z" fill="#444746"/>
</svg>
