<svg width="16" height="15" viewBox="0 0 16 15" fill="none" xmlns="http://www.w3.org/2000/svg">
<path d="M8 4.00003C6.9 4.00003 6 4.90003 6 6.00003C6 6.84003 6.52 7.55003 7.25 7.85003V15H8.75V7.85003C9.48 7.55003 10 6.84003 10 6.00003C10 4.90003 9.1 4.00003 8 4.00003ZM3.41 1.41003L2.34 0.340027C0.9 1.79003 0 3.79003 0 6.00003C0 8.21003 0.9 10.21 2.34 11.66L3.4 10.6C2.23 9.42003 1.5 7.79003 1.5 6.00003C1.5 4.21003 2.23 2.58003 3.41 1.41003ZM4.5 2.50003C3.6 3.40003 3.05 4.63003 3.05 6.00003C3.05 7.37003 3.6 8.60003 4.5 9.50003L5.56 8.44003C4.94 7.81003 4.55 6.95003 4.55 6.00003C4.55 5.05003 4.94 4.19003 5.56 3.56003L4.5 2.50003ZM13.66 0.340027L12.6 1.40003C13.77 2.58003 14.5 4.21003 14.5 6.00003C14.5 7.79003 13.77 9.42003 12.59 10.59L13.65 11.65C15.1 10.21 16 8.21003 16 6.00003C16 3.79003 15.1 1.79003 13.66 0.340027ZM11.5 2.50003L10.44 3.56003C11.06 4.18003 11.45 5.05003 11.45 6.00003C11.45 6.95003 11.06 7.81003 10.44 8.44003L11.5 9.50003C12.4 8.60003 12.95 7.37003 12.95 6.00003C12.95 4.63003 12.4 3.40003 11.5 2.50003Z" fill="#444746"/>
</svg>
