<svg width="16" height="16" viewBox="0 0 16 16" fill="none" xmlns="http://www.w3.org/2000/svg">
<path d="M10.5 0C8.34 0 6.47 1.25 5.57 3.07C4.49 3.61 3.61 4.49 3.07 5.57C1.25 6.47 0 8.34 0 10.5C0 13.54 2.46 16 5.5 16C7.66 16 9.53 14.75 10.43 12.93C11.51 12.39 12.39 11.51 12.93 10.43C14.75 9.53 16 7.66 16 5.5C16 2.46 13.54 0 10.5 0ZM5.5 14.5C3.29 14.5 1.5 12.71 1.5 10.5C1.5 9.49 1.89 8.58 2.51 7.87C2.44 11.01 4.98 13.56 8.13 13.49C7.42 14.11 6.51 14.5 5.5 14.5ZM8 12C5.79 12 4 10.21 4 8C4 7.39 4.2 6.29 5.01 5.37C5.01 5.38 4.97 5.84 5.11 6.54C5.53 8.74 7.27 10.48 9.47 10.9C10.16 11.03 10.62 11 10.64 11C9.71 11.8 8.61 12 8 12ZM11.77 9.27C8.66 10.32 5.67 7.34 6.72 4.22C9.87 3.16 12.84 6.13 11.77 9.27ZM13.49 8.13C13.56 4.99 11.02 2.44 7.87 2.51C8.57 1.89 9.49 1.5 10.5 1.5C12.71 1.5 14.5 3.29 14.5 5.5C14.5 6.51 14.11 7.42 13.49 8.13Z" fill="#444746"/>
</svg>
