<svg width="56" height="56" viewBox="0 0 56 56" fill="none" xmlns="http://www.w3.org/2000/svg">
<path d="M47 8H31V15H47V8Z" fill="#E3E3E3"/>
<path d="M47 19H31V26H47V19Z" fill="#E3E3E3"/>
<path d="M47 30H9V37H47V30Z" fill="#E3E3E3"/>
<path d="M47 41H9V48H47V41Z" fill="#E3E3E3"/>
<path fill-rule="evenodd" clip-rule="evenodd" d="M25.0833 8H10.9167C9.8625 8 9 8.8625 9 9.91667V24.0833C9 25.1375 9.8625 26 10.9167 26H25.0833C26.1375 26 27 25.1375 27 24.0833V17.375V9.91667C27 8.8625 26.1375 8 25.0833 8ZM25.125 9.91667V12.875H18H10.875V9.875L25.125 9.91667ZM15.75 24.125H20.25V14.75H15.75V24.125ZM10.875 14.75H12.75H13.875V24.125H10.875V14.75ZM22.125 14.75V24.125H25.125V14.75H22.125Z" fill="#4C8DF6"/>
</svg>
