<svg width="18" height="16" viewBox="0 0 18 16" fill="none" xmlns="http://www.w3.org/2000/svg">
<path d="M6 15V13H18V15H6ZM6 9V7H18V9H6ZM6 3V1H18V3H6ZM2 16C1.44922 16 0.980469 15.8047 0.585938 15.4141C0.195312 15.0195 0 14.5508 0 14C0 13.4492 0.195312 12.9805 0.585938 12.5859C0.980469 12.1953 1.44922 12 2 12C2.55078 12 3.01953 12.1953 3.41406 12.5859C3.80469 12.9805 4 13.4492 4 14C4 14.5508 3.80469 15.0195 3.41406 15.4141C3.01953 15.8047 2.55078 16 2 16ZM2 10C1.44922 10 0.980469 9.80469 0.585938 9.41406C0.195312 9.01953 0 8.55078 0 8C0 7.44922 0.195312 6.98047 0.585938 6.58594C0.980469 6.19531 1.44922 6 2 6C2.55078 6 3.01953 6.19531 3.41406 6.58594C3.80469 6.98047 4 7.44922 4 8C4 8.55078 3.80469 9.01953 3.41406 9.41406C3.01953 9.80469 2.55078 10 2 10ZM2 4C1.44922 4 0.980469 3.80469 0.585938 3.41406C0.195312 3.01953 0 2.55078 0 2C0 1.44922 0.195312 0.980469 0.585938 0.585938C0.980469 0.195312 1.44922 0 2 0C2.55078 0 3.01953 0.195312 3.41406 0.585938C3.80469 0.980469 4 1.44922 4 2C4 2.55078 3.80469 3.01953 3.41406 3.41406C3.01953 3.80469 2.55078 4 2 4Z" fill="#444746"/>
</svg>
