<svg width="72" height="40" viewBox="0 0 72 40" fill="none" xmlns="http://www.w3.org/2000/svg">
<path d="M68 0.5H4C2.067 0.5 0.5 2.067 0.5 4V36C0.5 37.933 2.067 39.5 4 39.5H68C69.933 39.5 71.5 37.933 71.5 36V4C71.5 2.067 69.933 0.5 68 0.5Z" stroke="#C4C7C5"/>
<path d="M59.04 6.56H24.46C23.4935 6.56 22.71 7.3435 22.71 8.31V26.82C22.71 27.7865 23.4935 28.57 24.46 28.57H59.04C60.0065 28.57 60.79 27.7865 60.79 26.82V8.31C60.79 7.3435 60.0065 6.56 59.04 6.56Z" fill="#D3E3FD" stroke="#0B57D0" stroke-width="0.95"/>
<path d="M7.40039 34.22V32.72H11.2004V31.84C10.7004 31.84 10.2804 31.67 9.93039 31.32C9.7591 31.1543 9.62368 30.9552 9.53251 30.735C9.44134 30.5148 9.39637 30.2783 9.40039 30.04V20.64C9.40039 20.14 9.58039 19.72 9.93039 19.37C10.2804 19.02 10.7004 18.84 11.2004 18.84H26.6004C27.1004 18.84 27.5304 19.02 27.8804 19.37C28.2304 19.72 28.4004 20.14 28.4004 20.64V30.04C28.4004 30.54 28.2304 30.97 27.8804 31.32C27.5304 31.67 27.1004 31.84 26.6004 31.84V32.72H30.4004V34.22H7.40039ZM11.2004 30.34H26.6004C26.6804 30.34 26.7504 30.32 26.8004 30.27C26.8327 30.2411 26.8583 30.2056 26.8756 30.1659C26.8928 30.1262 26.9013 30.0833 26.9004 30.04V20.64C26.9012 20.601 26.8925 20.5625 26.8751 20.5276C26.8577 20.4928 26.832 20.4627 26.8004 20.44C26.7777 20.4083 26.7476 20.3827 26.7127 20.3653C26.6779 20.3479 26.6393 20.3392 26.6004 20.34H11.2004C11.1589 20.3411 11.118 20.3505 11.0802 20.3677C11.0425 20.3849 11.0085 20.4094 10.9804 20.44C10.954 20.4661 10.9333 20.4973 10.9196 20.5317C10.9058 20.5661 10.8993 20.603 10.9004 20.64V30.04C10.9004 30.13 10.9304 30.2 10.9804 30.27C11.0404 30.32 11.1204 30.34 11.2004 30.34Z" fill="#C4C7C5"/>
<mask id="mask0_148_16478" style="mask-type:luminance" maskUnits="userSpaceOnUse" x="10" y="20" width="17" height="11">
<path d="M26.6096 20.06H11.1796C11.0195 20.06 10.8896 20.1898 10.8896 20.35V30.05C10.8896 30.2102 11.0195 30.34 11.1796 30.34H26.6096C26.7698 30.34 26.8996 30.2102 26.8996 30.05V20.35C26.8996 20.1898 26.7698 20.06 26.6096 20.06Z" fill="white"/>
</mask>
<g mask="url(#mask0_148_16478)">
<path d="M26.6096 20.06H11.1796C11.0195 20.06 10.8896 20.1898 10.8896 20.35V30.05C10.8896 30.2102 11.0195 30.34 11.1796 30.34H26.6096C26.7698 30.34 26.8996 30.2102 26.8996 30.05V20.35C26.8996 20.1898 26.7698 20.06 26.6096 20.06Z" fill="white" stroke="white" stroke-width="1.9"/>
</g>
</svg>
