<svg width="15" height="16" viewBox="0 0 15 16" fill="none" xmlns="http://www.w3.org/2000/svg">
<path d="M10.012 12H15V14H10.012V15.9945L8.03685 14.041L6.98434 13L8.03289 11.9629L10.012 10.0055V12ZM0 7H1.99632V9H0V7ZM2.99264 2.99687C2.99264 1.34174 4.33709 0 5.98804 0C7.64235 0 8.98344 1.34739 8.98344 2.99687V6.00313C8.98344 7.65826 7.63899 9 5.98804 9C4.33373 9 2.99264 7.65261 2.99264 6.00313V2.99687ZM4.5 2.99858V6.00142C4.5 6.83497 5.17157 7.5 6 7.5C6.8342 7.5 7.5 6.82906 7.5 6.00142V2.99858C7.5 2.16503 6.82843 1.5 6 1.5C5.1658 1.5 4.5 2.17094 4.5 2.99858Z" fill="#444746"/>
</svg>
