<svg width="12" height="17" viewBox="0 0 12 17" fill="none" xmlns="http://www.w3.org/2000/svg">
<path d="M10.5 6H10V4C10 1.79 8.21 0 6 0C3.79 0 2 1.79 2 4H3.5C3.5 2.62 4.62 1.5 6 1.5C7.38 1.5 8.5 2.62 8.5 4V6H1.5C0.67 6 0 6.67 0 7.5V15.5C0 16.33 0.67 17 1.5 17H10.5C11.33 17 12 16.33 12 15.5V7.5C12 6.67 11.33 6 10.5 6ZM10.5 15.5H1.5V7.5H10.5V15.5Z" fill="#444746"/>
<path d="M6 13C6.82843 13 7.5 12.3284 7.5 11.5C7.5 10.6716 6.82843 10 6 10C5.17157 10 4.5 10.6716 4.5 11.5C4.5 12.3284 5.17157 13 6 13Z" fill="#444746"/>
</svg>
