<svg width="17" height="17" viewBox="0 0 17 17" fill="none" xmlns="http://www.w3.org/2000/svg">
<path d="M15.5 8C15.5 9.19 14.67 10.18 13.55 10.43L14.71 11.59C16.06 10.95 17 9.59 17 8C17 5.79 15.21 4 13 4H10V5.5H13C14.38 5.5 15.5 6.62 15.5 8Z" fill="#444746"/>
<path d="M12.0001 8.75005V7.25005H10.3701L11.8701 8.75005H12.0001ZM0.870117 1.99005L3.28012 4.40005C1.94012 5.05005 1.00012 6.41005 1.00012 8.00005C1.00012 10.2101 2.79012 12.0001 5.00012 12.0001H8.00012V10.5001H5.00012C3.62012 10.5001 2.50012 9.38005 2.50012 8.00005C2.50012 6.81005 3.33012 5.82005 4.45012 5.57005L6.13012 7.25005H6.00012V8.75005H7.63012L15.0101 16.1301L16.0701 15.0701L1.93012 0.930054L0.870117 1.99005Z" fill="#444746"/>
</svg>
