<svg width="14" height="12" viewBox="0 0 14 12" fill="none" xmlns="http://www.w3.org/2000/svg">
<path d="M9.5 1H0V2.5H9.5V1ZM9.5 9.5H0V11H9.5V9.5ZM9.5 5.25H0V6.75H9.5V5.25ZM12.5 3.25C11.6716 3.25 11 2.57843 11 1.75C11 0.92157 11.6716 0.25 12.5 0.25C13.3284 0.25 14 0.92157 14 1.75C14 2.57843 13.3284 3.25 12.5 3.25ZM12.5 11.75C11.6716 11.75 11 11.0784 11 10.25C11 9.4216 11.6716 8.75 12.5 8.75C13.3284 8.75 14 9.4216 14 10.25C14 11.0784 13.3284 11.75 12.5 11.75ZM12.5 7.5C11.6716 7.5 11 6.8284 11 6C11 5.17157 11.6716 4.5 12.5 4.5C13.3284 4.5 14 5.17157 14 6C14 6.8284 13.3284 7.5 12.5 7.5Z" fill="#444746"/>
</svg>
