<svg width="16" height="16" viewBox="0 0 16 16" fill="none" xmlns="http://www.w3.org/2000/svg">
<path d="M11.2511 5.99999C10.8481 5.99999 10.4961 5.84999 10.1981 5.55199C10.0555 5.41652 9.94221 5.25329 9.86516 5.07236C9.78811 4.89144 9.74893 4.69664 9.75005 4.49999V1.50999C9.75005 1.08699 9.90005 0.729993 10.1981 0.437993C10.4961 0.145993 10.8481 -7.3409e-06 11.2511 -7.3409e-06C11.6671 -7.3409e-06 12.0211 0.145993 12.3131 0.437993C12.6041 0.728993 12.7501 1.08699 12.7501 1.50999V4.49999C12.7501 4.90299 12.6041 5.25299 12.3121 5.55199C12.1761 5.69611 12.0117 5.81037 11.8292 5.8875C11.6467 5.96462 11.4491 6.00293 11.2511 5.99999ZM1.58005 16C1.13805 16 0.76405 15.84 0.45805 15.52C0.311282 15.3724 0.195236 15.1971 0.116623 15.0043C0.0380096 14.8116 -0.00161162 14.6052 5.01894e-05 14.397V1.49999C5.01894e-05 1.09699 0.15005 0.746993 0.44805 0.447993C0.583518 0.305443 0.746749 0.192151 0.927678 0.115101C1.10861 0.0380516 1.3034 -0.00112301 1.50005 -7.3409e-06H8.00005V1.49999H1.50005V14.5H10.5001V13H12.0001V14.396C12.0001 14.836 11.8471 15.215 11.5421 15.529C11.2361 15.843 10.8621 16 10.4201 16H1.58005ZM3.00005 13V11.5H8.60405V13H3.00005ZM3.00005 10.5V8.99999H7.00005V10.5H3.00005ZM12.0001 11.5H10.5001V8.91699C9.58299 8.75237 8.75528 8.26455 8.16705 7.54199C7.56539 6.83265 7.2398 5.93008 7.25005 4.99999H8.75005C8.75005 5.68999 8.99505 6.27999 9.48405 6.76799C9.97405 7.25599 10.5641 7.49999 11.2561 7.49999C11.9601 7.49999 12.5521 7.25599 13.0311 6.76799C13.5111 6.27999 13.7501 5.68999 13.7501 4.99999H15.2501C15.2501 5.95799 14.9481 6.80599 14.3441 7.54199C13.7401 8.27799 12.9581 8.73599 12.0001 8.91699V11.5Z" fill="#444746"/>
</svg>
