<svg width="17" height="20" viewBox="0 0 17 20" fill="none" xmlns="http://www.w3.org/2000/svg">
<path d="M6 16C5.44922 16 4.98047 15.8047 4.58594 15.4141C4.19531 15.0195 4 14.5508 4 14V2C4 1.44922 4.19531 0.980469 4.58594 0.585938C4.98047 0.195312 5.44922 0 6 0H15C15.5508 0 16.0195 0.195312 16.4141 0.585938C16.8047 0.980469 17 1.44922 17 2V14C17 14.5508 16.8047 15.0195 16.4141 15.4141C16.0195 15.8047 15.5508 16 15 16H6ZM6 14H15V2H6V14ZM2 20C1.44922 20 0.980469 19.8047 0.585938 19.4141C0.195312 19.0195 0 18.5508 0 18V4H2V18H13V20H2Z" fill="#444746"/>
</svg>
