<svg width="24" height="24" viewBox="0 0 24 24" fill="none" xmlns="http://www.w3.org/2000/svg">
<path d="M19 3H5C3.9 3 3 3.9 3 5V19C3 20.1 3.9 21 5 21H19C20.1 21 21 20.1 21 19V5C21 3.9 20.1 3 19 3ZM9.8 13.4V17H8V7H12.3C13.83 7 14.45 7.3 15.1 7.89C15.75 8.48 16 9.26 16 10.23C16 11.25 15.74 12.03 15.1 12.58C14.46 13.13 13.8 13.4 12.3 13.4H9.8ZM9.8 12V8.4H12.1C12.76 8.4 13.27 8.65 13.6 9C13.93 9.35 14.1 9.72 14.1 10.25C14.1 10.8 13.92 11.2 13.6 11.5C13.28 11.81 12.9 12 12.22 12H9.8Z" fill="#FD7541"/>
</svg>
