<svg width="14" height="14" viewBox="0 0 14 14" fill="none" xmlns="http://www.w3.org/2000/svg">
<path d="M3 11H11V3H3V11ZM4.5 4.5H9.5V9.5H4.5V4.5ZM3.12 0H4.62V1.5H3.12V0ZM0 1.5H1.5V0C0.67 0 0 0.67 0 1.5ZM1.5 14V12.5H0C0 13.33 0.67 14 1.5 14ZM0 9.38H1.5V10.88H0V9.38ZM0 6.25H1.5V7.75H0V6.25ZM0 3.12H1.5V4.62H0V3.12ZM12.5 9.38H14V10.88H12.5V9.38ZM12.5 6.25H14V7.75H12.5V6.25ZM12.5 3.12H14V4.62H12.5V3.12ZM12.5 0V1.5H14C14 0.67 13.33 0 12.5 0ZM9.38 0H10.88V1.5H9.38V0ZM6.25 0H7.75V1.5H6.25V0ZM3.12 12.5H4.62V14H3.12V12.5ZM12.5 14C13.33 14 14 13.33 14 12.5H12.5V14ZM9.38 12.5H10.88V14H9.38V12.5ZM6.25 12.5H7.75V14H6.25V12.5Z" fill="#444746"/>
</svg>
