<svg width="24" height="24" viewBox="0 0 24 24" fill="none" xmlns="http://www.w3.org/2000/svg">
<path d="M19 3H14.82C14.4 1.84 13.3 1 12 1C10.7 1 9.6 1.84 9.18 3H5C3.9 3 3 3.9 3 5V19C3 20.1 3.9 21 5 21H19C20.1 21 21 20.1 21 19V5C21 3.9 20.1 3 19 3ZM11.45 3C11.59 2.85 11.78 2.75 12 2.75C12.22 2.75 12.41 2.85 12.55 3C12.67 3.13 12.75 3.31 12.75 3.5C12.75 3.91 12.41 4.25 12 4.25C11.59 4.25 11.25 3.91 11.25 3.5C11.25 3.31 11.33 3.13 11.45 3ZM19 5V15.79C16.52 14.37 13.23 14 12 14C10.77 14 7.48 14.37 5 15.79V5H19ZM5 19V18.23C6.74 16.66 10.32 16 12 16C13.68 16 17.26 16.66 19 18.23V19H5ZM12 13C13.94 13 15.5 11.44 15.5 9.5C15.5 7.56 13.94 6 12 6C10.06 6 8.5 7.56 8.5 9.5C8.5 11.44 10.06 13 12 13ZM12 8C12.83 8 13.5 8.67 13.5 9.5C13.5 10.33 12.83 11 12 11C11.17 11 10.5 10.33 10.5 9.5C10.5 8.67 11.17 8 12 8Z" fill="white"/>
</svg>
