<svg width="16" height="13" viewBox="0 0 16 13" fill="none" xmlns="http://www.w3.org/2000/svg">
<path d="M8.125 12.917C7.125 12.917 6.25 12.6253 5.5 12.042C4.75 11.4587 4.25 10.6877 4 9.72899L5.688 9.04199C5.91 9.74999 6.23267 10.2847 6.656 10.646C7.08 11.0073 7.58367 11.188 8.167 11.188C8.79167 11.188 9.288 11.0387 9.656 10.74C10.024 10.4413 10.208 10.042 10.208 9.54199C10.208 9.31933 10.1663 9.11433 10.083 8.92699C9.99967 8.73966 9.87467 8.56966 9.708 8.41699H11.854C11.9233 8.56966 11.9687 8.73266 11.99 8.90599C12.0107 9.07999 12.021 9.28499 12.021 9.52099C12.021 10.521 11.66 11.337 10.938 11.969C10.2153 12.601 9.27767 12.917 8.125 12.917ZM0 6.91699V5.41699H16V6.91699H0ZM8 0.916992C8.88867 0.916992 9.62467 1.10433 10.208 1.47899C10.7913 1.85433 11.2637 2.45166 11.625 3.27099L10 3.97899C9.84733 3.56233 9.594 3.22566 9.24 2.96899C8.88533 2.71166 8.486 2.58299 8.042 2.58299C7.528 2.58299 7.10067 2.70799 6.76 2.95799C6.42 3.20799 6.236 3.52766 6.208 3.91699H4.396C4.424 3.04166 4.778 2.32266 5.458 1.75999C6.13867 1.19799 6.986 0.916992 8 0.916992Z" fill="#444746"/>
</svg>
