<svg width="12" height="15" viewBox="0 0 12 15" fill="none" xmlns="http://www.w3.org/2000/svg">
<path fill-rule="evenodd" clip-rule="evenodd" d="M0 2.73001L6 0.013855L12 2.73001V6.46078C12 8.4039 11.3058 10.2793 10.1538 11.7502C9.9462 12.0153 9.7237 12.2673 9.4877 12.5041L7.3985 10.4149C6.913 10.6975 6.36 10.8237 5.81543 10.79L5.82218 10.7968C5.17504 10.7576 4.53954 10.4927 4.04302 9.9962C2.96302 8.9161 2.96302 7.1623 4.04302 6.0823C5.12302 5.0023 6.8769 5.0023 7.9569 6.0823C8.8707 6.99615 9.0092 8.3808 8.3815 9.4423L9.3925 10.4533C10.1601 9.30351 10.6154 7.9088 10.6154 6.46078V3.65001L6 1.50002L1.38462 3.65001V6.46078C1.38462 9.47 3.35077 12.2485 6 13.0792C6.5044 12.9211 6.9841 12.6923 7.4301 12.4047L8.4263 13.4009C7.6931 13.9176 6.8752 14.3034 6 14.5192C2.55692 13.67 0 10.19 0 6.46078V2.73001ZM5.02149 9.02691C4.4861 8.49151 4.4861 7.6054 5.02149 7.07C5.55687 6.53462 6.443 6.53462 6.9784 7.07C7.5138 7.6054 7.5138 8.49151 6.9784 9.02691C6.443 9.56231 5.55687 9.56231 5.02149 9.02691Z" fill="#444746"/>
</svg>
