<svg width="18" height="14" viewBox="0 0 18 14" fill="none" xmlns="http://www.w3.org/2000/svg">
<path fill-rule="evenodd" clip-rule="evenodd" d="M6.333 0H17.167V0.824H18V13.176H17.167V14H3.854L3.834 13.176H3V8.236H4.667V9.059H8V7.41H5.5V5.765H8V1.647H6.333V0ZM9.667 4.118V5.765H16.333V4.118H9.667ZM9.667 7.412V9.059H16.333V7.41H9.667V7.412ZM9.667 10.706V12.353H16.333V10.706H9.667ZM4.667 10.706V12.353H8V10.706H4.667Z" fill="#444746"/>
<path fill-rule="evenodd" clip-rule="evenodd" d="M2.625 2.625H0V4.375H2.625V7H4.375V4.375H7V2.625H4.375V0H2.625V2.625Z" fill="#444746"/>
</svg>
