<svg width="16" height="12" viewBox="0 0 16 12" fill="none" xmlns="http://www.w3.org/2000/svg">
<path d="M9.49979 9.5H2.78994C2.66232 9.5 2.54293 9.5176 2.44161 9.44C2.27714 9.314 2.23513 9.1991 2.25274 9.1075C2.31223 8.7979 2.43788 8.56 2.62163 8.3737C2.80838 8.1844 3.0785 8.025 3.4597 7.9136C4.49445 7.6114 5.43531 7.4648 6.2855 7.4648C7.13568 7.4648 8.07654 7.6114 9.11129 7.9136C9.81319 8.1187 10.1657 8.4887 10.2963 9.0083C10.3269 9.1299 10.2656 9.2887 10.0287 9.44C9.91449 9.5128 9.63529 9.5 9.49979 9.5ZM7.50434 5.67552C7.20102 5.96592 6.80885 6.12284 6.2855 6.12284C5.76214 6.12284 5.36997 5.96592 5.06665 5.67552C4.76501 5.38673 4.60863 5.0217 4.60863 4.53871C4.60863 4.05573 4.76501 3.6907 5.06665 3.40191C5.36997 3.11151 5.76214 2.95459 6.2855 2.95459C6.80885 2.95459 7.20102 3.11151 7.50434 3.40191C7.80599 3.6907 7.96237 4.05573 7.96237 4.53871C7.96237 5.0217 7.80599 5.38673 7.50434 5.67552Z" stroke="#444746"/>
<path d="M9.7143 0.5H2.85714C1.55533 0.5 0.5 1.55533 0.5 2.85714V9.1429C0.5 10.4447 1.55533 11.5 2.85714 11.5H9.7143C11.0161 11.5 12.0714 10.4447 12.0714 9.1429V2.85714C12.0714 1.55533 11.0161 0.5 9.7143 0.5ZM12.5768 5.76601L14.8726 3.10905C15.0889 2.85869 15.5 3.01168 15.5 3.34255V8.6565C15.5 8.9873 15.0889 9.1403 14.8726 8.89L12.5768 6.23301C12.461 6.09891 12.461 5.90011 12.5768 5.76601Z" stroke="#444746"/>
</svg>
