<svg width="14" height="18" viewBox="0 0 14 18" fill="none" xmlns="http://www.w3.org/2000/svg">
<path d="M7.0002 0C5.32933 0 3.7269 0.663748 2.54542 1.84523C1.36394 3.02671 0.700195 4.62914 0.700195 6.3C0.700195 11 7.0002 18 7.0002 18C7.0002 18 13.3002 11 13.3002 6.3C13.3002 4.62914 12.6364 3.02671 11.455 1.84523C10.2735 0.663748 8.67106 0 7.0002 0ZM2.5002 6.3C2.5002 5.10653 2.9743 3.96193 3.81821 3.11802C4.66213 2.27411 5.80672 1.8 7.0002 1.8C8.19367 1.8 9.33826 2.27411 10.1822 3.11802C11.0261 3.96193 11.5002 5.10653 11.5002 6.3C11.5002 8.89 8.9102 12.77 7.0002 15.19C5.1302 12.79 2.5002 8.87 2.5002 6.3Z" fill="#444746"/>
<path d="M7 8.54999C8.24264 8.54999 9.25 7.54263 9.25 6.29999C9.25 5.05735 8.24264 4.04999 7 4.04999C5.75736 4.04999 4.75 5.05735 4.75 6.29999C4.75 7.54263 5.75736 8.54999 7 8.54999Z" fill="#444746"/>
</svg>
