<svg width="12" height="4" viewBox="0 0 12 4" fill="none" xmlns="http://www.w3.org/2000/svg">
<path d="M1 4V1H0V0H2V4H1ZM4 4V2C4 1.86133 4.04867 1.74333 4.146 1.646C4.24333 1.54867 4.36133 1.5 4.5 1.5H6V1H4V0H6.5C6.63867 0 6.75667 0.0486666 6.854 0.146C6.95133 0.243333 7 0.361333 7 0.5V2C7 2.13867 6.95133 2.25667 6.854 2.354C6.75667 2.45133 6.63867 2.5 6.5 2.5H5V3H7V4H4ZM8.5 4V3H10.5V2.5H9.5V1.5H10.5V1H8.5V0H11C11.1387 0 11.2567 0.0486666 11.354 0.146C11.4513 0.243333 11.5 0.361333 11.5 0.5V3.5C11.5 3.63867 11.4513 3.75667 11.354 3.854C11.2567 3.95133 11.1387 4 11 4H8.5Z" fill="#444746"/>
</svg>
