<svg width="12" height="16" viewBox="0 0 12 16" fill="none" xmlns="http://www.w3.org/2000/svg">
<path fill-rule="evenodd" clip-rule="evenodd" d="M6 0.758728L1.755 4.99623C0.585 6.16623 0 7.72623 0 9.22623C0 10.7262 0.585 12.3087 1.755 13.4787C2.925 14.6487 4.4625 15.2412 6 15.2412C7.5375 15.2412 9.075 14.6487 10.245 13.4787C11.415 12.3087 12 10.7262 12 9.22623C12 7.72623 11.415 6.16623 10.245 4.99623L6 0.758728ZM1.5 8.99998C1.5 7.99998 1.965 7.04373 2.82 6.19623L6 2.99998L9.18 6.22998C10.035 7.08123 10.5 7.99998 10.5 8.99998H1.5Z" fill="#444746"/>
</svg>
