<svg width="18" height="18" viewBox="0 0 18 18" fill="none" xmlns="http://www.w3.org/2000/svg">
<mask id="mask0_148_16633" style="mask-type:luminance" maskUnits="userSpaceOnUse" x="0" y="0" width="18" height="18">
<path d="M0 0H17.9961V17.9961H0V0Z" fill="white"/>
</mask>
<g mask="url(#mask0_148_16633)">
<path d="M2.99968 14.9969C2.58727 14.9969 2.23422 14.8501 1.94053 14.5564C1.64685 14.2627 1.5 13.9096 1.5 13.4972V4.49919C1.5 4.08678 1.64685 3.73373 1.94053 3.44004C2.23422 3.14635 2.58727 2.99951 2.99968 2.99951H8.24854V4.49919H2.99968V13.4972H14.9971V8.99821H16.4968V13.4972C16.4968 13.9096 16.3499 14.2627 16.0562 14.5564C15.7626 14.8501 15.4095 14.9969 14.9971 14.9969H2.99968ZM13.1225 8.99821C13.1225 7.84846 12.7226 6.87367 11.9228 6.07384C11.1229 5.27402 10.1482 4.8741 8.99838 4.8741C10.1482 4.8741 11.1229 4.47419 11.9228 3.67437C12.7226 2.87454 13.1225 1.89975 13.1225 0.75C13.1225 1.89975 13.5224 2.87454 14.3223 3.67437C15.1221 4.47419 16.0969 4.8741 17.2466 4.8741C16.0969 4.8741 15.1221 5.27402 14.3223 6.07384C13.5224 6.87367 13.1225 7.84846 13.1225 8.99821Z" fill="#444746"/>
</g>
</svg>
