<svg width="15" height="15" viewBox="0 0 15 15" fill="none" xmlns="http://www.w3.org/2000/svg">
<path d="M1.6125 11.7563C1.1625 11.2063 0.79375 10.6063 0.50625 9.9563C0.23125 9.2938 0.0625 8.5875 0 7.8375H1.35C1.4125 8.4 1.55 8.9313 1.7625 9.4313C1.9875 9.9188 2.2625 10.3688 2.5875 10.7813L1.6125 11.7563ZM0 6.4875C0.0625 5.7375 0.23125 5.0375 0.50625 4.3875C0.79375 3.725 1.1625 3.11875 1.6125 2.56875L2.5875 3.54375C2.2625 3.95625 1.9875 4.4125 1.7625 4.9125C1.55 5.4 1.4125 5.925 1.35 6.4875H0ZM6.4875 14.325C5.7375 14.2625 5.03125 14.0938 4.36875 13.8188C3.71875 13.5313 3.11875 13.1625 2.56875 12.7125L3.54375 11.7375C3.96875 12.0625 4.425 12.3375 4.9125 12.5625C5.4 12.775 5.925 12.9125 6.4875 12.975V14.325ZM3.54375 2.5875L2.56875 1.6125C3.11875 1.1625 3.71875 0.8 4.36875 0.525C5.03125 0.2375 5.7375 0.0625 6.4875 0V1.35C5.925 1.4125 5.4 1.55625 4.9125 1.78125C4.425 1.99375 3.96875 2.2625 3.54375 2.5875ZM5.38125 10.3125V4.0125L10.3313 7.1625L5.38125 10.3125ZM7.8375 14.325V12.975C9.3 12.8 10.525 12.1688 11.5125 11.0813C12.5125 9.9813 13.0125 8.675 13.0125 7.1625C13.0125 5.65 12.5125 4.35 11.5125 3.2625C10.525 2.1625 9.3 1.525 7.8375 1.35V0C9.675 0.175 11.2187 0.94375 12.4688 2.30625C13.7313 3.65625 14.3625 5.275 14.3625 7.1625C14.3625 9.05 13.7313 10.675 12.4688 12.0375C11.2187 13.3875 9.675 14.15 7.8375 14.325Z" fill="#444746"/>
</svg>
