<svg width="16" height="16" viewBox="0 0 16 16" fill="none" xmlns="http://www.w3.org/2000/svg">
<path d="M1.81218 13.1042C1.31218 12.4931 0.905928 11.8229 0.593428 11.0937C0.280928 10.3646 0.0899578 9.58326 0.0205078 8.74996H1.52051C1.58996 9.37496 1.74621 9.96176 1.98926 10.5104C2.23232 11.059 2.5344 11.5625 2.89551 12.0208L1.81218 13.1042ZM0.0205078 7.24996C0.0899578 6.41663 0.280928 5.63538 0.593428 4.90621C0.905928 4.17704 1.31218 3.5069 1.81218 2.89579L2.89551 3.97913C2.5344 4.43746 2.23232 4.94093 1.98926 5.48954C1.74621 6.03815 1.58996 6.62496 1.52051 7.24996H0.0205078ZM7.22885 15.9583C6.39551 15.8889 5.61426 15.6979 4.8851 15.3854C4.15593 15.0729 3.48579 14.6667 2.87468 14.1667L3.95801 13.0833C4.43024 13.4444 4.93718 13.7465 5.47885 13.9896C6.02051 14.2326 6.60385 14.3889 7.22885 14.4583V15.9583ZM3.95801 2.91663L2.87468 1.83329C3.48579 1.33329 4.15593 0.927036 4.8851 0.614536C5.61426 0.302036 6.39551 0.111066 7.22885 0.041626V1.54163C6.60385 1.61107 6.02051 1.76732 5.47885 2.01038C4.93718 2.25343 4.43024 2.55551 3.95801 2.91663ZM5.99968 11.5V4.49996L11.4997 7.99996L5.99968 11.5ZM8.72888 15.9583V14.4583C10.3539 14.2639 11.7185 13.559 12.8226 12.3437C13.9268 11.1285 14.4789 9.68056 14.4789 7.99996C14.4789 6.3194 13.9268 4.87149 12.8226 3.65621C11.7185 2.44093 10.3539 1.73607 8.72888 1.54163V0.041626C10.7705 0.236066 12.4893 1.08676 13.8851 2.59371C15.281 4.10065 15.9789 5.90274 15.9789 7.99996C15.9789 10.0972 15.281 11.8993 13.8851 13.4062C12.4893 14.9132 10.7705 15.7639 8.72888 15.9583Z" fill="#444746"/>
</svg>
