<svg width="16" height="12" viewBox="0 0 16 12" fill="none" xmlns="http://www.w3.org/2000/svg">
<path d="M10 1.5V0H16V1.5H10ZM10 4.75V3.25H16V4.75H10ZM10 8V6.5H16V8H10ZM5 7C4.30556 7 3.71528 6.7569 3.22917 6.2708C2.74306 5.78472 2.5 5.19444 2.5 4.5C2.5 3.80556 2.74306 3.21528 3.22917 2.72917C3.71528 2.24306 4.30556 2 5 2C5.69444 2 6.28472 2.24306 6.77083 2.72917C7.25694 3.21528 7.5 3.80556 7.5 4.5C7.5 5.19444 7.25694 5.78472 6.77083 6.2708C6.28472 6.7569 5.69444 7 5 7ZM0 12V10.6875C0 10.2986 0.10069 9.9444 0.30208 9.625C0.50347 9.3056 0.77083 9.0625 1.10417 8.8958C1.70139 8.6042 2.32639 8.3819 2.97917 8.2292C3.63194 8.0764 4.30556 8 5 8C5.69444 8 6.36806 8.0764 7.02083 8.2292C7.67361 8.3819 8.2986 8.6042 8.8958 8.8958C9.2292 9.0625 9.4965 9.3056 9.6979 9.625C9.8993 9.9444 10 10.2986 10 10.6875V12H0ZM1.52083 10.5H8.4792C8.0625 10.1806 7.5625 9.934 6.97917 9.7604C6.39583 9.5868 5.73611 9.5 5 9.5C4.26389 9.5 3.60417 9.5868 3.02083 9.7604C2.4375 9.934 1.9375 10.1806 1.52083 10.5ZM5 5.5C5.28333 5.5 5.52083 5.40417 5.7125 5.2125C5.90417 5.02083 6 4.78333 6 4.5C6 4.21667 5.90417 3.97917 5.7125 3.7875C5.52083 3.59583 5.28333 3.5 5 3.5C4.71667 3.5 4.47917 3.59583 4.2875 3.7875C4.09583 3.97917 4 4.21667 4 4.5C4 4.78333 4.09583 5.02083 4.2875 5.2125C4.47917 5.40417 4.71667 5.5 5 5.5Z" fill="#444746"/>
</svg>
