<svg width="16" height="16" viewBox="0 0 16 16" fill="none" xmlns="http://www.w3.org/2000/svg">
<path d="M6.5 15.5H1.5C1.0875 15.5 0.79375 15.2937 0.5 15C0.20625 14.7063 0 14.4125 0 14V9.5H1.5V14H6.5V15.5ZM9.5 15.5V14H14.5V9.5H16V14C16 14.4125 15.7938 14.7063 15.5 15C15.2062 15.2937 14.9125 15.5 14.5 15.5H9.5ZM0 6.5V2C0 1.5875 0.20625 1.23438 0.5 0.94063C0.79375 0.64688 1.0875 0.5 1.5 0.5H6.5V2H1.5V6.5H0ZM14.5 6.5V2H9.5V0.5H14.5C14.9125 0.5 15.2062 0.70625 15.5 1C15.7938 1.29375 16 1.5875 16 2V6.5H14.5Z" fill="#444746"/>
</svg>
