<svg width="12" height="16" viewBox="0 0 12 16" fill="none" xmlns="http://www.w3.org/2000/svg">
<path d="M12 4L8 0H1.5C0.67 0 0 0.67 0 1.5V14.5C0 15.33 0.67 16 1.5 16H9.83L8.33 14.5H1.5V1.5H7.38L10.5 4.62V12.42L8.58 10.5C9.26 9.35 9.11 7.85 8.12 6.86C6.95 5.69 5.05 5.69 3.88 6.86C2.71 8.03 2.71 9.93 3.88 11.1C4.87 12.09 6.37 12.23 7.52 11.56L11.54 15.58C11.82 15.31 12 14.93 12 14.5V4ZM4.94 10.05C4.36 9.47 4.36 8.51 4.94 7.93C5.52 7.35 6.48 7.35 7.06 7.93C7.64 8.51 7.64 9.47 7.06 10.05C6.48 10.63 5.52 10.63 4.94 10.05Z" fill="#444746"/>
</svg>
