<svg width="18" height="18" viewBox="0 0 18 18" fill="none" xmlns="http://www.w3.org/2000/svg">
<path d="M16 0H2C0.89543 0 0 0.89543 0 2V16C0 17.1046 0.89543 18 2 18H16C17.1046 18 18 17.1046 18 16V2C18 0.89543 17.1046 0 16 0Z" fill="#D93025"/>
<path fill-rule="evenodd" clip-rule="evenodd" d="M15 8V7H12V12H13V10H14V9H13V8H15ZM9 11V8H9.5C9.776 8 10 8.224 10 8.5V10.5C10 10.776 9.776 11 9.5 11H9ZM9.5 7H8V12H9.5C10.328 12 11 11.328 11 10.5V8.5C11 7.672 10.328 7 9.5 7ZM5 10H6C6.553 10 7 9.553 7 9V8C7 7.447 6.553 7 6 7H4V12H5V10ZM5 9H6V8H5V9Z" fill="white"/>
</svg>
