<svg width="24" height="24" viewBox="0 0 24 24" fill="none" xmlns="http://www.w3.org/2000/svg">
<path d="M16.66 6.41001L23.14 12.9L16.65 19.38L10.16 12.9L16.66 6.41001ZM20.31 12.9L16.65 9.24001L13 12.9L16.66 16.56L20.31 12.9ZM4.64 6.64001C6.39 4.88001 8.7 4.00001 11 4.00001V0.76001L15.24 5.00001L11 9.24001V6.00001C9.21 6.00001 7.42 6.68001 6.05 8.05001C3.32 10.78 3.32 15.22 6.05 17.95C7.42 19.32 9.21 20 11 20C11.97 20 12.94 19.79 13.84 19.39L15.33 20.88C13.98 21.62 12.49 22 11 22C8.7 22 6.39 21.12 4.64 19.36C1.12 15.85 1.12 10.15 4.64 6.64001Z" fill="#444746"/>
</svg>
