<svg width="15" height="15" viewBox="0 0 15 15" fill="none" xmlns="http://www.w3.org/2000/svg">
<path d="M1.8764 0.866714L14.1329 13.1232L13.1901 14.066L11.0362 11.9116C10.1874 12.7557 9.14904 13.3787 8.00026 13.6667C5.0012 12.9148 2.75473 9.87993 2.66944 6.58734L2.66693 6.39337V3.54271L0.933594 1.80952L1.8764 0.866714ZM3.97026 4.84604L3.97092 6.39337C3.97092 9.05283 5.70261 11.5363 8.00026 12.2824C8.78211 12.0285 9.49843 11.5735 10.1033 10.9787L8.12426 9.00003H6.97626L7.17226 8.04804L3.97026 4.84604ZM8.00026 0.333374L13.3336 2.76004V6.39337C13.3336 7.55397 13.0632 8.68763 12.5835 9.70643L11.588 8.7114C11.8402 8.06432 11.993 7.37059 12.0238 6.66041L12.0296 6.39337V3.62611L8.00026 1.79276L5.71026 2.83404L4.70759 1.83137L8.00026 0.333374ZM8.00026 4.33337C8.73664 4.33337 9.33359 4.91375 9.33359 5.62967C9.33359 5.86599 9.26855 6.08754 9.15492 6.27832L7.36562 4.48935C7.55433 4.38987 7.77051 4.33337 8.00026 4.33337Z" fill="#444746"/>
</svg>
