<svg width="14" height="14" viewBox="0 0 14 14" fill="none" xmlns="http://www.w3.org/2000/svg">
<path d="M14 11.2594L12.6854 9.93868V4.5566H7.32864L6.11268 3.33491V1.91509H4.69953L3.38498 0.59434H7.42723V3.23585H14V11.2594ZM13.0141 14L11.4695 12.4811H0.85446V1.78302L0 0.924528L0.920188 0L13.9343 13.0755L13.0141 14ZM2.16901 11.1604H3.48357V9.83962H2.16901V11.1604ZM2.16901 8.51887H3.48357V7.19811H2.16901V8.51887ZM2.16901 5.87736H3.48357V4.5566H2.16901V5.87736ZM4.79812 11.1604H6.11268V9.83962H4.79812V11.1604ZM4.79812 8.51887H6.11268V7.19811H4.79812V8.51887ZM7.42723 11.1604H10.1549L8.84038 9.83962H7.42723V11.1604ZM11.3709 7.19811H10.0563V5.87736H11.3709V7.19811Z" fill="#444746"/>
</svg>
