<svg width="20" height="20" viewBox="0 0 20 20" fill="none" xmlns="http://www.w3.org/2000/svg">
<path d="M9 15H11V9H9V15ZM10 7C10.2833 7 10.5167 6.90833 10.7 6.725C10.9 6.525 11 6.28333 11 6C11 5.71667 10.9 5.48333 10.7 5.3C10.5167 5.1 10.2833 5 10 5C9.7167 5 9.475 5.1 9.275 5.3C9.0917 5.48333 9 5.71667 9 6C9 6.28333 9.0917 6.525 9.275 6.725C9.475 6.90833 9.7167 7 10 7ZM10 20C8.6167 20 7.31667 19.7417 6.1 19.225C4.88333 18.6917 3.825 17.975 2.925 17.075C2.025 16.175 1.30833 15.1167 0.775 13.9C0.25833 12.6833 0 11.3833 0 10C0 8.6167 0.25833 7.31667 0.775 6.1C1.30833 4.88333 2.025 3.825 2.925 2.925C3.825 2.025 4.88333 1.31667 6.1 0.8C7.31667 0.26667 8.6167 0 10 0C11.3833 0 12.6833 0.26667 13.9 0.8C15.1167 1.31667 16.175 2.025 17.075 2.925C17.975 3.825 18.6833 4.88333 19.2 6.1C19.7333 7.31667 20 8.6167 20 10C20 11.3833 19.7333 12.6833 19.2 13.9C18.6833 15.1167 17.975 16.175 17.075 17.075C16.175 17.975 15.1167 18.6917 13.9 19.225C12.6833 19.7417 11.3833 20 10 20ZM10 18C12.2333 18 14.125 17.225 15.675 15.675C17.225 14.125 18 12.2333 18 10C18 7.76667 17.225 5.875 15.675 4.325C14.125 2.775 12.2333 2 10 2C7.76667 2 5.875 2.775 4.325 4.325C2.775 5.875 2 7.76667 2 10C2 12.2333 2.775 14.125 4.325 15.675C5.875 17.225 7.76667 18 10 18Z" fill="#444746"/>
</svg>
