<svg width="20" height="20" viewBox="0 0 20 20" fill="none" xmlns="http://www.w3.org/2000/svg">
<path d="M2 20C1.45 20 0.97917 19.8042 0.5875 19.4125C0.19583 19.0208 0 18.55 0 18V4C0 3.45 0.19583 2.97917 0.5875 2.5875C0.97917 2.19583 1.45 2 2 2H10V4H2V18H16V10H18V18C18 18.55 17.8042 19.0208 17.4125 19.4125C17.0208 19.8042 16.55 20 16 20H2ZM3 16L6 12L8.25 15L11.25 11L15 16H3ZM14.5 11C14.5 9.4667 13.9667 8.16667 12.9 7.1C11.8333 6.03333 10.5333 5.5 9 5.5C10.5333 5.5 11.8333 4.96667 12.9 3.9C13.9667 2.83333 14.5 1.53333 14.5 0C14.5 1.53333 15.0333 2.83333 16.1 3.9C17.1667 4.96667 18.4667 5.5 20 5.5C18.4667 5.5 17.1667 6.03333 16.1 7.1C15.0333 8.16667 14.5 9.4667 14.5 11Z" fill="#444746"/>
</svg>
