<svg width="12" height="16" viewBox="0 0 12 16" fill="none" xmlns="http://www.w3.org/2000/svg">
<path fill-rule="evenodd" clip-rule="evenodd" d="M5.865 2.0075C7.4475 1.97 9.0375 2.5475 10.245 3.755C12.585 6.1025 12.585 9.8975 10.2375 12.2525L9.18 11.195C10.935 9.44 10.935 6.5825 9.18 4.8275C8.28 3.92 7.08 3.5 5.895 3.53L6.6825 4.3175L5.625 5.375L3 2.75L5.625 0.125L6.69 1.1825L5.865 2.0075ZM5.3175 11.6825L6.375 10.625L9 13.25L6.3675 15.8675L5.31 14.81L6.135 13.985C4.5525 14.0225 2.9625 13.445 1.755 12.2375C-0.585 9.8975 -0.585 6.095 1.755 3.755L2.82 4.805C1.065 6.56 1.065 9.4175 2.82 11.1725C3.72 12.08 4.92 12.5 6.105 12.47L5.3175 11.6825Z" fill="#C5221F"/>
</svg>
