<svg width="18" height="12" viewBox="0 0 18 12" fill="none" xmlns="http://www.w3.org/2000/svg">
<path d="M9 0C4.91 0 1.42 2.49 0 6C1.42 9.51 4.91 12 9 12C13.09 12 16.58 9.51 18 6C16.58 2.49 13.09 0 9 0ZM9 10.5C5.83 10.5 3 8.75 1.64 6C3 3.25 5.83 1.5 9 1.5C12.17 1.5 15 3.25 16.36 6C15 8.75 12.17 10.5 9 10.5Z" fill="#444746"/>
<path d="M9 2.5C7.07 2.5 5.5 4.07 5.5 6C5.5 7.93 7.07 9.5 9 9.5C10.93 9.5 12.5 7.93 12.5 6C12.5 4.07 10.93 2.5 9 2.5ZM9 8C7.9 8 7 7.1 7 6C7 4.9 7.9 4 9 4C10.1 4 11 4.9 11 6C11 7.1 10.1 8 9 8Z" fill="#444746"/>
</svg>
