<svg width="18" height="15" viewBox="0 0 18 15" fill="none" xmlns="http://www.w3.org/2000/svg">
<path d="M0 15L9 0L18 15H0ZM2.64583 13.5H15.3542L9 2.91667L2.64583 13.5ZM9 12.5C9.2083 12.5 9.3819 12.4306 9.5208 12.2917C9.6736 12.1389 9.75 11.9583 9.75 11.75C9.75 11.5417 9.6736 11.3681 9.5208 11.2292C9.3819 11.0764 9.2083 11 9 11C8.79167 11 8.61111 11.0764 8.45833 11.2292C8.31945 11.3681 8.25 11.5417 8.25 11.75C8.25 11.9583 8.31945 12.1389 8.45833 12.2917C8.61111 12.4306 8.79167 12.5 9 12.5ZM8.25 10H9.75V6H8.25V10Z" fill="#5C4300"/>
</svg>
