<svg width="18" height="18" viewBox="0 0 18 18" fill="none" xmlns="http://www.w3.org/2000/svg">
<path fill-rule="evenodd" clip-rule="evenodd" d="M9 0.75C4.44375 0.75 0.75 4.44375 0.75 9C0.75 13.5563 4.44375 17.25 9 17.25C13.5563 17.25 17.25 13.5563 17.25 9C17.25 4.44375 13.5563 0.75 9 0.75ZM9 14.625C5.89313 14.625 3.375 12.1069 3.375 9C3.375 5.89313 5.89313 3.375 9 3.375C10.5169 3.375 11.7891 3.93281 12.7631 4.84125L11.1506 6.45375C10.5666 5.89781 9.82594 5.61281 8.99906 5.61281C7.16344 5.61281 5.67562 7.16531 5.67562 9.00094C5.67562 10.8366 7.16437 12.3881 9 12.3881C10.6659 12.3881 11.8012 11.4328 12.0309 10.1231H9V7.96875H14.2978C14.3634 8.33906 14.4009 8.72531 14.4009 9.1275C14.4009 12.3412 12.2484 14.625 9 14.625Z" fill="#4285F4"/>
</svg>
