<svg width="16" height="12" viewBox="0 0 16 12" fill="none" xmlns="http://www.w3.org/2000/svg">
<path d="M6.5 6C8.15625 6 9.5 4.65625 9.5 3C9.5 1.34375 8.15625 0 6.5 0C4.84375 0 3.5 1.34375 3.5 3C3.5 4.65625 4.84375 6 6.5 6ZM6.5 1.5C7.32422 1.5 8 2.17578 8 3C8 3.82422 7.32422 4.5 6.5 4.5C5.67578 4.5 5 3.82422 5 3C5 2.17578 5.67578 1.5 6.5 1.5ZM7.03906 10.5L8.53906 12H0.5V9.75C0.5 7.75391 4.49609 6.75 6.5 6.75C6.93359 6.75 7.46094 6.80078 8.02344 6.89062L7.84375 7.07422L6.79297 8.12109L6.66406 8.25H6.5C4.47656 8.25 2.14844 9.21875 2 9.75781V10.5H7.03906ZM15.5 7.16406L10.6641 12L7.85156 9.1875L8.89844 8.13672L10.6641 9.89844L14.4492 6.11328L15.5 7.16406Z" fill="#444746"/>
</svg>
