<svg width="12" height="12" viewBox="0 0 12 12" fill="none" xmlns="http://www.w3.org/2000/svg">
<path d="M6 6C5.16667 6 4.45833 5.70833 3.875 5.125C3.29167 4.54167 3 3.83333 3 3C3 2.16667 3.29167 1.45833 3.875 0.875C4.45833 0.29167 5.16667 0 6 0C6.8333 0 7.5417 0.29167 8.125 0.875C8.7083 1.45833 9 2.16667 9 3C9 3.83333 8.7083 4.54167 8.125 5.125C7.5417 5.70833 6.8333 6 6 6ZM0 12V10C0 9.6806 0.0868098 9.3785 0.26042 9.0938C0.43403 8.809 0.67361 8.5694 0.97917 8.375C1.74306 7.9306 2.55063 7.5903 3.40188 7.3542C4.25313 7.1181 5.11771 7 5.99563 7C6.8735 7 7.7396 7.1181 8.5938 7.3542C9.4479 7.5903 10.2569 7.9306 11.0208 8.375C11.3264 8.5556 11.566 8.7917 11.7396 9.0833C11.9132 9.375 12 9.6806 12 10V12H0ZM1.5 10.5H10.5V10C10.5 9.9281 10.479 9.8627 10.4369 9.804C10.3949 9.7451 10.3396 9.6993 10.2708 9.6667C9.6319 9.2778 8.9514 8.9861 8.2292 8.7917C7.5069 8.5972 6.7639 8.5 6 8.5C5.23611 8.5 4.49306 8.5972 3.77083 8.7917C3.04861 8.9861 2.36806 9.2778 1.72917 9.6667C1.65972 9.7222 1.60417 9.7758 1.5625 9.8275C1.52083 9.8793 1.5 9.9368 1.5 10V10.5ZM6.0044 4.5C6.4181 4.5 6.7708 4.35271 7.0625 4.05812C7.3542 3.76354 7.5 3.40937 7.5 2.99562C7.5 2.58187 7.3527 2.22917 7.0581 1.9375C6.7635 1.64583 6.4094 1.5 5.99563 1.5C5.58188 1.5 5.22917 1.64729 4.9375 1.94188C4.64583 2.23646 4.5 2.59063 4.5 3.00438C4.5 3.41813 4.64729 3.77083 4.94187 4.0625C5.23646 4.35417 5.59062 4.5 6.0044 4.5Z" fill="#444746"/>
</svg>
