<svg width="16" height="16" viewBox="0 0 16 16" fill="none" xmlns="http://www.w3.org/2000/svg">
<path d="M4.5 14.5V13H14V14.5H4.5ZM4.5 10.25V8.75H14V10.25H4.5ZM1.49562 15.25C1.08187 15.25 0.72917 15.1027 0.4375 14.8081C0.14583 14.5135 0 14.1594 0 13.7456C0 13.3319 0.14729 12.9792 0.44188 12.6875C0.73646 12.3958 1.09063 12.25 1.50438 12.25C1.91813 12.25 2.27083 12.3973 2.5625 12.6919C2.85417 12.9865 3 13.3406 3 13.7544C3 14.1681 2.85271 14.5208 2.55813 14.8125C2.26354 15.1042 1.90937 15.25 1.49562 15.25ZM1.49562 11C1.08187 11 0.72917 10.8527 0.4375 10.5581C0.14583 10.2635 0 9.9094 0 9.4956C0 9.0819 0.14729 8.72917 0.44188 8.4375C0.73646 8.14583 1.09063 8 1.50438 8C1.91813 8 2.27083 8.14729 2.5625 8.44188C2.85417 8.73646 3 9.0906 3 9.5044C3 9.9181 2.85271 10.2708 2.55813 10.5625C2.26354 10.8542 1.90937 11 1.49562 11ZM12.5 7C12.5 6.02778 12.1597 5.20139 11.4792 4.52083C10.7986 3.84028 9.9722 3.5 9 3.5C9.9722 3.5 10.7986 3.15972 11.4792 2.47917C12.1597 1.79861 12.5 0.97222 12.5 0C12.5 0.97222 12.8403 1.79861 13.5208 2.47917C14.2014 3.15972 15.0278 3.5 16 3.5C15.0278 3.5 14.2014 3.84028 13.5208 4.52083C12.8403 5.20139 12.5 6.02778 12.5 7Z" fill="#444746"/>
</svg>
