<svg width="16" height="16" viewBox="0 0 16 16" fill="none" xmlns="http://www.w3.org/2000/svg">
<path fill-rule="evenodd" clip-rule="evenodd" d="M4.684 0H11.316L16 4.684V11.316L11.316 16H4.684L0 11.316V4.684L4.684 0ZM10.486 14L14 10.486V5.514L10.486 2H5.514L2 5.514V10.486L5.514 14H10.486ZM8 13C8.26522 13 8.51957 12.8946 8.70711 12.7071C8.89464 12.5196 9 12.2652 9 12C9 11.7348 8.89464 11.4804 8.70711 11.2929C8.51957 11.1054 8.26522 11 8 11C7.73478 11 7.48043 11.1054 7.29289 11.2929C7.10536 11.4804 7 11.7348 7 12C7 12.2652 7.10536 12.5196 7.29289 12.7071C7.48043 12.8946 7.73478 13 8 13ZM9 4H7V10H9V4Z" fill="#3C4043"/>
</svg>
