<svg width="16" height="16" viewBox="0 0 16 16" fill="none" xmlns="http://www.w3.org/2000/svg">
<path d="M2.69131 14.5L1.50031 5.57799L2.50031 5.44899V3.92999L1.30031 4.08999C0.480313 4.19999 -0.101686 4.96199 0.0123135 5.78199L1.19931 14.7C1.22514 14.896 1.28948 15.085 1.38863 15.2561C1.48777 15.4272 1.61976 15.577 1.77701 15.6969C1.93426 15.8168 2.11366 15.9044 2.3049 15.9547C2.49613 16.005 2.69543 16.017 2.89131 15.99L11.8093 14.802C12.1371 14.7587 12.4411 14.6072 12.673 14.3715C12.9048 14.1358 13.0514 13.8295 13.0893 13.501H10.1793L2.69131 14.5Z" fill="#444746"/>
<path d="M14.5 0H5.5C5.10218 0 4.72064 0.158035 4.43934 0.43934C4.15804 0.720644 4 1.10218 4 1.5V10.5C4 10.8978 4.15804 11.2794 4.43934 11.5607C4.72064 11.842 5.10218 12 5.5 12H14.5C14.8978 12 15.2794 11.842 15.5607 11.5607C15.842 11.2794 16 10.8978 16 10.5V1.5C16 1.10218 15.842 0.720644 15.5607 0.43934C15.2794 0.158035 14.8978 0 14.5 0ZM14.5 10.5H5.5V1.5H14.5V10.5Z" fill="#444746"/>
<path d="M13 7.73001V4.27001L10 2.57001L7 4.27001V7.71901L10 9.42201L13 7.73001ZM8.5 5.14801L10 4.30101L11.5 5.14801V6.85201L10 7.69901L8.5 6.85201V5.14801Z" fill="#444746"/>
</svg>
