<svg width="30" height="30" viewBox="0 0 30 30" fill="none" xmlns="http://www.w3.org/2000/svg">
<path d="M15 30C6.71573 30 0 23.2843 0 15C0 6.71573 6.71573 0 15 0C23.2843 0 30 6.71573 30 15C30 23.2843 23.2843 30 15 30ZM6 12V18H10L15 23V7L10 12H6ZM13 11.83V18.17L10.83 16H8V14H10.83L13 11.83ZM19.5 15C19.5 13.23 18.48 11.71 17 10.97V19.02C18.48 18.29 19.5 16.77 19.5 15ZM17 6.23V8.29C19.89 9.15 22 11.83 22 15C22 18.17 19.89 20.85 17 21.71V23.77C21.01 22.86 24 19.28 24 15C24 10.72 21.01 7.14 17 6.23Z" fill="#444746"/>
</svg>
