<svg width="10" height="10" viewBox="0 0 10 10" fill="none" xmlns="http://www.w3.org/2000/svg">
<path d="M5.0002 9.80001C4.34187 9.80001 3.72103 9.67501 3.1377 9.42501C2.55437 9.17501 2.04187 8.83334 1.6002 8.40001C1.16687 7.95834 0.825195 7.44584 0.575195 6.86251C0.325195 6.27918 0.200195 5.65834 0.200195 5.00001C0.200195 4.33334 0.325195 3.71251 0.575195 3.13751C0.825195 2.55418 1.16687 2.04584 1.6002 1.61251C2.04187 1.17084 2.55437 0.825012 3.1377 0.575012C3.72103 0.325012 4.34187 0.200012 5.0002 0.200012C5.66687 0.200012 6.2877 0.325012 6.8627 0.575012C7.44603 0.825012 7.95437 1.17084 8.3877 1.61251C8.82937 2.04584 9.1752 2.55418 9.4252 3.13751C9.6752 3.71251 9.8002 4.33334 9.8002 5.00001V5.75001C9.8002 6.20834 9.6377 6.60001 9.3127 6.92501C8.99603 7.24168 8.60853 7.40001 8.1502 7.40001C7.86687 7.40001 7.60437 7.32918 7.3627 7.18751C7.12937 7.04584 6.92937 6.85834 6.7627 6.62501C6.52937 6.86668 6.25853 7.05834 5.9502 7.20001C5.6502 7.33334 5.33353 7.40001 5.0002 7.40001C4.33353 7.40001 3.76687 7.16668 3.3002 6.70001C2.83353 6.23334 2.6002 5.66668 2.6002 5.00001C2.6002 4.33334 2.83353 3.76668 3.3002 3.30001C3.76687 2.83334 4.33353 2.60001 5.0002 2.60001C5.66687 2.60001 6.23353 2.83334 6.7002 3.30001C7.16687 3.76668 7.4002 4.33334 7.4002 5.00001V5.75001C7.4002 5.95834 7.47103 6.13751 7.6127 6.28751C7.7627 6.42918 7.94187 6.50001 8.1502 6.50001C8.35853 6.50001 8.53353 6.42918 8.6752 6.28751C8.8252 6.13751 8.9002 5.95834 8.9002 5.75001V5.00001C8.9002 3.91668 8.52103 2.99584 7.7627 2.23751C7.00437 1.47918 6.08353 1.10001 5.0002 1.10001C3.91687 1.10001 2.99603 1.47918 2.2377 2.23751C1.47937 2.99584 1.1002 3.91668 1.1002 5.00001C1.1002 6.08334 1.47937 7.00418 2.2377 7.76251C2.99603 8.52084 3.91687 8.90001 5.0002 8.90001H7.4002V9.80001H5.0002ZM5.0002 6.50001C5.41687 6.50001 5.77103 6.35418 6.0627 6.06251C6.35437 5.77084 6.5002 5.41668 6.5002 5.00001C6.5002 4.58334 6.35437 4.22918 6.0627 3.93751C5.77103 3.64584 5.41687 3.50001 5.0002 3.50001C4.58353 3.50001 4.22937 3.64584 3.9377 3.93751C3.64603 4.22918 3.5002 4.58334 3.5002 5.00001C3.5002 5.41668 3.64603 5.77084 3.9377 6.06251C4.22937 6.35418 4.58353 6.50001 5.0002 6.50001Z" fill="#444746"/>
</svg>
