<svg width="18" height="18" viewBox="0 0 18 18" fill="none" xmlns="http://www.w3.org/2000/svg">
<path d="M5.5 11H6.5C6.78333 11 7.0167 10.9083 7.2 10.725C7.4 10.525 7.5 10.2833 7.5 10V9H6.5V10H5.5V8H7.5C7.5 7.7167 7.4 7.4833 7.2 7.3C7.0167 7.1 6.78333 7 6.5 7H5.5C5.21667 7 4.975 7.1 4.775 7.3C4.59167 7.4833 4.5 7.7167 4.5 8V10C4.5 10.2833 4.59167 10.525 4.775 10.725C4.975 10.9083 5.21667 11 5.5 11ZM8.5 11H9.5V7H8.5V11ZM10.5 11H11.5V9.5H13V8.5H11.5V8H13.5V7H10.5V11ZM2 18C1.45 18 0.975 17.8083 0.575 17.425C0.19167 17.025 0 16.55 0 16V2C0 1.45 0.19167 0.98333 0.575 0.6C0.975 0.2 1.45 0 2 0H16C16.55 0 17.0167 0.2 17.4 0.6C17.8 0.98333 18 1.45 18 2V16C18 16.55 17.8 17.025 17.4 17.425C17.0167 17.8083 16.55 18 16 18H2ZM2 16H16V2H2V16Z" fill="#444746"/>
</svg>
