<svg width="14" height="16" viewBox="0 0 14 16" fill="none" xmlns="http://www.w3.org/2000/svg">
<path fill-rule="evenodd" clip-rule="evenodd" d="M11.9925 2V0H1.00446C1.00446 0 0 0 0 0.995789V13.9931L2 14L2.0075 13.9911V3.00532C2.0075 2.28707 2.16375 2 2.9925 2H11.9925ZM12 11V5.55385C12 5.0566 11.9584 5 11.475 5H5.52063C5.03719 5 5 5.0566 5 5.55385L5.00437 13.4462C5.00437 13.9434 5.04156 14 5.525 14H9V11H12ZM4 16C4 16 3 16 3 14.9984V4C3 3 4.00702 3 4 3H12.9976C13.7593 3 14 3.28874 14 4V12.5572L10.3526 16H4Z" fill="#444746"/>
</svg>
