<svg width="16" height="18" viewBox="0 0 16 18" fill="none" xmlns="http://www.w3.org/2000/svg">
<path d="M13 12.3334C12.3417 12.3334 11.75 12.5917 11.3083 13.0084L5.425 9.58335C5.46667 9.39169 5.5 9.20002 5.5 9.00002C5.5 8.80002 5.46667 8.60835 5.425 8.41669L11.3 4.99169C11.7417 5.40835 12.3417 5.66669 13 5.66669C14.3833 5.66669 15.5 4.55002 15.5 3.16669C15.5 1.78335 14.3833 0.666687 13 0.666687C11.6167 0.666687 10.5 1.78335 10.5 3.16669C10.5 3.36669 10.5333 3.56669 10.575 3.75002L4.7 7.17502C4.25 6.75835 3.65833 6.50002 3 6.50002C1.61667 6.50002 0.5 7.61669 0.5 9.00002C0.5 10.3834 1.61667 11.5 3 11.5C3.65833 11.5 4.25 11.2417 4.7 10.825L10.575 14.2584C10.5333 14.4417 10.5 14.6334 10.5 14.8334C10.5 16.2167 11.6167 17.3334 13 17.3334C14.3833 17.3334 15.5 16.2167 15.5 14.8334C15.5 13.45 14.3833 12.3334 13 12.3334ZM13 2.00002C13.55 2.00002 14 2.45002 14 3.00002C14 3.55002 13.55 4.00002 13 4.00002C12.45 4.00002 12 3.55002 12 3.00002C12 2.45002 12.45 2.00002 13 2.00002ZM3 10C2.45 10 2 9.55002 2 9.00002C2 8.45002 2.45 8.00002 3 8.00002C3.55 8.00002 4 8.45002 4 9.00002C4 9.55002 3.55 10 3 10ZM13 16C12.45 16 12 15.55 12 15C12 14.45 12.45 14 13 14C13.55 14 14 14.45 14 15C14 15.55 13.55 16 13 16Z" fill="#444746"/>
</svg>
