<svg width="16" height="16" viewBox="0 0 16 16" fill="none" xmlns="http://www.w3.org/2000/svg">
<path d="M8 0C3.58 0 0 3.58 0 8C0 12.42 3.58 16 8 16C12.42 16 16 12.42 16 8C16 3.58 12.42 0 8 0ZM13.76 5H10.78C10.59 3.73 10.28 2.63 9.89 1.78C11.57 2.29 12.96 3.47 13.76 5ZM14.32 9.5H10.95C11.05 8.14 10.99 7.11 10.95 6.5H14.32C14.56 7.52 14.56 8.48 14.32 9.5ZM6.74 11H9.26C8.94 12.92 8.36 14.09 8 14.44C7.64 14.09 7.06 12.92 6.74 11ZM6.56 9.5C6.48 8.46 6.48 7.56 6.56 6.5H9.44C9.52 7.54 9.52 8.44 9.44 9.5H6.56ZM1.68 6.5H5.05C4.95 7.86 5.01 8.89 5.05 9.5H1.68C1.44 8.48 1.44 7.52 1.68 6.5ZM9.26 5H6.74C7.06 3.08 7.64 1.91 8 1.56C8.36 1.91 8.94 3.08 9.26 5ZM6.11 1.78C5.72 2.63 5.41 3.73 5.22 5H2.24C3.04 3.47 4.43 2.29 6.11 1.78ZM2.24 11H5.22C5.41 12.27 5.72 13.37 6.11 14.22C4.43 13.71 3.04 12.53 2.24 11ZM9.89 14.22C10.28 13.37 10.59 12.27 10.78 11H13.76C12.96 12.53 11.57 13.71 9.89 14.22Z" fill="#444746"/>
</svg>
