<svg width="21" height="21" viewBox="0 0 21 21" fill="none" xmlns="http://www.w3.org/2000/svg">
<path d="M10.9996 5.00006C13.2096 5.00006 14.9996 6.79006 14.9996 9.00006V10.0001H16.4996C17.1627 10.0001 17.7986 10.2635 18.2674 10.7323C18.7363 11.2011 18.9996 11.837 18.9996 12.5001C18.9996 13.2301 18.6796 13.8901 18.1696 14.3401L19.5796 15.7501C20.4496 14.9401 20.9996 13.7801 20.9996 12.5001C20.9996 11.3794 20.5813 10.299 19.8267 9.47043C19.0721 8.64185 18.0355 8.12466 16.9196 8.02006C16.4496 5.18006 13.9696 3.00006 10.9996 3.00006C9.82965 3.00006 8.71965 3.35006 7.77965 3.95006L9.23965 5.41006C9.77965 5.15006 10.3796 5.00006 10.9996 5.00006ZM15.9996 15.0001L7.72965 6.73006L6.28965 5.29006L1.80965 0.810059L0.389648 2.22006L4.54965 6.38006C2.48965 7.18006 0.999648 9.18006 0.999648 11.5001C0.999648 14.5301 3.46965 17.0001 6.49965 17.0001H15.1696L18.7796 20.6101L20.1896 19.2001L17.7896 16.8001L15.9996 15.0001ZM6.49965 15.0001C4.56965 15.0001 2.99965 13.4301 2.99965 11.5001C2.99965 9.69006 4.41965 8.19006 6.20965 8.04006L13.1696 15.0001H6.49965Z" fill="#444746"/>
</svg>
