<svg width="14" height="14" viewBox="0 0 14 14" fill="none" xmlns="http://www.w3.org/2000/svg">
<path d="M14 1H5V3H14V1ZM14 6H5V8H14V6ZM14 11H5V13H14V11ZM1.5 3.5C2.32843 3.5 3 2.82843 3 2C3 1.17157 2.32843 0.5 1.5 0.5C0.67157 0.5 0 1.17157 0 2C0 2.82843 0.67157 3.5 1.5 3.5ZM1.5 8.5C2.32843 8.5 3 7.82843 3 7C3 6.17157 2.32843 5.5 1.5 5.5C0.67157 5.5 0 6.17157 0 7C0 7.82843 0.67157 8.5 1.5 8.5ZM1.5 13.5C2.32843 13.5 3 12.8284 3 12C3 11.1716 2.32843 10.5 1.5 10.5C0.67157 10.5 0 11.1716 0 12C0 12.8284 0.67157 13.5 1.5 13.5Z" fill="#444746"/>
</svg>
