<svg width="21" height="20" viewBox="0 0 21 20" fill="none" xmlns="http://www.w3.org/2000/svg">
<path d="M5.5 11C5.5 9.4667 4.96667 8.16667 3.9 7.1C2.83333 6.03333 1.53333 5.5 0 5.5C1.53333 5.5 2.83333 4.96667 3.9 3.9C4.96667 2.83333 5.5 1.53333 5.5 0C5.5 1.53333 6.03333 2.83333 7.1 3.9C8.16667 4.96667 9.4667 5.5 11 5.5C9.4667 5.5 8.16667 6.03333 7.1 7.1C6.03333 8.16667 5.5 9.4667 5.5 11ZM5 18H6.4L16.2 8.225L15.475 7.5L14.775 6.8L5 16.6V18ZM3 20V15.75L16.2 2.575C16.5833 2.19167 17.0583 2 17.625 2C18.1917 2 18.6667 2.2 19.05 2.6L20.425 4C20.8083 4.38333 21 4.85417 21 5.4125C21 5.97083 20.8083 6.44167 20.425 6.825L7.25 20H3ZM16.2 8.225L15.475 7.5L14.775 6.8L16.2 8.225Z" fill="#0B57D0"/>
</svg>
