<svg width="17" height="12" viewBox="0 0 17 12" fill="none" xmlns="http://www.w3.org/2000/svg">
<path d="M6 0C4.34 0 3 1.34 3 3C3 4.66 4.34 6 6 6C7.66 6 9 4.66 9 3C9 1.34 7.66 0 6 0ZM6 4.5C5.17 4.5 4.5 3.83 4.5 3C4.5 2.17 5.17 1.5 6 1.5C6.83 1.5 7.5 2.17 7.5 3C7.5 3.83 6.83 4.5 6 4.5ZM11.03 8.37C9.56 7.5 7.84 7 6 7C4.16 7 2.44 7.5 0.97 8.37C0.36 8.72 0 9.39 0 10.09V12H12V10.09C12 9.39 11.64 8.72 11.03 8.37ZM10.5 10.5H1.5V10.09C1.5 9.91 1.59 9.75 1.72 9.67C3.02 8.9 4.5 8.5 6 8.5C7.5 8.5 8.98 8.9 10.28 9.66C10.42 9.74 10.5 9.91 10.5 10.08V10.5ZM17 3.25H14.75V1H13.25V3.25H11V4.75H13.25V7H14.75V4.75H17V3.25Z" fill="#444746"/>
</svg>
