<svg width="24" height="34" viewBox="0 0 24 34" fill="none" xmlns="http://www.w3.org/2000/svg">
<path fill-rule="evenodd" clip-rule="evenodd" d="M2.5498 0.800049H15.5998L23.6998 8.90005V30.9501C23.6998 32.1927 22.6924 33.2001 21.4498 33.2001H2.5498C1.30716 33.2001 0.299805 32.1927 0.299805 30.9501V3.05005C0.299805 1.80741 1.30716 0.800049 2.5498 0.800049Z" fill="#DB4437"/>
<path fill-rule="evenodd" clip-rule="evenodd" d="M0.299805 30.5C0.299805 31.7426 1.30716 32.75 2.5498 32.75H21.4498C22.6924 32.75 23.6998 31.7426 23.6998 30.5V30.95C23.6998 32.1926 22.6924 33.2 21.4498 33.2H2.5498C1.30716 33.2 0.299805 32.1926 0.299805 30.95V30.5Z" fill="#3E2723" fill-opacity="0.2"/>
<path fill-rule="evenodd" clip-rule="evenodd" d="M2.5498 0.800049H15.5998V1.25005H2.5498C1.30716 1.25005 0.299805 2.25741 0.299805 3.50005V3.05005C0.299805 1.80741 1.30716 0.800049 2.5498 0.800049Z" fill="white" fill-opacity="0.2"/>
<path d="M16.0498 8L23.6998 15.65V8.9" fill="url(#paint0_linear_148_14877)"/>
<path fill-rule="evenodd" clip-rule="evenodd" d="M15.5996 0.800049L23.6996 8.90005H17.8496C16.607 8.90005 15.5996 7.89269 15.5996 6.65005V0.800049Z" fill="#EDA29B"/>
<path d="M13.7998 18.8C13.7998 16.3148 11.785 14.3 9.2998 14.3C6.8146 14.3 4.7998 16.3148 4.7998 18.8C4.7998 21.2853 6.8146 23.3 9.2998 23.3C11.785 23.3 13.7998 21.2853 13.7998 18.8ZM9.2998 21.5C7.8109 21.5 6.5998 20.2889 6.5998 18.8C6.5998 17.3112 7.8109 16.1 9.2998 16.1C10.7887 16.1 11.9998 17.3112 11.9998 18.8C11.9998 20.2889 10.7887 21.5 9.2998 21.5ZM15.1498 20.6C14.6998 22.4 13.3498 23.75 11.9998 24.2V27.8H19.1998V20.6H15.1498Z" fill="#F1F1F1"/>
<path fill-rule="evenodd" clip-rule="evenodd" d="M2.5498 0.800049H15.5998L23.6998 8.90005V30.9501C23.6998 32.1927 22.6924 33.2001 21.4498 33.2001H2.5498C1.30716 33.2001 0.299805 32.1927 0.299805 30.9501V3.05005C0.299805 1.80741 1.30716 0.800049 2.5498 0.800049Z" fill="url(#paint1_radial_148_14877)" fill-opacity="0.1"/>
<defs>
<linearGradient id="paint0_linear_148_14877" x1="19.8751" y1="8.65683" x2="19.8751" y2="15.651" gradientUnits="userSpaceOnUse">
<stop stop-color="#3E2723" stop-opacity="0.2"/>
<stop offset="1" stop-color="#3E2723" stop-opacity="0.02"/>
</linearGradient>
<radialGradient id="paint1_radial_148_14877" cx="0" cy="0" r="1" gradientUnits="userSpaceOnUse" gradientTransform="translate(1.04113 1.44326) scale(37.732 37.7319)">
<stop stop-color="white"/>
<stop offset="1" stop-color="white" stop-opacity="0"/>
</radialGradient>
</defs>
</svg>
