<svg width="14" height="18" viewBox="0 0 14 18" fill="none" xmlns="http://www.w3.org/2000/svg">
<path d="M8.82997 7.81363L11.4144 5.84488L12.5619 3.36886C11.798 1.91045 10.4786 0.787497 8.89237 0.289429L6.50737 1.90022L5.1543 4.7342C5.59407 4.20136 6.25373 3.86591 6.99521 3.86591C8.32677 3.86591 9.39147 4.94284 9.39147 6.26216C9.39047 6.85227 9.17767 7.39636 8.82997 7.81363Z" fill="#4285F4"/>
<path d="M6.99418 0C5.06123 0 3.34816 0.868295 2.19043 2.24591L3.29293 4.05205L5.1543 4.73523C5.16555 4.72398 8.89337 0.290455 8.89337 0.290455C8.29097 0.104318 7.65384 0 6.99418 0Z" fill="#1A73E8"/>
<path d="M8.83006 7.81364C8.39026 8.33421 7.7357 8.67068 6.99422 8.67068C5.66263 8.67068 4.59797 7.59375 4.59797 6.27443C4.59797 5.70682 4.82911 5.14023 5.15331 4.73523L2.40729 6.69887L1.3457 9.27205C2.00536 10.7069 3.09354 11.8647 4.21649 13.3118L7.1599 10.9698L8.83006 7.81364Z" fill="#FBBC04"/>
<path d="M13.2802 6.2744C13.2802 5.22099 13.0143 4.23713 12.5623 3.36884L4.21582 13.3118C4.58605 13.7863 4.94502 14.2957 5.304 14.851C6.57832 16.8197 6.19582 18 7.00684 18C7.82911 18 7.47014 16.8197 8.74343 14.851C10.8379 11.5752 13.2802 10.082 13.2802 6.2744Z" fill="#34A853"/>
<path d="M5.15422 4.73421L2.19036 2.24591C1.27604 3.33409 0.720703 4.74648 0.720703 6.27443C0.720703 7.45466 0.951843 8.41603 1.34559 9.27205L5.15422 4.73421Z" fill="#EA4335"/>
</svg>
