<svg width="32" height="48" viewBox="0 0 32 48" fill="none" xmlns="http://www.w3.org/2000/svg">
<path fill-rule="evenodd" clip-rule="evenodd" d="M0 32H32V34H0V32ZM0 25H32V27H0V25ZM0 39H32V41H0V39ZM0 46H32V48H0V46Z" fill="#D8D8D8"/>
<path fill-rule="evenodd" clip-rule="evenodd" d="M0 1H16V3H0V1ZM4 8H20V10H4V8Z" fill="#444746" fill-opacity="0.87"/>
<path fill-rule="evenodd" clip-rule="evenodd" d="M29 8H30.8L29 10.1V11H32V10H30.2L32 7.9V7H29V8Z" fill="#212121"/>
<path fill-rule="evenodd" clip-rule="evenodd" d="M8 15H24V17H8V15Z" fill="#444746" fill-opacity="0.87"/>
<path fill-rule="evenodd" clip-rule="evenodd" d="M29 15H31V15.5H30V16.5H31V17H29V18H32V14H29V15ZM30 4H31V0H29V1H30V4Z" fill="#212121"/>
</svg>
