<svg width="18" height="18" viewBox="0 0 18 18" fill="none" xmlns="http://www.w3.org/2000/svg">
<path d="M11.8528 15.75H4.45483C3.96883 15.75 3.52783 15.489 3.28483 15.075L1.57483 12.096C1.33183 11.682 1.33183 11.16 1.57483 10.746L6.11983 2.925C6.36283 2.502 6.81283 2.25 7.28983 2.25H10.7098C11.1868 2.25 11.6368 2.502 11.8798 2.925L15.2008 8.631C14.9398 8.577 14.6698 8.55 14.3998 8.55C14.1388 8.55 13.8778 8.577 13.6348 8.622L10.7098 3.6H7.28983L2.74483 11.421L4.45483 14.4H10.7728C11.0338 14.931 11.3938 15.381 11.8528 15.75ZM17.0998 11.925H15.0748V9.9H13.7248V11.925H11.6998V13.275H13.7248V15.3H15.0748V13.275H17.0998V11.925ZM6.92083 11.205L8.99983 7.578L10.8088 10.728C11.0338 10.287 11.3398 9.9 11.7088 9.576L9.64783 5.976H8.36083L5.11183 11.646L5.62483 12.546H10.3498C10.3588 12.069 10.4398 11.619 10.6018 11.196H6.92083V11.205Z" fill="#444746"/>
</svg>
