<svg width="12" height="14" viewBox="0 0 12 14" fill="none" xmlns="http://www.w3.org/2000/svg">
<path d="M5.2 14C4.8 14 4.4 14 4.1 13.7C3.8 13.4 3.7 13.1 3.7 12.6V10H1.5C1.1 10 0.7 9.9 0.4 9.6C0.1 9.3 0 8.9 0 8.5V3C0 2.2 0.3 1.5 0.9 0.9C1.5 0.3 2.2 0 3 0H12V8.4C12 8.8 11.9 9.2 11.6 9.5C11.3 9.8 11 9.9 10.5 9.9H8.3V12.5C8.3 12.9 8.2 13.3 7.9 13.6C7.6 13.9 7.3 14 6.8 14H5.2ZM1.5 5.5H10.5V1.5H9.7V4.5H8.2V1.5H7.4V3H6V1.5H3C2.6 1.5 2.2 1.6 1.9 1.9C1.6 2.3 1.5 2.6 1.5 3V5.5ZM1.5 8.5H10.5V7H1.5V8.5Z" fill="#444746"/>
</svg>
