<svg width="16" height="18" viewBox="0 0 16 18" fill="none" xmlns="http://www.w3.org/2000/svg">
<path d="M4.00048 3.4C4.20049 2.50001 4.92546 2 5.75046 2H10.2505C11.083 2 12.0005 2.6675 12.0005 3.5V8.25001L13.5005 10.5V12L11.6565 10L10.0005 8.2939V5.90626V4H6.00048L6.00049 4.6L4.00048 3.4ZM13.6507 17.12L9.00049 12.2578L9.00048 15.2L8.00046 16L7.00048 15.2V12H2.50048V10.5L3.50048 9.00001L4.00048 8.25001L4.00049 7.04297L0.150391 3.02003L1.59049 1.63L15.0907 15.74L13.6507 17.12ZM6.83076 10L5.86049 9L5.23602 10H6.83076Z" fill="#444746"/>
<path d="M2.65295 0.582796L1.56934 1.62L11.6907 12.1943L12.7743 11.1571L2.65295 0.582796Z" fill="white"/>
<path d="M1.5747 1.61707L0.129883 3L13.625 17.099L15.0698 15.7161L1.5747 1.61707Z" fill="#444746"/>
</svg>
