<svg width="16" height="16" viewBox="0 0 16 16" fill="none" xmlns="http://www.w3.org/2000/svg">
<path fill-rule="evenodd" clip-rule="evenodd" d="M2 11.8995L11.8995 2L14.0208 4.12132L4.12132 14.0208L2 11.8995ZM5.59875 1.88625C3.15 3.04875 1.39125 5.43 1.125 8.25H0C0.3825 3.63 4.245 0 8.9625 0C9.13125 0 9.2925 0.015 9.46125 0.02625L6.6 2.8875L5.59875 1.88625ZM10.3263 14.1138C12.775 12.9513 14.5338 10.57 14.8 7.75H15.925C15.5425 12.37 11.68 16 6.9625 16C6.79375 16 6.6325 15.985 6.46375 15.9738L9.325 13.1125L10.3263 14.1138Z" fill="#444746"/>
</svg>
