<svg width="17" height="16" viewBox="0 0 17 16" fill="none" xmlns="http://www.w3.org/2000/svg">
<path d="M4.95039 9.00039C4.95039 7.8713 4.55767 6.91403 3.77222 6.12857C2.98675 5.34312 2.02948 4.95039 0.900391 4.95039C2.02948 4.95039 2.98675 4.55767 3.77222 3.77222C4.55767 2.98675 4.95039 2.02948 4.95039 0.900391C4.95039 2.02948 5.34312 2.98675 6.12857 3.77222C6.91403 4.55767 7.8713 4.95039 9.00039 4.95039C7.8713 4.95039 6.91403 5.34312 6.12857 6.12857C5.34312 6.91403 4.95039 7.8713 4.95039 9.00039ZM4.95039 13.9504H5.90664L12.9379 6.91914L12.4504 6.41289L11.9816 5.96289L4.95039 12.9941V13.9504ZM3.60039 15.3004V12.4316L12.9379 3.09414C13.2004 2.83164 13.5191 2.70039 13.8941 2.70039C14.2691 2.70039 14.5879 2.83164 14.8504 3.09414L15.8023 4.0511C16.0677 4.31313 16.2004 4.63258 16.2004 5.00945C16.2004 5.38633 16.0691 5.70414 15.8066 5.96289L6.46914 15.3004H3.60039ZM12.9379 6.91914L12.4504 6.41289L11.9816 5.96289L12.9379 6.91914Z" fill="#0B57D0"/>
</svg>
