<svg width="18" height="12" viewBox="0 0 18 12" fill="none" xmlns="http://www.w3.org/2000/svg">
<path d="M9 6.25C9.9665 6.25 10.75 5.4665 10.75 4.5C10.75 3.5335 9.9665 2.75 9 2.75C8.0335 2.75 7.25 3.5335 7.25 4.5C7.25 5.4665 8.0335 6.25 9 6.25Z" fill="#444746"/>
<path d="M12 0H6C2.69 0 0 2.69 0 6C0 9.31 2.69 12 6 12H12C15.31 12 18 9.31 18 6C18 2.69 15.31 0 12 0ZM12 10.5H6C3.52 10.5 1.5 8.48 1.5 6C1.5 3.52 3.52 1.5 6 1.5H12C14.48 1.5 16.5 3.52 16.5 6C16.5 8.48 14.48 10.5 12 10.5Z" fill="#444746"/>
<path d="M11.17 7.37C10.49 7.13 9.76 7 9 7C8.24 7 7.51 7.13 6.83 7.37C6.03 7.65 5.5 8.41 5.5 9.26V9.49H12.5V9.26C12.5 8.42 11.97 7.66 11.17 7.37Z" fill="#444746"/>
</svg>
