<svg width="18" height="14" viewBox="0 0 18 14" fill="none" xmlns="http://www.w3.org/2000/svg">
<path d="M17.6205 2.67C17.5195 2.28324 17.3155 1.93112 17.0302 1.65112C16.7449 1.37113 16.3891 1.17375 16.0005 1.08C13.678 0.799539 11.3396 0.672597 9.00049 0.699999C6.66134 0.672597 4.32292 0.799539 2.00049 1.08C1.61191 1.17375 1.25603 1.37113 0.970754 1.65112C0.685476 1.93112 0.481478 2.28324 0.380486 2.67C0.1183 4.09822 -0.00892715 5.54794 0.000486469 7C-0.00892715 8.45206 0.1183 9.90178 0.380486 11.33C0.481478 11.7168 0.685476 12.0689 0.970754 12.3489C1.25603 12.6289 1.61191 12.8263 2.00049 12.92C4.32292 13.2005 6.66134 13.3274 9.00049 13.3C11.3396 13.3274 13.678 13.2005 16.0005 12.92C16.3835 12.8215 16.7331 12.622 17.0128 12.3423C17.2925 12.0627 17.492 11.7131 17.5905 11.33C17.8627 9.90273 18 8.453 18.0005 7C18.0099 5.54794 17.8827 4.09822 17.6205 2.67Z" fill="#FF0000"/>
<path d="M7.2002 9.69999L11.8802 6.99999L7.2002 4.29999V9.69999Z" fill="white"/>
</svg>
