<svg width="81" height="46" viewBox="0 0 81 46" fill="none" xmlns="http://www.w3.org/2000/svg">
<path d="M0 0H81V46H0V0Z" fill="white"/>
<path d="M8 13H57V19H8V13Z" fill="#DADCE0"/>
<path fill-rule="evenodd" clip-rule="evenodd" d="M64.1111 11H71.8889C72.5 11 73 11.5 73 12.1111V19.8889C73 20.5 72.5 21 71.8889 21H64.1111C63.5 21 63 20.5 63 19.8889V12.1111C63 11.5 63.5 11 64.1111 11ZM71.8889 19.8889V12.1111H64.1111V19.8889H71.8889Z" fill="#444746"/>
<path d="M8 28H57V34H8V28Z" fill="#DADCE0"/>
<path d="M71.8889 26H64.1111C63.5 26 63 26.5 63 27.1111V34.8889C63 35.5 63.5 36 64.1111 36H71.8889C72.5 36 73 35.5 73 34.8889V27.1111C73 26.5 72.5 26 71.8889 26ZM71.8889 34.8889H64.1111V27.1111H71.8889V34.8889ZM71.3333 29.3333L70.5556 28.5556L66.8889 32.2222L65.4444 30.7778L64.6667 31.5556L66.8889 33.7778L71.3333 29.3333Z" fill="#444746"/>
</svg>
