<svg width="12" height="12" viewBox="0 0 12 12" fill="none" xmlns="http://www.w3.org/2000/svg">
<path d="M3.33333 4C3.52222 4 3.68056 3.93611 3.80833 3.80833C3.93611 3.68056 4 3.52222 4 3.33333C4 3.14444 3.93611 2.98611 3.80833 2.85833C3.68056 2.73056 3.52222 2.66667 3.33333 2.66667C3.14444 2.66667 2.98611 2.73056 2.85833 2.85833C2.73056 2.98611 2.66667 3.14444 2.66667 3.33333C2.66667 3.52222 2.73056 3.68056 2.85833 3.80833C2.98611 3.93611 3.14444 4 3.33333 4ZM3.33333 6.66667C3.52222 6.66667 3.68056 6.60278 3.80833 6.475C3.93611 6.34722 4 6.18889 4 6C4 5.81111 3.93611 5.65278 3.80833 5.525C3.68056 5.39722 3.52222 5.33333 3.33333 5.33333C3.14444 5.33333 2.98611 5.39722 2.85833 5.525C2.73056 5.65278 2.66667 5.81111 2.66667 6C2.66667 6.18889 2.73056 6.34722 2.85833 6.475C2.98611 6.60278 3.14444 6.66667 3.33333 6.66667ZM3.33333 9.3333C3.52222 9.3333 3.68056 9.2694 3.80833 9.1417C3.93611 9.0139 4 8.8556 4 8.6667C4 8.4778 3.93611 8.3194 3.80833 8.1917C3.68056 8.0639 3.52222 8 3.33333 8C3.14444 8 2.98611 8.0639 2.85833 8.1917C2.73056 8.3194 2.66667 8.4778 2.66667 8.6667C2.66667 8.8556 2.73056 9.0139 2.85833 9.1417C2.98611 9.2694 3.14444 9.3333 3.33333 9.3333ZM1.33333 12C0.96667 12 0.65278 11.8694 0.39167 11.6083C0.13056 11.3472 0 11.0333 0 10.6667V1.33333C0 0.96667 0.13056 0.65278 0.39167 0.39167C0.65278 0.13056 0.96667 0 1.33333 0H8.6667L12 3.33333V10.6667C12 11.0333 11.8694 11.3472 11.6083 11.6083C11.3472 11.8694 11.0333 12 10.6667 12H1.33333ZM1.33333 10.6667H10.6667V4H8V1.33333H1.33333V10.6667Z" fill="#444746"/>
</svg>
