<svg width="16" height="15" viewBox="0 0 16 15" fill="none" xmlns="http://www.w3.org/2000/svg">
<path d="M2 14.75C1.5875 14.75 1.2345 14.6033 0.941 14.3098C0.647 14.0158 0.5 13.6625 0.5 13.25V5C0.5 4.5875 0.647 4.2345 0.941 3.941C1.2345 3.647 1.5875 3.5 2 3.5H5V2C5 1.5875 5.147 1.23425 5.441 0.94025C5.7345 0.64675 6.0875 0.5 6.5 0.5H9.5C9.9125 0.5 10.2658 0.64675 10.5598 0.94025C10.8533 1.23425 11 1.5875 11 2V3.5H14C14.4125 3.5 14.7658 3.647 15.0598 3.941C15.3533 4.2345 15.5 4.5875 15.5 5V13.25C15.5 13.6625 15.3533 14.0158 15.0598 14.3098C14.7658 14.6033 14.4125 14.75 14 14.75H2ZM2 13.25H14V5H2V13.25ZM6.5 3.5H9.5V2H6.5V3.5Z" fill="#444746"/>
</svg>
