<svg width="16" height="16" viewBox="0 0 16 16" fill="none" xmlns="http://www.w3.org/2000/svg">
<path d="M14.4 0H1.6C0.72 0 0.00800002 0.72 0.00800002 1.6L0 16L3.01764 13.0026H14.1945C15.0745 13.0026 16 12.08 16 11.2V1.6C16 0.72 15.28 0 14.4 0ZM14.0143 11.0193H1.99908V2.00092H14.0143V11.0193ZM7.01849 9.99414H12.9855V8H9.00763L7.01849 9.99414ZM9.96466 4.98291C10.1247 4.82291 10.1247 4.57491 9.96466 4.41491L8.60229 3.04993C8.44229 2.88993 8.1943 2.88993 8.0343 3.04993L3.02454 8V9.97064H5.01868L9.96466 4.98291Z" fill="#444746"/>
</svg>
