<svg width="56" height="56" viewBox="0 0 56 56" fill="none" xmlns="http://www.w3.org/2000/svg">
<path d="M47 8H9V15H47V8Z" fill="#E3E3E3"/>
<path d="M47 19H9V26H47V19Z" fill="#E3E3E3"/>
<path d="M47 30H31V37H47V30Z" fill="#E3E3E3"/>
<path d="M47 41H31V48H47V41Z" fill="#E3E3E3"/>
<path fill-rule="evenodd" clip-rule="evenodd" d="M25.0833 30H10.9167C9.8625 30 9 30.8625 9 31.9167V46.0833C9 47.1375 9.8625 48 10.9167 48H25.0833C26.1375 48 27 47.1375 27 46.0833V39.375V31.9167C27 30.8625 26.1375 30 25.0833 30ZM25.125 31.9167V34.875H18H10.875V31.875L25.125 31.9167ZM15.75 46.125H20.25V36.75H15.75V46.125ZM10.875 36.75H12.75H13.875V46.125H10.875V36.75ZM22.125 36.75V46.125H25.125V36.75H22.125Z" fill="#4C8DF6"/>
</svg>
