<svg width="16" height="16" viewBox="0 0 16 16" fill="none" xmlns="http://www.w3.org/2000/svg">
<path d="M5.5 16C3.97266 16 2.67188 15.4648 1.60547 14.3945C0.535156 13.3281 0 12.0273 0 10.5C0 8.97266 0.535156 7.67187 1.60547 6.60547C2.67188 5.53516 3.97266 5 5.5 5C7.02734 5 8.32813 5.53516 9.39453 6.60547C10.4648 7.67187 11 8.97266 11 10.5C11 12.0273 10.4648 13.3281 9.39453 14.3945C8.32813 15.4648 7.02734 16 5.5 16ZM5.50391 14.5C6.61328 14.5 7.55469 14.1094 8.33203 13.3281C9.10938 12.5469 9.5 11.6016 9.5 10.4961C9.5 9.38672 9.10938 8.44531 8.32812 7.66797C7.54688 6.89062 6.60156 6.5 5.49609 6.5C4.38672 6.5 3.44531 6.89062 2.66797 7.67188C1.89063 8.45312 1.5 9.39844 1.5 10.5039C1.5 11.6133 1.89062 12.5547 2.67188 13.332C3.45312 14.1094 4.39844 14.5 5.50391 14.5ZM12 10.793V10.5C12 8.69922 11.3672 7.16406 10.1016 5.89844C8.83594 4.63281 7.30078 4 5.5 4H5.20703C5.52734 2.83203 6.17188 1.875 7.14453 1.125C8.11719 0.375 9.23828 0 10.5078 0C12.0234 0 13.3203 0.535156 14.3906 1.60938C15.4648 2.67969 16 3.97656 16 5.49219C16 6.76172 15.625 7.88281 14.875 8.85547C14.125 9.82812 13.168 10.4727 12 10.793Z" fill="#444746"/>
</svg>
