<svg width="16" height="12" viewBox="0 0 16 12" fill="none" xmlns="http://www.w3.org/2000/svg">
<path d="M6 6C7.66 6 9 4.66 9 3C9 1.34 7.66 0 6 0C4.34 0 3 1.34 3 3C3 4.66 4.34 6 6 6ZM6 1.5C6.83 1.5 7.5 2.17 7.5 3C7.5 3.83 6.83 4.5 6 4.5C5.17 4.5 4.5 3.83 4.5 3C4.5 2.17 5.17 1.5 6 1.5ZM11.03 8.37C9.56 7.5 7.84 7 6 7C4.16 7 2.44 7.5 0.97 8.37C0.36 8.72 0 9.39 0 10.09V12H12V10.09C12 9.39 11.64 8.72 11.03 8.37ZM10.5 10.5H1.5V10.09C1.5 9.91 1.59 9.75 1.72 9.67C3.02 8.9 4.5 8.5 6 8.5C7.5 8.5 8.98 8.9 10.28 9.66C10.42 9.74 10.5 9.91 10.5 10.08V10.5ZM15.03 8.37C14.11 7.83 13.09 7.45 12.01 7.23C12.93 7.87 13.49 8.94 13.49 10.09V12H16V10.09C16 9.39 15.64 8.72 15.03 8.37ZM10 6C11.66 6 13 4.66 13 3C13 1.34 11.66 0 10 0C9.79 0 9.58 0.0199999 9.38 0.0599999C10.07 0.85 10.5 1.87 10.5 3C10.5 4.13 10.07 5.14 9.38 5.93C9.58 5.98 9.79 6 10 6Z" fill="#444746"/>
</svg>
