<svg width="14" height="12" viewBox="0 0 14 12" fill="none" xmlns="http://www.w3.org/2000/svg">
<path d="M12.0591 8.8021L11.0727 7.8206C11.5394 7.3879 11.9053 6.87599 12.1705 6.28496C12.4356 5.69393 12.5682 5.06596 12.5682 4.40106C12.5682 3.73615 12.4356 3.11346 12.1705 2.53298C11.9053 1.95251 11.5394 1.44591 11.0727 1.01319L12.0591 0C12.653 0.55937 13.125 1.219 13.475 1.97889C13.825 2.73879 14 3.54617 14 4.40106C14 5.25594 13.825 6.06332 13.475 6.82322C13.125 7.5831 12.653 8.2427 12.0591 8.8021ZM10.0227 6.77573L9.0045 5.76253C9.1955 5.58311 9.3492 5.37995 9.4659 5.15303C9.5826 4.92612 9.6409 4.67546 9.6409 4.40106C9.6409 4.12665 9.5826 3.87599 9.4659 3.64908C9.3492 3.42216 9.1955 3.219 9.0045 3.03958L10.0227 2.02639C10.3621 2.33245 10.6273 2.68865 10.8182 3.09499C11.0091 3.50132 11.1045 3.93668 11.1045 4.40106C11.1045 4.86544 11.0091 5.30079 10.8182 5.70712C10.6273 6.11346 10.3621 6.46966 10.0227 6.77573ZM5.09091 6.93404C4.39091 6.93404 3.79167 6.68602 3.29318 6.18997C2.7947 5.69393 2.54545 5.09763 2.54545 4.40106C2.54545 3.70449 2.7947 3.10818 3.29318 2.61214C3.79167 2.1161 4.39091 1.86807 5.09091 1.86807C5.79091 1.86807 6.39015 2.1161 6.88864 2.61214C7.38712 3.10818 7.63636 3.70449 7.63636 4.40106C7.63636 5.09763 7.38712 5.69393 6.88864 6.18997C6.39015 6.68602 5.79091 6.93404 5.09091 6.93404ZM0 12V10.2269C0 9.8786 0.0901501 9.5515 0.27045 9.2454C0.45076 8.9393 0.7 8.7071 1.01818 8.5488C1.55909 8.2744 2.16894 8.0422 2.84773 7.8522C3.52652 7.6623 4.27424 7.5673 5.09091 7.5673C5.90758 7.5673 6.6553 7.6623 7.33409 7.8522C8.0129 8.0422 8.6227 8.2744 9.1636 8.5488C9.4818 8.7071 9.7311 8.9393 9.9114 9.2454C10.0917 9.5515 10.1818 9.8786 10.1818 10.2269V12H0ZM1.27273 10.7335H8.9091V10.2269C8.9091 10.1108 8.8799 10.0053 8.8216 9.9103C8.7633 9.8153 8.6864 9.7414 8.5909 9.6887C8.2091 9.4987 7.71856 9.3087 7.11932 9.1187C6.52008 8.9288 5.84394 8.8338 5.09091 8.8338C4.33788 8.8338 3.66174 8.9288 3.0625 9.1187C2.46326 9.3087 1.97273 9.4987 1.59091 9.6887C1.49545 9.7414 1.41856 9.8153 1.36023 9.9103C1.30189 10.0053 1.27273 10.1108 1.27273 10.2269V10.7335ZM5.09091 5.66755C5.44091 5.66755 5.74053 5.54354 5.98977 5.29551C6.23902 5.04749 6.36364 4.74934 6.36364 4.40106C6.36364 4.05277 6.23902 3.75462 5.98977 3.5066C5.74053 3.25858 5.44091 3.13456 5.09091 3.13456C4.74091 3.13456 4.44129 3.25858 4.19205 3.5066C3.9428 3.75462 3.81818 4.05277 3.81818 4.40106C3.81818 4.74934 3.9428 5.04749 4.19205 5.29551C4.44129 5.54354 4.74091 5.66755 5.09091 5.66755Z" fill="#444746"/>
</svg>
