<svg width="18" height="18" viewBox="0 0 18 18" fill="none" xmlns="http://www.w3.org/2000/svg">
<path fill-rule="evenodd" clip-rule="evenodd" d="M2 0H16C17.1 0 18 0.9 18 2V7.18945L13.5 5.09558L12.6046 5.51223C12.4738 5.28551 12.3072 5.0781 12.1 4.89C11.45 4.3 10.83 4 9.3 4H5V14H6.8V10.4H7.5V11.5954C7.5 14.0711 8.6538 16.4955 10.5174 18H2C0.9 18 0 17.1 0 16V2C0 0.9 0.9 0 2 0ZM10.8549 6.32636L7.5 7.88741V9H6.8V5.4H9.1C9.76 5.4 10.27 5.65 10.6 6C10.6996 6.10568 10.7847 6.21318 10.8549 6.32636Z" fill="#FD7541"/>
<path d="M13.5 6.75L18 8.84387V11.5954C18 14.5004 16.0801 17.2098 13.5 17.8713C10.9199 17.2098 9 14.5004 9 11.5954V8.84387L13.5 6.75ZM13.5 8.00924L10.1002 9.59116V11.5954C10.1002 13.8902 11.5614 16.033 13.5 16.6769C15.4386 16.033 16.8998 13.8902 16.8998 11.5954V9.59116L13.5 8.00924ZM13.5 10.2014C14.1213 10.2014 14.625 10.6784 14.625 11.2667C14.625 11.6664 14.3925 12.0147 14.0485 12.197L14.436 14.0363H12.636L13.0179 12.2295C12.6378 12.0585 12.375 11.6917 12.375 11.2667C12.375 10.6784 12.8787 10.2014 13.5 10.2014Z" fill="#444746"/>
</svg>
