<svg width="14" height="14" viewBox="0 0 14 14" fill="none" xmlns="http://www.w3.org/2000/svg">
<path opacity="0.54" fill-rule="evenodd" clip-rule="evenodd" d="M3 8H5V6H3V8ZM0 14H2V12H0V14ZM6 14H8V12H6V14ZM6 11H8V9H6V11ZM3 14H5V12H3V14ZM0 11H2V9H0V11ZM6 8H8V6H6V8ZM0 5H2V3H0V5ZM0 8H2V6H0V8ZM12 8H14V6H12V8ZM12 11H14V9H12V11ZM12 5H14V3H12V5ZM6 5H8V3H6V5ZM9 14H11V12H9V14ZM9 8H11V6H9V8ZM12 14H14V12H12V14Z" fill="#444746"/>
<path fill-rule="evenodd" clip-rule="evenodd" d="M0 0V2H14V0H0Z" fill="#444746"/>
</svg>
