<svg width="24" height="24" viewBox="0 0 24 24" fill="none" xmlns="http://www.w3.org/2000/svg">
<path d="M16 18C17.6726 17.1079 18.999 15.6824 19.7684 13.9499C20.5378 12.2174 20.706 10.2775 20.2462 8.43845C19.7865 6.59942 18.7251 4.96685 17.231 3.80025C15.7369 2.63366 13.8956 2 12 2C10.1044 2 8.26314 2.63366 6.769 3.80025C5.27485 4.96685 4.21355 6.59942 3.75379 8.43845C3.29403 10.2775 3.46221 12.2174 4.23159 13.9499C5.00096 15.6824 6.32739 17.1079 8 18H3V21H11V15.9C9.6511 15.6506 8.44408 14.9061 7.61579 13.8126C6.78751 12.7192 6.39774 11.3556 6.52297 9.98958C6.6482 8.62354 7.27938 7.3536 8.29268 6.42894C9.30597 5.50429 10.6282 4.99167 12 4.99167C13.3718 4.99167 14.694 5.50429 15.7073 6.42894C16.7206 7.3536 17.3518 8.62354 17.477 9.98958C17.6023 11.3556 17.2125 12.7192 16.3842 13.8126C15.5559 14.9061 14.3489 15.6506 13 15.9V21H21V18H16Z" fill="#444746"/>
</svg>
