<svg width="12" height="18" viewBox="0 0 12 18" fill="none" xmlns="http://www.w3.org/2000/svg">
<path d="M6.10709 0.710083C5.84413 0.710252 5.58617 0.781887 5.36077 0.917327C5.13538 1.05277 4.95103 1.24692 4.82744 1.47903C4.70386 1.71113 4.64568 1.97246 4.65913 2.23508C4.67257 2.49769 4.75714 2.75171 4.90379 2.96998L5.52299 2.35168C5.50261 2.28983 5.49228 2.22511 5.49239 2.15998C5.49221 2.03815 5.52819 1.91901 5.59577 1.81764C5.66334 1.71626 5.75947 1.63722 5.872 1.59052C5.98452 1.54381 6.10837 1.53154 6.22787 1.55527C6.34737 1.57899 6.45714 1.63764 6.54329 1.72379C6.62943 1.80994 6.68808 1.91971 6.71181 2.03921C6.73553 2.1587 6.72326 2.28256 6.67656 2.39508C6.62985 2.5076 6.55081 2.60374 6.44944 2.67131C6.34807 2.73888 6.22892 2.77486 6.10709 2.77468C6.04227 2.7747 5.97786 2.76437 5.91629 2.74408L5.29799 3.36418C5.4861 3.49088 5.70128 3.57171 5.92628 3.6002C6.15127 3.62868 6.37981 3.60402 6.59355 3.52819C6.80729 3.45236 7.0003 3.32748 7.157 3.16357C7.3138 2.99966 7.4299 2.80128 7.4961 2.58437C7.5623 2.36745 7.5767 2.13804 7.5382 1.91454C7.4997 1.69104 7.4093 1.47968 7.2744 1.29743C7.1394 1.11518 6.96355 0.967106 6.76099 0.865104C6.55844 0.763101 6.33388 0.710007 6.10709 0.710083Z" fill="#34A853"/>
<path d="M5.52986 4.93651C5.5311 4.44672 5.37317 3.96978 5.07986 3.57751L4.27526 4.38211C4.39768 4.60552 4.44253 4.86322 4.40279 5.11485C4.36305 5.36647 4.24097 5.59781 4.05566 5.77261L4.49306 6.84001C4.81125 6.63473 5.07289 6.35292 5.25401 6.02038C5.43514 5.68784 5.52998 5.31518 5.52986 4.93651Z" fill="#FBBC04"/>
<path d="M3.28253 6.08936H3.26183C3.08172 6.09022 2.9039 6.0489 2.74262 5.9687C2.58134 5.8885 2.44107 5.77166 2.33305 5.62753C2.22503 5.48339 2.15225 5.31597 2.12055 5.13866C2.08884 4.96135 2.09909 4.77908 2.15047 4.60645C2.20185 4.43381 2.29294 4.2756 2.41643 4.14449C2.53993 4.01337 2.69241 3.91299 2.86167 3.85137C3.03092 3.78976 3.21225 3.76863 3.39114 3.78968C3.57002 3.81072 3.7415 3.87335 3.89183 3.97256L4.68833 3.17606C4.40673 2.94637 4.07404 2.78774 3.71829 2.71354C3.36255 2.63933 2.99418 2.65174 2.64423 2.7497C2.29429 2.84766 1.97301 3.02831 1.7075 3.27643C1.44198 3.52454 1.24 3.83285 1.11858 4.17536C0.997152 4.51787 0.959852 4.88456 1.0098 5.24451C1.05975 5.60446 1.1955 5.94713 1.40561 6.24363C1.61571 6.54014 1.89402 6.78179 2.21707 6.94822C2.54011 7.11466 2.89844 7.20099 3.26183 7.19996C3.41568 7.19989 3.56913 7.18451 3.71993 7.15406L3.28253 6.08936Z" fill="#EA4335"/>
<path d="M6.13698 7.01276C5.6331 7.01224 5.13187 7.08562 4.64928 7.23056L5.28648 8.78756C5.56375 8.71821 5.84847 8.68315 6.13428 8.68316C6.93759 8.68315 7.71607 8.96168 8.33707 9.47129C8.95797 9.9809 9.38307 10.6901 9.53977 11.4779C9.69647 12.2658 9.57517 13.0837 9.19657 13.7921C8.81787 14.5006 8.20527 15.0558 7.46307 15.3632C6.72093 15.6707 5.89514 15.7112 5.12641 15.4781C4.35769 15.2449 3.6936 14.7524 3.2473 14.0844C2.801 13.4165 2.6001 12.6145 2.67883 11.815C2.75756 11.0156 3.11106 10.2682 3.67908 9.70016C3.92398 9.45684 4.20362 9.2512 4.50888 9.08996L3.87888 7.53926C2.74431 8.09459 1.85372 9.04795 1.37681 10.2176C0.899909 11.3874 0.870039 12.6916 1.29289 13.8819C1.71574 15.0723 2.56176 16.0654 3.66971 16.6721C4.77767 17.2788 6.07012 17.4566 7.30077 17.1717C8.53137 16.8868 9.61417 16.1591 10.3429 15.1272C11.0715 14.0954 11.395 12.8315 11.2517 11.5764C11.1085 10.3214 10.5085 9.16294 9.56607 8.32182C8.62357 7.48069 7.40467 7.0157 6.14148 7.01546L6.13698 7.01276Z" fill="#4285F4"/>
</svg>
