<svg width="14" height="22" viewBox="0 0 14 22" fill="none" xmlns="http://www.w3.org/2000/svg">
<path d="M6.57884 0.333496C5.51204 0.333496 4.71191 1.1336 4.71191 2.2004C4.71191 2.556 4.80081 2.9116 5.06754 3.2672L5.86764 2.4671C5.86764 2.3782 5.86764 2.2893 5.86764 2.2004C5.86764 1.7559 6.22324 1.4003 6.66774 1.4003C7.11224 1.4003 7.46784 1.7559 7.46784 2.2004C7.46784 2.6449 7.11224 3.0005 6.66774 3.0005C6.57884 3.0005 6.48994 3.0005 6.40104 3.0005L5.60094 3.7117C6.48994 4.2451 7.64564 4.0673 8.17904 3.1783C8.71244 2.2893 8.53464 1.1336 7.64564 0.600196C7.37894 0.422396 7.02334 0.333496 6.57884 0.333496Z" fill="#D2E3FC"/>
<path d="M5.86789 5.75652C5.86789 5.13422 5.69009 4.51192 5.33449 3.97852L4.26768 5.04532C4.35658 5.31202 4.44548 5.48982 4.44548 5.75652C4.44548 6.20102 4.26768 6.55662 4.00098 6.82332L4.53438 8.24572C5.42339 7.71232 5.86789 6.73442 5.86789 5.75652Z" fill="#5E97F6"/>
<path d="M3.0226 7.26775C2.2225 7.26775 1.5113 6.64545 1.5113 5.84535C1.5113 5.04525 2.1336 4.33405 2.9337 4.33405C3.2004 4.33405 3.556 4.42295 3.8227 4.60075L4.8895 3.62285C4.2672 3.08945 3.6449 2.82275 2.9337 2.82275C1.3335 2.82275 0 4.15625 0 5.75645C0 7.35665 1.2446 8.69015 2.9337 8.69015C3.1115 8.69015 3.3782 8.69015 3.556 8.60125L3.0226 7.26775Z" fill="#5E97F6"/>
<path d="M6.6674 8.42334C6.0451 8.42334 5.4228 8.51224 4.80048 8.69004L5.6006 10.6458C5.9562 10.6458 6.3118 10.5569 6.6674 10.5569C9.1566 10.5569 11.1124 12.6016 11.1124 15.0019C11.1124 17.4911 9.0677 19.4469 6.6674 19.4469C4.17818 19.4469 2.22238 17.4022 2.22238 15.0019C2.22238 13.3128 3.11138 11.8015 4.62268 11.0903L3.82258 9.1345C0.533278 10.7347 -0.800222 14.7352 0.799978 17.9356C2.40018 21.2249 6.4007 22.5584 9.6011 20.9582C12.8904 19.358 14.2239 15.3575 12.6237 12.1571C11.468 9.9346 9.1566 8.42334 6.6674 8.42334Z" fill="#4285F4"/>
</svg>
