<svg width="18" height="18" viewBox="0 0 18 18" fill="none" xmlns="http://www.w3.org/2000/svg">
<path d="M8.99999 0.666992C6.79019 0.667787 4.67112 1.54598 3.10855 3.10855C1.54598 4.67112 0.667787 6.79019 0.666992 8.99999C0.666992 13.6 4.39999 17.333 8.99999 17.333C13.6 17.333 17.333 13.6 17.333 8.99999C17.333 4.39999 13.6 0.666992 8.99999 0.666992ZM8.99999 15.667C8.1244 15.6673 7.25733 15.495 6.44833 15.16C5.63933 14.8251 4.90427 14.334 4.28513 13.7149C3.66598 13.0957 3.17491 12.3607 2.83995 11.5517C2.505 10.7427 2.33273 9.87559 2.33299 8.99999C2.33273 8.1244 2.505 7.25733 2.83995 6.44833C3.17491 5.63933 3.66598 4.90427 4.28513 4.28513C4.90427 3.66598 5.63933 3.17491 6.44833 2.83995C7.25733 2.505 8.1244 2.33273 8.99999 2.33299C9.87551 2.33286 10.7425 2.50523 11.5513 2.84024C12.3602 3.17525 13.0952 3.66635 13.7142 4.28548C14.3332 4.90461 14.8242 5.63963 15.1591 6.44856C15.494 7.25749 15.6663 8.12448 15.666 8.99999C15.6663 9.87551 15.494 10.7425 15.1591 11.5514C14.8242 12.3604 14.3332 13.0954 13.7142 13.7145C13.0952 14.3336 12.3602 14.8247 11.5513 15.1597C10.7425 15.4948 9.87551 15.6671 8.99999 15.667ZM13.166 8.99999C13.1746 9.55258 13.0731 10.1013 12.8676 10.6143C12.662 11.1274 12.3565 11.5943 11.9687 11.9881C11.581 12.3819 11.1188 12.6947 10.609 12.9081C10.0993 13.1216 9.55214 13.2315 8.99949 13.2315C8.44684 13.2315 7.89971 13.1216 7.38995 12.9081C6.88019 12.6947 6.41799 12.3819 6.03024 11.9881C5.6425 11.5943 5.33696 11.1274 5.13142 10.6143C4.92588 10.1013 4.82443 9.55258 4.83299 8.99999C4.84994 7.90615 5.29636 6.86284 6.07589 6.09529C6.85542 5.32775 7.90552 4.89754 8.99949 4.89754C10.0935 4.89754 11.1436 5.32775 11.9231 6.09529C12.7026 6.86284 13.149 7.90615 13.166 8.99999Z" fill="#444746"/>
</svg>
