<svg width="4" height="12" viewBox="0 0 4 12" fill="none" xmlns="http://www.w3.org/2000/svg">
<path d="M2 3C2.82843 3 3.5 2.32843 3.5 1.5C3.5 0.671573 2.82843 0 2 0C1.17157 0 0.5 0.671573 0.5 1.5C0.5 2.32843 1.17157 3 2 3Z" fill="#444746"/>
<path d="M2 12C2.82843 12 3.5 11.3284 3.5 10.5C3.5 9.67157 2.82843 9 2 9C1.17157 9 0.5 9.67157 0.5 10.5C0.5 11.3284 1.17157 12 2 12Z" fill="#444746"/>
<path d="M2 7.5C2.82843 7.5 3.5 6.82843 3.5 6C3.5 5.17157 2.82843 4.5 2 4.5C1.17157 4.5 0.5 5.17157 0.5 6C0.5 6.82843 1.17157 7.5 2 7.5Z" fill="#444746"/>
</svg>
