<svg width="18" height="20" viewBox="0 0 18 20" fill="none" xmlns="http://www.w3.org/2000/svg">
<path d="M5 12C4.71667 12 4.475 11.9083 4.275 11.725C4.09167 11.525 4 11.2833 4 11C4 10.7167 4.09167 10.4833 4.275 10.3C4.475 10.1 4.71667 10 5 10C5.28333 10 5.51667 10.1 5.7 10.3C5.9 10.4833 6 10.7167 6 11C6 11.2833 5.9 11.525 5.7 11.725C5.51667 11.9083 5.28333 12 5 12ZM9 12C8.7167 12 8.475 11.9083 8.275 11.725C8.0917 11.525 8 11.2833 8 11C8 10.7167 8.0917 10.4833 8.275 10.3C8.475 10.1 8.7167 10 9 10C9.2833 10 9.5167 10.1 9.7 10.3C9.9 10.4833 10 10.7167 10 11C10 11.2833 9.9 11.525 9.7 11.725C9.5167 11.9083 9.2833 12 9 12ZM13 12C12.7167 12 12.475 11.9083 12.275 11.725C12.0917 11.525 12 11.2833 12 11C12 10.7167 12.0917 10.4833 12.275 10.3C12.475 10.1 12.7167 10 13 10C13.2833 10 13.5167 10.1 13.7 10.3C13.9 10.4833 14 10.7167 14 11C14 11.2833 13.9 11.525 13.7 11.725C13.5167 11.9083 13.2833 12 13 12ZM2 20C1.45 20 0.975 19.8083 0.575 19.425C0.19167 19.025 0 18.55 0 18V4C0 3.45 0.19167 2.98333 0.575 2.6C0.975 2.2 1.45 2 2 2H3V0H5V2H13V0H15V2H16C16.55 2 17.0167 2.2 17.4 2.6C17.8 2.98333 18 3.45 18 4V18C18 18.55 17.8 19.025 17.4 19.425C17.0167 19.8083 16.55 20 16 20H2ZM2 18H16V8H2V18ZM2 6H16V4H2V6Z" fill="#444746"/>
</svg>
