<svg width="24" height="24" viewBox="0 0 24 24" fill="none" xmlns="http://www.w3.org/2000/svg">
<path d="M4 1H20V3H4V1ZM4 21H20V23H4V21ZM20 5H4C2.9 5 2 5.9 2 7V17C2 18.1 2.9 19 4 19H20C21.1 19 22 18.1 22 17V7C22 5.9 21.1 5 20 5ZM8.21 17C8.91 16.53 10.67 16 12 16C13.33 16 15.09 16.53 15.79 17H8.21ZM20 17H18C18 15.01 14 14 12 14C10 14 6 15.01 6 17H4V7H20V17ZM12 13.5C13.66 13.5 15 12.16 15 10.5C15 8.84 13.66 7.5 12 7.5C10.34 7.5 9 8.84 9 10.5C9 12.16 10.34 13.5 12 13.5ZM12 9.5C12.55 9.5 13 9.95 13 10.5C13 11.05 12.55 11.5 12 11.5C11.45 11.5 11 11.05 11 10.5C11 9.95 11.45 9.5 12 9.5Z" fill="#444746"/>
</svg>
