<svg width="15" height="12" viewBox="0 0 15 12" fill="none" xmlns="http://www.w3.org/2000/svg">
<path d="M0 9.5H11V11H0V9.5ZM0 1H11V2.5H0V1ZM0 5.25H11V6.75H0V5.25Z" fill="#444746"/>
<path d="M13.5 11.25C14.0523 11.25 14.5 10.8023 14.5 10.25C14.5 9.69772 14.0523 9.25 13.5 9.25C12.9477 9.25 12.5 9.69772 12.5 10.25C12.5 10.8023 12.9477 11.25 13.5 11.25Z" fill="#444746"/>
<path d="M13.5 2.75C14.0523 2.75 14.5 2.30228 14.5 1.75C14.5 1.19772 14.0523 0.75 13.5 0.75C12.9477 0.75 12.5 1.19772 12.5 1.75C12.5 2.30228 12.9477 2.75 13.5 2.75Z" fill="#444746"/>
<path d="M13.5 7C14.0523 7 14.5 6.55228 14.5 6C14.5 5.44772 14.0523 5 13.5 5C12.9477 5 12.5 5.44772 12.5 6C12.5 6.55228 12.9477 7 13.5 7Z" fill="#444746"/>
</svg>
