<svg width="12" height="16" viewBox="0 0 12 16" fill="none" xmlns="http://www.w3.org/2000/svg">
<path d="M5.99967 16C5.81912 16 5.6594 15.9479 5.52051 15.8438C5.38162 15.7396 5.2844 15.6042 5.22885 15.4375C4.96496 14.7014 4.64899 14.0035 4.28093 13.3438C3.91287 12.684 3.38162 11.9097 2.68718 11.0208C2.00662 10.1458 1.45454 9.3056 1.03093 8.5C0.607318 7.69444 0.395508 6.72917 0.395508 5.60417C0.395508 4.04861 0.940648 2.72569 2.03093 1.63542C3.12121 0.54514 4.44412 0 5.99967 0C7.55527 0 8.87817 0.54514 9.96847 1.63542C11.0587 2.72569 11.6039 4.04861 11.6039 5.60417C11.6039 6.82639 11.3712 7.83681 10.906 8.6354C10.4407 9.434 9.90937 10.2292 9.31217 11.0208C8.58997 11.9653 8.04477 12.7604 7.67677 13.4063C7.30867 14.0521 7.00667 14.7292 6.77047 15.4375C6.70107 15.6042 6.60037 15.7396 6.46847 15.8438C6.33647 15.9479 6.18027 16 5.99967 16ZM5.99967 7.625C6.55527 7.625 7.03097 7.42708 7.42677 7.03125C7.82257 6.63542 8.02047 6.15972 8.02047 5.60417C8.02047 5.04861 7.82257 4.57292 7.42677 4.17708C7.03097 3.78125 6.55527 3.58333 5.99967 3.58333C5.44412 3.58333 4.96843 3.78125 4.5726 4.17708C4.17676 4.57292 3.97885 5.04861 3.97885 5.60417C3.97885 6.15972 4.17676 6.63542 4.5726 7.03125C4.96843 7.42708 5.44412 7.625 5.99967 7.625Z" fill="#444746"/>
</svg>
