<svg width="14" height="14" viewBox="0 0 14 14" fill="none" xmlns="http://www.w3.org/2000/svg">
<path d="M1.5 14C1.08333 14 0.729333 13.8507 0.438 13.552C0.146 13.2533 0 12.9027 0 12.5V1.5C0 1.09733 0.146 0.746667 0.438 0.448C0.729333 0.149333 1.08333 0 1.5 0H12.5C12.9167 0 13.2707 0.149333 13.562 0.448C13.854 0.746667 14 1.09733 14 1.5V12.5C14 12.9027 13.854 13.2533 13.562 13.552C13.2707 13.8507 12.9167 14 12.5 14H1.5ZM1.5 12.5H12.5V1.5H1.5V12.5ZM2.5 11H11.5L8.5 7L6.25 10L4.75 8L2.5 11Z" fill="#444746"/>
</svg>
