<svg width="16" height="16" viewBox="0 0 16 16" fill="none" xmlns="http://www.w3.org/2000/svg">
<path d="M5.5 16C4.75 16 4.04688 15.8633 3.38672 15.5938C2.72656 15.3242 2.13281 14.9219 1.60547 14.3945C1.07812 13.8672 0.675781 13.2734 0.40625 12.6133C0.136719 11.9531 0 11.25 0 10.5C0 9.44531 0.269531 8.47656 0.8125 7.59375C1.35547 6.71094 2.10547 6.03516 3.0625 5.5625C3.29688 5.04688 3.63672 4.57422 4.07422 4.13672C4.51172 3.69922 5.00781 3.33984 5.5625 3.0625C6.03516 2.11719 6.71094 1.37109 7.59375 0.824219C8.47656 0.273438 9.44531 0 10.5 0C11.25 0 11.9531 0.136719 12.6133 0.40625C13.2734 0.675781 13.8672 1.07812 14.3945 1.60547C14.9219 2.13281 15.3242 2.72656 15.5938 3.38672C15.8633 4.04688 16 4.75 16 5.5C16 6.57031 15.7344 7.53906 15.1992 8.40625C14.6641 9.27344 13.9102 9.95312 12.9375 10.4375C12.6719 10.9922 12.3242 11.4844 11.8867 11.918C11.4492 12.3477 10.9648 12.6875 10.4375 12.9375C9.95312 13.8828 9.26562 14.6289 8.38672 15.1758C7.50391 15.7266 6.54297 16 5.5 16ZM5.5 14.5C5.95703 14.5 6.42187 14.4141 6.88672 14.2383C7.35156 14.0664 7.76562 13.8203 8.125 13.5C7.35938 13.5273 6.63672 13.3984 5.94922 13.1133C5.26172 12.8281 4.64453 12.418 4.10547 11.875C3.5625 11.332 3.15234 10.7227 2.875 10.043C2.59766 9.35937 2.47266 8.64062 2.5 7.875C2.17969 8.23438 1.93359 8.64844 1.76172 9.11328C1.58594 9.57813 1.5 10.043 1.5 10.5C1.5 11.043 1.59766 11.5469 1.79297 12.0195C1.98437 12.4922 2.27734 12.9219 2.66797 13.3125C3.05469 13.7031 3.48828 13.9961 3.96875 14.1992C4.44922 14.3984 4.95703 14.5 5.5 14.5ZM8 12C8.47266 12 8.9375 11.9141 9.39453 11.7383C9.85547 11.5664 10.2695 11.3203 10.6445 11C9.89453 11.0273 9.17187 10.9023 8.48047 10.625C7.78516 10.3477 7.16016 9.92969 6.60547 9.375C6.04687 8.82031 5.63672 8.20312 5.36328 7.53125C5.09375 6.85938 4.97266 6.14062 5 5.375C4.67969 5.73438 4.43359 6.14062 4.26172 6.59375C4.08594 7.04688 4 7.51562 4 8C4 8.54297 4.09766 9.04688 4.29297 9.51953C4.48438 9.99219 4.77734 10.4219 5.16797 10.8125C5.55469 11.2031 5.98828 11.4961 6.46875 11.6992C6.94922 11.8984 7.45703 12 8 12ZM10.4375 9.48047C10.6719 9.48047 10.9062 9.46094 11.1367 9.42578C11.3633 9.39063 11.5781 9.33984 11.7695 9.26953C12.0195 8.53516 12.0625 7.80078 11.8945 7.07422C11.7305 6.34375 11.375 5.70703 10.832 5.16797C10.293 4.625 9.65625 4.26953 8.92578 4.10547C8.19922 3.9375 7.46484 3.98047 6.73047 4.23047C6.66016 4.42188 6.60937 4.63672 6.57422 4.86328C6.53906 5.09375 6.51953 5.32812 6.51953 5.5625C6.51953 6.07812 6.62109 6.57031 6.82422 7.04297C7.02344 7.51562 7.30469 7.92969 7.66797 8.29297C8.04297 8.66797 8.47266 8.95703 8.95703 9.16797C9.44531 9.375 9.9375 9.48047 10.4375 9.48047ZM13.5 8.125C13.8203 7.77734 14.0664 7.375 14.2383 6.91797C14.4141 6.45703 14.5 5.98438 14.5 5.5C14.5 4.97266 14.3984 4.46484 14.1992 3.98047C13.9961 3.49219 13.7031 3.05469 13.3125 2.66797C12.9219 2.27734 12.4922 1.98437 12.0195 1.79297C11.5469 1.59766 11.043 1.5 10.5 1.5C10.0273 1.5 9.56641 1.58594 9.11328 1.76172C8.66406 1.93359 8.25 2.17969 7.875 2.5C8.66797 2.47266 9.39453 2.59375 10.0625 2.86328C10.7305 3.13672 11.3398 3.54688 11.8945 4.10547C12.4531 4.66016 12.8633 5.26953 13.1367 5.9375C13.4062 6.60547 13.5273 7.33203 13.5 8.125Z" fill="#444746"/>
</svg>
