<svg width="17" height="18" viewBox="0 0 17 18" fill="none" xmlns="http://www.w3.org/2000/svg">
<path d="M17.0004 14.4999L15.5004 12.9999V6.49992H9.00032L7.50032 4.99992V3.49992H6.00032L4.50032 1.99992H9.00032V4.99992H17.0004V14.4999ZM15.7295 17.4583L14.2504 15.9999H1.00032V2.72909L0.166992 1.89575L1.22949 0.833252L16.7712 16.3958L15.7295 17.4583ZM2.50032 14.4999H4.00032V12.9999H2.50032V14.4999ZM2.50032 11.3124H4.00032V9.8124H2.50032V11.3124ZM2.50032 8.16659H4.00032V6.66659H2.50032V8.16659ZM6.00032 14.4999H7.50032V12.9999H6.00032V14.4999ZM6.00032 11.3124H7.50032V9.8124H6.00032V11.3124ZM9.00032 14.4999H12.7504L11.0837 12.8124H9.00032V14.4999ZM14.0004 9.6666H12.5004V8.16659H14.0004V9.6666Z" fill="#444746"/>
</svg>
