<svg width="16" height="12" viewBox="0 0 16 12" fill="none" xmlns="http://www.w3.org/2000/svg">
<path fill-rule="evenodd" clip-rule="evenodd" d="M0 1.00247C0 0.448823 0.444631 0 1.00087 0H14.9991C15.5519 0 16 0.455761 16 1.00247V10.9975C16 11.5512 15.5554 12 14.9991 12H1.00087C0.448106 12 0 11.5442 0 10.9975V1.00247ZM4 8V10H12V8H4ZM1 2V4H3V2H1ZM4 2V4H6V2H4ZM7 2V4H9V2H7ZM10 2V4H12V2H10ZM13 2V4H15V2H13ZM1 5V7H3V5H1ZM4 5V7H6V5H4ZM7 5V7H9V5H7ZM10 5V7H12V5H10ZM13 5V7H15V5H13Z" fill="#444746"/>
</svg>
