<svg width="17" height="14" viewBox="0 0 17 14" fill="none" xmlns="http://www.w3.org/2000/svg">
<path d="M12.5 14H4V5L9.3499 0L9.9499 0.4125C10.1624 0.5625 10.3249 0.75625 10.4374 0.99375C10.5499 1.21875 10.5812 1.45625 10.5312 1.70625L10.5124 1.8L10 5.5H16C16.5 5.5 16.5 6.59998 16.5 6.59998V8.5L13.7562 13.275C13.6437 13.525 13.475 13.725 13.25 13.875C13.025 14.025 12.775 14 12.5 14ZM5.5 12.6H12.5L15 8V6.59998H8.5L9.0687 2.19375L5.5 5.79375V12.6ZM4 5V6.5H1.5V12.6H4V14H0V5H4Z" fill="#444746"/>
</svg>
