<svg width="54" height="30" viewBox="0 0 54 30" fill="none" xmlns="http://www.w3.org/2000/svg">
<path d="M3 6C4.65685 6 6 4.65685 6 3C6 1.34315 4.65685 0 3 0C1.34315 0 0 1.34315 0 3C0 4.65685 1.34315 6 3 6Z" fill="#444746"/>
<path d="M3 18C4.65685 18 6 16.6569 6 15C6 13.3431 4.65685 12 3 12C1.34315 12 0 13.3431 0 15C0 16.6569 1.34315 18 3 18Z" fill="#444746"/>
<path d="M3 30C4.65685 30 6 28.6569 6 27C6 25.3431 4.65685 24 3 24C1.34315 24 0 25.3431 0 27C0 28.6569 1.34315 30 3 30Z" fill="#444746"/>
<path d="M52 1H16C14.8954 1 14 1.89543 14 3C14 4.10457 14.8954 5 16 5H52C53.1046 5 54 4.10457 54 3C54 1.89543 53.1046 1 52 1Z" fill="#DADCE0"/>
<path d="M52 13H16C14.8954 13 14 13.8954 14 15C14 16.1046 14.8954 17 16 17H52C53.1046 17 54 16.1046 54 15C54 13.8954 53.1046 13 52 13Z" fill="#DADCE0"/>
<path d="M52 25H16C14.8954 25 14 25.8954 14 27C14 28.1046 14.8954 29 16 29H52C53.1046 29 54 28.1046 54 27C54 25.8954 53.1046 25 52 25Z" fill="#DADCE0"/>
</svg>
