<svg width="15" height="12" viewBox="0 0 15 12" fill="none" xmlns="http://www.w3.org/2000/svg">
<path d="M3 9H9V8.5625C9 8.01953 8.72656 7.58203 8.17578 7.25C7.625 6.91797 6.89844 6.75 6 6.75C5.10938 6.75 4.39062 6.91797 3.83203 7.25C3.27734 7.58203 3 8.01953 3 8.5625V9ZM6.01172 6C6.42187 6 6.76953 5.85156 7.0625 5.55078C7.35547 5.25391 7.5 4.89844 7.5 4.48828C7.5 4.07813 7.35547 3.73047 7.0625 3.4375C6.76953 3.14453 6.42187 3 6.01172 3C5.60156 3 5.24609 3.14453 4.94922 3.4375C4.64844 3.73047 4.5 4.07813 4.5 4.48828C4.5 4.89844 4.64844 5.25391 4.94922 5.55078C5.24609 5.85156 5.60156 6 6.01172 6ZM1.5 12C1.09766 12 0.746094 11.8516 0.449219 11.5508C0.148438 11.2539 0 10.9023 0 10.5V1.5C0 1.08594 0.148438 0.734375 0.449219 0.441406C0.746094 0.148438 1.09766 0 1.5 0H10.5C10.9141 0 11.2656 0.148438 11.5586 0.441406C11.8516 0.734375 12 1.08594 12 1.5V5L15 2V10L12 7V10.5C12 10.9023 11.8516 11.2539 11.5586 11.5508C11.2656 11.8516 10.9141 12 10.5 12H1.5ZM1.5 10.5H10.5V1.5H1.5V10.5Z" fill="#444746"/>
</svg>
