<svg width="20" height="20" viewBox="0 0 20 20" fill="none" xmlns="http://www.w3.org/2000/svg">
<path d="M10 20C10 18.6167 9.7375 17.3167 9.2125 16.1C8.6875 14.8833 7.975 13.825 7.075 12.925C6.175 12.025 5.11667 11.3125 3.9 10.7875C2.68333 10.2625 1.38333 10 0 10C1.38333 10 2.68333 9.7375 3.9 9.2125C5.11667 8.6875 6.175 7.975 7.075 7.075C7.975 6.175 8.6875 5.11667 9.2125 3.9C9.7375 2.68333 10 1.38333 10 0C10 1.38333 10.2625 2.68333 10.7875 3.9C11.3125 5.11667 12.025 6.175 12.925 7.075C13.825 7.975 14.8833 8.6875 16.1 9.2125C17.3167 9.7375 18.6167 10 20 10C18.6167 10 17.3167 10.2625 16.1 10.7875C14.8833 11.3125 13.825 12.025 12.925 12.925C12.025 13.825 11.3125 14.8833 10.7875 16.1C10.2625 17.3167 10 18.6167 10 20Z" fill="#0B57D0"/>
</svg>
