<svg width="24" height="25" viewBox="0 0 24 25" fill="none" xmlns="http://www.w3.org/2000/svg">
<path d="M13.9996 17V13.8H9.79959V17H7.19959V12.4C7.19959 12.2424 7.23063 12.0864 7.29094 11.9408C7.35124 11.7952 7.43964 11.6629 7.55107 11.5515C7.6625 11.44 7.79478 11.3517 7.94037 11.2913C8.08596 11.231 8.24201 11.2 8.39959 11.2H13.9996V8L17.9996 12.5L13.9996 17ZM11.9996 23L21.9996 13L11.9996 3L1.99959 13L11.9996 23ZM23.2996 11.31C23.5227 11.5313 23.6998 11.7945 23.8207 12.0846C23.9416 12.3746 24.0038 12.6858 24.0038 13C24.0038 13.3142 23.9416 13.6254 23.8207 13.9154C23.6998 14.2055 23.5227 14.4687 23.2996 14.69L13.6996 24.29C13.4773 24.5149 13.2126 24.6935 12.9208 24.8154C12.6289 24.9373 12.3158 25 11.9996 25C11.3641 25.0031 10.7531 24.7551 10.2996 24.31L0.699594 14.71C0.248918 14.255 -0.00390625 13.6404 -0.00390625 13C-0.00390625 12.3596 0.248918 11.745 0.699594 11.29L10.2996 1.7C10.5236 1.47445 10.79 1.29544 11.0835 1.17328C11.377 1.05112 11.6917 0.988235 12.0096 0.988235C12.3275 0.988235 12.6422 1.05112 12.9357 1.17328C13.2292 1.29544 13.4956 1.47445 13.7196 1.7L23.2996 11.31Z" fill="#444746"/>
</svg>
