<svg width="18" height="18" viewBox="0 0 18 18" fill="none" xmlns="http://www.w3.org/2000/svg">
<path d="M8.00035 2.35V0.26C7.20035 0.47 6.45035 0.8 5.77035 1.22L7.23035 2.68C7.48035 2.56 7.73035 2.44 8.00035 2.35ZM0.860352 1.41L3.22035 3.77C2.25662 5.29862 1.84424 7.1107 2.05158 8.90583C2.25892 10.701 3.07352 12.3713 4.36035 13.64L2.00035 16H8.00035V10L5.76035 12.24C4.63509 11.1157 4.00208 9.5907 4.00035 8C4.00035 7 4.25035 6.06 4.68035 5.23L12.7604 13.31C12.5104 13.44 12.2604 13.56 11.9904 13.65V15.74C12.7904 15.53 13.5404 15.2 14.2204 14.78L16.5804 17.14L17.8504 15.87L2.14035 0.14L0.860352 1.41ZM18.0004 0H12.0004V6L14.2404 3.76C15.3656 4.88433 15.9986 6.4093 16.0004 8C16.0004 9 15.7504 9.94 15.3204 10.77L16.7804 12.23C17.7441 10.7014 18.1565 8.8893 17.9491 7.09417C17.7418 5.29904 16.9272 3.62868 15.6404 2.36L18.0004 0Z" fill="#444746"/>
</svg>
