<svg width="16" height="14" viewBox="0 0 16 14" fill="none" xmlns="http://www.w3.org/2000/svg">
<path d="M12 9.39997C11.44 9.39997 10.9667 9.20667 10.58 8.81997C10.1933 8.43327 10 7.95998 10 7.39998C10 6.83998 10.1933 6.36665 10.58 5.97998C10.9667 5.59331 11.44 5.39998 12 5.39998C12.56 5.39998 13.0333 5.59331 13.42 5.97998C13.8067 6.36665 14 6.83998 14 7.39998C14 7.95998 13.8067 8.43327 13.42 8.81997C13.0333 9.20667 12.56 9.39997 12 9.39997ZM8 13.4V12.28C8 11.96 8.0832 11.6635 8.2496 11.3904C8.41653 11.1168 8.65333 10.92 8.96 10.8C9.44 10.6 9.9368 10.4501 10.4504 10.3504C10.9635 10.2501 11.48 10.2 12 10.2C12.52 10.2 13.0368 10.2501 13.5504 10.3504C14.0635 10.4501 14.56 10.6 15.04 10.8C15.3467 10.92 15.5835 11.1168 15.7504 11.3904C15.9168 11.6635 16 11.96 16 12.28V13.4H8ZM6.4 6.99998C5.52 6.99998 4.76667 6.68664 4.14 6.05998C3.51333 5.43331 3.2 4.67998 3.2 3.79998C3.2 2.91998 3.51333 2.16665 4.14 1.53998C4.76667 0.913306 5.52 0.599976 6.4 0.599976C7.28 0.599976 8.03333 0.913306 8.66 1.53998C9.2867 2.16665 9.6 2.91998 9.6 3.79998C9.6 4.67998 9.2867 5.43331 8.66 6.05998C8.03333 6.68664 7.28 6.99998 6.4 6.99998ZM0 13.4V11.16C0 10.7067 0.11333 10.2899 0.34 9.90958C0.56667 9.52988 0.88 9.23998 1.28 9.03998C2.08 8.63998 2.91013 8.33328 3.7704 8.11998C4.63013 7.90664 5.50667 7.79998 6.4 7.79998C6.86667 7.79998 7.33333 7.83998 7.8 7.91998C8.26667 7.99998 8.73333 8.09328 9.2 8.19998L7.84 9.55998C7.6 9.49328 7.36 9.44987 7.12 9.42957C6.88 9.40987 6.64 9.39997 6.4 9.39997C5.62667 9.39997 4.87013 9.49328 4.1304 9.67998C3.39013 9.86668 2.68 10.1333 2 10.48C1.86667 10.5467 1.76667 10.64 1.7 10.76C1.63333 10.88 1.6 11.0133 1.6 11.16V11.8H6.4V13.4H0ZM6.4 5.39998C6.84 5.39998 7.2168 5.24318 7.5304 4.92958C7.84347 4.61651 8 4.23998 8 3.79998C8 3.35998 7.84347 2.98344 7.5304 2.67038C7.2168 2.35678 6.84 2.19998 6.4 2.19998C5.96 2.19998 5.58347 2.35678 5.2704 2.67038C4.9568 2.98344 4.8 3.35998 4.8 3.79998C4.8 4.23998 4.9568 4.61651 5.2704 4.92958C5.58347 5.24318 5.96 5.39998 6.4 5.39998Z" fill="#444746"/>
</svg>
