<svg width="20" height="18" viewBox="0 0 20 18" fill="none" xmlns="http://www.w3.org/2000/svg">
<path d="M11.3622 9.19739C12.423 8.408 13.2515 7.54175 13.8473 6.59877C14.4431 5.65579 14.7411 4.71646 14.7411 3.78079C14.7411 3.31295 14.6648 2.96939 14.5122 2.75009C14.3596 2.53079 14.1525 2.42114 13.8909 2.42114C13.2079 2.42114 12.6047 3.00228 12.0815 4.16456C11.5584 5.32685 11.2968 6.63898 11.2968 8.101C11.2968 8.30567 11.3004 8.49934 11.3077 8.68209C11.315 8.86484 11.3331 9.03669 11.3622 9.19739ZM1.70498 17.3334V15.579H3.44894V17.3334H1.70498ZM5.1929 17.3334V15.579H6.93685V17.3334H5.1929ZM8.68084 17.3334V15.579H10.4248V17.3334H8.68084ZM12.1688 17.3334V15.579H13.9127V17.3334H12.1688ZM15.6566 17.3334V15.579H17.4006V17.3334H15.6566ZM2.05377 13.8247L0.833008 12.5966L2.22817 11.1931L0.833008 9.78959L2.05377 8.5615L3.44894 9.96499L4.8441 8.5615L6.06487 9.78959L4.6697 11.1931L6.06487 12.5966L4.8441 13.8247L3.44894 12.4212L2.05377 13.8247ZM12.5611 12.9474C12.1251 12.9474 11.7255 12.8634 11.3622 12.6953C10.9989 12.5272 10.6864 12.253 10.4248 11.8729C10.0615 12.0776 9.68717 12.2603 9.30209 12.4212C8.917 12.5819 8.52092 12.7428 8.11402 12.9036L7.50364 11.2588C7.91055 11.1127 8.29931 10.9555 8.66992 10.7873C9.0405 10.6193 9.40017 10.4402 9.749 10.2501C9.67634 9.92839 9.62184 9.57759 9.5855 9.19739C9.54917 8.81734 9.531 8.408 9.531 7.96942C9.531 5.86412 9.94517 4.1207 10.7736 2.73912C11.602 1.35755 12.641 0.666748 13.8909 0.666748C14.6466 0.666748 15.2643 0.948188 15.7439 1.51105C16.2235 2.07392 16.4632 2.85974 16.4632 3.86851C16.4632 5.12582 16.0672 6.36851 15.2752 7.59659C14.4831 8.82467 13.3823 9.92839 11.9725 10.908C12.0743 11.0103 12.1796 11.0871 12.2886 11.1383C12.3976 11.1894 12.5103 11.215 12.6265 11.215C13.0044 11.215 13.444 10.9738 13.9454 10.4913C14.4468 10.0088 14.901 9.37289 15.3079 8.58342L16.8992 9.32899C16.7975 9.57759 16.7175 9.87729 16.6595 10.2282C16.6013 10.579 16.6085 10.8861 16.6812 11.1492C16.8265 11.0761 16.9973 10.9518 17.1935 10.7764C17.3897 10.601 17.5895 10.3817 17.793 10.1185L19.1664 11.1931C18.7885 11.7194 18.3525 12.1433 17.8584 12.465C17.3643 12.7867 16.9065 12.9474 16.485 12.9474C16.1799 12.9474 15.9074 12.8561 15.6675 12.6733C15.4278 12.4906 15.228 12.2092 15.068 11.829C14.6611 12.1945 14.247 12.4723 13.8255 12.6623C13.404 12.8524 12.9826 12.9474 12.5611 12.9474Z" fill="#444746"/>
</svg>
