<svg width="14" height="12" viewBox="0 0 14 12" fill="none" xmlns="http://www.w3.org/2000/svg">
<path d="M7 11.75V10.1562L10.975 6.1812L12.5687 7.775L8.5938 11.75H7ZM0.25 8V6.5H5.5V8H0.25ZM13.0938 7.25L11.5 5.65625L12.0438 5.1125C12.1813 4.975 12.3562 4.90625 12.5687 4.90625C12.7812 4.90625 12.9562 4.975 13.0938 5.1125L13.6375 5.65625C13.775 5.79375 13.8438 5.96875 13.8438 6.1812C13.8438 6.3937 13.775 6.5687 13.6375 6.7062L13.0938 7.25ZM0.25 5V3.5H8.5V5H0.25ZM0.25 2V0.5H8.5V2H0.25Z" fill="#444746"/>
</svg>
