<svg width="18" height="18" viewBox="0 0 18 18" fill="none" xmlns="http://www.w3.org/2000/svg">
<mask id="mask0_148_16297" style="mask-type:luminance" maskUnits="userSpaceOnUse" x="0" y="0" width="18" height="18">
<path d="M0 0H18V18H0V0Z" fill="white"/>
</mask>
<g mask="url(#mask0_148_16297)">
<path d="M6.5 14C6.08333 14 5.72917 13.8542 5.4375 13.5625C5.14583 13.2708 5 12.9167 5 12.5V2.5C5 2.08333 5.14583 1.72917 5.4375 1.4375C5.72917 1.14583 6.08333 1 6.5 1H14.5C14.9167 1 15.2708 1.14583 15.5625 1.4375C15.8542 1.72917 16 2.08333 16 2.5V12.5C16 12.9167 15.8542 13.2708 15.5625 13.5625C15.2708 13.8542 14.9167 14 14.5 14H6.5ZM6.5 12.5H14.5V2.5H6.5V12.5ZM3.5 17C3.08333 17 2.72917 16.8542 2.4375 16.5625C2.14583 16.2708 2 15.9167 2 15.5V4H3.5V15.5H13V17H3.5ZM8 10H9V6H10V9H10.9167V6H12V10H13V5.66667C13 5.47222 12.9375 5.3125 12.8125 5.1875C12.6875 5.0625 12.5417 5 12.375 5H8.625C8.45833 5 8.3125 5.0625 8.1875 5.1875C8.0625 5.3125 8 5.47222 8 5.66667V10Z" fill="#444746"/>
</g>
</svg>
