<svg width="14" height="16" viewBox="0 0 14 16" fill="none" xmlns="http://www.w3.org/2000/svg">
<path d="M9.0047 13C8.446 13 7.9722 12.8071 7.5833 12.4214C7.1944 12.0356 7 11.5634 7 11.0047C7 10.446 7.1929 9.9722 7.5786 9.5833C7.9644 9.1944 8.4366 9 8.9953 9C9.554 9 10.0278 9.1929 10.4167 9.5786C10.8056 9.9644 11 10.4366 11 10.9953C11 11.554 10.8071 12.0278 10.4214 12.4167C10.0356 12.8056 9.5634 13 9.0047 13ZM1.5 16C1.0875 16 0.73437 15.8507 0.44062 15.5521C0.14687 15.2535 0 14.9028 0 14.5V3.5C0 3.09722 0.14687 2.74653 0.44062 2.44792C0.73437 2.14931 1.0875 2 1.5 2H3V0H4.5V2H9.5V0H11V2H12.5C12.9125 2 13.2656 2.14931 13.5594 2.44792C13.8531 2.74653 14 3.09722 14 3.5V14.5C14 14.9028 13.8531 15.2535 13.5594 15.5521C13.2656 15.8507 12.9125 16 12.5 16H1.5ZM1.5 14.5H12.5V7H1.5V14.5Z" fill="#444746"/>
</svg>
