<svg width="15" height="17" viewBox="0 0 15 17" fill="none" xmlns="http://www.w3.org/2000/svg">
<path d="M5.65039 9.35003L9.03039 12.74L7.75039 16H9.25039L10.1104 13.82L13.2904 17L14.0004 16.29L6.35039 8.65002L5.65039 9.35003ZM8.12039 9.00002L10.9004 11.78L11.4104 10.5H15.0004V9.00002H8.12039Z" fill="#444746"/>
<path d="M1.5 3.5H3V6H11V3.5H12.5V7H14V3.5C14 2.67 13.33 2 12.5 2H8.93C8.71 1.14 7.93 0.5 7 0.5C6.07 0.5 5.29 1.14 5.07 2H1.5C0.67 2 0 2.67 0 3.5V14.5C0 15.33 0.67 16 1.5 16H6V14.5H1.5V3.5ZM7 2C7.41 2 7.75 2.34 7.75 2.75C7.75 3.16 7.41 3.5 7 3.5C6.59 3.5 6.25 3.16 6.25 2.75C6.25 2.34 6.59 2 7 2Z" fill="#444746"/>
</svg>
