<svg width="17" height="16" viewBox="0 0 17 16" fill="none" xmlns="http://www.w3.org/2000/svg">
<path d="M4.5 9C4.5 7.74546 4.06364 6.68182 3.19092 5.80908C2.31818 4.93636 1.25454 4.5 0 4.5C1.25454 4.5 2.31818 4.06364 3.19092 3.19092C4.06364 2.31818 4.5 1.25454 4.5 0C4.5 1.25454 4.93636 2.31818 5.80908 3.19092C6.68182 4.06364 7.74546 4.5 9 4.5C7.74546 4.5 6.68182 4.93636 5.80908 5.80908C4.93636 6.68182 4.5 7.74546 4.5 9ZM4.5 14.5H5.5625L13.375 6.6875L12.8333 6.125L12.3125 5.625L4.5 13.4375V14.5ZM3 16V12.8125L13.375 2.4375C13.6667 2.14583 14.0208 2 14.4375 2C14.8542 2 15.2083 2.14583 15.5 2.4375L16.5577 3.50079C16.8526 3.79193 17 4.14687 17 4.56563C17 4.98438 16.8542 5.3375 16.5625 5.625L6.1875 16H3ZM13.375 6.6875L12.8333 6.125L12.3125 5.625L13.375 6.6875Z" fill="#444746"/>
</svg>
