<svg width="54" height="30" viewBox="0 0 54 30" fill="none" xmlns="http://www.w3.org/2000/svg">
<path d="M52 2H16C14.8954 2 14 2.89543 14 4C14 5.10457 14.8954 6 16 6H52C53.1046 6 54 5.10457 54 4C54 2.89543 53.1046 2 52 2Z" fill="#DADCE0"/>
<path d="M2.14996 7.00003V1.87003L1.11996 2.62003L0.459961 1.61003L2.46996 0.160034H3.45996V7.00003H2.14996ZM5.9659 7.06003C5.7259 7.06003 5.51923 6.9767 5.3459 6.81003C5.17923 6.6367 5.0959 6.43003 5.0959 6.19003C5.0959 5.95003 5.17923 5.7467 5.3459 5.58003C5.51923 5.41336 5.7259 5.33003 5.9659 5.33003C6.2059 5.33003 6.40923 5.41336 6.5759 5.58003C6.74923 5.7467 6.8359 5.95003 6.8359 6.19003C6.8359 6.43003 6.74923 6.6367 6.5759 6.81003C6.40923 6.9767 6.2059 7.06003 5.9659 7.06003Z" fill="#444746"/>
<path d="M52 13H16C14.8954 13 14 13.8954 14 15C14 16.1046 14.8954 17 16 17H52C53.1046 17 54 16.1046 54 15C54 13.8954 53.1046 13 52 13Z" fill="#DADCE0"/>
<path d="M0.519961 18V16.81L1.97996 15.35C2.20663 15.1233 2.41329 14.9133 2.59996 14.72C2.78663 14.5267 2.92329 14.3867 3.00996 14.3C3.16329 14.1333 3.28663 13.9867 3.37996 13.86C3.47329 13.7267 3.53996 13.6 3.57996 13.48C3.61996 13.3533 3.63996 13.2133 3.63996 13.06C3.63996 12.9133 3.60329 12.7767 3.52996 12.65C3.45663 12.5233 3.34663 12.4233 3.19996 12.35C3.05996 12.27 2.88996 12.23 2.68996 12.23C2.48996 12.23 2.31996 12.27 2.17996 12.35C2.03996 12.43 1.92663 12.5333 1.83996 12.66C1.75329 12.7867 1.68663 12.9233 1.63996 13.07L0.459961 12.58C0.513294 12.4 0.599961 12.2167 0.719961 12.03C0.839961 11.8433 0.993294 11.6733 1.17996 11.52C1.36663 11.36 1.58663 11.2333 1.83996 11.14C2.09996 11.0467 2.38996 11 2.70996 11C3.17663 11 3.57663 11.09 3.90996 11.27C4.24996 11.45 4.50996 11.69 4.68996 11.99C4.87663 12.29 4.96996 12.6267 4.96996 13C4.96996 13.28 4.92329 13.55 4.82996 13.81C4.73663 14.0633 4.60663 14.3033 4.43996 14.53C4.27996 14.7567 4.09663 14.97 3.88996 15.17C3.79663 15.2633 3.68663 15.37 3.55996 15.49C3.43996 15.61 3.31663 15.7333 3.18996 15.86C3.06329 15.9867 2.93996 16.1133 2.81996 16.24L2.48996 16.57C2.39663 16.6633 2.31996 16.7367 2.25996 16.79L2.28996 16.85H5.05996V18H0.519961ZM7.1866 18.06C6.9466 18.06 6.71626 17.9767 6.54293 17.81C6.37626 17.6367 6.3166 17.43 6.3166 17.19C6.3166 16.95 6.39993 16.7467 6.5666 16.58C6.73993 16.4133 6.9466 16.33 7.1866 16.33C7.4266 16.33 7.62993 16.3958 7.7966 16.5625C7.96993 16.7292 8.0566 16.95 8.0566 17.19C8.0566 17.43 7.96993 17.6367 7.7966 17.81C7.62993 17.9767 7.4266 18.06 7.1866 18.06Z" fill="#444746"/>
<path d="M52 24H16C14.8954 24 14 24.8954 14 26C14 27.1046 14.8954 28 16 28H52C53.1046 28 54 27.1046 54 26C54 24.8954 53.1046 24 52 24Z" fill="#DADCE0"/>
<path d="M2.85039 29.16C2.48372 29.16 2.13372 29.0933 1.80039 28.96C1.47372 28.8267 1.18706 28.6267 0.94039 28.36C0.70039 28.0933 0.520391 27.76 0.400391 27.36L1.64039 26.87C1.72039 27.1967 1.86372 27.45 2.07039 27.63C2.28372 27.8033 2.54372 27.89 2.85039 27.89C3.03706 27.89 3.21039 27.8533 3.37039 27.78C3.53039 27.7 3.66039 27.59 3.76039 27.45C3.86039 27.31 3.91039 27.15 3.91039 26.97C3.91039 26.7767 3.85706 26.61 3.75039 26.47C3.65039 26.33 3.50706 26.2233 3.32039 26.15C3.14039 26.07 2.92372 26.03 2.67039 26.03H2.08039V24.84H2.62039C2.80706 24.84 2.97706 24.81 3.13039 24.75C3.29039 24.69 3.42039 24.5967 3.52039 24.47C3.62039 24.3367 3.67039 24.1733 3.67039 23.98C3.67039 23.7533 3.58706 23.5667 3.42039 23.42C3.26039 23.2733 3.04706 23.2 2.78039 23.2C2.58039 23.2 2.41372 23.2367 2.28039 23.31C2.14706 23.3833 2.03706 23.48 1.95039 23.6C1.87039 23.7133 1.81039 23.8367 1.77039 23.97L0.580391 23.48C0.660391 23.2533 0.793724 23.0267 0.980391 22.8C1.16706 22.5733 1.41039 22.3833 1.71039 22.23C2.01039 22.0767 2.37039 22 2.79039 22C3.23039 22 3.61372 22.08 3.94039 22.24C4.27372 22.4 4.53372 22.62 4.72039 22.9C4.90706 23.1733 5.00039 23.4833 5.00039 23.83C5.00039 24.09 4.95706 24.3233 4.87039 24.53C4.78372 24.73 4.67372 24.8967 4.54039 25.03C4.41372 25.1633 4.27706 25.2667 4.13039 25.34V25.42C4.34372 25.5 4.53372 25.62 4.70039 25.78C4.86706 25.9333 5.00039 26.12 5.10039 26.34C5.20039 26.5533 5.25039 26.8033 5.25039 27.09C5.25039 27.4833 5.15039 27.8367 4.95039 28.15C4.75039 28.4633 4.47039 28.71 4.11039 28.89C3.75039 29.07 3.33039 29.16 2.85039 29.16ZM7.22592 29.0495C6.98592 29.0495 6.76356 28.9767 6.59023 28.81C6.42356 28.6367 6.36586 28.43 6.36586 28.19C6.36586 27.95 6.44919 27.7467 6.61586 27.58C6.78919 27.4133 6.99586 27.33 7.23586 27.33C7.47586 27.33 7.67919 27.3919 7.84586 27.5586C8.01919 27.7253 8.10586 27.95 8.10586 28.19C8.10586 28.43 8.01919 28.6367 7.84586 28.81C7.67919 28.9767 7.46592 29.0495 7.22592 29.0495Z" fill="#444746"/>
</svg>
