<svg width="14" height="16" viewBox="0 0 14 16" fill="none" xmlns="http://www.w3.org/2000/svg">
<path fill-rule="evenodd" clip-rule="evenodd" d="M9 2C9.03943 1.99182 9 -0.00817871 7 -0.00817871C5 -0.00817871 5.00058 1.99182 5.00058 1.99182L0.999924 1.99836C0.447681 1.99927 0 2.44995 0 3.00685V14.9932C0 15.5492 0.44148 16 0.999355 16C0.999355 16 0.728745 16 1.5575 16H12.5C13.3288 16 12.9986 16 12.9986 16C13.5517 16 14 15.5548 14 14.9975V3.49182C14 2.66307 14 2.99416 14 2.99416C14 2.4451 13.5563 2 13.0002 2H9ZM6 2H8V3H6V2ZM2 14V4H3V5H11V4H12V14H2Z" fill="#444746"/>
</svg>
