<svg width="16" height="15" viewBox="0 0 16 15" fill="none" xmlns="http://www.w3.org/2000/svg">
<path fill-rule="evenodd" clip-rule="evenodd" d="M16 8.25C16 6.38478 14.6383 4.83763 12.8547 4.54849C12.3167 2.36739 10.3473 0.749989 8 0.749989C6.84134 0.749989 5.77474 1.14409 4.92692 1.80557L5.99922 2.87787C6.56629 2.4821 7.25604 2.24999 8 2.24999C9.93296 2.24999 11.5 3.81699 11.5 5.74998V5.99999L12.25 5.99998C13.4927 5.99998 14.5 7.0073 14.5 8.25C14.5 9.0971 14.0319 9.8349 13.3401 10.2187L14.4259 11.3045C15.3788 10.6245 16 9.5098 16 8.25ZM2.39851 3.5198L4.59552e-05 1.12133L1.06071 0.0606689L14.4958 13.4957L13.4351 14.5564L10.8787 12H4.5C2.01472 12 0 9.9853 0 7.5C0 5.77376 0.971981 4.27455 2.39851 3.5198ZM9.37866 10.5H4.5C2.84314 10.5 1.5 9.1568 1.5 7.5C1.5 6.18009 2.35238 5.05928 3.5367 4.65799L9.37866 10.5Z" fill="#D93025"/>
</svg>
