<svg width="15" height="12" viewBox="0 0 15 12" fill="none" xmlns="http://www.w3.org/2000/svg">
<path fill-rule="evenodd" clip-rule="evenodd" d="M1.5 0H5.5L7 1.5H13.5C14.3284 1.5 15 2.17157 15 3V10.5C15 11.3284 14.3284 12 13.5 12H1.5C0.67157 12 0 11.3284 0 10.5V1.5C0 0.67157 0.67157 0 1.5 0ZM13.5 3H1.5V10.5H13.5V3Z" fill="#444746"/>
<path fill-rule="evenodd" clip-rule="evenodd" d="M9.5 4C8.8125 4 8.25 4.5625 8.25 5.25C8.25 5.9375 8.8125 6.5 9.5 6.5C10.1875 6.5 10.75 5.9375 10.75 5.25C10.75 4.5625 10.1875 4 9.5 4ZM12 8.375V9H7V8.375C7 7.5438 8.66875 7.125 9.5 7.125C10.3312 7.125 12 7.5438 12 8.375Z" fill="#444746"/>
</svg>
