<svg width="16" height="16" viewBox="0 0 16 16" fill="none" xmlns="http://www.w3.org/2000/svg">
<path d="M14.5 0H1.5C0.67 0 0 0.67 0 1.5V16L3 13H14.5C15.33 13 16 12.33 16 11.5V1.5C16 0.67 15.33 0 14.5 0ZM14.5 11.5H1.5V1.5H14.5V11.5Z" fill="#444746"/>
<path d="M6 3H13V4.5H6V3ZM6 5.75H13V7.25H6V5.75ZM6 8.5H11V10H6V8.5ZM3.75 4.5C3.34 4.5 3 4.16 3 3.75C3 3.34 3.34 3 3.75 3C4.16 3 4.5 3.34 4.5 3.75C4.5 4.16 4.16 4.5 3.75 4.5ZM3.75 10C3.34 10 3 9.66 3 9.25C3 8.84 3.34 8.5 3.75 8.5C4.16 8.5 4.5 8.84 4.5 9.25C4.5 9.66 4.16 10 3.75 10ZM3.75 7.25C3.34 7.25 3 6.91 3 6.5C3 6.09 3.34 5.75 3.75 5.75C4.16 5.75 4.5 6.09 4.5 6.5C4.5 6.91 4.16 7.25 3.75 7.25Z" fill="#444746"/>
</svg>
