<svg width="32" height="48" viewBox="0 0 32 48" fill="none" xmlns="http://www.w3.org/2000/svg">
<path fill-rule="evenodd" clip-rule="evenodd" d="M32 32H0V34H32V32ZM32 25H0V27H32V25ZM32 39H0V41H32V39ZM32 46H0V48H32V46Z" fill="#D8D8D8"/>
<path fill-rule="evenodd" clip-rule="evenodd" d="M32 1H16V3H32V1ZM28 8H12V10H28V8ZM24 15H8V17H24V15Z" fill="#444746" fill-opacity="0.87"/>
<path fill-rule="evenodd" clip-rule="evenodd" d="M0 8H1.8L0 10.1V11H3V10H1.2L3 7.9V7H0V8ZM0 15H2V15.5H1V16.5H2V17H0V18H3V14H0V15ZM1 4H2V0H0V1H1V4Z" fill="#212121"/>
</svg>
