<svg width="16" height="16" viewBox="0 0 16 16" fill="none" xmlns="http://www.w3.org/2000/svg">
<path d="M16 12.8679L14.4977 11.3585V5.20755H8.37559L6.98592 3.81132V2.18868H5.37089L3.86854 0.67925H8.48826V3.69811H16V12.8679ZM14.8732 16L13.108 14.2642H0.97653V2.03774L0 1.0566L1.05164 0L15.9249 14.9434L14.8732 16ZM2.47887 12.7547H3.98122V11.2453H2.47887V12.7547ZM2.47887 9.7358H3.98122V8.22641H2.47887V9.7358ZM2.47887 6.71698H3.98122V5.20755H2.47887V6.71698ZM5.48357 12.7547H6.98592V11.2453H5.48357V12.7547ZM5.48357 9.7358H6.98592V8.22641H5.48357V9.7358ZM8.48826 12.7547H11.6056L10.1033 11.2453H8.48826V12.7547ZM12.9953 8.22641H11.493V6.71698H12.9953V8.22641Z" fill="#E37400"/>
</svg>
