<svg width="14" height="16" viewBox="0 0 14 16" fill="none" xmlns="http://www.w3.org/2000/svg">
<path d="M1.5 15.5C1.09 15.5 0.73 15.35 0.44 15.06C0.15 14.77 0 14.41 0 14V10.5L2.46 7.71L3.52 8.75L2 10.5H12L10.29 8.54L11.35 7.48L14 10.5V13.99C14 14.41 13.85 14.77 13.56 15.06C13.27 15.35 12.91 15.5 12.5 15.5H1.5ZM1.5 14H12.5V12H1.5V14ZM6.1 9.21L3.29 6.4C3.1 6.2 3 5.97 3 5.7C3 5.43 3.1 5.19 3.29 5L7.5 0.79C7.69 0.6 7.93 0.5 8.2 0.5C8.47 0.5 8.7 0.6 8.9 0.79L11.71 3.6C11.9 3.8 12 4.03 12 4.3C12 4.57 11.9 4.8 11.71 5L7.5 9.21C7.31 9.4 7.07 9.5 6.8 9.5C6.53 9.5 6.3 9.4 6.1 9.21ZM10.29 4.29L8.21 2.21L4.71 5.71L6.79 7.79L10.29 4.29Z" fill="#444746"/>
</svg>
