<svg width="15" height="14" viewBox="0 0 15 14" fill="none" xmlns="http://www.w3.org/2000/svg">
<path d="M13.5 14H1.5C1.09733 14 0.746667 13.8507 0.448 13.552C0.149333 13.2533 0 12.9027 0 12.5V1.5C0 1.08333 0.149333 0.729333 0.448 0.438C0.746667 0.146 1.09733 0 1.5 0H13.5C13.9027 0 14.2533 0.146 14.552 0.438C14.8507 0.729333 15 1.08333 15 1.5V12.5C15 12.9027 14.8507 13.2533 14.552 13.552C14.2533 13.8507 13.9027 14 13.5 14ZM1.5 3.75H13.5V1.5H1.5V3.75ZM3.667 5.25H1.5V12.5H3.667V5.25ZM11.333 5.25V12.5H13.5V5.25H11.333ZM9.833 5.25H5.167V12.5H9.833V5.25Z" fill="#444746"/>
</svg>
