<svg width="17" height="15" viewBox="0 0 17 15" fill="none" xmlns="http://www.w3.org/2000/svg">
<path d="M8 12H2C1.5875 12 1.23438 11.8531 0.94063 11.5594C0.64688 11.2656 0.5 10.9125 0.5 10.5V1.5C0.5 1.0875 0.64688 0.73437 0.94063 0.44062C1.23438 0.14687 1.5875 0 2 0H14C14.4125 0 14.7656 0.14687 15.0594 0.44062C15.3531 0.73437 15.5 1.0875 15.5 1.5V5.25H14V1.5H2V10.5H8V12ZM6 9.375V2.625L11.375 6L6 9.375ZM12.3875 14.25L12.1625 13.125C12.0125 13.0625 11.8719 12.9969 11.7406 12.9281C11.6094 12.8594 11.475 12.775 11.3375 12.675L10.25 13.0125L9.5 11.7375L10.3625 10.9875C10.3375 10.8125 10.325 10.65 10.325 10.5C10.325 10.35 10.3375 10.1875 10.3625 10.0125L9.5 9.2625L10.25 7.9875L11.3375 8.325C11.475 8.225 11.6094 8.1406 11.7406 8.0719C11.8719 8.0031 12.0125 7.9375 12.1625 7.875L12.3875 6.75H13.8875L14.1125 7.875C14.2625 7.9375 14.4031 8.0062 14.5344 8.0812C14.6656 8.1562 14.8 8.25 14.9375 8.3625L16.025 7.9875L16.775 9.3L15.9125 10.05C15.9375 10.2 15.95 10.3562 15.95 10.5187C15.95 10.6812 15.9375 10.8375 15.9125 10.9875L16.775 11.7375L16.025 13.0125L14.9375 12.675C14.8 12.775 14.6656 12.8594 14.5344 12.9281C14.4031 12.9969 14.2625 13.0625 14.1125 13.125L13.8875 14.25H12.3875ZM13.1375 12C13.55 12 13.9031 11.8531 14.1969 11.5594C14.4906 11.2656 14.6375 10.9125 14.6375 10.5C14.6375 10.0875 14.4906 9.7344 14.1969 9.4406C13.9031 9.1469 13.55 9 13.1375 9C12.725 9 12.3719 9.1469 12.0781 9.4406C11.7844 9.7344 11.6375 10.0875 11.6375 10.5C11.6375 10.9125 11.7844 11.2656 12.0781 11.5594C12.3719 11.8531 12.725 12 13.1375 12Z" fill="#444746"/>
</svg>
