<svg width="18" height="18" viewBox="0 0 18 18" fill="none" xmlns="http://www.w3.org/2000/svg">
<mask id="mask0_148_16303" style="mask-type:luminance" maskUnits="userSpaceOnUse" x="0" y="0" width="18" height="18">
<path d="M0 0H18V18H0V0Z" fill="white"/>
</mask>
<g mask="url(#mask0_148_16303)">
<path d="M9.5 16V11C9.5 10.7222 9.59722 10.4861 9.79167 10.2917C9.98611 10.0972 10.2222 10 10.5 10H15C15.2778 10 15.5139 10.0972 15.7083 10.2917C15.9028 10.4861 16 10.7222 16 11V16H14.5V11.5H13.5V14.5H12V11.5H11V16H9.5ZM3.5 16C3.08333 16 2.72917 15.8542 2.4375 15.5625C2.14583 15.2708 2 14.9167 2 14.5V3.5C2 3.08333 2.14583 2.72917 2.4375 2.4375C2.72917 2.14583 3.08333 2 3.5 2H7.0625C7.17361 1.56944 7.40278 1.21528 7.75 0.9375C8.11111 0.645833 8.52778 0.5 9 0.5C9.47222 0.5 9.88195 0.645833 10.2292 0.9375C10.5903 1.21528 10.8264 1.56944 10.9375 2H14.5C14.9167 2 15.2708 2.14583 15.5625 2.4375C15.8542 2.72917 16 3.08333 16 3.5V8.5H14.5V3.5H13V6H5V3.5H3.5V14.5H8V16H3.5ZM9 3.5C9.20833 3.5 9.38194 3.43055 9.52083 3.29167C9.67361 3.13889 9.75 2.95833 9.75 2.75C9.75 2.54167 9.67361 2.36805 9.52083 2.22917C9.38194 2.07639 9.20833 2 9 2C8.79167 2 8.61111 2.07639 8.45833 2.22917C8.31945 2.36805 8.25 2.54167 8.25 2.75C8.25 2.95833 8.31945 3.13889 8.45833 3.29167C8.61111 3.43055 8.79167 3.5 9 3.5Z" fill="#444746"/>
</g>
</svg>
