<svg width="18" height="18" viewBox="0 0 18 18" fill="none" xmlns="http://www.w3.org/2000/svg">
<path d="M8.30451 0.788077C8.68862 0.403975 9.31137 0.403974 9.69547 0.788077C10.0796 1.17218 10.0796 1.79493 9.69547 2.17903L2.17903 9.69551C1.79493 10.0796 1.17218 10.0796 0.788076 9.69551C0.403975 9.31141 0.403975 8.68865 0.788075 8.30455L8.30451 0.788077Z" fill="#444746"/>
<path d="M9.69563 17.2118C9.31153 17.5959 8.68878 17.5959 8.30468 17.2118C7.92058 16.8277 7.92058 16.205 8.30468 15.8209L15.8211 8.30443C16.2052 7.92033 16.8279 7.92033 17.212 8.30443C17.5961 8.68853 17.5961 9.31129 17.212 9.69539L9.69563 17.2118Z" fill="#444746"/>
<path d="M17.2121 8.30449C17.5962 8.68859 17.5962 9.31135 17.2121 9.69545C16.828 10.0796 16.2052 10.0796 15.8211 9.69549L8.30468 2.17901C7.92057 1.79491 7.92059 1.17218 8.30469 0.788077C8.6888 0.403975 9.31155 0.403974 9.69565 0.788077L17.2121 8.30449Z" fill="#444746"/>
<path d="M0.788076 9.69552C0.403975 9.31142 0.403975 8.68866 0.788075 8.30456C1.17218 7.92046 1.79498 7.92044 2.17908 8.30454L9.69552 15.821C10.0796 16.2051 10.0796 16.8278 9.69548 17.2119C9.31138 17.596 8.68863 17.596 8.30453 17.2119L0.788076 9.69552Z" fill="#444746"/>
</svg>
