<svg width="16" height="16" viewBox="0 0 16 16" fill="none" xmlns="http://www.w3.org/2000/svg">
<path d="M11 5.5C11 2.46 8.54 0 5.5 0C2.46 0 0 2.46 0 5.5C0 8.54 2.46 11 5.5 11C8.54 11 11 8.54 11 5.5ZM1.5 5.5C1.5 3.29 3.29 1.5 5.5 1.5C7.71 1.5 9.5 3.29 9.5 5.5C9.5 7.71 7.71 9.5 5.5 9.5C3.29 9.5 1.5 7.71 1.5 5.5Z" fill="#444746"/>
<path d="M14.5 5H12.47C12.48 5.17 12.5 5.33 12.5 5.5C12.5 5.84 12.47 6.17 12.42 6.5H14.5V14.5H6.5V12.42C6.17 12.47 5.84 12.5 5.5 12.5C5.33 12.5 5.17 12.49 5 12.47V14.5C5 15.33 5.67 16 6.5 16H14.5C15.33 16 16 15.33 16 14.5V6.5C16 5.67 15.33 5 14.5 5Z" fill="#444746"/>
</svg>
