<svg width="16" height="16" viewBox="0 0 16 16" fill="none" xmlns="http://www.w3.org/2000/svg">
<path fill-rule="evenodd" clip-rule="evenodd" d="M5.08197 9.37728L5.99955 8L5.08157 6.62292C4.62836 6.85297 4.11836 6.98725 3.57818 6.99913C3.55122 7.00107 3.52504 7.00208 3.49975 7.00208C3.44586 7.00208 3.39177 7.00013 3.33755 6.9963C1.49449 6.91223 0.0231247 5.40247 0.000269928 3.54392C6.92469e-05 3.53098 -1.98246e-05 3.51805 3.68241e-06 3.50513L0 3.5L3.66107e-06 3.49488C-1.9711e-05 3.482 6.88548e-05 3.4691 0.000268397 3.4562C0.0235736 1.55562 1.56164 0.0197519 3.46298 0.000188988C3.4738 4.845e-05 3.48462 -1.38758e-05 3.49543 2.57805e-06L3.49973 0L3.50404 2.60351e-06C3.51491 -1.40208e-05 3.52579 4.89893e-05 3.53668 0.000191058C5.38089 0.0192699 6.88329 1.46491 6.99303 3.28618C6.99856 3.3577 7.00076 3.42903 6.99948 3.50001C7.0295 3.93876 6.99948 4.50001 6.99948 4.50001L16 14V14.9952H12.999L8 10L6.52775 10.744C6.8271 11.2591 6.99877 11.8576 6.99946 12.4962L6.99948 12.5C6.99948 12.505 6.99946 12.5101 6.99943 12.5151C6.99128 14.4384 5.43207 15.9955 3.50814 16C3.50534 16 3.50255 16 3.49975 16C3.49697 16 3.49419 16 3.49142 16C1.56239 15.9955 0 14.4302 0 12.5C0 10.567 1.56688 9 3.49973 9C4.06914 9 4.60678 9.13599 5.08197 9.37728ZM12.9844 1.04188L8.99932 5.00001L11.0037 7.00001L15.9988 2.00001V1.00001L12.9844 1.04188ZM3.49975 5.00001C4.32811 5.00001 4.99963 4.32844 4.99963 3.50001C4.99963 2.67158 4.32811 2.00001 3.49975 2.00001C2.67138 2.00001 1.99986 2.67158 1.99986 3.50001C1.99986 4.32844 2.67138 5.00001 3.49975 5.00001ZM3.49975 14C4.32811 14 4.99963 13.3284 4.99963 12.5C4.99963 11.6716 4.32811 11 3.49975 11C2.67138 11 1.99986 11.6716 1.99986 12.5C1.99986 13.3284 2.67138 14 3.49975 14Z" fill="#444746"/>
</svg>
