<svg width="16" height="16" viewBox="0 0 16 16" fill="none" xmlns="http://www.w3.org/2000/svg">
<path d="M3.7456 13C3.95687 13 4.13542 12.9285 4.28125 12.7856C4.42708 12.6427 4.5 12.4656 4.5 12.2544C4.5 12.0431 4.42855 11.8646 4.28565 11.7188C4.14273 11.5729 3.96565 11.5 3.7544 11.5C3.54313 11.5 3.36458 11.5715 3.21875 11.7144C3.07292 11.8573 3 12.0344 3 12.2456C3 12.4569 3.07145 12.6354 3.21435 12.7813C3.35727 12.9271 3.53435 13 3.7456 13ZM3.7456 9.75C3.95687 9.75 4.13542 9.6785 4.28125 9.5356C4.42708 9.3927 4.5 9.2156 4.5 9.0044C4.5 8.79313 4.42855 8.61458 4.28565 8.46875C4.14273 8.32292 3.96565 8.25 3.7544 8.25C3.54313 8.25 3.36458 8.32145 3.21875 8.46435C3.07292 8.60727 3 8.78435 3 8.9956C3 9.2069 3.07145 9.3854 3.21435 9.5313C3.35727 9.6771 3.53435 9.75 3.7456 9.75ZM3.7456 6.5C3.95687 6.5 4.13542 6.42855 4.28125 6.28565C4.42708 6.14273 4.5 5.96565 4.5 5.7544C4.5 5.54313 4.42855 5.36458 4.28565 5.21875C4.14273 5.07292 3.96565 5 3.7544 5C3.54313 5 3.36458 5.07145 3.21875 5.21435C3.07292 5.35727 3 5.53435 3 5.7456C3 5.95687 3.07145 6.13542 3.21435 6.28125C3.35727 6.42708 3.53435 6.5 3.7456 6.5ZM6 13H11V11.5H6V13ZM6 9.75H10V8.25H6V9.75ZM1.5 16C1.0875 16 0.73437 15.8507 0.44062 15.5521C0.14687 15.2535 0 14.9028 0 14.5V3.5C0 3.09722 0.14687 2.74653 0.44062 2.44792C0.73437 2.14931 1.0875 2 1.5 2H8V3.5H1.5V14.5H12.5V8H14V14.5C14 14.9028 13.8531 15.2535 13.5594 15.5521C13.2656 15.8507 12.9125 16 12.5 16H1.5ZM11.5 9C11.5 7.74546 11.0636 6.68182 10.1909 5.80908C9.3182 4.93636 8.2545 4.5 7 4.5C8.2545 4.5 9.3182 4.06364 10.1909 3.19092C11.0636 2.31818 11.5 1.25454 11.5 0C11.5 1.25454 11.9364 2.31818 12.8091 3.19092C13.6818 4.06364 14.7455 4.5 16 4.5C14.7455 4.5 13.6818 4.93636 12.8091 5.80908C11.9364 6.68182 11.5 7.74546 11.5 9Z" fill="#444746"/>
</svg>
