<svg width="72" height="40" viewBox="0 0 72 40" fill="none" xmlns="http://www.w3.org/2000/svg">
<path d="M68 1.42001H4C2.067 1.42001 0.5 2.98702 0.5 4.92001V35.92C0.5 37.853 2.067 39.42 4 39.42H68C69.933 39.42 71.5 37.853 71.5 35.92V4.92001C71.5 2.98702 69.933 1.42001 68 1.42001Z" stroke="#C4C7C5"/>
<path d="M59.047 7.47601H24.454C23.4902 7.47601 22.709 8.25728 22.709 9.22101V27.744C22.709 28.7078 23.4902 29.489 24.454 29.489H59.047C60.0107 29.489 60.792 28.7078 60.792 27.744V9.22101C60.792 8.25728 60.0107 7.47601 59.047 7.47601Z" fill="#D3E3FD" stroke="#0B57D0" stroke-width="0.952"/>
<path d="M7.40137 35.137V33.637H11.2014V32.762C10.7014 32.762 10.2764 32.587 9.92637 32.237C9.75641 32.0716 9.62215 31.8732 9.53185 31.6539C9.44156 31.4346 9.39715 31.1991 9.40137 30.962V21.562C9.40137 21.062 9.57637 20.637 9.92637 20.287C10.2764 19.937 10.7014 19.762 11.2014 19.762H26.6014C27.1014 19.762 27.5264 19.937 27.8764 20.287C28.2264 20.637 28.4014 21.062 28.4014 21.562V30.962C28.4014 31.462 28.2264 31.887 27.8764 32.237C27.5264 32.587 27.1014 32.762 26.6014 32.762V33.637H30.4014V35.137H7.40137ZM11.2014 31.262H26.6014C26.6381 31.2638 26.6747 31.258 26.7091 31.2451C26.7435 31.2322 26.7749 31.2125 26.8014 31.187C26.8325 31.1583 26.8575 31.1236 26.8747 31.0849C26.8919 31.0462 26.901 31.0044 26.9014 30.962V21.562C26.9024 21.523 26.8938 21.4844 26.8763 21.4495C26.8589 21.4147 26.8331 21.3846 26.8014 21.362C26.7788 21.3302 26.7487 21.3045 26.7138 21.2871C26.679 21.2696 26.6403 21.261 26.6014 21.262H11.2014C11.159 21.2625 11.1172 21.2716 11.0785 21.2888C11.0399 21.306 11.0051 21.3309 10.9764 21.362C10.9509 21.3885 10.9311 21.4199 10.9182 21.4543C10.9054 21.4887 10.8996 21.5253 10.9014 21.562V30.962C10.9014 31.045 10.9264 31.12 10.9764 31.187C11.0434 31.237 11.1184 31.262 11.2014 31.262Z" fill="#C4C7C5"/>
<mask id="mask0_148_16444" style="mask-type:luminance" maskUnits="userSpaceOnUse" x="10" y="20" width="17" height="12">
<path d="M26.6156 20.983H11.1776C11.0196 20.983 10.8916 21.1111 10.8916 21.269V30.972C10.8916 31.13 11.0196 31.258 11.1776 31.258H26.6156C26.7736 31.258 26.9016 31.13 26.9016 30.972V21.269C26.9016 21.1111 26.7736 20.983 26.6156 20.983Z" fill="white"/>
</mask>
<g mask="url(#mask0_148_16444)">
<path d="M26.6156 20.983H11.1776C11.0196 20.983 10.8916 21.1111 10.8916 21.269V30.972C10.8916 31.13 11.0196 31.258 11.1776 31.258H26.6156C26.7736 31.258 26.9016 31.13 26.9016 30.972V21.269C26.9016 21.1111 26.7736 20.983 26.6156 20.983Z" fill="white" stroke="white" stroke-width="1.904"/>
</g>
<path d="M49.726 24.083H44.74C44.7385 23.6735 44.7088 23.2645 44.651 22.859H49.725C49.814 22.859 49.881 22.837 49.925 22.792C49.9528 22.7666 49.9751 22.7357 49.9906 22.7013C50.0061 22.6669 50.0144 22.6297 50.015 22.592V13.157C50.0158 13.1222 50.008 13.0878 49.9923 13.0567C49.9766 13.0257 49.9535 12.999 49.925 12.979C49.881 12.919 49.814 12.889 49.725 12.889H36.285C36.2436 12.888 36.2025 12.8954 36.1641 12.9109C36.1258 12.9264 36.091 12.9496 36.062 12.979C36.0393 13.0026 36.0216 13.0305 36.0101 13.0611C35.9986 13.0917 35.9934 13.1244 35.995 13.157V14.225C35.5969 14.1666 35.1952 14.1369 34.793 14.136V13.156C34.793 12.741 34.934 12.393 35.216 12.111C35.3542 11.9679 35.5202 11.8545 35.7039 11.778C35.8876 11.7014 36.085 11.6633 36.284 11.666H49.724C50.14 11.666 50.489 11.814 50.771 12.111C51.068 12.393 51.216 12.741 51.216 13.157V22.592C51.216 23.007 51.068 23.363 50.771 23.66C50.6348 23.7983 50.4717 23.9071 50.2918 23.9799C50.1119 24.0526 49.919 24.0877 49.725 24.083H49.726ZM34.794 24.083V22.236C35.299 22.236 35.729 22.421 36.085 22.792C36.441 23.148 36.619 23.578 36.619 24.082L34.794 24.083ZM38.466 24.083C38.466 23.059 38.102 22.199 37.376 21.501C37.0405 21.1558 36.6391 20.8814 36.1955 20.6941C35.752 20.5069 35.2754 20.4106 34.794 20.411V19.187C36.144 19.187 37.294 19.662 38.244 20.611C39.193 21.561 39.668 22.718 39.668 24.083H38.466ZM41.67 24.083C41.67 23.133 41.492 22.243 41.136 21.413C40.7928 20.5855 40.286 19.8358 39.646 19.209C39.0199 18.5842 38.2795 18.0858 37.465 17.741C36.6246 17.3679 35.7144 17.178 34.795 17.184V15.96C35.922 15.96 36.975 16.176 37.955 16.606C38.9146 17.0084 39.7842 17.5983 40.513 18.341C41.2535 19.081 41.8432 19.958 42.249 20.923C42.679 21.902 42.894 22.955 42.894 24.083H41.67Z" fill="#0B57D0"/>
</svg>
