<svg width="56" height="56" viewBox="0 0 56 56" fill="none" xmlns="http://www.w3.org/2000/svg">
<path d="M47 8H9V15H47V8Z" fill="#E3E3E3"/>
<path d="M47 19H9V26H47V19Z" fill="#E3E3E3"/>
<path d="M25 30H9V37H25V30Z" fill="#E3E3E3"/>
<path d="M25 41H9V48H25V41Z" fill="#E3E3E3"/>
<path fill-rule="evenodd" clip-rule="evenodd" d="M45.0833 30H30.9167C29.8625 30 29 30.8625 29 31.9167V46.0833C29 47.1375 29.8625 48 30.9167 48H45.0833C46.1375 48 47 47.1375 47 46.0833V39.375V31.9167C47 30.8625 46.1375 30 45.0833 30ZM45.125 31.9167V34.875H38H30.875V31.875L45.125 31.9167ZM35.75 46.125H40.25V36.75H35.75V46.125ZM30.875 36.75H32.75H33.875V46.125H30.875V36.75ZM42.125 36.75V46.125H45.125V36.75H42.125Z" fill="#4C8DF6"/>
</svg>
