<svg width="16" height="16" viewBox="0 0 16 16" fill="none" xmlns="http://www.w3.org/2000/svg">
<path d="M6.94 11L11.9 6.06L10.83 5L6.93 8.88L5.17 7.12L4.1 8.19L6.94 11ZM8 16C6.9 16 5.87 15.79 4.9 15.38C3.93 14.97 3.08 14.39 2.35 13.66C1.62 12.93 1.05 12.08 0.63 11.11C0.21 10.14 0 9.1 0 8C0 6.89 0.21 5.85 0.62 4.89C1.03 3.93 1.61 3.08 2.34 2.35C3.07 1.62 3.92 1.05 4.89 0.63C5.86 0.21 6.9 0 8 0C9.11 0 10.15 0.21 11.11 0.62C12.07 1.03 12.92 1.61 13.65 2.34C14.38 3.07 14.95 3.92 15.37 4.88C15.79 5.84 16 6.89 16 8C16 9.1 15.79 10.13 15.38 11.1C14.97 12.07 14.39 12.92 13.66 13.65C12.93 14.38 12.08 14.95 11.12 15.37C10.16 15.79 9.11 16 8 16ZM8 14.5C9.81 14.5 11.34 13.87 12.6 12.6C13.86 11.33 14.5 9.8 14.5 8C14.5 6.2 13.87 4.66 12.6 3.4C11.33 2.14 9.8 1.5 8 1.5C6.2 1.5 4.66 2.13 3.4 3.4C2.14 4.67 1.5 6.19 1.5 8C1.5 9.81 2.13 11.34 3.4 12.6C4.67 13.86 6.19 14.5 8 14.5Z" fill="#444746"/>
</svg>
