<svg width="16" height="12" viewBox="0 0 16 12" fill="none" xmlns="http://www.w3.org/2000/svg">
<path d="M3.49994 8.70006H9.12494V6.67506H3.49994V8.70006ZM10.2499 8.70006H12.4999V3.30006H10.2499V8.70006ZM3.49994 5.32306H9.12494V3.30106H3.49994V5.32306ZM2.14794 11.3971C1.77794 11.3971 1.46094 11.2691 1.19494 11.0031C1.06774 10.8795 0.967164 10.7312 0.899406 10.5673C0.831648 10.4034 0.79814 10.2274 0.800944 10.0501V1.94506C0.80161 1.57573 0.932944 1.25806 1.19494 0.992061C1.46028 0.730728 1.77794 0.600728 2.14794 0.602061H13.8519C14.2219 0.602061 14.5389 0.730061 14.8049 0.996061C15.0669 1.26139 15.1983 1.57906 15.1989 1.94906V10.0551C15.1983 10.4251 15.0669 10.7427 14.8049 11.0081C14.5396 11.2687 14.2219 11.3987 13.8519 11.3981L2.14794 11.3971ZM2.14794 10.0501H13.8519V1.94906H2.14794V10.0501Z" fill="#444746"/>
</svg>
