<svg width="16" height="14" viewBox="0 0 16 14" fill="none" xmlns="http://www.w3.org/2000/svg">
<path d="M11.5701 0H4.43012C4.07012 0 3.74012 0.19 3.56012 0.5L0.130117 6.5C-0.0498828 6.81 -0.0498828 7.18 0.130117 7.49L3.56012 13.49C3.74012 13.81 4.07012 14 4.43012 14H11.5701C11.9301 14 12.2601 13.81 12.4401 13.5L15.8701 7.5C16.0501 7.19 16.0501 6.82 15.8701 6.51L12.4401 0.51C12.2601 0.19 11.9301 0 11.5701 0Z" fill="#5384EC"/>
<path d="M12.44 13.5L15.24 8.59L10.82 4.17C10.1 3.45 9.1 3 8 3C5.79 3 4 4.79 4 7C4 8.1 4.45 9.1 5.17 9.83L9.34 14H11.57C11.93 14 12.26 13.81 12.44 13.5Z" fill="#4E7BDD"/>
<path d="M10.1445 9.85651L10.8516 9.14941L12.4992 10.797L11.7921 11.5041L10.1445 9.85651Z" fill="white"/>
<path d="M8 3C5.79 3 4 4.79 4 7C4 9.21 5.79 11 8 11C10.21 11 12 9.21 12 7C12 4.79 10.21 3 8 3ZM8 10C6.35 10 5 8.65 5 7C5 5.35 6.35 4 8 4C9.65 4 11 5.35 11 7C11 8.65 9.65 10 8 10Z" fill="white"/>
<path d="M7.5 6V9.19C7.66 9.23 7.83 9.25 8 9.25C8.17 9.25 8.34 9.23 8.5 9.19V6H7.5ZM7 7H6V8.01C6.22 8.44 6.56 8.78 6.99 9H7V7ZM9 7.5V9H9.01C9.44 8.78 9.78 8.44 10 8.01V7.5H9Z" fill="white"/>
</svg>
