<svg width="14" height="12" viewBox="0 0 14 12" fill="none" xmlns="http://www.w3.org/2000/svg">
<path d="M0 6C0 7.8 0.8 9.4 2.05 10.5H0.5V12H4.5V8H3V9.32C2.09 8.5 1.5 7.32 1.5 6C1.5 4.05 2.76 2.4 4.5 1.78V0.2C1.91 0.86 0 3.21 0 6ZM11.95 1.5H13.5V0H9.5V4H11V2.68C11.91 3.5 12.5 4.67 12.5 6C12.5 7.95 11.24 9.6 9.5 10.22V11.8C12.09 11.13 14 8.79 14 6C14 4.2 13.2 2.6 11.95 1.5ZM6.25 2H7.75V7H6.25V2Z" fill="#444746"/>
<path d="M7 10C7.41421 10 7.75 9.66421 7.75 9.25C7.75 8.83579 7.41421 8.5 7 8.5C6.58579 8.5 6.25 8.83579 6.25 9.25C6.25 9.66421 6.58579 10 7 10Z" fill="#444746"/>
</svg>
