<svg width="18" height="18" viewBox="0 0 18 18" fill="none" xmlns="http://www.w3.org/2000/svg">
<path fill-rule="evenodd" clip-rule="evenodd" d="M17.9999 0.33C17.9548 0.205382 17.862 0.103781 17.742 0.0475266C17.622 -0.00872738 17.4846 -0.0150314 17.3599 0.03L11.9999 2L5.99994 0L0.339938 1.89C0.241434 1.92327 0.15575 1.98641 0.0948116 2.07065C0.0338727 2.15489 0.000709738 2.25603 -6.24321e-05 2.36V17.5C-0.0103959 17.5562 -0.0103959 17.6138 -6.24326e-05 17.67C0.0450687 17.7946 0.137832 17.8962 0.257841 17.9525C0.377849 18.0087 0.515283 18.015 0.639938 17.97L5.99994 16L11.9999 18L17.6599 16.11C17.7576 16.0755 17.8425 16.012 17.9033 15.928C17.964 15.8441 17.9977 15.7436 17.9999 15.64V0.5C18.0103 0.443804 18.0103 0.386196 17.9999 0.33ZM4.99994 14.24L1.99994 15.35V3.44L4.99994 2.44V14.24ZM10.9999 15.56L6.99994 14.23V2.44L10.9999 3.77V15.56ZM15.9999 14.56L12.9999 15.56V3.76L15.9999 2.65V14.56Z" fill="white"/>
</svg>
