<svg width="18" height="18" viewBox="0 0 18 18" fill="none" xmlns="http://www.w3.org/2000/svg">
<path d="M16 2V16H2V2H16ZM2 0C0.932859 0 0 0.932859 0 2V16C0 17.0672 0.932859 18 2 18H16C17.0672 18 18 17.0672 18 16V2C18 0.932859 17.0672 0 16 0H2ZM8.35714 11.5714H9.64286V6.42857H8.35714V11.5714ZM11 11.5714H12.2143V9.64286H14.1429V8.35714H12.2143V7.71429H14.7857V6.42857H11V11.5714ZM5.78571 9V10.2857H4.5V7.71429H7C7 7.00714 6.49286 6.42857 5.78571 6.42857H4.5C3.79286 6.42857 3.21429 7.00714 3.21429 7.71429V10.2857C3.21429 10.9929 3.79286 11.5714 4.5 11.5714H5.78571C6.49286 11.5714 7 10.9929 7 10.2857V9H5.78571Z" fill="#444746"/>
</svg>
