<?xml version="1.0" encoding="UTF-8" standalone="no"?>
<svg
        height="24px"
        viewBox="0 -960 960 960"
        width="24px"
        fill="#e8eaed"
        version="1.1"
        id="svg1"
        xmlns="http://www.w3.org/2000/svg">
    <defs
            id="defs1"/>
    <path
            d="m 247,-904 57,-56 343,343 c 15.33333,15.33333 23,34.33333 23,57 0,22.66667 -7.66667,41.66667 -23,57 l -190,190 c -15.33333,15.33333 -34.33333,23 -57,23 -22.66667,0 -41.66667,-7.66667 -57,-23 L 153,-503 c -15.33333,-15.33333 -23,-34.33333 -23,-57 0,-22.66667 7.66667,-41.66667 23,-57 l 190,-191 z m 153,153 -191,191 h 382 z m 360,471 c -22,0 -40.83333,-7.83333 -56.5,-23.5 C 687.83333,-319.16667 680,-338 680,-360 c 0,-14 4.16667,-29 12.5,-45 8.33333,-16 17.5,-31 27.5,-45 6,-8 12.33333,-16.33333 19,-25 6.66667,-8.66667 13.66667,-17 21,-25 7.33333,8 14.33333,16.33333 21,25 6.66667,8.66667 13,17 19,25 10,14 19.16667,29 27.5,45 8.33333,16 12.5,31 12.5,45 0,22 -7.83333,40.83333 -23.5,56.5 -15.66667,15.66667 -34.5,23.5 -56.5,23.5 z"
            id="path1"
    />
</svg>
