<svg width="12" height="17" viewBox="0 0 12 17" fill="none" xmlns="http://www.w3.org/2000/svg">
<path d="M5.99981 0.749756C7.06242 0.749756 7.95942 1.11545 8.69082 1.84685C9.42162 2.57825 9.78702 3.47525 9.78702 4.53785V6.00035H10.4251C10.8625 6.00035 11.2342 6.15335 11.5402 6.45935C11.8468 6.76595 12.0001 7.13795 12.0001 7.57535V14.9059C12.0001 15.3439 11.8468 15.7189 11.5402 16.0309C11.2342 16.3435 10.8625 16.4998 10.4251 16.4998H1.57452C1.13712 16.4998 0.765412 16.3435 0.459412 16.0309C0.152812 15.7189 -0.000488281 15.3439 -0.000488281 14.9059V7.57535C-0.000488281 7.13795 0.152812 6.76595 0.459412 6.45935C0.765412 6.15335 1.13712 6.00035 1.57452 6.00035H2.21261V4.53785C2.21261 3.47525 2.57802 2.57825 3.30882 1.84685C4.04022 1.11545 4.93721 0.749756 5.99981 0.749756ZM5.99981 2.32475C5.38721 2.32475 4.86522 2.54045 4.43382 2.97185C4.00302 3.40325 3.78761 3.92525 3.78761 4.53785V6.00035H8.21202V4.53785C8.21202 3.92525 7.99662 3.40325 7.56582 2.97185C7.13442 2.54045 6.61241 2.32475 5.99981 2.32475ZM1.57452 14.9248H10.4251V7.57535H1.57452V14.9248ZM5.99981 9.73085C5.57501 9.73085 5.21561 9.87785 4.92161 10.1719C4.62761 10.4659 4.48062 10.8253 4.48062 11.2501C4.48062 11.6749 4.62761 12.0343 4.92161 12.3283C5.21561 12.6223 5.57501 12.7693 5.99981 12.7693C6.42461 12.7693 6.78401 12.6223 7.07802 12.3283C7.37202 12.0343 7.51902 11.6749 7.51902 11.2501C7.51902 10.8253 7.37202 10.4659 7.07802 10.1719C6.78401 9.87785 6.42461 9.73085 5.99981 9.73085Z" fill="#001D35"/>
</svg>
