<svg width="16" height="12" viewBox="0 0 16 12" fill="none" xmlns="http://www.w3.org/2000/svg">
<path d="M8 10L11 7L8 4L6.938 5.062L8.125 6.25H5V7.75H8.125L6.938 8.938L8 10ZM1.5 12C1.08333 12 0.729333 11.854 0.438 11.562C0.146 11.2707 0 10.9167 0 10.5V1.5C0 1.08333 0.146 0.729334 0.438 0.438C0.729333 0.146 1.08333 0 1.5 0H6L8 2H14.5C14.9167 2 15.2707 2.146 15.562 2.438C15.854 2.72933 16 3.08333 16 3.5V10.5C16 10.9167 15.854 11.2707 15.562 11.562C15.2707 11.854 14.9167 12 14.5 12H1.5ZM1.5 10.5H14.5V3.5H1.5V10.5Z" fill="#444746"/>
</svg>
