<svg width="12" height="17" viewBox="0 0 12 17" fill="none" xmlns="http://www.w3.org/2000/svg">
<path d="M6.0003 0.749695C7.06291 0.749695 7.95991 1.11539 8.69131 1.84679C9.42211 2.57819 9.78751 3.47519 9.78751 4.53779V6.00029H10.4256C10.863 6.00029 11.2347 6.15329 11.5407 6.45929C11.8473 6.76589 12.0006 7.13789 12.0006 7.57529V14.9058C12.0006 15.3438 11.8473 15.7188 11.5407 16.0308C11.2347 16.3434 10.863 16.4997 10.4256 16.4997H1.57501C1.13761 16.4997 0.7659 16.3434 0.4599 16.0308C0.1533 15.7188 0 15.3438 0 14.9058V7.57529C0 7.13789 0.1533 6.76589 0.4599 6.45929C0.7659 6.15329 1.13761 6.00029 1.57501 6.00029H2.2131V4.53779C2.2131 3.47519 2.57851 2.57819 3.30931 1.84679C4.04071 1.11539 4.9377 0.749695 6.0003 0.749695ZM6.0003 2.32469C5.3877 2.32469 4.86571 2.54039 4.43431 2.97179C4.00351 3.40319 3.7881 3.92519 3.7881 4.53779V6.00029H8.21251V4.53779C8.21251 3.92519 7.99711 3.40319 7.56631 2.97179C7.13491 2.54039 6.6129 2.32469 6.0003 2.32469ZM1.57501 14.9247H10.4256V7.57529H1.57501V14.9247ZM6.0003 9.73079C5.5755 9.73079 5.2161 9.87779 4.9221 10.1718C4.6281 10.4658 4.48111 10.8252 4.48111 11.25C4.48111 11.6748 4.6281 12.0342 4.9221 12.3282C5.2161 12.6222 5.5755 12.7692 6.0003 12.7692C6.4251 12.7692 6.7845 12.6222 7.07851 12.3282C7.37251 12.0342 7.51951 11.6748 7.51951 11.25C7.51951 10.8252 7.37251 10.4658 7.07851 10.1718C6.7845 9.87779 6.4251 9.73079 6.0003 9.73079Z" fill="#001D35"/>
</svg>
