<svg width="33" height="33" viewBox="0 0 33 33" fill="none" xmlns="http://www.w3.org/2000/svg">
<path d="M21.2143 9.3873H21.1907C16.3114 9.4109 13.035 13.4416 11.5264 15.8459C8.3207 21.0552 6.6 22.3281 5.32714 22.3516C3.37071 22.4223 2.78143 18.5331 6.78857 13.1823C13.86 3.7302 8.9807 0.948771 8.6979 0.760201C5.32714 -1.45552 2.23929 1.65591 0 3.91877L2.52214 6.39377C5.30357 3.58877 6.12857 3.30591 6.765 3.7302C8.1321 4.62591 5.20929 9.4109 3.96 11.0845C-2.28643 19.4288 0.25929 25.8402 5.42143 25.8873C6.57643 25.8638 9.4521 26.0052 14.5436 17.7316C15.675 15.9402 18.0321 12.9466 21.2143 12.9231C23.5479 12.7816 24.5143 15.1388 24.8207 17.4488C22.77 17.7316 19.1871 18.7688 16.3114 22.4223C14.355 24.8973 13.5771 28.8573 15.9814 31.2616C19.7529 35.0566 23.8071 31.4738 23.9014 31.3795C28.0029 28.0795 28.4979 22.9645 28.5214 20.8666H33V17.3309H28.38C27.4607 9.2695 21.8979 9.3873 21.2143 9.3873ZM21.6621 28.6452C19.8471 30.1066 18.9279 29.2109 18.5036 28.7631C17.5843 27.8438 18.1029 25.8638 19.1164 24.5909C21.0964 22.0923 23.4771 21.2673 24.9621 20.9845C24.915 22.6109 24.4907 26.3588 21.6621 28.6452Z" fill="#444746"/>
</svg>
